<?xml version="1.0" encoding="UTF-8"?>
<svg width="169px" height="349px" viewBox="0 0 169 349" version="1.1" xmlns="http://www.w3.org/2000/svg" xmlns:xlink="http://www.w3.org/1999/xlink">
    <!-- Generator: Sketch 43.2 (39069) - http://www.bohemiancoding.com/sketch -->
    <title>Group</title>
    <desc>Created with Sketch.</desc>
    <defs></defs>
    <g id="Page-1" stroke="none" stroke-width="1" fill="none" fill-rule="evenodd">
        <g id="A4" transform="translate(-214.000000, -342.000000)" stroke-width="3">
            <g id="Group" transform="translate(215.000000, 344.000000)">
                <path d="M75.3671034,169.377923 C75.3671034,169.377923 78.8320717,133.666406 97.7765542,98.8939394 C116.721037,64.1214728 143.8015,43.7024238 143.8015,43.7024238 C143.834723,43.6771416 143.84265,43.7022371 143.825866,43.7425012 L117.640297,106.558587 L94.4745497,169.377923 L75.3671034,169.377923 Z" id="Path-37" stroke="#8CA35F" fill="#8CA35F"></path>
                <path d="M90,169.377923 C90,169.377923 73.4625344,105.532763 52.0007545,72.3581504 C30.5389746,39.1835374 0.678621239,36.9154728 0.678621239,36.9154728 C0.630814228,36.9113084 0.613682446,36.9470622 0.640527637,36.9956638 C0.640527637,36.9956638 19.6299449,71.341311 35.7378993,103.149926 C51.8458536,134.958541 67.6751606,169.377923 67.6751606,169.377923 L90,169.377923 Z" id="Path-37" stroke="#889F5C" fill="#8CA35F"></path>
                <path d="M75.3671034,169.377923 C75.3671034,169.377923 64.1639718,146.603384 47.6625652,134.12356 C31.1611587,121.643736 7.11109958,119.846107 7.11109958,119.846107 C7.06243173,119.842198 7.05267981,119.863636 7.10482178,119.906892 C7.10482178,119.906892 25.2623893,134.930685 34.0545656,144.61446 C42.8467418,154.298236 52.0007545,169.377923 52.0007545,169.377923 L75.3671034,169.377923 Z" id="Path-37" stroke="#8CA35F" fill="#8CA35F"></path>
                <path d="M74.6740164,169.590283 C74.6740164,169.590283 74.6740164,79.8633167 86.2090271,46.4345903 C93.3605185,17.3308857 111.963555,0.157579902 111.963555,0.157579902 C111.993234,0.1298018 112.01199,0.155396627 112.006927,0.201338329 L93.3605185,169.377923 L74.6740164,169.590283 Z" id="Path-37" stroke="#A2AE88" fill="#A2AE88"></path>
                <path d="M93.8393885,169.377923 C93.8393885,169.377923 106.828019,147.490654 125.324659,133.532047 C143.821298,119.573441 162.614648,119.574273 162.614648,119.574273 C162.661742,119.573813 162.664353,119.604472 162.62769,119.636526 C162.62769,119.636526 146.662838,133.532047 134.423006,147.824408 C122.183173,162.116768 121.360518,169.377923 121.360518,169.377923 L93.8393885,169.377923 Z" id="Path-37" stroke="#64985B" fill="#64985B"></path>
                <path d="M41.4086308,171.415687 C41.3987224,171.144449 41.6063708,170.92078 41.8923922,170.915759 L126.319682,169.433624 C126.596764,169.428759 126.808608,169.657518 126.795374,169.922702 C126.795374,169.922702 126.101167,181.39125 127.855422,189.256619 C130.105786,199.346341 133.699077,203.473576 136.350397,206.423892 C139.001717,209.374208 165.585114,231.185302 165.585114,276.054913 C165.585114,312.176482 121.898427,344.557612 121.898427,344.557612 C121.680523,344.722597 121.275322,344.856344 120.995448,344.856344 L51.3426706,344.856344 C51.0618733,344.856344 50.623534,344.768993 50.366493,344.6578 C50.366493,344.6578 11.7748628,329.40763 4.73994277,276.054913 C-1.0795913,244.663632 26.2624595,215.568742 31.4838623,206.423892 C33.738793,202.47457 38.4562816,196.116461 40.1770697,189.256619 C41.8978578,182.396778 41.4086308,171.415687 41.4086308,171.415687 Z" id="Path-36" stroke="#6A5B7A" fill="#6A5B7A"></path>
            </g>
        </g>
    </g>
</svg>