<?xml version="1.0" encoding="UTF-8"?>
<svg width="361px" height="503px" viewBox="0 0 361 503" version="1.1" xmlns="http://www.w3.org/2000/svg" xmlns:xlink="http://www.w3.org/1999/xlink">
    <!-- Generator: Sketch 43.2 (39069) - http://www.bohemiancoding.com/sketch -->
    <title>Group</title>
    <desc>Created with Sketch.</desc>
    <defs></defs>
    <g id="Page-1" stroke="none" stroke-width="1" fill="none" fill-rule="evenodd">
        <g id="A4" transform="translate(-117.000000, -188.000000)">
            <g id="Group" transform="translate(118.000000, 188.000000)">
                <g id="Pot">
                    <g id="Group-2">
                        <path d="M109.857348,350.365459 C109.311423,350.29979 109.304365,350.176463 109.861758,350.08871 C109.861758,350.08871 151.877422,343.164706 200.7483,343.164706 C249.619178,343.164706 287.707146,349.532499 287.707146,349.532499 C289.336294,349.785717 289.325476,350.15142 287.687673,350.345953 C287.687673,350.345953 229.195389,357.502179 199.711601,357.612727 C170.227812,357.723275 109.857348,350.365459 109.857348,350.365459 Z" id="Line" stroke="#BECBC5" stroke-width="3" fill="#D8D8D8" stroke-linecap="square"></path>
                        <path d="M275.465733,350.478989 C279.878119,350.478989 284.102915,279.060781 281.517657,224.096886 C278.932399,169.132991 272.504048,159.723821 269.642372,160.069204 C269.642372,160.069204 262.989918,163.004662 261.511158,160.069204 C260.032398,157.133746 266.875993,153.355292 265.712703,150.012769 C264.549413,146.670247 253.121402,120.688188 232.908134,87.1487889 C212.694867,53.6093902 193.406214,29.3462759 193.406214,29.3462759 C192.390712,28.0423729 191.827097,28.2950491 192.149889,29.937757 C192.149889,29.937757 197.005715,54.1780553 202.519971,87.1487889 C208.034227,120.119523 204.878643,122.919328 209.777167,140.883751 C224.966512,196.587846 245.247037,188.73217 250.740714,231.211073 C256.234391,273.689975 268.129189,350.478989 275.465733,350.478989 Z" id="Leaf-Three" stroke="#678F49" stroke-width="3" fill="#678F49" transform="translate(237.182841, 189.496708) scale(-1, 1) translate(-237.182841, -189.496708) "></path>
                        <path d="M358.091425,355.271159 C358.091425,355.271159 352.311062,253.681925 333.126571,227.503496 C333.126571,227.503496 324.341041,196.192077 288.255125,188.628198 C273.988757,183.888653 258.492621,196.318596 244.467516,205.260896 C229.453742,212.829892 221.770306,212.845793 211.774008,224.096886 C190.624958,250.967983 198.604088,301.35751 198.604088,301.35751 C198.683247,301.907271 198.721298,301.907576 198.699035,301.345024 C198.699035,301.345024 195.478874,260.644524 233.212448,237.303771 C257.71517,219.050206 286.579368,212.052408 303.624358,224.096886 C326.642001,240.361812 342.89193,322.876779 351.079966,355.271159 L358.091425,355.271159 Z" id="Leaf-Three" stroke="#8CA35F" stroke-width="3" fill="#8CA35F" transform="translate(277.609890, 271.427816) scale(-1, 1) translate(-277.609890, -271.427816) "></path>
                        <g id="Leaf-Four" transform="translate(16.995050, 0.000000)">
                            <path d="M178.5,354.341081 C178.5,354.341081 173.244195,179.1557 161.466567,124.49827 C149.688938,69.8408394 125.763737,50.947288 114.279722,39.2155473 C108.846657,33.6652837 97.3180704,28.0528132 85.0856872,21.0246477 C72.8533039,13.9964822 56.5049417,5.97374437 44.4719094,3.87643859 C21.6345823,-0.104009314 1.93327934,24.4667449 1.93327934,24.4667449 C0.845427919,25.7107417 1.04121619,25.9192084 2.39398931,24.9523564 C2.39398931,24.9523564 13.5478099,16.2782448 25.499472,13.0658959 C37.4511342,9.8535471 46.881244,12.8973504 53.0248799,14.8670365 C56.0663514,15.8421503 67.5240104,17.5156437 88.2568307,33.3212809 C108.989651,49.1269182 136.073601,69.8391486 136.073601,120.133093 C138.717853,160.577604 178.5,354.341081 178.5,354.341081 Z" stroke="#8CA35F" stroke-width="3" fill="#8CA35F"></path>
                            <path d="M133.452996,101.413077 C133.452996,101.413077 133.134252,83.6087839 130.880155,69.8911711 C128.626058,56.1735583 125.357091,52.7238946 123.289863,47.3310895 C121.222634,41.9382844 106.493321,28.5892151 85.0019064,17.3870728 C63.5104913,6.18493053 50.0124416,0.776929566 36.7842773,0.776929566 C23.556113,0.776929566 -2.23811243,22.0110498 0.636140079,25.9414302 C3.51039259,29.8718106 20.9433701,15.0689641 31.6594944,13.8624237 C42.3756187,12.6558833 60.1053078,19.2457302 60.1053078,19.2457302 C60.1053078,19.2457302 88.8788923,34.0873192 106.784165,51.9892452 C107.243326,52.4483198 107.696474,52.916351 108.143618,53.3925775 C125.133138,71.4871291 133.452996,101.413077 133.452996,101.413077 Z" id="Line" stroke="#678F49" fill="#678F49" stroke-linecap="square"></path>
                        </g>
                        <g id="Leaf-Two" transform="translate(0.000000, 94.262976)" stroke-linecap="square">
                            <path d="M194.22751,259.459299 C202.569511,258.821029 162.537577,65.8062284 162.537577,65.8062284 C151.625424,43.0374096 144.459727,24.8438869 119.984083,13.5949296 C95.5084391,2.34597217 82.382484,1.06056587 72.8001386,4.18235709 C63.1328893,7.33180882 56.8636353,16.9897536 46.0702027,23.0059389 C35.2767701,29.0221242 23.147025,23.4809525 13.8070055,40.3095577 C-8.09166695,99.5380165 6.07853695,158.49919 6.07853695,158.49919 C6.42251706,160.114645 6.693122,160.080426 6.70526859,158.431907 C6.70526859,158.431907 5.6488766,108.069359 27.2159925,77.8347585 C48.7831085,47.6001582 111.245717,91.1756872 119.984083,120.083077 C128.722449,148.990467 181.74625,260.414276 194.22751,259.459299 Z" stroke="#678F49" stroke-width="3" fill="#678F49"></path>
                            <path d="M43.9674161,21.2281215 C37.5463887,24.8533512 29.1155669,24.2519301 23.7331155,26.9767665 C18.3506642,29.7016029 15.8825299,30.8894158 12.7012586,37.3234026 C9.51998728,43.7573894 3.98717161,58.8820964 1.35409249,84.1037532 C-1.27898662,109.32541 0.586693392,161.065655 5.78399441,161.065655 C10.9812954,161.065655 9.96336342,129.018083 15.8825299,106.295047 C21.8016964,83.5720115 33.3734672,74.5514428 33.3734672,74.5514428 C33.3734672,74.5514428 54.8282149,48.1611876 78.0530692,34.9179202 C101.277923,21.6746529 121.975034,12.2933642 121.975034,12.2933642 C122.472211,12.0653033 122.456581,11.7116684 121.950928,11.5101869 C121.950928,11.5101869 90.0398285,-1.51142627 78.0530692,0.426608361 C66.0663098,2.36464299 59.4303125,12.4979685 43.9674161,21.2281215 Z" id="Line" stroke="#8CA35F" fill="#8CA35F"></path>
                        </g>
                        <g id="Leaf-One" transform="translate(23.103960, 200.975779)">
                            <path d="M174.891182,154.292638 C174.891182,154.292638 169.624313,52.8871259 150.439822,26.7086971 C150.439822,26.7086971 139.532368,14.581567 117.844106,7.0745328 C96.1558449,-0.432501431 66.9342359,7.0745328 66.9342359,7.0745328 C41.3956534,14.6632278 38.9247182,21.3181119 29.4757517,33.7753781 C25.5334277,38.9728332 20.3764041,45.1803371 11.8225237,52.8871259 C-10.0761488,112.115585 14.8935848,169.73494 14.8935848,169.73494 C15.504012,171.272551 16.3779185,171.231212 16.8581254,169.652692 C16.8581254,169.652692 28.8721816,127.252253 50.4392975,97.0176524 C72.0064135,66.783052 92.8370913,52.8871259 92.8370913,52.8871259 C92.8370913,52.8871259 117.844106,68.1102625 126.582472,97.0176524 C135.320838,125.925042 161.24977,154.292638 161.24977,154.292638 L174.891182,154.292638 Z" id="Path-2" stroke="#678F49" stroke-width="3" fill="#678F49"></path>
                            <path d="M93.3044554,54.2456747 C93.3044554,54.2456747 106.542062,42.7910786 117.131899,36.2698255 C127.721736,29.7485724 148.296221,22.0915867 148.296221,22.0915867 C148.296221,22.0915867 131.332029,1.57232913 97.9039372,0.511170271 C64.4758452,-0.549988587 41.3076866,16.2032989 41.3076866,16.2032989 C41.3076866,16.2032989 34.4170278,22.0915867 25.027549,36.2698255 C16.663498,45.2233132 13.8180516,44.517693 9.82097199,51.0675588 C6.48199448,56.5390171 0.489009496,74.6053486 0.413029009,101.699619 C0.337048523,128.793889 9.88246964,171.782738 15.4965114,171.782738 C21.2197919,171.782738 24.1953912,157.347578 30.3214952,140.208422 C36.4475992,123.069267 42.6267853,111.228341 50.6910106,100.681575 C65.7944663,77.8731535 93.3044554,54.2456747 93.3044554,54.2456747 Z" id="Line" stroke="#8CA35F" fill="#8CA35F" stroke-linecap="square"></path>
                        </g>
                        <path d="M110.847415,350.646417 C109.225902,350.329599 107.74571,351.413496 107.57076,353.049511 C107.57076,353.049511 102.551696,388.156359 114.236813,426.70134 C125.92193,465.246322 152.839517,499.490938 152.839517,499.490938 C153.175556,499.927525 153.893348,500.281449 154.451389,500.281449 L243.17429,500.281449 C243.728464,500.281449 244.431192,499.91386 244.744977,499.453492 C244.744977,499.453492 268.74517,465.087736 279.752048,428.184632 C290.758926,391.281529 289.012716,351.058383 289.012716,351.058383 C288.994425,350.514043 288.533954,350.161357 288.006008,350.263859 C288.006008,350.263859 247.804522,358.466748 197.851025,358.466748 C147.897529,358.466748 110.847415,350.646417 110.847415,350.646417 Z" id="Path" stroke="#BECBC5" stroke-width="4" fill="#BECBC5"></path>
                        <path d="M106.440314,400.255718 C106.440314,400.255718 131.064714,432.727602 167.746942,459.311869 C204.429169,485.896137 243.480106,502.378187 243.480106,502.378187 L153.495391,502.378187 C152.386995,502.378187 150.953588,501.64782 150.314585,500.766884 C150.314585,500.766884 129.289933,472.361062 118.896923,449.125819 C108.503912,425.890576 106.440314,400.255718 106.440314,400.255718 Z" id="Line" fill="#13314D"></path>
                    </g>
                </g>
            </g>
        </g>
    </g>
</svg>