<?xml version="1.0" encoding="UTF-8"?>
<svg width="279px" height="469px" viewBox="0 0 279 469" version="1.1" xmlns="http://www.w3.org/2000/svg" xmlns:xlink="http://www.w3.org/1999/xlink">
    <!-- Generator: Sketch 43.2 (39069) - http://www.bohemiancoding.com/sketch -->
    <title>Group</title>
    <desc>Created with Sketch.</desc>
    <defs>
        <rect id="path-1" x="69.971831" y="362.136929" width="124.394366" height="29.1286307" rx="2"></rect>
    </defs>
    <g id="Page-1" stroke="none" stroke-width="1" fill="none" fill-rule="evenodd">
        <g id="A4" transform="translate(-158.000000, -224.000000)">
            <g id="Group" transform="translate(160.000000, 224.000000)">
                <path d="M116.687059,141.877448 C116.687059,141.877448 95.2186203,125.85774 81.3943934,121.183093 C67.5701665,116.508447 42.0533649,116.64015 42.0533649,116.64015" id="Path-42" stroke="#64985B" stroke-width="3" transform="translate(79.370212, 129.258611) rotate(-24.000000) translate(-79.370212, -129.258611) "></path>
                <path d="M168.11642,79.8087111 C168.11642,79.8087111 194.602779,70.8313033 206.961407,69.7185176 C219.320035,68.6057319 235.484407,73.7428166 235.484407,73.7428166" id="Path-43" stroke="#64985B" stroke-width="3"></path>
                <ellipse id="Oval" fill="#D98444" cx="197.28169" cy="73.7634855" rx="16.5211268" ry="14.5643154"></ellipse>
                <ellipse id="Oval" fill="#D98444" cx="84.5492958" cy="196.103734" rx="16.5211268" ry="14.5643154"></ellipse>
                <ellipse id="Oval" fill="#D98444" cx="237.126761" cy="169.887967" rx="17.4929577" ry="15.5352697"></ellipse>
                <path d="M131.363554,366.590511 C131.363554,366.590511 134.112676,194.117909 134.112676,177.216291 C134.112676,160.314673 131.186333,112.669478 128.74616,107.633278 C123.06653,100.092202 117.471963,94.2381299 109.51205,79.1046843 C101.552137,63.9712388 91.4906496,46.5737649 91.4906496,46.5737649" id="Path-39" stroke="#64985B" stroke-width="3" stroke-linecap="round"></path>
                <path d="M15.7066575,91.8857211 C14.2661289,91.8857211 6.51273033,78.1884797 12.0493501,64.497226 C19.1405303,49.9773923 37.4436422,51.9444029 37.4436422,51.9444029 C37.5523426,51.9541914 37.6294567,52.0451579 37.6125121,52.1679662 C37.6125121,52.1679662 36.0084052,64.7984449 30.3486022,75.1003369 C24.6887991,85.4022288 17.1471861,91.8857211 15.7066575,91.8857211 Z" id="Path-40" stroke="#64985B" stroke-width="3" fill="#64985B" transform="translate(23.848046, 71.870365) scale(-1, 1) rotate(68.000000) translate(-23.848046, -71.870365) "></path>
                <path d="M233.594889,155.198426 C232.15436,155.198426 227.710181,147.447343 229.937581,127.809931 C237.028761,113.290097 258.110672,118.34185 258.110672,118.34185 C258.212852,118.364857 258.269809,118.46966 258.240358,118.565715 C258.240358,118.565715 254.957991,129.758374 247.863422,138.405379 C240.768853,147.052383 235.035417,155.198426 233.594889,155.198426 Z" id="Path-40" stroke="#64985B" stroke-width="3" fill="#64985B" transform="translate(243.785984, 136.344870) rotate(78.000000) translate(-243.785984, -136.344870) "></path>
                <path d="M102.507357,159.07564 C101.066829,159.07564 96.3649376,146.296779 102.507357,131.589296 C108.649777,116.881813 126.665145,120.198468 126.665145,120.198468 C126.772033,120.216184 126.83887,120.317038 126.813974,120.423049 C126.813974,120.423049 123.870459,133.635589 116.77589,142.282594 C109.681322,150.929598 103.947886,159.07564 102.507357,159.07564 Z" id="Path-40" stroke="#64985B" stroke-width="3" fill="#64985B" transform="translate(113.123698, 139.476837) scale(-1, 1) rotate(26.000000) translate(-113.123698, -139.476837) "></path>
                <path d="M60.729012,47.6496204 C60.729012,47.6496204 63.3814314,29.822707 71.6349947,19.216195 C79.8885581,8.60968305 91.0097994,8.50982502 91.0097994,8.50982502 C91.1097099,8.50651186 91.1894514,8.59162605 91.1874356,8.69933039 C91.1874356,8.69933039 91.0047276,28.0812756 83.9101589,36.7282802 C76.8155902,45.3752848 60.729012,47.6496204 60.729012,47.6496204 Z" id="Path-40" stroke="#8CA35F" stroke-width="3" fill="#8CA35F" transform="translate(75.958242, 28.079676) scale(-1, 1) translate(-75.958242, -28.079676) "></path>
                <path d="M214.735835,170.386416 C214.735835,170.386416 217.388254,152.559502 225.641818,141.95299 C233.895381,131.346478 245.016622,131.24662 245.016622,131.24662 C245.116533,131.243307 245.196274,131.328421 245.194258,131.436126 C245.194258,131.436126 245.011551,150.818071 237.916982,159.465075 C230.822413,168.11208 214.735835,170.386416 214.735835,170.386416 Z" id="Path-40" stroke="#64985B" stroke-width="3" fill="#64985B" transform="translate(229.965065, 150.816471) scale(-1, 1) rotate(-171.000000) translate(-229.965065, -150.816471) "></path>
                <path d="M26.1806447,170.386104 C26.1806447,170.386104 28.8330641,152.559191 37.0866274,141.952679 C45.3401908,131.346167 56.4614321,131.246309 56.4614321,131.246309 C56.5613426,131.242995 56.6410841,131.32811 56.6390682,131.435814 C56.6390682,131.435814 56.4563603,150.817759 49.3617916,159.464764 C42.2672229,168.111768 26.1806447,170.386104 26.1806447,170.386104 Z" id="Path-40" stroke="#64985B" stroke-width="3" fill="#64985B" transform="translate(41.409875, 150.816160) scale(-1, 1) rotate(-242.000000) translate(-41.409875, -150.816160) "></path>
                <path d="M69.9666112,176.006557 C69.9666112,176.006557 72.6190306,158.179643 80.8725939,147.573131 C89.1261572,136.966619 100.247399,136.866761 100.247399,136.866761 C100.347309,136.863448 100.427051,136.948562 100.425035,137.056267 C100.425035,137.056267 100.242327,156.438212 93.1477581,165.085217 C86.0531894,173.732221 69.9666112,176.006557 69.9666112,176.006557 Z" id="Path-40" stroke="#64985B" stroke-width="3" fill="#64985B" transform="translate(85.195842, 156.436612) scale(-1, 1) rotate(14.000000) translate(-85.195842, -156.436612) "></path>
                <path d="M34.0273732,110.810895 C34.0273732,110.810895 36.6797925,92.9839818 44.9333559,82.3774698 C53.1869192,71.7709579 64.3081605,71.6710998 64.3081605,71.6710998 C64.4080711,71.6677867 64.4878125,71.7529009 64.4857967,71.8606052 C64.4857967,71.8606052 64.3030887,91.2425504 57.20852,99.889555 C50.1139513,108.53656 34.0273732,110.810895 34.0273732,110.810895 Z" id="Path-40" stroke="#64985B" stroke-width="3" fill="#64985B" transform="translate(49.256604, 91.240951) scale(-1, 1) rotate(-97.000000) translate(-49.256604, -91.240951) "></path>
                <path d="M40.4452768,125.025671 C40.4452768,125.025671 43.0976961,107.198758 51.3512595,96.5922459 C59.6048228,85.985734 70.7260641,85.885876 70.7260641,85.885876 C70.8259747,85.8825628 70.9057161,85.967677 70.9037003,86.0753813 C70.9037003,86.0753813 70.7209923,105.457327 63.6264236,114.104331 C56.5318549,122.751336 40.4452768,125.025671 40.4452768,125.025671 Z" id="Path-40" stroke="#8CA35F" stroke-width="3" fill="#8CA35F" transform="translate(55.674507, 105.455727) scale(-1, 1) rotate(-60.000000) translate(-55.674507, -105.455727) "></path>
                <path d="M144.30272,230.164086 C144.30272,230.164086 163.474479,217.517515 167.470447,208.957818 C171.466414,200.398121 173.192506,182.236578 173.192506,182.236578 C173.219661,181.967489 173.03295,181.838402 172.780732,181.948737 C172.780732,181.948737 156.880533,188.546388 150.529847,199.171057 C144.17916,209.795726 144.30272,230.164086 144.30272,230.164086 Z" id="Oval-2" stroke="#64985B" stroke-width="3" fill="#64985B" transform="translate(158.748839, 206.036688) rotate(25.000000) translate(-158.748839, -206.036688) "></path>
                <path d="M135.659861,87.0208017 C135.659861,87.0208017 149.356732,77.9857179 152.211569,71.8704174 C155.066407,65.755117 156.285416,52.914955 156.285416,52.914955 C156.312638,52.6481624 156.12966,52.5197888 155.883459,52.6285315 C155.883459,52.6285315 144.645822,57.2878888 140.108704,64.8784661 C135.571586,72.4690433 135.659861,87.0208017 135.659861,87.0208017 Z" id="Oval-2" stroke="#8CA35F" stroke-width="3" fill="#8CA35F" transform="translate(145.973919, 69.805323) rotate(-33.000000) translate(-145.973919, -69.805323) "></path>
                <path d="M94.372423,49.6841498 C92.9318944,49.6841498 88.4877152,41.9330675 90.7151156,22.2956547 C97.8062957,7.77582095 118.888206,12.8275743 118.888206,12.8275743 C118.990386,12.8505814 119.047344,12.9553839 119.017892,13.0514394 C119.017892,13.0514394 115.735525,24.2440983 108.640956,32.8911029 C101.546388,41.5381074 95.8129516,49.6841498 94.372423,49.6841498 Z" id="Path-40" stroke="#64985B" stroke-width="3" fill="#64985B"></path>
                <path d="M132.097654,147.045737 C132.097654,147.045737 116.986785,107.858371 97.6585601,91.0899076 C78.3303348,74.3214441 46.0651966,72.4071145 46.0651966,72.4071145" id="Path-42" stroke="#64985B" stroke-width="3"></path>
                <path d="M74.0217263,196.252896 C74.0217796,196.304649 74.0612014,196.320497 74.1095823,196.288276 C74.1095823,196.288276 87.718694,187.311518 90.5735313,181.196218 C93.4283686,175.080918 94.6473781,162.240756 94.6473781,162.240756 C94.6746,161.973963 94.4916217,161.845589 94.2454212,161.954332 C94.2454212,161.954332 83.0077844,166.613689 78.4706662,174.204267 C73.9335479,181.794844 74.0217263,196.252896 74.0217263,196.252896 Z" id="Oval-2" stroke="#64985B" stroke-width="3" fill="#64985B" transform="translate(84.335833, 179.110305) rotate(219.000000) translate(-84.335833, -179.110305) "></path>
                <path d="M191.080355,164.08394 C191.080408,164.135693 191.11983,164.151542 191.168211,164.119321 C191.168211,164.119321 204.777323,155.142563 207.63216,149.027262 C210.486997,142.911962 211.706007,130.0718 211.706007,130.0718 C211.733229,129.805007 211.55025,129.676634 211.30405,129.785376 C211.30405,129.785376 200.066413,134.444734 195.529295,142.035311 C190.992177,149.625888 191.080355,164.08394 191.080355,164.08394 Z" id="Oval-2" stroke="#8CA35F" stroke-width="3" fill="#8CA35F" transform="translate(201.394462, 146.941349) rotate(264.000000) translate(-201.394462, -146.941349) "></path>
                <path d="M177.391004,135.935008 C177.391156,135.986669 177.435632,136.016323 177.490243,136.001057 C177.490243,136.001057 192.782492,131.850308 199.378439,123.985632 C205.974387,116.120955 206.377512,101.938396 206.377512,101.938396 C206.390105,101.662936 206.191356,101.502927 205.921104,101.586944 C205.921104,101.586944 190.021654,106.269281 183.633485,113.886213 C177.245316,121.503145 177.391004,135.935008 177.391004,135.935008 Z" id="Oval-2" stroke="#64985B" stroke-width="3" fill="#64985B" transform="translate(191.884403, 118.784806) rotate(178.000000) translate(-191.884403, -118.784806) "></path>
                <path d="M8.34839673,154.15853 C8.34854812,154.210192 8.39302418,154.239845 8.44763547,154.22458 C8.44763547,154.22458 23.7398848,150.073831 30.335832,142.209154 C36.9317793,134.344478 37.3349045,120.161918 37.3349045,120.161918 C37.3474976,119.886458 37.1487488,119.726449 36.8784961,119.810467 C36.8784961,119.810467 20.9790466,124.492804 14.5908776,132.109736 C8.20270868,139.726668 8.34839673,154.15853 8.34839673,154.15853 Z" id="Oval-2" stroke="#8CA35F" stroke-width="3" fill="#8CA35F" transform="translate(22.841795, 137.008329) rotate(392.000000) translate(-22.841795, -137.008329) "></path>
                <path d="M172.527713,173.579501 C172.527745,173.633169 172.562634,173.653563 172.605468,173.625036 C172.605468,173.625036 184.654227,165.677509 187.181742,160.263359 C189.709258,154.849208 190.782243,143.540178 190.782243,143.540178 C190.809801,143.271422 190.632435,143.139305 190.379624,143.25141 C190.379624,143.25141 180.483447,147.35279 176.466532,154.07307 C172.449617,160.793349 172.527713,173.579501 172.527713,173.579501 Z" id="Oval-2" stroke="#8CA35F" stroke-width="3" fill="#8CA35F" transform="translate(181.656333, 158.424667) rotate(304.000000) translate(-181.656333, -158.424667) "></path>
                <path d="M227.825547,103.887587 C227.825579,103.941255 227.860469,103.961649 227.903302,103.933122 C227.903302,103.933122 239.952061,95.985595 242.479577,90.5714446 C245.007092,85.1572942 246.080077,73.8482643 246.080077,73.8482643 C246.107635,73.5795076 245.930269,73.447391 245.677459,73.5594958 C245.677459,73.5594958 235.781281,77.6608764 231.764366,84.3811557 C227.747451,91.101435 227.825547,103.887587 227.825547,103.887587 Z" id="Oval-2" stroke="#64985B" stroke-width="3" fill="#64985B" transform="translate(236.954167, 88.732753) rotate(304.000000) translate(-236.954167, -88.732753) "></path>
                <path d="M18.2830326,135.013869 C18.2830647,135.067537 18.3179544,135.087931 18.3607882,135.059405 C18.3607882,135.059405 30.4095466,127.111877 32.9370624,121.697727 C35.4645782,116.283577 36.5375632,104.974547 36.5375632,104.974547 C36.5651207,104.70579 36.387755,104.573673 36.1349444,104.685778 C36.1349444,104.685778 26.2387666,108.787159 22.2218518,115.507438 C18.2049371,122.227717 18.2830326,135.013869 18.2830326,135.013869 Z" id="Oval-2" stroke="#64985B" stroke-width="3" fill="#64985B" transform="translate(27.411653, 119.859036) rotate(431.000000) translate(-27.411653, -119.859036) "></path>
                <path d="M144.106101,128.956309 C144.106101,128.956309 159.701224,118.669051 162.951713,111.70623 C166.202203,104.743409 167.595835,90.0698807 167.595835,90.0698807 C167.623693,89.7958519 167.435114,89.6640883 167.196707,89.7689756 C167.196707,89.7689756 154.337428,95.1027065 149.17151,103.745263 C144.005592,112.38782 144.106101,128.956309 144.106101,128.956309 Z" id="Oval-2" stroke="#64985B" stroke-width="3" fill="#64985B" transform="translate(155.852265, 109.344658) rotate(27.000000) translate(-155.852265, -109.344658) "></path>
                <path d="M241.313655,97.9485597 C241.313655,97.9485597 256.908778,87.6613022 260.159268,80.6984812 C263.409757,73.7356603 264.80339,59.0621318 264.80339,59.0621318 C264.831247,58.788103 264.642668,58.6563394 264.404262,58.7612267 C264.404262,58.7612267 251.544983,64.0949576 246.379065,72.7375142 C241.213146,81.3800708 241.313655,97.9485597 241.313655,97.9485597 Z" id="Oval-2" stroke="#64985B" stroke-width="3" fill="#64985B" transform="translate(253.059820, 78.336909) rotate(76.000000) translate(-253.059820, -78.336909) "></path>
                <path d="M162.518379,52.977988 C162.518379,52.977988 179.977804,41.4609519 183.616869,33.6657684 C187.255935,25.8705849 188.824114,9.36709469 188.824114,9.36709469 C188.850913,9.10218793 188.659999,8.97830516 188.4203,9.08342418 C188.4203,9.08342418 173.972799,15.0773954 168.189327,24.7531166 C162.405855,34.4288378 162.518379,52.977988 162.518379,52.977988 Z" id="Oval-2" stroke="#8CA35F" stroke-width="3" fill="#8CA35F" transform="translate(175.672425, 31.012041) rotate(-64.000000) translate(-175.672425, -31.012041) "></path>
                <path d="M203.235608,36.9600433 C203.235608,36.9600433 219.338271,34.0676032 222.969721,25.8423954 C226.601172,17.6171876 222.157734,1.60600952 222.157734,1.60600952 C222.086996,1.33842155 221.858479,1.26200775 221.641012,1.44326448 C221.641012,1.44326448 213.191172,8.26484098 208.654053,15.8554183 C204.116935,23.4459956 203.235608,36.9600433 203.235608,36.9600433 Z" id="Oval-2" stroke="#64985B" stroke-width="3" fill="#64985B" transform="translate(213.816353, 19.152285) rotate(6.000000) translate(-213.816353, -19.152285) "></path>
                <path d="M129.538119,106.015587 C129.538119,106.015587 153.159862,91.7584135 175.424745,73.4214113 C197.689628,55.0844092 201.344149,36.1798758 201.344149,36.1798758" id="Path-41" stroke="#64985B" stroke-width="3"></path>
                <ellipse id="Oval" fill="#D98444" cx="109.816901" cy="112.60166" rx="16.5211268" ry="14.5643154"></ellipse>
                <ellipse id="Oval" fill="#D98444" cx="59.999363" cy="135.904564" rx="18.5862676" ry="16.5062241"></ellipse>
                <path d="M134.041316,220.838268 C134.041316,220.838268 125.531223,196.266237 118.723397,185.504705 C111.91557,174.743172 103.405477,172.410396 103.405477,172.410396" id="Path-42" stroke="#64985B" stroke-width="3"></path>
                <path d="M210.425991,185.99435 C210.425991,185.99435 201.915898,161.422318 195.108071,150.660786 C188.300244,139.899253 180.042311,135.516708 180.042311,135.516708 L148.056333,112.410154" id="Path-42" stroke="#64985B" stroke-width="3" transform="translate(179.241162, 149.202252) scale(-1, 1) rotate(-25.000000) translate(-179.241162, -149.202252) "></path>
                <polygon id="Path-38" stroke="#7F8F85" stroke-width="4" fill="#7F8F85" points="82.7608409 387.531328 96.452426 466.761345 168.817178 466.761345 179.99722 388.444859"></polygon>
                <g id="Rectangle-13">
                    <use fill="#576660" fill-rule="evenodd" xlink:href="#path-1"></use>
                    <rect stroke="#576660" stroke-width="4" x="71.971831" y="364.136929" width="120.394366" height="25.1286307" rx="2"></rect>
                </g>
            </g>
        </g>
    </g>
</svg>