<?xml version="1.0" encoding="UTF-8"?>
<svg width="118px" height="249px" viewBox="0 0 118 249" version="1.1" xmlns="http://www.w3.org/2000/svg" xmlns:xlink="http://www.w3.org/1999/xlink">
    <!-- Generator: Sketch 43.2 (39069) - http://www.bohemiancoding.com/sketch -->
    <title>Group 5</title>
    <desc>Created with Sketch.</desc>
    <defs>
        <path d="M7.39591337,36.8040641 L110.035342,36.8040641 L103.318679,132.215787 C103.241318,133.314706 102.286468,134.205556 101.180854,134.205556 L16.4910665,134.205556 C15.3877388,134.205556 14.4275856,133.303516 14.3483256,132.215787 L7.39591337,36.8040641 Z" id="path-1"></path>
        <linearGradient x1="50%" y1="100%" x2="50%" y2="0%" id="linearGradient-2">
            <stop stop-color="#1A3C5B" offset="0%"></stop>
            <stop stop-color="#13314D" offset="100%"></stop>
        </linearGradient>
    </defs>
    <g id="Page-1" stroke="none" stroke-width="1" fill="none" fill-rule="evenodd">
        <g id="A4" transform="translate(-239.000000, -441.000000)">
            <g id="Group-5" transform="translate(239.000000, 442.000000)">
                <g id="Group-4">
                    <path d="M59.7074252,118.675439 L59.7074252,21.8421053" id="Line" stroke="#8CA35F" stroke-width="5" stroke-linecap="round"></path>
                    <path d="M97.5653458,118.675439 L97.5653458,37.8596491" id="Line" stroke="#8CA35F" stroke-width="5" stroke-linecap="round"></path>
                    <path d="M21.9817592,118.675439 L21.9817592,37.8596491" id="Line" stroke="#8CA35F" stroke-width="5" stroke-linecap="round"></path>
                    <g id="Group" transform="translate(0.000000, 113.578947)">
                        <g id="Rectangle-4">
                            <use fill="#13314D" fill-rule="evenodd" xlink:href="#path-1"></use>
                            <path stroke="#13314D" stroke-width="4" d="M9.54695097,38.8040641 L107.8896,38.8040641 L101.323616,132.075342 C101.31996,132.127271 101.235912,132.205556 101.180854,132.205556 L16.4910665,132.205556 C16.440804,132.205556 16.3464769,132.117646 16.3430369,132.070438 L9.54695097,38.8040641 Z"></path>
                        </g>
                        <rect id="Rectangle" fill="url(#linearGradient-2)" x="0" y="0" width="118" height="42.2280702"></rect>
                    </g>
                    <path d="M51.7609019,20.0363211 C51.7609019,20.0363211 50.66427,11.3225165 54.4430494,7.12762865 C58.2218288,2.93274085 67.0854424,3.12037216 67.0854424,3.12037216 C67.0854424,3.12037216 67.9378489,11.3841855 63.7012409,16.0873167 C59.464633,20.7904478 51.7609019,20.0363211 51.7609019,20.0363211 Z" id="Path-8" stroke="#8CA35F" fill="#8CA35F" transform="translate(59.384308, 11.599946) rotate(-42.000000) translate(-59.384308, -11.599946) "></path>
                    <path d="M62.7679387,65.1779201 C62.7679387,65.1779201 62.4904001,56.8632481 66.2691795,52.6683603 C70.0479589,48.4734725 78.0924792,48.2619712 78.0924792,48.2619712 C78.0924792,48.2619712 78.3949572,55.571067 74.1583493,60.2741982 C69.9217413,64.9773293 62.7679387,65.1779201 62.7679387,65.1779201 Z" id="Path-8" stroke="#8CA35F" fill="#8CA35F" transform="translate(70.430294, 56.719946) rotate(1.000000) translate(-70.430294, -56.719946) "></path>
                    <path d="M62.7679387,91.3884464 C62.7679387,91.3884464 62.4904001,83.0737744 66.2691795,78.8788866 C70.0479589,74.6839988 78.0924792,74.4724975 78.0924792,74.4724975 C78.0924792,74.4724975 78.3949572,81.7815933 74.1583493,86.4847245 C69.9217413,91.1878556 62.7679387,91.3884464 62.7679387,91.3884464 Z" id="Path-8" stroke="#8CA35F" fill="#8CA35F" transform="translate(70.430294, 82.930472) rotate(1.000000) translate(-70.430294, -82.930472) "></path>
                    <g id="Group-2" transform="translate(40.790123, 24.298246)" stroke="#8CA35F" fill="#8CA35F">
                        <path d="M21.9778152,17.5814288 C21.9778152,17.5814288 21.7002767,9.26675688 25.479056,5.07186908 C29.2578354,0.876981277 37.3023557,0.665479926 37.3023557,0.665479926 C37.3023557,0.665479926 37.6048338,7.97457579 33.3682258,12.6777069 C29.1316179,17.3808381 21.9778152,17.5814288 21.9778152,17.5814288 Z" id="Path-8" transform="translate(29.640170, 9.123454) rotate(1.000000) translate(-29.640170, -9.123454) "></path>
                        <path d="M0.604397913,17.4639106 C0.604397913,17.4639106 0.326859365,9.1492387 4.10563876,4.9543509 C7.88441815,0.759463092 15.9289384,0.547961741 15.9289384,0.547961741 C15.9289384,0.547961741 16.2314165,7.8570576 11.9948085,12.5601887 C7.75820058,17.2633199 0.604397913,17.4639106 0.604397913,17.4639106 Z" id="Path-8" transform="translate(8.266753, 9.005936) scale(-1, 1) rotate(1.000000) translate(-8.266753, -9.005936) "></path>
                    </g>
                    <g id="Group-2" transform="translate(2.913580, 35.947368)" stroke="#8CA35F" fill="#8CA35F">
                        <path d="M21.9778152,17.5814288 C21.9778152,17.5814288 21.7002767,9.26675688 25.479056,5.07186908 C29.2578354,0.876981277 37.3023557,0.665479926 37.3023557,0.665479926 C37.3023557,0.665479926 37.6048338,7.97457579 33.3682258,12.6777069 C29.1316179,17.3808381 21.9778152,17.5814288 21.9778152,17.5814288 Z" id="Path-8" transform="translate(29.640170, 9.123454) rotate(1.000000) translate(-29.640170, -9.123454) "></path>
                        <path d="M0.604397913,17.4639106 C0.604397913,17.4639106 0.326859365,9.1492387 4.10563876,4.9543509 C7.88441815,0.759463092 15.9289384,0.547961741 15.9289384,0.547961741 C15.9289384,0.547961741 16.2314165,7.8570576 11.9948085,12.5601887 C7.75820058,17.2633199 0.604397913,17.4639106 0.604397913,17.4639106 Z" id="Path-8" transform="translate(8.266753, 9.005936) scale(-1, 1) rotate(1.000000) translate(-8.266753, -9.005936) "></path>
                    </g>
                    <g id="Group-2" transform="translate(2.913580, 59.245614)" stroke="#8CA35F" fill="#8CA35F">
                        <path d="M21.9778152,17.5814288 C21.9778152,17.5814288 21.7002767,9.26675688 25.479056,5.07186908 C29.2578354,0.876981277 37.3023557,0.665479926 37.3023557,0.665479926 C37.3023557,0.665479926 37.6048338,7.97457579 33.3682258,12.6777069 C29.1316179,17.3808381 21.9778152,17.5814288 21.9778152,17.5814288 Z" id="Path-8" transform="translate(29.640170, 9.123454) rotate(1.000000) translate(-29.640170, -9.123454) "></path>
                        <path d="M0.604397913,17.4639106 C0.604397913,17.4639106 0.326859365,9.1492387 4.10563876,4.9543509 C7.88441815,0.759463092 15.9289384,0.547961741 15.9289384,0.547961741 C15.9289384,0.547961741 16.2314165,7.8570576 11.9948085,12.5601887 C7.75820058,17.2633199 0.604397913,17.4639106 0.604397913,17.4639106 Z" id="Path-8" transform="translate(8.266753, 9.005936) scale(-1, 1) rotate(1.000000) translate(-8.266753, -9.005936) "></path>
                    </g>
                    <g id="Group-2" transform="translate(2.913580, 82.543860)" stroke="#8CA35F" fill="#8CA35F">
                        <path d="M21.9778152,17.5814288 C21.9778152,17.5814288 21.7002767,9.26675688 25.479056,5.07186908 C29.2578354,0.876981277 37.3023557,0.665479926 37.3023557,0.665479926 C37.3023557,0.665479926 37.6048338,7.97457579 33.3682258,12.6777069 C29.1316179,17.3808381 21.9778152,17.5814288 21.9778152,17.5814288 Z" id="Path-8" transform="translate(29.640170, 9.123454) rotate(1.000000) translate(-29.640170, -9.123454) "></path>
                        <path d="M0.604397913,17.4639106 C0.604397913,17.4639106 0.326859365,9.1492387 4.10563876,4.9543509 C7.88441815,0.759463092 15.9289384,0.547961741 15.9289384,0.547961741 C15.9289384,0.547961741 16.2314165,7.8570576 11.9948085,12.5601887 C7.75820058,17.2633199 0.604397913,17.4639106 0.604397913,17.4639106 Z" id="Path-8" transform="translate(8.266753, 9.005936) scale(-1, 1) rotate(1.000000) translate(-8.266753, -9.005936) "></path>
                    </g>
                    <g id="Group-3" transform="translate(78.666667, 35.947368)" stroke="#8CA35F" fill="#8CA35F">
                        <path d="M21.9778152,17.5814288 C21.9778152,17.5814288 21.7002767,9.26675688 25.479056,5.07186908 C29.2578354,0.876981277 37.3023557,0.665479926 37.3023557,0.665479926 C37.3023557,0.665479926 37.6048338,7.97457579 33.3682258,12.6777069 C29.1316179,17.3808381 21.9778152,17.5814288 21.9778152,17.5814288 Z" id="Path-8" transform="translate(29.640170, 9.123454) rotate(1.000000) translate(-29.640170, -9.123454) "></path>
                        <path d="M0.604397913,17.4639106 C0.604397913,17.4639106 0.326859365,9.1492387 4.10563876,4.9543509 C7.88441815,0.759463092 15.9289384,0.547961741 15.9289384,0.547961741 C15.9289384,0.547961741 16.2314165,7.8570576 11.9948085,12.5601887 C7.75820058,17.2633199 0.604397913,17.4639106 0.604397913,17.4639106 Z" id="Path-8" transform="translate(8.266753, 9.005936) scale(-1, 1) rotate(1.000000) translate(-8.266753, -9.005936) "></path>
                    </g>
                    <g id="Group-3" transform="translate(78.666667, 59.245614)" stroke="#8CA35F" fill="#8CA35F">
                        <path d="M21.9778152,17.5814288 C21.9778152,17.5814288 21.7002767,9.26675688 25.479056,5.07186908 C29.2578354,0.876981277 37.3023557,0.665479926 37.3023557,0.665479926 C37.3023557,0.665479926 37.6048338,7.97457579 33.3682258,12.6777069 C29.1316179,17.3808381 21.9778152,17.5814288 21.9778152,17.5814288 Z" id="Path-8" transform="translate(29.640170, 9.123454) rotate(1.000000) translate(-29.640170, -9.123454) "></path>
                        <path d="M0.604397913,17.4639106 C0.604397913,17.4639106 0.326859365,9.1492387 4.10563876,4.9543509 C7.88441815,0.759463092 15.9289384,0.547961741 15.9289384,0.547961741 C15.9289384,0.547961741 16.2314165,7.8570576 11.9948085,12.5601887 C7.75820058,17.2633199 0.604397913,17.4639106 0.604397913,17.4639106 Z" id="Path-8" transform="translate(8.266753, 9.005936) scale(-1, 1) rotate(1.000000) translate(-8.266753, -9.005936) "></path>
                    </g>
                    <g id="Group-3" transform="translate(78.666667, 82.543860)" stroke="#8CA35F" fill="#8CA35F">
                        <path d="M21.9778152,17.5814288 C21.9778152,17.5814288 21.7002767,9.26675688 25.479056,5.07186908 C29.2578354,0.876981277 37.3023557,0.665479926 37.3023557,0.665479926 C37.3023557,0.665479926 37.6048338,7.97457579 33.3682258,12.6777069 C29.1316179,17.3808381 21.9778152,17.5814288 21.9778152,17.5814288 Z" id="Path-8" transform="translate(29.640170, 9.123454) rotate(1.000000) translate(-29.640170, -9.123454) "></path>
                        <path d="M0.604397913,17.4639106 C0.604397913,17.4639106 0.326859365,9.1492387 4.10563876,4.9543509 C7.88441815,0.759463092 15.9289384,0.547961741 15.9289384,0.547961741 C15.9289384,0.547961741 16.2314165,7.8570576 11.9948085,12.5601887 C7.75820058,17.2633199 0.604397913,17.4639106 0.604397913,17.4639106 Z" id="Path-8" transform="translate(8.266753, 9.005936) scale(-1, 1) rotate(1.000000) translate(-8.266753, -9.005936) "></path>
                    </g>
                    <path d="M41.3945214,65.0604019 C41.3945214,65.0604019 41.1169828,56.7457299 44.8957622,52.5508421 C48.6745416,48.3559543 56.7190619,48.144453 56.7190619,48.144453 C56.7190619,48.144453 57.0215399,55.4535488 52.784932,60.15668 C48.548324,64.8598111 41.3945214,65.0604019 41.3945214,65.0604019 Z" id="Path-8" stroke="#8CA35F" fill="#8CA35F" transform="translate(49.056876, 56.602427) scale(-1, 1) rotate(1.000000) translate(-49.056876, -56.602427) "></path>
                    <path d="M41.3945214,91.2709282 C41.3945214,91.2709282 41.1169828,82.9562562 44.8957622,78.7613684 C48.6745416,74.5664806 56.7190619,74.3549793 56.7190619,74.3549793 C56.7190619,74.3549793 57.0215399,81.6640751 52.784932,86.3672063 C48.548324,91.0703374 41.3945214,91.2709282 41.3945214,91.2709282 Z" id="Path-8" stroke="#8CA35F" fill="#8CA35F" transform="translate(49.056876, 82.812954) scale(-1, 1) rotate(1.000000) translate(-49.056876, -82.812954) "></path>
                    <path d="M89.7797458,35.9541161 C89.7797458,35.9541161 88.6831139,27.2403115 92.4618933,23.0454237 C96.2406727,18.8505359 105.104286,19.0381672 105.104286,19.0381672 C105.104286,19.0381672 105.956693,27.3019806 101.720085,32.0051117 C97.4834769,36.7082429 89.7797458,35.9541161 89.7797458,35.9541161 Z" id="Path-8" stroke="#8CA35F" fill="#8CA35F" transform="translate(97.403152, 27.517742) rotate(-42.000000) translate(-97.403152, -27.517742) "></path>
                    <path d="M14.1394342,35.9502349 C14.1394342,35.9502349 13.0428023,27.2364303 16.8215817,23.0415425 C20.6003611,18.8466547 29.4639747,19.034286 29.4639747,19.034286 C29.4639747,19.034286 30.3163812,27.2980994 26.0797732,32.0012306 C21.8431653,36.7043617 14.1394342,35.9502349 14.1394342,35.9502349 Z" id="Path-8" stroke="#8CA35F" fill="#8CA35F" transform="translate(21.762840, 27.513860) rotate(-42.000000) translate(-21.762840, -27.513860) "></path>
                </g>
            </g>
        </g>
    </g>
</svg>