<?xml version="1.0" encoding="UTF-8"?>
<svg width="143px" height="223px" viewBox="0 0 143 223" version="1.1" xmlns="http://www.w3.org/2000/svg" xmlns:xlink="http://www.w3.org/1999/xlink">
    <!-- Generator: Sketch 43.2 (39069) - http://www.bohemiancoding.com/sketch -->
    <title>Group</title>
    <desc>Created with Sketch.</desc>
    <defs>
        <rect id="path-1" x="1.02777778" y="82.1181818" width="141.944444" height="139.881818" rx="2"></rect>
    </defs>
    <g id="Page-1" stroke="none" stroke-width="1" fill="none" fill-rule="evenodd">
        <g id="A4" transform="translate(-226.000000, -468.000000)">
            <g id="Group" transform="translate(226.000000, 469.000000)">
                <path d="M91.2898188,51.830567 C105.028229,51.830567 115.678933,43.3333317 115.678933,31.0699493 L66.4637582,31.0699493 C66.4637582,43.3333317 77.5514088,51.830567 91.2898188,51.830567 Z" id="Oval" stroke="#84B79B" stroke-width="3" fill="#84B79B" transform="translate(91.071345, 41.450258) rotate(-48.000000) translate(-91.071345, -41.450258) "></path>
                <path d="M52.762041,51.830567 C66.500451,51.830567 77.1511549,43.3333317 77.1511549,31.0699493 L27.9359804,31.0699493 C27.9359804,43.3333317 39.023631,51.830567 52.762041,51.830567 Z" id="Oval" stroke="#84B79B" stroke-width="3" fill="#84B79B" transform="translate(52.543568, 41.450258) scale(-1, 1) rotate(-48.000000) translate(-52.543568, -41.450258) "></path>
                <path d="M101.428708,72.1032943 C115.167118,72.1032943 125.817822,63.6060589 125.817822,51.3426766 L76.6026471,51.3426766 C76.6026471,63.6060589 87.6902977,72.1032943 101.428708,72.1032943 Z" id="Oval" stroke="#519970" stroke-width="3" fill="#519970" transform="translate(101.210234, 61.722985) rotate(-33.000000) translate(-101.210234, -61.722985) "></path>
                <path d="M42.6231521,72.1032943 C56.3615621,72.1032943 67.012266,63.6060589 67.012266,51.3426766 L17.7970915,51.3426766 C17.7970915,63.6060589 28.8847421,72.1032943 42.6231521,72.1032943 Z" id="Oval" stroke="#519970" stroke-width="3" fill="#519970" transform="translate(42.404679, 61.722985) scale(-1, 1) rotate(-33.000000) translate(-42.404679, -61.722985) "></path>
                <path d="M72.0416667,44.9975048 C82.6808187,44.9975048 88.8828536,36.3554136 88.8828536,25.0678546 C88.8828536,13.7802956 75.0156533,0.468956714 72.0416667,0.468956714 C69.06768,0.468956714 56.0475777,13.6410368 56.0475777,25.0678546 C56.0475777,34.584725 61.4025146,44.9975048 72.0416667,44.9975048 Z" id="Oval-7" stroke="#B9D6C5" stroke-width="3" fill="#B9D6C5"></path>
                <path d="M75.0416667,65.270232 C85.6808187,65.270232 93.1035351,58.1850522 93.1035351,48.6681818 C93.1035351,39.1513114 78.0156533,20.741684 75.0416667,20.741684 C72.06768,20.741684 58.9396616,39.1513114 58.9396616,48.6681818 C58.9396616,58.1850522 64.4025146,65.270232 75.0416667,65.270232 Z" id="Oval-7" stroke="#84B79B" stroke-width="3" fill="#84B79B"></path>
                <path d="M99.9938257,84.1454545 C113.732236,84.1454545 124.580519,80.190655 124.580519,67.9272727 L75.365345,67.9272727 C75.365345,80.190655 86.2554158,84.1454545 99.9938257,84.1454545 Z" id="Oval" stroke="#3B825A" stroke-width="3" fill="#3B825A"></path>
                <path d="M41.1604924,84.1454545 C54.8989024,84.1454545 65.7471861,80.190655 65.7471861,67.9272727 L16.5320116,67.9272727 C16.5320116,80.190655 27.4220824,84.1454545 41.1604924,84.1454545 Z" id="Oval" stroke="#3B825A" stroke-width="3" fill="#3B825A"></path>
                <path d="M73.0555556,82.1181818 C88.734306,82.1181818 101.114744,77.6048273 101.114744,63.6094297 L44.9486783,63.6094297 C44.9486783,77.6048273 57.3768052,82.1181818 73.0555556,82.1181818 Z" id="Oval" stroke="#519970" stroke-width="3" fill="#519970"></path>
                <g id="Rectangle-12">
                    <use fill="#EFAAC4" fill-rule="evenodd" xlink:href="#path-1"></use>
                    <rect stroke="#EFAAC4" stroke-width="4" x="3.02777778" y="84.1181818" width="137.944444" height="135.881818" rx="2"></rect>
                </g>
                <path d="M0.968865201,102.715141 C0.968865201,102.715141 26.6758003,105.115469 43.7484594,107.006608 C60.8211184,108.897747 142.958265,107.006608 142.958265,107.006608" id="Path-33" stroke="#13314D" stroke-width="3"></path>
                <path d="M1.15981971,134.046875 C1.15981971,134.046875 45.5069103,137.609717 64.5101603,130.267064 C83.5134103,122.924411 142.983928,123.354455 142.983928,123.354455" id="Path-34" stroke="#13314D" stroke-width="3"></path>
                <path d="M1.04445435,194.686203 C1.04445435,194.686203 42.5538157,194.786785 64.3669959,191.736742 C86.180176,188.686699 142.95681,188.860756 142.95681,188.860756" id="Path-34" stroke="#13314D" stroke-width="3"></path>
                <path d="M61.363105,221.98724 C61.363105,221.98724 61.3689379,204.998935 78.0833333,201.873106 C94.7977288,198.747276 142.968028,198.985123 142.968028,198.985123" id="Path-34" stroke="#13314D" stroke-width="3"></path>
                <path d="M1.03474476,172.320351 C1.03474476,172.320351 24.2286816,172.521089 39.1105579,167.019016 C53.9924342,161.516944 49.1357959,153.499881 70.4768334,149.349831 C91.8178709,145.199781 142.964173,145.115912 142.964173,145.115912" id="Path-34" stroke="#13314D" stroke-width="3"></path>
                <path d="M76.2587978,170.36934 C76.2587978,170.36934 65.6158265,168.823326 71.1366967,161.247763 C75.3609427,158.536083 89.0961392,158.600358 100.947087,158.600358 C118.040772,158.600358 127.159379,161.263182 127.159379,166.272744 C127.159379,171.282307 100.947087,173.94513 100.947087,173.94513" id="Path-35" stroke="#13314D" stroke-width="3" stroke-linecap="round" transform="translate(98.353812, 166.272678) rotate(-4.000000) translate(-98.353812, -166.272678) "></path>
            </g>
        </g>
    </g>
</svg>