<?xml version="1.0" encoding="UTF-8"?>
<svg width="247px" height="489px" viewBox="0 0 247 489" version="1.1" xmlns="http://www.w3.org/2000/svg" xmlns:xlink="http://www.w3.org/1999/xlink">
    <!-- Generator: Sketch 43.2 (39069) - http://www.bohemiancoding.com/sketch -->
    <title>Group 2</title>
    <desc>Created with Sketch.</desc>
    <defs>
        <rect id="path-1" x="32.4090909" y="315.420091" width="187.090909" height="26.739726" rx="2"></rect>
    </defs>
    <g id="Page-1" stroke="none" stroke-width="1" fill="none" fill-rule="evenodd">
        <g id="A4" transform="translate(-174.000000, -202.000000)">
            <g id="Group-2" transform="translate(176.000000, 204.000000)">
                <rect id="Rectangle-11" fill="#FFFFFF" x="32.4090909" y="315.420091" width="187.090909" height="171.579909" rx="2"></rect>
                <g id="Group" transform="translate(35.636364, 374.356164)" stroke="#13314D" stroke-width="3" fill="#13314D">
                    <path d="M0.1823797,68.1074816 C4.28077259,68.1074816 17.0596405,54.1705787 17.0596405,34.0222458 C17.0596405,13.873913 4.38830669,0.784874096 0.1823797,0.784874096 L0.1823797,68.1074816 Z" id="Oval-6"></path>
                </g>
                <g id="Group" transform="translate(207.272727, 408.856164) scale(-1, 1) translate(-207.272727, -408.856164) translate(198.272727, 374.356164)" stroke="#13314D" stroke-width="3" fill="#13314D">
                    <path d="M0.1823797,68.1074816 C4.28077259,68.1074816 17.0596405,54.1705787 17.0596405,34.0222458 C17.0596405,13.873913 4.38830669,0.396800282 0.1823797,0.396800282 L0.1823797,68.1074816 Z" id="Oval-6"></path>
                </g>
                <g id="Group" transform="translate(54.454545, 374.356164)" stroke="#13314D" stroke-width="3" fill="#13314D">
                    <path d="M15.8181818,67.8447131 C19.9165747,67.8447131 31.6505496,54.1705787 31.6505496,34.0222458 C31.6505496,13.873913 20.0241088,0.659290732 15.8181818,0.659290732 C11.6122548,0.659290732 0.175866062,13.6478038 0.175866062,34.0222458 C0.175866062,54.3966879 11.7197889,67.8447131 15.8181818,67.8447131 Z" id="Oval-6"></path>
                </g>
                <g id="Group" transform="translate(90.090909, 374.356164)" stroke="#13314D" stroke-width="3" fill="#13314D">
                    <path d="M15.8181818,67.8447131 C19.9165747,67.8447131 31.6505496,54.1705787 31.6505496,34.0222458 C31.6505496,13.873913 20.0241088,0.659290732 15.8181818,0.659290732 C11.6122548,0.659290732 0.175866062,13.6478038 0.175866062,34.0222458 C0.175866062,54.3966879 11.7197889,67.8447131 15.8181818,67.8447131 Z" id="Oval-6"></path>
                </g>
                <g id="Group" transform="translate(125.727273, 374.356164)" stroke="#13314D" stroke-width="3" fill="#13314D">
                    <path d="M15.8181818,67.8447131 C19.9165747,67.8447131 31.6505496,54.1705787 31.6505496,34.0222458 C31.6505496,13.873913 20.0241088,0.659290732 15.8181818,0.659290732 C11.6122548,0.659290732 0.175866062,13.6478038 0.175866062,34.0222458 C0.175866062,54.3966879 11.7197889,67.8447131 15.8181818,67.8447131 Z" id="Oval-6"></path>
                </g>
                <g id="Group" transform="translate(161.363636, 374.356164)" stroke="#13314D" stroke-width="3" fill="#13314D">
                    <path d="M15.8181818,67.8447131 C19.9165747,67.8447131 31.6505496,54.1705787 31.6505496,34.0222458 C31.6505496,13.873913 20.0241088,0.659290732 15.8181818,0.659290732 C11.6122548,0.659290732 0.175866062,13.6478038 0.175866062,34.0222458 C0.175866062,54.3966879 11.7197889,67.8447131 15.8181818,67.8447131 Z" id="Oval-6"></path>
                </g>
                <path d="M167.310121,319.651834 L167.310121,215.767433 C167.310121,215.767433 189.023513,208.881743 202.319877,199.925224 C249.106712,153.577673 253.768698,109.14656 223.915834,109.14656 C202.319877,109.14656 200.190139,138.474263 190.664128,161.17655 C181.138118,183.878836 167.399405,187.596967 167.399405,187.596967 C167.350094,187.611464 167.310373,187.584212 167.310817,187.515419 C167.310817,187.515419 167.931184,92.2303681 167.310121,85.437726 C166.689058,78.6450838 165.271977,77.668932 164.619998,72.1924511 C163.968019,66.7159701 165.822138,60.8020212 164.619998,55.4905482 C163.417858,50.1790752 167.310121,-10.4089948 123.727273,1.67748667 C80.1444248,13.7639681 79.9219675,143.947496 81.1696342,149.744068 C82.417301,155.54064 86.6217456,156.264486 86.6217456,172.808219 C86.6217456,189.351952 81.212163,201.615688 81.1696342,206.21102 C81.1271055,210.806352 81.1695658,270.366702 81.1695658,270.366702 C81.1696036,270.420183 81.1206477,270.467827 81.0772916,270.470239 C81.0772916,270.470239 64.3176571,272.605141 43.2126266,211.843799 C22.1075961,151.082457 41.0105724,81.6977777 20.0279683,81.6977777 C-0.954635837,81.6977777 1.13959324,103.510523 0.438873453,132.490423 C-0.261846336,161.470323 11.0044873,225.022716 20.0279683,242.49986 C35.5884775,272.638257 81.0039095,296.190396 81.0039095,296.190396 C81.0954367,296.238393 81.1696342,296.361941 81.1696342,296.479376 L81.1696342,319.651834 L167.310121,319.651834 Z" id="Path-32" stroke="#8CA35F" stroke-width="3" fill="#8CA35F"></path>
                <path d="M158.25,43.0091324 L167.159091,43.0091324" id="Line" stroke="#4A4A4A" stroke-width="1.5" stroke-linecap="square"></path>
                <path d="M141.237414,24.2976685 L148.535314,29.4100941" id="Line" stroke="#4A4A4A" stroke-width="1.5" stroke-linecap="square"></path>
                <path d="M124.144065,11.3105762 L125.537754,20.1140814" id="Line" stroke="#4A4A4A" stroke-width="1.5" stroke-linecap="square"></path>
                <path d="M101.776443,12.7456773 L107.965218,19.157327" id="Line" stroke="#4A4A4A" stroke-width="1.5" stroke-linecap="square"></path>
                <path d="M113.364476,34.1632813 L109.740822,42.3059331" id="Line" stroke="#4A4A4A" stroke-width="1.5" stroke-linecap="square"></path>
                <path d="M90.5846276,48.4531633 L96.8843062,54.7557772" id="Line" stroke="#4A4A4A" stroke-width="1.5" stroke-linecap="square"></path>
                <path d="M115.23367,60.5854183 L116.780718,69.3632482" id="Line" stroke="#4A4A4A" stroke-width="1.5" stroke-linecap="square"></path>
                <path d="M113.527326,103.594856 L113.216404,112.502668" id="Line" stroke="#4A4A4A" stroke-width="1.5" stroke-linecap="square"></path>
                <path d="M93.957217,128.180025 L91.5015387,136.747983" id="Line" stroke="#4A4A4A" stroke-width="1.5" stroke-linecap="square"></path>
                <path d="M98.7550152,78.7394566 L102.092419,87.0036706" id="Line" stroke="#4A4A4A" stroke-width="1.5" stroke-linecap="square"></path>
                <path d="M78.2651598,103.92888 L86.9459113,101.923837" id="Line" stroke="#4A4A4A" stroke-width="1.5" stroke-linecap="square"></path>
                <path d="M131.36497,42.6973359 L131.831236,51.5983626" id="Line" stroke="#4A4A4A" stroke-width="1.5" stroke-linecap="square"></path>
                <path d="M148.145167,58.1587923 L146.292863,66.8772586" id="Line" stroke="#4A4A4A" stroke-width="1.5" stroke-linecap="square"></path>
                <path d="M163.087253,81.0361587 L158.105353,88.4255712" id="Line" stroke="#4A4A4A" stroke-width="1.5" stroke-linecap="square"></path>
                <path d="M132.554258,82.6702079 L130.701954,91.3886742" id="Line" stroke="#4A4A4A" stroke-width="1.5" stroke-linecap="square"></path>
                <path d="M144.611695,107.156035 L145.388173,116.035359" id="Line" stroke="#4A4A4A" stroke-width="1.5" stroke-linecap="square"></path>
                <path d="M128.05982,129.304022 L126.359886,138.053503" id="Line" stroke="#4A4A4A" stroke-width="1.5" stroke-linecap="square"></path>
                <path d="M105.264748,152.115037 L109.170236,160.126206" id="Line" stroke="#4A4A4A" stroke-width="1.5" stroke-linecap="square"></path>
                <path d="M103.562751,187.958071 L103.251828,196.865883" id="Line" stroke="#4A4A4A" stroke-width="1.5" stroke-linecap="square"></path>
                <path d="M86.7758466,217.320005 L88.9311507,225.968486" id="Line" stroke="#4A4A4A" stroke-width="1.5" stroke-linecap="square"></path>
                <path d="M73.4596405,246.941199 L80.0803853,240.977076" id="Line" stroke="#4A4A4A" stroke-width="1.5" stroke-linecap="square"></path>
                <path d="M80.1039868,169.317774 L86.6196834,175.396591" id="Line" stroke="#4A4A4A" stroke-width="1.5" stroke-linecap="square"></path>
                <path d="M145.494665,151.552651 L144.563411,160.417066" id="Line" stroke="#4A4A4A" stroke-width="1.5" stroke-linecap="square"></path>
                <path d="M146.014161,195.226116 L146.945414,204.09053" id="Line" stroke="#4A4A4A" stroke-width="1.5" stroke-linecap="square"></path>
                <path d="M140.34329,232.83557 L139.257545,241.682374" id="Line" stroke="#4A4A4A" stroke-width="1.5" stroke-linecap="square"></path>
                <path d="M155.934199,257.346985 L154.848454,266.193789" id="Line" stroke="#4A4A4A" stroke-width="1.5" stroke-linecap="square"></path>
                <path d="M146.152366,288.865489 L142.528713,297.00814" id="Line" stroke="#4A4A4A" stroke-width="1.5" stroke-linecap="square"></path>
                <path d="M172.736573,308.46729 L164.944506,304.146065" id="Line" stroke="#4A4A4A" stroke-width="1.5" stroke-linecap="square"></path>
                <path d="M124.203428,265.03525 L128.924527,272.594108" id="Line" stroke="#4A4A4A" stroke-width="1.5" stroke-linecap="square"></path>
                <path d="M23.6502276,260.875027 L32.5254167,261.651867" id="Line" stroke="#4A4A4A" stroke-width="1.5" stroke-linecap="square"></path>
                <path d="M110.730046,299.150833 L110.26378,308.05186" id="Line" stroke="#4A4A4A" stroke-width="1.5" stroke-linecap="square"></path>
                <path d="M173.466119,233.271012 L168.613881,240.746285" id="Line" stroke="#4A4A4A" stroke-width="1.5" stroke-linecap="square"></path>
                <path d="M107.857204,242.110964 L109.557139,250.860445" id="Line" stroke="#4A4A4A" stroke-width="1.5" stroke-linecap="square"></path>
                <path d="M32.4884033,240.912697 L38.5643887,247.431429" id="Line" stroke="#4A4A4A" stroke-width="1.5" stroke-linecap="square"></path>
                <path d="M38.0644021,217.443193 L37.4429353,226.334723" id="Line" stroke="#4A4A4A" stroke-width="1.5" stroke-linecap="square"></path>
                <path d="M24.7007657,190.703467 L24.079299,199.594997" id="Line" stroke="#4A4A4A" stroke-width="1.5" stroke-linecap="square"></path>
                <path d="M13.5644021,141.680636 L12.9429353,150.572166" id="Line" stroke="#4A4A4A" stroke-width="1.5" stroke-linecap="square"></path>
                <path d="M22.3704506,101.530417 L13.9986436,104.578925" id="Line" stroke="#4A4A4A" stroke-width="1.5" stroke-linecap="square"></path>
                <path d="M17.4808186,76.5837123 L14.4337301,84.95942" id="Line" stroke="#4A4A4A" stroke-width="1.5" stroke-linecap="square"></path>
                <path d="M29.8342279,120.078411 L23.7582426,126.597143" id="Line" stroke="#4A4A4A" stroke-width="1.5" stroke-linecap="square"></path>
                <path d="M3.14697773,114.642658 L5.90003823,123.119655" id="Line" stroke="#4A4A4A" stroke-width="1.5" stroke-linecap="square"></path>
                <path d="M30.4510145,158.436272 L23.3358981,163.800395" id="Line" stroke="#4A4A4A" stroke-width="1.5" stroke-linecap="square"></path>
                <path d="M3.13939881,173.661841 L10.9314653,177.983066" id="Line" stroke="#4A4A4A" stroke-width="1.5" stroke-linecap="square"></path>
                <path d="M15.1205748,214.516726 L20.7272474,221.443616" id="Line" stroke="#4A4A4A" stroke-width="1.5" stroke-linecap="square"></path>
                <path d="M41.8653405,189.336648 L38.5279363,197.600862" id="Line" stroke="#4A4A4A" stroke-width="1.5" stroke-linecap="square"></path>
                <path d="M93.2432067,268.505139 L93.5541295,277.412951" id="Line" stroke="#4A4A4A" stroke-width="1.5" stroke-linecap="square"></path>
                <path d="M54.6818182,253.027397 L54.992741,261.93521" id="Line" stroke="#4A4A4A" stroke-width="1.5" stroke-linecap="square"></path>
                <path d="M67.1008809,275.894105 L74.5726732,280.748604" id="Line" stroke="#4A4A4A" stroke-width="1.5" stroke-linecap="square"></path>
                <path d="M74.1815369,305.732627 L80.1428823,312.356456" id="Line" stroke="#4A4A4A" stroke-width="1.5" stroke-linecap="square"></path>
                <path d="M166.34917,168.580593 L162.304528,176.52235" id="Line" stroke="#4A4A4A" stroke-width="1.5" stroke-linecap="square"></path>
                <path d="M125.671751,173.03021 L127.218799,181.80804" id="Line" stroke="#4A4A4A" stroke-width="1.5" stroke-linecap="square"></path>
                <path d="M177.181818,168.351598 L178.728866,177.129428" id="Line" stroke="#4A4A4A" stroke-width="1.5" stroke-linecap="square"></path>
                <path d="M178.382708,193.36067 L173.272664,200.661971" id="Line" stroke="#4A4A4A" stroke-width="1.5" stroke-linecap="square"></path>
                <path d="M202.337317,181.721461 L197.227273,189.022762" id="Line" stroke="#4A4A4A" stroke-width="1.5" stroke-linecap="square"></path>
                <path d="M199.239423,156.437294 L200.325168,165.284098" id="Line" stroke="#4A4A4A" stroke-width="1.5" stroke-linecap="square"></path>
                <path d="M217.190202,143.102977 L213.709142,151.307659" id="Line" stroke="#4A4A4A" stroke-width="1.5" stroke-linecap="square"></path>
                <path d="M236.572779,136.196146 L234.417474,144.844627" id="Line" stroke="#4A4A4A" stroke-width="1.5" stroke-linecap="square"></path>
                <path d="M209.286184,128.080636 L203.8012,135.104367" id="Line" stroke="#4A4A4A" stroke-width="1.5" stroke-linecap="square"></path>
                <path d="M229.331639,114.710773 L223.846655,121.734504" id="Line" stroke="#4A4A4A" stroke-width="1.5" stroke-linecap="square"></path>
                <path d="M126.984984,210.099816 L121.5,217.123547" id="Line" stroke="#4A4A4A" stroke-width="1.5" stroke-linecap="square"></path>
                <path d="M226.508889,171.92447 L217.601155,172.080027" id="Line" stroke="#4A4A4A" stroke-width="1.5" stroke-linecap="square"></path>
                <path d="M167.074145,124.810632 L160.885371,131.222282" id="Line" stroke="#4A4A4A" stroke-width="1.5" stroke-linecap="square"></path>
                <path d="M146.977646,0.635813467 L142.795081,8.50573904" id="Line" stroke="#4A4A4A" stroke-width="1.5" stroke-linecap="square"></path>
                <g id="Rectangle-11">
                    <use fill="#13314D" fill-rule="evenodd" xlink:href="#path-1"></use>
                    <rect stroke="#13314D" stroke-width="3" x="33.9090909" y="316.920091" width="184.090909" height="23.739726" rx="2"></rect>
                </g>
            </g>
        </g>
    </g>
</svg>