<?xml version="1.0" encoding="UTF-8"?>
<svg width="165px" height="382px" viewBox="0 0 165 382" version="1.1" xmlns="http://www.w3.org/2000/svg" xmlns:xlink="http://www.w3.org/1999/xlink">
    <!-- Generator: Sketch 43.2 (39069) - http://www.bohemiancoding.com/sketch -->
    <title>Group 3</title>
    <desc>Created with Sketch.</desc>
    <defs>
        <rect id="path-1" x="0" y="155" width="155.966102" height="177.8" rx="1.5"></rect>
        <rect id="path-2" x="33.4576271" y="254.814286" width="155.966102" height="72.5714286"></rect>
    </defs>
    <g id="Page-1" stroke="none" stroke-width="1" fill="none" fill-rule="evenodd">
        <g id="A4" transform="translate(-216.000000, -309.000000)">
            <g id="Group-3" transform="translate(191.000000, 311.000000)">
                <g id="Group" transform="translate(33.457627, 47.200000)">
                    <path d="M77.9830508,152.8 L77.9830508,1.69285714" id="Line" stroke="#678F49" stroke-width="6" stroke-linecap="square"></path>
                    <g id="Rectangle">
                        <use fill="#13314D" fill-rule="evenodd" xlink:href="#path-1"></use>
                        <rect stroke="#13314D" stroke-width="4" x="2" y="157" width="151.966102" height="173.8" rx="1.5"></rect>
                    </g>
                </g>
                <g id="Rectangle-2">
                    <use fill="#6A5B7A" fill-rule="evenodd" xlink:href="#path-2"></use>
                    <rect stroke="#6A5B7A" stroke-width="1" x="33.9576271" y="255.314286" width="154.966102" height="71.5714286"></rect>
                </g>
                <g id="Group-2" transform="translate(93.305085, 0.000000)" stroke-width="3">
                    <path d="M18.2777289,0.249432361 C18.4720129,0.0671212533 18.6295983,0.144246583 18.6297046,0.418974975 L18.650916,55.2428495 C18.6510228,55.5187965 18.4915599,55.5963026 18.2824524,55.4023256 C18.2824524,55.4023256 0.195544329,39.0413765 0.195544329,27.9691954 C0.195544329,16.8970143 18.2777289,0.249432361 18.2777289,0.249432361 Z" id="Path-5" stroke="#8CA35F" fill="#8CA35F"></path>
                    <path d="M36.4128092,0.249432361 C36.6070933,0.0671212533 36.7646786,0.144246583 36.7647849,0.418974975 L36.7859964,55.2428495 C36.7861031,55.5187965 36.6266403,55.5963026 36.4175328,55.4023256 C36.4175328,55.4023256 18.3306247,39.0413765 18.3306247,27.9691954 C18.3306247,16.8970143 36.4128092,0.249432361 36.4128092,0.249432361 Z" id="Path-5" stroke="#678F49" fill="#678F49" transform="translate(27.558311, 27.830176) scale(-1, 1) translate(-27.558311, -27.830176) "></path>
                </g>
                <g id="Group-2" transform="translate(142.421441, 83.739169) rotate(44.000000) translate(-142.421441, -83.739169) translate(116.921441, 44.739169)" stroke-width="3">
                    <path d="M25.3978559,0.608274429 C25.5968459,0.422065499 25.7582449,0.492527679 25.75835,0.763995797 L25.7878312,76.9623287 C25.7879366,77.2345402 25.6250712,77.3061743 25.4272964,77.1234557 C25.4272964,77.1234557 0.270370054,54.36335 0.270370054,39.0543599 C0.270370054,23.7453697 25.3978559,0.608274429 25.3978559,0.608274429 Z" id="Path-5" stroke="#8CA35F" fill="#8CA35F"></path>
                    <path d="M50.4723119,0.608274429 C50.671302,0.422065499 50.832701,0.492527679 50.832806,0.763995797 L50.8622873,76.9623287 C50.8623926,77.2345402 50.6995273,77.3061743 50.5017525,77.1234557 C50.5017525,77.1234557 25.3448261,54.36335 25.3448261,39.0543599 C25.3448261,23.7453697 50.4723119,0.608274429 50.4723119,0.608274429 Z" id="Path-5" stroke="#678F49" fill="#678F49" transform="translate(38.103557, 38.864338) scale(-1, 1) translate(-38.103557, -38.864338) "></path>
                </g>
                <g id="Group-2" transform="translate(151.827815, 156.639262) rotate(44.000000) translate(-151.827815, -156.639262) translate(117.327815, 104.139262)" stroke-width="3">
                    <path d="M34.1880697,1.07243519 C34.387332,0.88639746 34.5489542,0.963562811 34.5490626,1.24377407 L34.5887236,103.752767 C34.5888321,104.033433 34.4209087,104.107501 34.2277011,103.929519 C34.2277011,103.929519 0.362641548,73.2883398 0.362641548,52.75472 C0.362641548,32.2211002 34.1880697,1.07243519 34.1880697,1.07243519 Z" id="Path-5" stroke="#8CA35F" fill="#8CA35F"></path>
                    <path d="M67.8198401,1.07243519 C68.0191024,0.88639746 68.1807247,0.963562811 68.1808331,1.24377407 L68.220494,103.752767 C68.2206026,104.033433 68.0526791,104.107501 67.8594715,103.929519 C67.8594715,103.929519 33.994412,73.2883398 33.994412,52.75472 C33.994412,32.2211002 67.8198401,1.07243519 67.8198401,1.07243519 Z" id="Path-5" stroke="#678F49" fill="#678F49" transform="translate(51.107453, 52.498432) scale(-1, 1) translate(-51.107453, -52.498432) "></path>
                </g>
                <g id="Group-2" transform="translate(80.904969, 74.784172) scale(-1, 1) rotate(44.000000) translate(-80.904969, -74.784172) translate(55.404969, 35.784172)" stroke-width="3">
                    <path d="M25.3978559,0.608274429 C25.5968459,0.422065499 25.7582449,0.492527679 25.75835,0.763995797 L25.7878312,76.9623287 C25.7879366,77.2345402 25.6250712,77.3061743 25.4272964,77.1234557 C25.4272964,77.1234557 0.270370054,54.36335 0.270370054,39.0543599 C0.270370054,23.7453697 25.3978559,0.608274429 25.3978559,0.608274429 Z" id="Path-5" stroke="#8CA35F" fill="#8CA35F"></path>
                    <path d="M50.4723119,0.608274429 C50.671302,0.422065499 50.832701,0.492527679 50.832806,0.763995797 L50.8622873,76.9623287 C50.8623926,77.2345402 50.6995273,77.3061743 50.5017525,77.1234557 C50.5017525,77.1234557 25.3448261,54.36335 25.3448261,39.0543599 C25.3448261,23.7453697 50.4723119,0.608274429 50.4723119,0.608274429 Z" id="Path-5" stroke="#678F49" fill="#678F49" transform="translate(38.103557, 38.864338) scale(-1, 1) translate(-38.103557, -38.864338) "></path>
                </g>
                <g id="Group-2" transform="translate(67.194925, 141.900282) scale(-1, -1) rotate(135.000000) translate(-67.194925, -141.900282) translate(29.194925, 84.900282)" stroke-width="3">
                    <path d="M37.7613727,0.17355494 C37.9542526,-0.00636055872 38.1106966,0.06491555 38.1108096,0.356933124 L38.1545991,113.536761 C38.1547079,113.817953 37.9864692,113.89223 37.7811239,113.703199 C37.7811239,113.703199 0.400027357,79.8802269 0.400027357,57.2297344 C0.400027357,34.5792419 37.7613727,0.17355494 37.7613727,0.17355494 Z" id="Path-5" stroke="#8CA35F" fill="#8CA35F"></path>
                    <path d="M74.8603237,0.17355494 C75.0532036,-0.00636055872 75.2096476,0.06491555 75.2097606,0.356933124 L75.2535501,113.536761 C75.2536589,113.817953 75.0854202,113.89223 74.8800749,113.703199 C74.8800749,113.703199 37.4989784,79.8802269 37.4989784,57.2297344 C37.4989784,34.5792419 74.8603237,0.17355494 74.8603237,0.17355494 Z" id="Path-5" stroke="#678F49" fill="#678F49" transform="translate(56.376264, 56.941605) scale(-1, 1) translate(-56.376264, -56.941605) "></path>
                </g>
            </g>
        </g>
    </g>
</svg>