<?xml version="1.0" encoding="UTF-8"?>
<svg width="192px" height="304px" viewBox="0 0 192 304" version="1.1" xmlns="http://www.w3.org/2000/svg" xmlns:xlink="http://www.w3.org/1999/xlink">
    <!-- Generator: Sketch 43.2 (39069) - http://www.bohemiancoding.com/sketch -->
    <title>Group 2</title>
    <desc>Created with Sketch.</desc>
    <defs>
        <path d="M12.0340285,47.2287053 L179.040557,47.2287053 L168.082214,156.970681 C167.972651,158.067893 166.981146,158.95736 165.885195,158.95736 L25.5809813,158.95736 C24.4771639,158.95736 23.4893856,158.058006 23.3769992,156.970681 L12.0340285,47.2287053 Z" id="path-1"></path>
        <polygon id="path-2" points="12.1226536 47.9678956 178.910205 47.9678956 177.365194 63.4725275 13.715332 63.4725275"></polygon>
        <rect id="path-3" x="0" y="0" width="192" height="48.4395604"></rect>
    </defs>
    <g id="Page-1" stroke="none" stroke-width="1" fill="none" fill-rule="evenodd">
        <g id="A4" transform="translate(-202.000000, -387.000000)">
            <g id="Group-2" transform="translate(202.000000, 388.000000)">
                <g id="Group" transform="translate(8.347826, 0.000000)" stroke-width="3">
                    <path d="M91.0644281,139.302018 L94.0973591,141.551212 L88.4933325,137.922603 L83.9369687,135.478075 L82.6861799,135.487933 L73.4159811,139.26983 L81.4763622,134.157938 L79.9338798,133.330383 L43.0399479,137.363955 L3.52168599,80.0177965 C-0.864769501,73.6524769 0.61053277,72.2222303 6.81903507,76.8263992 L68.1103907,122.279512 L54.7026837,98.2454282 L40.1688299,27.4125281 C38.6166889,19.847938 40.0225022,19.3693761 43.3128833,26.3635219 L75.608388,95.0119438 L85.6069912,6.17794443 C86.4264616,-1.10275538 87.6592686,-1.09059944 88.3607094,6.20682979 L96.8779328,94.8156361 L132.064563,24.6049155 C135.528548,17.6929463 137.024458,18.2172898 135.405632,25.7767115 L118.968868,102.531405 L99.2583368,119.580134 L99.557356,122.690976 L166.939807,79.9570418 C173.083925,76.0604439 174.373197,77.5026765 169.820304,83.1773263 L128.137818,135.129691 L94.6060328,135.393983 L98.2609589,143.163018 L91.0644281,139.302018 Z M90.6637283,127.014086 L91.1410129,128.028619 L95.7804842,125.086267 L93.9275177,124.191054 L90.6637283,127.014086 Z M88.279053,121.94514 L88.3940273,121.517691 L87.9849934,121.320077 L88.279053,121.94514 Z" id="Combined-Shape" stroke="#7B888E" fill="#7B888E"></path>
                    <path d="M58.3384416,127.678124 L39.857801,79.2385774 C37.1023125,72.0161753 39.149514,70.7312559 44.4319424,76.3727938 L75.7373597,109.806413 L84.5696589,68.0696424 C86.1708725,60.5031547 88.6576727,60.5289317 90.122591,68.119488 L98.1214926,109.566245 L129.20203,76.3727938 C134.484458,70.7312559 136.53166,72.0161753 133.776171,79.2385774 L115.295384,127.678509 L161.005536,109.319049 C168.177259,106.438529 169.490631,108.467269 163.946103,113.843513 L129.905849,146.850591 L102.086559,146.989775 L101.938702,146.881956 L99.9740159,146.881956 L99.9014933,146.972459 L99.7566575,146.881956 L77.356978,146.881956 L77.2285469,146.97646 L77.1355716,146.881956 L67.8914654,146.881956 L68.3216593,144.849087 L63.492872,146.980416 L43.7289337,146.850591 L9.68868003,113.843513 C4.14415118,108.467269 5.45752395,106.438529 12.6292469,109.319049 L58.3384416,127.678124 Z" id="Combined-Shape" stroke="#A2AE88" fill="#A2AE88"></path>
                </g>
                <g id="Pot" transform="translate(0.000000, 143.648352)">
                    <g id="Rectangle-4">
                        <use fill="#6A5B7A" fill-rule="evenodd" xlink:href="#path-1"></use>
                        <path stroke="#6A5B7A" stroke-width="4" d="M14.2514042,49.2287053 L176.8309,49.2287053 L166.092111,156.771958 C166.085068,156.842485 165.957717,156.95736 165.885195,156.95736 L25.5809813,156.95736 C25.5066146,156.95736 25.3738711,156.837331 25.3664007,156.765056 L14.2514042,49.2287053 Z"></path>
                    </g>
                    <g id="Rectangle-5">
                        <use fill="#3B3243" fill-rule="evenodd" xlink:href="#path-2"></use>
                        <path stroke="#3B3243" stroke-width="1" d="M12.6766461,48.4678956 L178.357905,48.4678956 L176.912542,62.9725275 L14.1666017,62.9725275 L12.6766461,48.4678956 Z"></path>
                    </g>
                    <g id="Rectangle">
                        <use fill="#6A5B7A" fill-rule="evenodd" xlink:href="#path-3"></use>
                        <rect stroke="#6A5B7A" stroke-width="4" x="2" y="2" width="188" height="44.4395604"></rect>
                    </g>
                </g>
                <rect id="Rectangle" fill="#A2AE88" x="70.2035919" y="136.941743" width="11.6762353" height="6.70697299"></rect>
            </g>
        </g>
    </g>
</svg>