<?xml version="1.0" encoding="UTF-8"?>
<svg width="359px" height="369px" viewBox="0 0 359 369" version="1.1" xmlns="http://www.w3.org/2000/svg" xmlns:xlink="http://www.w3.org/1999/xlink">
    <!-- Generator: Sketch 43.2 (39069) - http://www.bohemiancoding.com/sketch -->
    <title>Group 2</title>
    <desc>Created with Sketch.</desc>
    <defs>
        <path d="M113.522675,313.714286 C113.522675,313.714286 133.692863,313.714286 156.566622,313.714286 C179.44038,313.714286 199.105042,313.714286 199.105042,313.714286 L198.124087,320.055318 C198.124087,320.055318 176.800583,320.051948 156.566622,320.051948 C136.332661,320.051948 114.541173,320.051948 114.541173,320.051948 L113.522675,313.714286 Z" id="path-1"></path>
    </defs>
    <g id="Page-1" stroke="none" stroke-width="1" fill="none" fill-rule="evenodd">
        <g id="A4" transform="translate(-141.000000, -323.000000)">
            <g id="Group-2" transform="translate(142.000000, 324.000000)">
                <path d="M330.192895,91.3290546 C319.498642,88.9084123 303.767779,86.9585806 263.635717,91.3290546 C222.819499,94.7631671 208.351186,110.1315 208.351186,110.1315 L232.742179,129.795962 C232.742179,129.795962 244.10645,122.68715 254.61609,118.742434 C265.125729,114.797718 279.190833,112.305004 279.190833,112.305004 C279.352672,112.275627 279.347641,112.218338 279.19428,112.182706 C279.19428,112.182706 275.035569,111.091545 267.499485,111.091545 C259.9634,111.091545 250.506872,112.218338 250.506872,112.218338 C250.347233,112.236825 250.33581,112.207967 250.496876,112.148268 C250.496876,112.148268 271.901341,104.173336 288.618299,99.3848788 C305.335256,94.5964217 319.441488,91.3290546 325.487124,91.3290546 C331.532759,91.3290546 333.500994,90.6870408 340.896572,93.1866144 C348.29215,95.686188 355.875543,102.496061 355.875543,102.496061 C355.994555,102.600744 355.961688,102.663067 355.788758,102.633588 C355.788758,102.633588 346.297261,100.938958 327.466251,99.3848788 C308.635242,97.830799 297.472813,96.9821939 297.472813,96.9821939" id="Path-25" stroke="#64985B" stroke-width="2.5" fill="#85A15E"></path>
                <g id="Group" transform="translate(103.548673, 155.272727)" stroke="#8CA35F" stroke-width="2.5" fill="#8CA35F">
                    <path d="M40.6132529,28.5041313 C40.6556478,28.5398182 40.7275028,28.5367523 40.764721,28.5048959 C40.764721,28.5048959 63.8217542,8.89073949 60.9295562,3.1284704 C58.0373583,-2.63379869 44.2687224,0.934573169 36.8883069,3.1284704 C29.5078914,5.32236763 1.00510419,20.9210709 1.00510419,20.9210709 C0.959692195,20.9458923 0.961545106,20.9606496 1.02413328,20.9521343 C1.02413328,20.9521343 14.2967185,19.0759013 24.183211,20.966014 C34.0697035,22.8561268 40.6132529,28.5041313 40.6132529,28.5041313 Z" id="Path-19"></path>
                    <path d="M0.987914614,21.0040508 C0.987914614,21.0040508 -1.35130069,40.7786429 3.67420377,42.1667208 C8.69970823,43.5547988 19.9939253,21.4374673 19.9939253,21.4374673" id="Path-20"></path>
                </g>
                <path d="M143.365179,3.39949067 C143.365179,3.39949067 153.891427,6.71427752 154.234825,15.3730541 C154.234825,28.2113592 143.769649,28.2528604 143.769649,28.2528604" id="Path-29" stroke="#64985B" stroke-width="2.5" fill="#8CA35F"></path>
                <path d="M120.812513,57.8149708 C116.566131,58.6744046 91.7116746,49.5675924 83.2812248,39.1782087 C80.9042755,35.0209317 83.7065026,6.92696577 87.3170399,2.77354898 C90.9275773,-1.37986781 142.17451,1.93064349 143.361719,3.48843819 C144.548929,5.0462329 143.361719,17.8197347 143.361719,17.8197347 C143.361719,17.8197347 144.982983,34.6372285 139.916464,43.9698334 C134.849946,53.3024383 125.058895,56.9555371 120.812513,57.8149708 Z" id="Path-28" stroke="#64985B" stroke-width="2.5" fill="#8CA35F"></path>
                <path d="M150.908827,298.11949 C150.908827,298.11949 144.728872,184.016091 139.146291,130.376523 C137.797882,117.420496 134.128613,115.752583 127.569427,89.2815043 C121.01024,62.8104258 116.832212,44.0800671 114.168466,28.1923465 C111.504719,12.304626 121.219092,1.28333047 121.219092,1.28333047" id="Path-14" stroke="#64985B" stroke-width="3"></path>
                <path d="M197.676265,138.293678 C197.676265,138.293678 189.953109,155.894602 175.635587,148.935065 C159.693217,138.498258 174.127108,114.328033 175.635587,110.918464 C177.144066,107.508895 229.085087,110.886464 229.085087,110.886464 C229.362623,110.904137 229.670099,111.125063 229.774323,111.391375 C229.774323,111.391375 246.718286,152.964395 223.483734,155.894602 C206.356845,158.12905 177.459995,110.918464 177.459995,110.918464" id="Path-24" stroke="#64985B" stroke-width="2.5" fill="#8CA35F"></path>
                <path d="M208.396434,148.879831 C208.396434,148.879831 179.17143,188.334359 173.375231,222.507095 C165.244957,248.826625 162.901059,297.006669 162.901059,297.006669 C162.87196,297.557816 162.86823,297.556004 162.892914,297.007334 C162.892914,297.007334 166.01076,225.32305 171.031345,191.061742 C173.397626,174.913845 175.462049,157.440636 179.17143,144.681101 C182.880812,131.921566 187.240294,125.229011 187.240294,125.229011" id="Path-10" stroke="#64985B" stroke-width="3"></path>
                <path d="M177.85131,269.747333 C177.85131,269.747333 186.716975,264.710047 196.418847,266.628719 C206.120718,268.547391 205.776678,273.730935 210.205683,276.145834 C214.634689,278.560733 222.312252,280.788772 222.312252,280.788772 C222.40429,280.815886 222.385084,280.850177 222.282239,280.86338 C222.282239,280.86338 205.198243,283.160195 194.583759,280.837866 C183.969276,278.515537 177.85131,269.747333 177.85131,269.747333 Z" id="Path-11" stroke="#64985B" stroke-width="2.5" fill="#64985B"></path>
                <path d="M177.293772,270.288033 C164.858112,280.265969 163.548349,282.385059 163.548349,282.385059" id="Path-12" stroke="#64985B" stroke-width="3"></path>
                <path d="M181.459558,79.0233329 C184.051631,79.0233329 195.908833,64.9624116 204.04687,58.9888476 C212.184906,53.0152837 224.295055,49.038254 227.799392,45.0085001 C231.30373,40.9787462 233.714031,29.5212867 238.642139,22.1720133 C243.570247,14.8227398 251.031452,10.1557639 251.031452,10.1557639 C251.166684,10.0683234 251.136491,9.96945236 250.982797,9.93986346 C250.982797,9.93986346 244.857443,8.65750286 235.793162,8.65750286 C226.728882,8.65750286 223.525923,7.74617319 217.67182,8.65750286 C211.817718,9.56883254 195.911506,20.001079 186.237274,26.491911 C176.563042,32.982743 158.485372,45.0085001 156.817428,49.4871663 C155.149483,53.9658325 156.311573,60.7248324 163.292376,68.4050383 C170.273179,76.0852442 178.867486,79.0233329 181.459558,79.0233329 Z" id="Path-27" stroke="#64985B" stroke-width="2.5" fill="#8CA35F"></path>
                <path d="M93.3795632,117.499871 C93.3795632,117.499871 80.6955884,121.064698 64.4056284,121.923749 C48.1156684,122.782801 39.3465673,121.125665 36.0714844,121.923749 C32.7964014,122.721833 28.3823673,126.296625 23.9637638,130.336041 C19.5451602,134.375457 12.8129187,143.150615 14.570296,145.337655 C17.5163096,149.003942 26.5251781,145.764944 39.3465673,141.250701 C52.1679566,136.736458 54.0814687,133.906339 61.5325127,130.975892 C82.5284493,122.718325 90.6438949,117.499871 93.3795632,117.499871 C99.7598053,117.499871 101.991442,118.744268 108.100486,124.146063 C114.20953,129.547858 116.475653,136.97779 112.645799,142.028324 C108.574316,147.397501 98.2359987,141.18546 87.2482658,137.240286 C76.2605328,133.295111 64.1012489,129.973994 64.1012489,129.973994" id="Path-21" stroke="#64985B" stroke-width="2.5" fill="#8CA35F"></path>
                <path d="M163.094073,297.567199 C163.094073,297.567199 163.094073,210.077753 158.64725,172.752462 C150.558394,127.084497 133.317595,108.823949 133.317595,108.823949" id="Path-13" stroke="#64985B" stroke-width="3"></path>
                <path d="M151.481437,297.344219 C151.481437,297.344219 148.667908,226.571921 130.983234,178.445406 C113.29856,130.318891 78.9797357,122.877799 78.9797357,122.877799" id="Path-15" stroke="#64985B" stroke-width="3"></path>
                <path d="M149.292373,269.40843 C149.292373,269.40843 141.718638,254.739316 133.789481,246.903514 C125.860324,239.067712 111.852175,232.374086 111.852175,232.374086" id="Path-16" stroke="#64985B" stroke-width="3"></path>
                <path d="M175.754216,111.379337 C175.754216,111.379337 179.469234,62.5249011 191.765608,45.7025669 C209.249132,18.5374916 249.433858,10.5802335 249.433858,10.5802335" id="Path-17" stroke="#64985B" stroke-width="3"></path>
                <path d="M114.146309,233.630814 C113.088591,235.515794 82.316106,230.859803 76.3542358,232.355172 C70.3923656,233.850542 67.7492608,238.369611 58.4289606,241.743449 C49.1086605,245.117286 40.527561,245.786738 38.4574073,244.204196 C36.7314957,242.884812 49.8514077,225.136708 74.1508934,220.892706 C98.4503792,216.648705 115.204028,231.745835 114.146309,233.630814 Z" id="Path-18" stroke="#64985B" stroke-width="2.5" fill="#64985B"></path>
                <path d="M135.339526,110.387755 C135.419957,110.449609 135.400313,110.480849 135.285652,110.455517 C135.285652,110.455517 91.0828431,100.521389 65.2031554,104.777501 C39.3234677,109.033614 0.236986063,118.687329 0.236986063,112.113838 C0.236986063,105.540348 15.4305151,102.585688 33.6543533,92.4722796 C51.8781916,82.3588716 55.2628759,77.7988622 65.3652235,77.7988622 C93.2884892,77.7988622 135.339526,110.387755 135.339526,110.387755 Z" id="Path-22" stroke="#64985B" stroke-width="2.5" fill="#8CA35F"></path>
                <path d="M135.260098,110.055732 C135.301911,110.088254 135.322641,110.073121 135.30621,110.021899 C135.30621,110.021899 127.332939,84.5821127 113.106692,78.428657 C98.8804457,72.2752012 60.8523107,77.786824 60.8523107,77.786824 C60.8057972,77.7934725 60.8117076,77.7974839 60.8656083,77.7960312 C60.8656083,77.7960312 70.4168407,77.4453129 80.4616802,80.7671189 C90.5065198,84.0889249 86.8011915,80.7381883 104.160765,90.0223468 C121.520338,99.3065053 135.260098,110.055732 135.260098,110.055732 Z" id="Path-23" stroke="#64985B" stroke-width="2.5" fill="#8CA35F"></path>
                <path d="M269.447023,90.7103525 C269.447023,90.7103525 253.089441,96.9062673 246.828227,100.732708 C240.567012,104.559149 231.567021,114.463452 231.567021,114.463452" id="Path-26" stroke="#64985B" stroke-width="2.5"></path>
                <path d="M123.297978,364.651558 C123.386423,365.197081 123.898994,365.639315 124.448236,365.639315 C124.448236,365.639315 138.698837,365.639315 156.24488,365.639315 C173.790922,365.639315 188.549547,365.639315 188.549547,365.639315 C189.099464,365.639315 189.615312,365.187007 189.698241,364.651558 L200.500289,294.905774 C200.508558,294.852381 200.461806,294.809098 200.41443,294.809098 L156.24488,294.809098 L112.07533,294.809098 C112.019641,294.809098 111.98282,294.860435 111.990171,294.905774 L123.297978,364.651558 Z" id="Path-9" stroke="#C48CA1" stroke-width="3" fill="#C48CA1"></path>
                <g id="Rectangle-10">
                    <use fill="#13314D" fill-rule="evenodd" xlink:href="#path-1"></use>
                    <path stroke="#13314D" stroke-width="1" d="M113.802409,314.214286 C114.233486,314.214286 114.63436,314.214286 117.031669,314.214286 C120.898066,314.214286 120.898066,314.214286 126.466989,314.214286 C139.749249,314.214286 139.749249,314.214286 156.566622,314.214286 C173.320803,314.214286 173.320803,314.214286 186.413491,314.214286 C191.887627,314.214286 191.887627,314.214286 195.675036,314.214286 C198.011727,314.214286 198.409098,314.214286 198.827977,314.214286 L197.6955,319.555251 C197.274244,319.555186 196.718008,319.555108 194.476202,319.554791 C191.582155,319.554396 188.371952,319.554001 184.933144,319.553633 C176.235692,319.552701 167.593739,319.552095 159.52262,319.551971 C158.043333,319.551952 158.043333,319.551952 156.566622,319.551948 C154.538558,319.551948 154.538558,319.551948 152.503563,319.551948 C139.285164,319.551948 139.285164,319.551948 127.966162,319.551948 C122.29948,319.551948 122.29948,319.551948 118.262249,319.551948 C115.570247,319.551948 115.262014,319.551948 114.753893,319.551948 L114.109443,314.214286 L113.802409,314.214286 Z"></path>
                </g>
            </g>
        </g>
    </g>
</svg>