<?xml version="1.0" encoding="UTF-8"?>
<svg width="120px" height="280px" viewBox="0 0 120 280" version="1.1" xmlns="http://www.w3.org/2000/svg" xmlns:xlink="http://www.w3.org/1999/xlink">
    <!-- Generator: Sketch 43.2 (39069) - http://www.bohemiancoding.com/sketch -->
    <title>Group 2</title>
    <desc>Created with Sketch.</desc>
    <defs>
        <path d="M6.3714187,127.864358 C6.21535207,126.216068 7.42518105,124.879864 9.08772026,124.879864 L118.528111,124.879864 C120.184349,124.879864 121.416613,126.224415 121.28198,127.864358 L109.224435,274.734778 C109.089116,276.383069 107.643476,277.719272 105.98689,277.719272 L23.5527983,277.719272 C21.9000706,277.719272 20.4329628,276.374721 20.2776865,274.734778 L6.3714187,127.864358 Z" id="path-1"></path>
        <path d="M6.3714187,126.273587 C6.21535207,124.625297 6.8434066,124.409976 7.76769937,125.782972 L107.300554,273.634623 C108.227765,275.011954 107.643476,276.128501 105.98689,276.128501 L23.5527983,276.128501 C21.9000706,276.128501 20.4329628,274.78395 20.2776865,273.144007 L6.3714187,126.273587 Z" id="path-2"></path>
    </defs>
    <g id="Page-1" stroke="none" stroke-width="1" fill="none" fill-rule="evenodd">
        <g id="A4" transform="translate(-236.000000, -411.000000)">
            <g id="Group-2" transform="translate(231.000000, 413.000000)">
                <path d="M95.3838071,131.672471 C98.4006908,131.672471 107.937138,108.07642 107.937138,78.9692157 C107.937138,49.8620114 98.0959224,26.2659602 95.3838071,26.2659602 C92.6716917,26.2659602 83.0450577,49.8620114 83.0450577,78.9692157 C83.0450577,108.07642 92.3669233,131.672471 95.3838071,131.672471 Z" id="Oval-3" stroke="#408F62" stroke-width="4" fill="#408F62" transform="translate(95.491098, 78.969216) rotate(30.000000) translate(-95.491098, -78.969216) "></path>
                <g id="Group" transform="translate(0.000000, 50.456511)" stroke="#1AB68B" stroke-width="4" fill="#1AB68B">
                    <path d="M37.7669534,85.3940333 C40.3192875,85.3940333 48.3872816,65.4313788 48.3872816,40.8061967 C48.3872816,16.1810145 40.0614484,-3.78163995 37.7669534,-3.78163995 C35.4724584,-3.78163995 27.3281648,16.1810145 27.3281648,40.8061967 C27.3281648,65.4313788 35.2146192,85.3940333 37.7669534,85.3940333 Z" id="Oval-3" transform="translate(37.857723, 40.806197) rotate(-42.000000) translate(-37.857723, -40.806197) "></path>
                </g>
                <path d="M66.8866279,126.141277 C70.4969701,126.141277 81.9093546,97.9035903 81.9093546,63.0706385 C81.9093546,28.2376867 70.1322499,0 66.8866279,0 C63.6410059,1.68311983e-15 52.1206937,28.2376867 52.1206937,63.0706385 C52.1206937,97.9035903 63.2762858,126.141277 66.8866279,126.141277 Z" id="Oval-3" stroke="#159C67" stroke-width="4" fill="#159C67"></path>
                <g id="Rectangle-4" transform="translate(63.824955, 201.299568) scale(1, -1) translate(-63.824955, -201.299568) ">
                    <use fill="#0E4D66" fill-rule="evenodd" xlink:href="#path-1"></use>
                    <path stroke="#0E4D66" stroke-width="4" d="M8.36251348,127.675834 C8.31732795,127.198609 8.60696468,126.879864 9.08772026,126.879864 L118.528111,126.879864 C119.012115,126.879864 119.327918,127.222835 119.288686,127.700716 L107.231141,274.571136 C107.180848,275.183749 106.600396,275.719272 105.98689,275.719272 L23.5527983,275.719272 C22.9359553,275.719272 22.3272327,275.163586 22.2687813,274.546254 L8.36251348,127.675834 Z"></path>
                </g>
                <g id="Rectangle-4" transform="translate(57.044183, 200.504183) scale(1, -1) translate(-57.044183, -200.504183) ">
                    <use fill="#FFFFFF" fill-rule="evenodd" xlink:href="#path-2"></use>
                    <path stroke="#FFFFFF" stroke-width="4" d="M8.82118074,130.929256 L105.222064,274.128501 L23.5527983,274.128501 C22.9359553,274.128501 22.3272327,273.572815 22.2687813,272.955482 L8.82118074,130.929256 Z"></path>
                </g>
            </g>
        </g>
    </g>
</svg>