<?xml version="1.0" encoding="UTF-8"?>
<svg width="214px" height="357px" viewBox="0 0 214 357" version="1.1" xmlns="http://www.w3.org/2000/svg" xmlns:xlink="http://www.w3.org/1999/xlink">
    <!-- Generator: Sketch 43.2 (39069) - http://www.bohemiancoding.com/sketch -->
    <title>Group</title>
    <desc>Created with Sketch.</desc>
    <defs></defs>
    <g id="Page-1" stroke="none" stroke-width="1" fill="none" fill-rule="evenodd">
        <g id="A4" transform="translate(-191.000000, -335.000000)">
            <g id="Group" transform="translate(192.000000, 336.000000)">
                <g id="Stalks" transform="translate(20.950820, 8.719212)" stroke="#678F49" stroke-width="3" stroke-linecap="round">
                    <path d="M164.693244,24.4137931 C164.693244,24.4137931 150.23119,40.9549339 139.142016,89.3808848 C128.052843,137.806836 125.704918,195.196862 125.704918,195.196862" id="Line"></path>
                    <path d="M86.8681555,0 C86.8681555,0 64.5149216,44.3691047 56.3129665,89.3538568 C48.1110114,134.338609 51.2021589,195.61507 51.2021589,195.61507" id="Line" transform="translate(68.749652, 97.807535) scale(-1, 1) translate(-68.749652, -97.807535) "></path>
                    <path d="M56.1955517,69.7536946 C56.1955517,69.7536946 30.0534006,81.1678057 12.9354474,116.286116 C-4.18250578,151.404427 0.620612952,195.61507 0.620612952,195.61507" id="Line" transform="translate(28.097776, 132.684382) scale(-1, 1) translate(-28.097776, -132.684382) "></path>
                    <path d="M73.1040734,115.942088 C73.1040734,115.942088 37.4249875,82.6438188 14.5302965,115.942088 C-1.94970262,136.826484 2.21546207,195.271041 2.21546207,195.271041" id="Line" transform="translate(37.424988, 148.206949) scale(-1, 1) translate(-37.424988, -148.206949) "></path>
                    <path d="M164.274554,76.729064 C164.274554,76.729064 129.569794,81.4523237 112.451841,116.570634 C95.3338877,151.688945 100.137006,195.899588 100.137006,195.899588" id="Line"></path>
                    <path d="M183.333348,133.337903 C183.333348,133.337903 152.0368,92.4617899 128.595289,118.585324 C109.896884,139.755169 116.280454,197.914277 116.280454,197.914277" id="Line"></path>
                </g>
                <g id="Pot" transform="translate(22.696721, 202.285714)" fill="#D1A1AC">
                    <path d="M7.74124672,4.39024181 C6.0875829,4.39024181 5.13714554,5.67464244 5.62054248,7.26613247 L49.1893969,150.708078 C49.3504134,151.238194 49.9288004,151.667937 50.4819205,151.667937 L137.61047,151.667937 C138.163294,151.667937 138.737703,151.245449 138.898289,150.708078 L182.336797,5.35010107 C182.495216,4.81998544 182.174567,4.39024181 181.62329,4.39024181 L7.74124672,4.39024181 Z" id="Path" stroke="#D1A1AC" stroke-width="4"></path>
                    <rect id="Rectangle" x="0" y="0" width="186.811475" height="24.4137931" rx="8"></rect>
                </g>
                <g id="Pot-Detaiks" transform="translate(49.885246, 270.551724)" fill="#13314D">
                    <polygon id="Path-4" stroke="#13314D" stroke-width="2" points="8.35432203 1.21412908 0.191026816 12.1754177 8.35432203 23.7389804 16.5176172 12.1754177"></polygon>
                    <polygon id="Path-4" stroke="#13314D" stroke-width="2" points="27.3464968 1.22680618 19.1832016 12.1880948 27.3464968 23.7516575 35.509792 12.1880948"></polygon>
                    <polygon id="Path-4" stroke="#13314D" stroke-width="2" points="46.5514149 1.22680618 38.3881196 12.1880948 46.5514149 23.7516575 54.7147101 12.1880948"></polygon>
                    <polygon id="Path-4" stroke="#13314D" stroke-width="2" points="65.7563329 1.22680618 57.5930377 12.1880948 65.7563329 23.7516575 73.9196281 12.1880948"></polygon>
                    <polygon id="Path-4" stroke="#13314D" stroke-width="2" points="84.9612509 1.22680618 76.7979557 12.1880948 84.9612509 23.7516575 93.1245461 12.1880948"></polygon>
                    <polygon id="Path-4" stroke="#13314D" stroke-width="2" points="104.166169 1.22680618 96.0028737 12.1880948 104.166169 23.7516575 112.329464 12.1880948"></polygon>
                    <polygon id="Path-4" stroke="#13314D" stroke-width="2" points="123.371087 1.22680618 115.207792 12.1880948 123.371087 23.7516575 131.534382 12.1880948"></polygon>
                    <polygon id="Path-4" points="138.293995 0.531693188 132.47632 12.4845138 133.861759 15.2801138"></polygon>
                </g>
                <path d="M106.809694,106.173887 C106.809694,106.173887 120.484227,97.1560442 123.334408,91.0524129 C126.184589,84.9487816 127.401611,72.1331211 127.401611,72.1331211 C127.428788,71.8668376 127.246108,71.7387089 127.000309,71.8472441 C127.000309,71.8472441 115.781,76.4977104 111.251282,84.0738035 C106.721563,91.6498965 106.809694,106.173887 106.809694,106.173887 Z" id="Oval-2" stroke="#8CA35F" stroke-width="2" fill="#8CA35F"></path>
                <path d="M171.356683,62.1450516 C171.356683,62.1450516 182.636923,61.5267812 191.438946,57.7228118 C200.240969,53.9188424 205.596461,47.3000625 205.120493,47.2879711 C205.120493,47.2879711 195.831753,46.731771 187.915002,50.2779956 C179.998251,53.8242202 171.356683,62.1450516 171.356683,62.1450516 Z" id="Oval-2" stroke="#678F49" stroke-width="2" fill="#678F49" transform="translate(188.253238, 54.700655) rotate(-9.000000) translate(-188.253238, -54.700655) "></path>
                <path d="M138.447241,71.7432699 C138.447241,71.7432699 149.727482,71.1249996 158.529505,67.3210301 C167.331528,63.5170607 172.68702,56.8982809 172.211051,56.8861894 C172.211051,56.8861894 162.922312,56.3299893 155.005561,59.8762139 C147.08881,63.4224385 138.447241,71.7432699 138.447241,71.7432699 Z" id="Oval-2" stroke="#8CA35F" stroke-width="2" fill="#8CA35F" transform="translate(155.343796, 64.298873) rotate(-79.000000) translate(-155.343796, -64.298873) "></path>
                <path d="M123.1989,96.8211896 C123.1989,96.8211896 133.26198,98.0936745 142.442639,93.0849976 C151.623298,88.0763208 155.475577,79.4838218 154.999608,79.4717303 C154.999608,79.4717303 147.714208,77.0496677 137.794118,82.4617548 C127.874027,87.8738419 123.1989,96.8211896 123.1989,96.8211896 Z" id="Oval-2" stroke="#678F49" stroke-width="2" fill="#678F49" transform="translate(139.118800, 87.948528) rotate(-79.000000) translate(-139.118800, -87.948528) "></path>
                <path d="M110.306778,149.771829 C110.306778,149.771829 123.981311,140.753986 126.831492,134.650354 C129.681673,128.546723 130.898695,115.731063 130.898695,115.731063 C130.925872,115.464779 130.743192,115.33665 130.497393,115.445186 C130.497393,115.445186 119.278084,120.095652 114.748366,127.671745 C110.218647,135.247838 110.306778,149.771829 110.306778,149.771829 Z" id="Oval-2" stroke="#678F49" stroke-width="2" fill="#678F49" transform="translate(120.604015, 132.589201) rotate(5.000000) translate(-120.604015, -132.589201) "></path>
                <path d="M154.518169,189.86555 C154.518169,189.86555 163.585734,185.122261 167.929497,177.593079 C172.27326,170.063898 171.314025,162.335072 171.314025,162.335072 C171.289901,162.065529 171.070193,161.933083 170.80492,162.051151 C170.80492,162.051151 161.79921,165.780597 158.122926,171.929295 C154.446642,178.077992 154.518169,189.86555 154.518169,189.86555 Z" id="Oval-2" stroke="#678F49" stroke-width="2" fill="#678F49" transform="translate(162.961060, 175.936674) rotate(11.000000) translate(-162.961060, -175.936674) "></path>
                <path d="M73.5283139,100.123874 C73.5283139,100.123874 87.2028464,91.1060304 90.0530276,85.0023991 C92.9032089,78.8987678 94.1202303,66.0831073 94.1202303,66.0831073 C94.1474077,65.8168238 93.9647279,65.6886952 93.7189289,65.7972303 C93.7189289,65.7972303 82.4996201,70.4476966 77.9699016,78.0237897 C73.4401831,85.5998827 73.5283139,100.123874 73.5283139,100.123874 Z" id="Oval-2" stroke="#678F49" stroke-width="2" fill="#678F49" transform="translate(83.825551, 82.941245) rotate(-85.000000) translate(-83.825551, -82.941245) "></path>
                <path d="M4.13381849,142.891283 C4.13381849,142.891283 11.3150821,141.474172 15.3245475,135.920233 C19.334013,130.366294 20.179614,121.043164 20.179614,121.043164 C20.208731,120.774681 20.0185333,120.632974 19.7634639,120.72681 C19.7634639,120.72681 10.9560931,123.733135 7.33587946,128.74788 C3.71566582,133.762625 4.13381849,142.891283 4.13381849,142.891283 Z" id="Oval-2" stroke="#678F49" stroke-width="2" fill="#678F49" transform="translate(12.150826, 131.794565) rotate(-159.000000) translate(-12.150826, -131.794565) "></path>
                <path d="M84.4509416,131.725391 C84.4509416,131.725391 94.3127494,125.221898 96.3682449,120.820077 C98.4237404,116.418256 99.2851282,107.328143 99.2851282,107.328143 C99.3137328,107.051996 99.1261913,106.919039 98.8753535,107.031254 C98.8753535,107.031254 90.9208737,110.323508 87.6541285,115.787239 C84.3873833,121.250971 84.4509416,131.725391 84.4509416,131.725391 Z" id="Oval-2" stroke="#8CA35F" stroke-width="2" fill="#8CA35F" transform="translate(91.869433, 119.358403) rotate(-85.000000) translate(-91.869433, -119.358403) "></path>
                <path d="M51.196495,161.384039 C51.196495,161.384039 59.2913116,156.273401 63.1137983,150.478725 C66.936285,144.684049 66.0991398,136.677597 66.0991398,136.677597 C66.0899359,136.572213 65.9958828,136.51984 65.8907146,136.561308 C65.8907146,136.561308 58.4603057,139.296722 54.3996819,145.445887 C50.3390582,151.595052 51.196495,161.384039 51.196495,161.384039 Z" id="Oval-2" stroke="#8CA35F" stroke-width="2" fill="#8CA35F" transform="translate(58.648855, 148.965564) rotate(-85.000000) translate(-58.648855, -148.965564) "></path>
                <path d="M150.473857,125.430206 C150.473857,125.430206 160.335664,118.926712 162.39116,114.524891 C164.446655,110.12307 165.308043,101.032957 165.308043,101.032957 C165.336648,100.75681 165.149106,100.623853 164.898268,100.736069 C164.898268,100.736069 156.943789,104.028322 153.677043,109.492053 C150.410298,114.955785 150.473857,125.430206 150.473857,125.430206 Z" id="Oval-2" stroke="#8CA35F" stroke-width="2" fill="#8CA35F" transform="translate(157.892348, 113.063217) scale(-1, 1) rotate(-106.000000) translate(-157.892348, -113.063217) "></path>
                <path d="M78.089792,164.033774 C78.089792,164.033774 87.9515999,157.53028 90.0070954,153.12846 C92.0625909,148.726639 92.9239786,139.636526 92.9239786,139.636526 C92.9525832,139.360378 92.7650418,139.227422 92.514204,139.339637 C92.514204,139.339637 84.5597242,142.63189 81.292979,148.095622 C78.0262338,153.559353 78.089792,164.033774 78.089792,164.033774 Z" id="Oval-2" stroke="#8CA35F" stroke-width="2" fill="#8CA35F" transform="translate(85.508283, 151.666786) scale(-1, 1) rotate(-61.000000) translate(-85.508283, -151.666786) "></path>
                <path d="M104.351204,28.0648672 C104.351204,28.0648672 99.8350076,32.9576179 96.9197198,40.6283284 C94.0044321,48.2990389 92.4240878,59.4475165 92.4240878,59.4475165" id="Line" stroke="#678F49" stroke-width="3" stroke-linecap="round"></path>
                <path d="M188.038339,65.6724141 C188.038339,65.6724141 180.360572,71.298612 175.516398,81.9222262 C170.672223,92.5458403 168.393299,108.755365 168.393299,108.755365" id="Line" stroke="#678F49" stroke-width="3" stroke-linecap="round" transform="translate(178.215819, 87.213890) rotate(27.000000) translate(-178.215819, -87.213890) "></path>
                <path d="M109.588909,52.4786603 C109.588909,52.4786603 106.260737,54.8515924 103.373653,62.3883606 C100.48657,69.9251289 98.7901706,80.6689013 98.7901706,80.6689013" id="Line" stroke="#678F49" stroke-width="3" stroke-linecap="round"></path>
                <path d="M195.864312,127.300493 C195.864312,127.300493 192.53614,129.673425 189.649057,137.210193 C186.761973,144.746961 185.065574,155.490734 185.065574,155.490734" id="Line" stroke="#678F49" stroke-width="3" stroke-linecap="round" transform="translate(190.464943, 141.395613) rotate(149.000000) translate(-190.464943, -141.395613) "></path>
                <path d="M188.760945,127.685093 C188.760945,127.685093 182.284168,130.341282 180.891186,134.394719 C179.498204,138.448155 179.214757,142.654286 179.214757,142.654286" id="Line" stroke="#678F49" stroke-width="3" stroke-linecap="round" transform="translate(183.987851, 135.169689) rotate(157.000000) translate(-183.987851, -135.169689) "></path>
                <path d="M95.4283081,50.9705136 C95.4283081,50.9705136 90.1391671,53.6082766 83.7178798,59.2484502 C77.2965924,64.8886237 72.0074515,71.5423534 72.0074515,71.5423534" id="Line" stroke="#678F49" stroke-width="3" stroke-linecap="round" transform="translate(83.717880, 61.256434) scale(-1, 1) translate(-83.717880, -61.256434) "></path>
                <path d="M76.5052082,174.840964 C76.5052082,174.840964 70.1158526,177.465985 65.4617104,182.356072 C60.8075682,187.246159 58.0943269,194.185196 58.0943269,194.185196" id="Line" stroke="#678F49" stroke-width="3" stroke-linecap="round" transform="translate(67.299768, 184.513080) scale(-1, 1) translate(-67.299768, -184.513080) "></path>
                <path d="M70.0219341,183.940461 C70.0219341,183.940461 67.970041,183.325917 63.3818687,183.940461 C58.7936963,184.555004 56.7418033,185.719212 56.7418033,185.719212" id="Line" stroke="#678F49" stroke-width="3" stroke-linecap="round"></path>
                <path d="M46.1118617,89.7989908 C46.1118617,89.7989908 40.8227208,92.4367539 34.4014334,98.0769274 C27.9801461,103.717101 22.6910051,110.370831 22.6910051,110.370831" id="Line" stroke="#678F49" stroke-width="3" stroke-linecap="round" transform="translate(34.401433, 100.084911) scale(-1, 1) rotate(31.000000) translate(-34.401433, -100.084911) "></path>
                <path d="M51.3495667,114.212784 C51.3495667,114.212784 46.0604257,116.850547 39.6391383,122.490721 C33.217851,128.130894 27.92871,134.784624 27.92871,134.784624" id="Line" stroke="#678F49" stroke-width="3" stroke-linecap="round" transform="translate(39.639138, 124.498704) scale(-1, 1) rotate(98.000000) translate(-39.639138, -124.498704) "></path>
                <path d="M56.9547141,71.8384143 C56.9547141,71.8384143 51.6655732,74.4761773 45.2442858,80.1163509 C38.8229984,85.7565244 33.5338575,92.4102541 33.5338575,92.4102541" id="Line" stroke="#678F49" stroke-width="3" stroke-linecap="round" transform="translate(45.244286, 82.124334) rotate(-55.000000) translate(-45.244286, -82.124334) "></path>
                <path d="M56.4152818,70.7929868 C56.4152818,70.7929868 53.4173549,72.8288315 48.9410998,78.3082923 C44.4648447,83.787753 42.7202923,87.6813022 42.7202923,87.6813022" id="Line" stroke="#678F49" stroke-width="3" stroke-linecap="round" transform="translate(49.567787, 79.237144) rotate(-13.000000) translate(-49.567787, -79.237144) "></path>
                <path d="M178.371751,37.2397992 C178.371751,37.2397992 174.676137,39.0828493 170.189474,43.0237351 C165.702811,46.9646209 162.007197,51.6136957 162.007197,51.6136957" id="Line" stroke="#678F49" stroke-width="3" stroke-linecap="round" transform="translate(170.189474, 44.426747) scale(-1, 1) rotate(-32.000000) translate(-170.189474, -44.426747) "></path>
                <ellipse id="Oval" stroke="#FFFFFF" stroke-width="2" fill="#FFFCFC" cx="107.372951" cy="23.5418719" rx="4.3647541" ry="4.35960591"></ellipse>
                <ellipse id="Oval" stroke="#FFFFFF" stroke-width="2" fill="#FFFCFC" cx="112.610656" cy="47.955665" rx="4.3647541" ry="4.35960591"></ellipse>
                <ellipse id="Oval" stroke="#FFFFFF" stroke-width="2" fill="#FFFCFC" cx="68.9631148" cy="4.35960591" rx="4.3647541" ry="4.35960591"></ellipse>
                <ellipse id="Oval" stroke="#FFFFFF" stroke-width="2" fill="#FFFCFC" cx="189.430328" cy="28.773399" rx="4.3647541" ry="4.35960591"></ellipse>
                <ellipse id="Oval" stroke="#FFFFFF" stroke-width="2" fill="#FFFCFC" cx="201.651639" cy="70.6256158" rx="4.3647541" ry="4.35960591"></ellipse>
                <ellipse id="Oval" stroke="#FFFFFF" stroke-width="2" fill="#FFFCFC" cx="191.17623" cy="84.5763547" rx="4.3647541" ry="4.35960591"></ellipse>
                <ellipse id="Oval" stroke="#FFFFFF" stroke-width="2" fill="#FFFCFC" cx="206.889344" cy="147.35468" rx="4.3647541" ry="4.35960591"></ellipse>
                <ellipse id="Oval" stroke="#FFFFFF" stroke-width="2" fill="#FFFCFC" cx="191.17623" cy="161.305419" rx="4.3647541" ry="4.35960591"></ellipse>
                <ellipse id="Oval" stroke="#FFFFFF" stroke-width="2" fill="#FFFCFC" cx="178.954918" cy="149.098522" rx="4.3647541" ry="4.35960591"></ellipse>
                <ellipse id="Oval" stroke="#FFFFFF" stroke-width="2" fill="#FFFCFC" cx="164.987705" cy="28.773399" rx="4.3647541" ry="4.35960591"></ellipse>
                <ellipse id="Oval" stroke="#FFFFFF" stroke-width="2" fill="#FFFCFC" cx="67.2172131" cy="47.955665" rx="4.3647541" ry="4.35960591"></ellipse>
                <ellipse id="Oval" stroke="#FFFFFF" stroke-width="2" fill="#FFFCFC" cx="16.1760663" cy="74.4711502" rx="4.3647541" ry="4.35960591"></ellipse>
                <ellipse id="Oval" stroke="#FFFFFF" stroke-width="2" fill="#FFFCFC" cx="12.684263" cy="97.141101" rx="4.3647541" ry="4.35960591"></ellipse>
                <ellipse id="Oval" stroke="#FFFFFF" stroke-width="2" fill="#FFFCFC" cx="28.3973778" cy="142.481002" rx="4.3647541" ry="4.35960591"></ellipse>
                <ellipse id="Oval" stroke="#FFFFFF" stroke-width="2" cx="53.25" cy="171.768473" rx="4.3647541" ry="4.35960591"></ellipse>
                <ellipse id="Oval" stroke="#FFFFFF" stroke-width="2" fill="#FFFCFC" cx="51.5040984" cy="187.463054" rx="4.3647541" ry="4.35960591"></ellipse>
                <ellipse id="Oval" stroke="#FFFFFF" stroke-width="2" fill="#FFFCFC" cx="44.1104926" cy="60.5204113" rx="4.3647541" ry="4.35960591"></ellipse>
                <ellipse id="Oval" stroke="#FFFFFF" stroke-width="2" fill="#FFFCFC" cx="58.0777057" cy="64.008096" rx="4.3647541" ry="4.35960591"></ellipse>
                <ellipse id="Oval" stroke="#FFFFFF" stroke-width="2" fill="#FFFCFC" cx="53.25" cy="171.768473" rx="4.3647541" ry="4.35960591"></ellipse>
                <polygon id="Rectangle-6" fill="#8C6B73" points="31.4647707 226.699507 201.441259 226.699507 198.815366 235.418719 34.0864129 235.418719"></polygon>
            </g>
        </g>
    </g>
</svg>