<?xml version="1.0" encoding="UTF-8"?>
<svg width="230px" height="412px" viewBox="0 0 230 412" version="1.1" xmlns="http://www.w3.org/2000/svg" xmlns:xlink="http://www.w3.org/1999/xlink">
    <!-- Generator: Sketch 43.2 (39069) - http://www.bohemiancoding.com/sketch -->
    <title>Group</title>
    <desc>Created with Sketch.</desc>
    <defs>
        <path d="M53.1301581,310.499435 C53.3468329,309.709769 54.1806343,309.172238 55.0084414,309.297245 C55.0084414,309.297245 86.9070044,314.44704 125.063362,314.44704 C163.21972,314.44704 196.40713,309.288759 196.40713,309.288759 C197.225286,309.167731 197.960377,309.728221 198.046104,310.570314 C198.046104,310.570314 200.381518,330.505261 197.888532,345.900552 C193.123889,375.445574 170.640826,405.732847 170.640826,405.732847 C170.162555,406.397424 169.147855,407.197545 168.38291,407.493516 C168.38291,407.493516 154.486283,413.818071 125.701529,413.818071 C96.916774,413.818071 83.0240458,407.487712 83.0240458,407.487712 C82.2647723,407.183104 81.2810977,406.376065 80.831665,405.67728 C80.831665,405.67728 64.7496604,381.804724 53.5224825,345.900552 C48.3875283,325.165525 53.1301581,310.499435 53.1301581,310.499435 Z" id="path-1"></path>
        <path d="M181.856454,388.140051 C176.199173,398.204604 170.650933,405.719215 170.650933,405.719215 C170.16708,406.391321 169.147855,407.197545 168.38291,407.493516 C168.38291,407.493516 154.486283,413.818071 125.701529,413.818071 C96.916774,413.818071 83.0240458,407.487712 83.0240458,407.487712 C82.2647723,407.183104 81.2862742,406.36368 80.8500811,405.66848 C80.8500811,405.66848 75.8326688,397.857791 70.7724256,388.140051 C70.7724256,388.140051 93.7033848,392.405354 125.701529,392.405354 C157.699673,392.405354 181.856454,388.140051 181.856454,388.140051 Z" id="path-2"></path>
    </defs>
    <g id="Page-1" stroke="none" stroke-width="1" fill="none" fill-rule="evenodd">
        <g id="A4" transform="translate(-186.000000, -279.000000)">
            <g id="Group" transform="translate(171.000000, 277.000000)">
                <path d="M187.424435,232.494618 C195.575437,208.947531 198.053027,200.286032 209.656317,188.914809 C221.259607,177.543586 247.530218,172.730864 247.530218,172.730864 C247.796104,172.679582 247.8134,172.54937 247.554694,172.439039 C247.554694,172.439039 203.971312,151.991332 172.158413,209.244165 C151.315598,256.304466 125.64961,321.049414 125.64961,321.049414 L164.458701,319.484308 C164.458701,319.484308 179.273433,256.041705 187.424435,232.494618 Z" id="Oval-2" stroke="#64985B" stroke-width="4" fill="#64985B" transform="translate(186.694550, 244.969225) rotate(-4.000000) translate(-186.694550, -244.969225) "></path>
                <path d="M100.799934,267.618842 C101.047048,264.080796 102.580258,260.677326 102.580258,260.677326 C102.580258,260.677326 119.93676,225.15965 125.988919,201.736403 C132.041078,178.313157 143.147405,153.87247 143.147405,153.87247 C143.169842,153.822851 143.148642,153.782994 143.079005,153.785022 C143.079005,153.785022 119.15946,153.554216 87.3465607,210.807049 C66.5037458,257.86735 24.1108509,317.159183 24.1108509,317.159183 L79.6468485,321.047193 C79.6468485,321.047193 101.442815,276.9626 101.607685,274.602076 C101.772556,272.241551 100.552819,271.156889 100.799934,267.618842 Z" id="Oval-2" stroke="#8CA35F" stroke-width="4" fill="#8CA35F" transform="translate(83.633414, 237.416070) scale(-1, 1) rotate(-4.000000) translate(-83.633414, -237.416070) "></path>
                <path d="M130.276741,312.940496 C130.378722,314.588363 130.431826,317.261088 130.424499,318.933577 C130.424499,318.933577 128.91856,357.705889 145.551788,316.980684 C157.190358,275.724051 163.52893,246.748329 171.853932,214.577719 C187.127235,146.950995 219.191659,96.7128183 219.191659,96.7128183 C219.33132,96.4906276 219.275627,96.4507236 219.054593,96.6366354 C219.054593,96.6366354 177.857486,130.354508 151.423332,190.039308 C124.989178,249.724108 130.276741,312.940496 130.276741,312.940496 Z" id="Oval-2" stroke="#8CA35F" stroke-width="4" fill="#8CA35F" transform="translate(174.556496, 216.059971) rotate(-4.000000) translate(-174.556496, -216.059971) "></path>
                <path d="M8.65036717,311.499591 C8.43657915,313.137845 9.34288772,313.676037 10.6615638,312.679593 C10.6615638,312.679593 70.8989261,270.149047 82.9455239,206.047284 C94.9921217,141.945521 139.604111,65.7149726 139.604111,65.7149726 C139.626739,65.6761757 139.61608,65.6710519 139.564861,65.7176512 C139.564861,65.7176512 68.7957643,129.815861 42.3616105,189.500661 C15.9274566,249.185461 8.65036717,311.499591 8.65036717,311.499591 Z" id="Oval-2" stroke="#64985B" stroke-width="4" fill="#64985B" transform="translate(74.117248, 189.432561) scale(-1, 1) rotate(-4.000000) translate(-74.117248, -189.432561) "></path>
                <path d="M124.043623,328.351064 L131.099178,78.4680851" id="Line" stroke="#8CA35F" stroke-width="4" stroke-linecap="round"></path>
                <path d="M60.0103616,316.12121 C60.1176713,317.767365 61.546195,319.195756 63.1912938,319.310927 L75.3216536,320.160159 C91.9548821,279.434954 108.223774,263.058531 124.628,214.069646 C141.032225,165.080761 148.777739,96.4072585 148.777739,96.4072585 C148.783676,96.355152 148.758246,96.3378138 148.708986,96.3786166 C148.708986,96.3786166 107.201437,130.356913 80.7672836,190.041713 C54.3331297,249.726513 60.0103616,316.12121 60.0103616,316.12121 Z" id="Oval-2" stroke="#A2AE88" stroke-width="4" fill="#A2AE88" transform="translate(104.138193, 208.258082) scale(-1, 1) rotate(-4.000000) translate(-104.138193, -208.258082) "></path>
                <g id="Rectangle">
                    <use fill="#D1CAD8" fill-rule="evenodd" xlink:href="#path-1"></use>
                    <path stroke="#D1CAD8" stroke-width="4" d="M55.0515237,311.053245 L55.0588704,311.028651 C55.0565623,311.037063 55.0541126,311.045261 55.0515237,311.053245 Z M54.9718137,311.316251 C55.0021356,311.320983 55.0346316,311.326042 55.0691634,311.331403 C55.3770166,311.379198 55.7409411,311.434528 56.159374,311.496763 C57.3518198,311.674121 58.7435201,311.871552 60.3219769,312.084024 C64.8265904,312.690377 69.9279847,313.296464 75.5262458,313.862014 C91.5192156,315.477664 108.297272,316.44704 125.063362,316.44704 C141.828281,316.44704 158.846242,315.476221 175.240313,313.85823 C180.978363,313.291921 186.229608,312.685047 190.884083,312.077942 C192.514815,311.865237 193.955017,311.667606 195.190933,311.490087 C195.536734,311.440419 195.84676,311.395152 196.120139,311.354605 C196.148084,311.618989 196.178438,311.917243 196.210694,312.247631 C196.325513,313.423656 196.440476,314.758104 196.547847,316.224304 C197.053228,323.125512 197.214494,330.261567 196.826524,336.904824 C196.644385,340.023625 196.343579,342.929556 195.91425,345.580853 C195.803635,346.266761 195.682765,346.956112 195.551561,347.65007 C193.511787,358.438753 189.065298,370.025466 182.930641,381.818608 C179.885799,387.67195 176.621835,393.195471 173.358842,398.216794 C172.217918,399.972527 171.159373,401.539034 170.210724,402.894935 C169.879919,403.367753 169.586871,403.779961 169.33502,404.128893 C169.185788,404.335648 169.084613,404.47382 169.034931,404.540747 C168.758428,404.924586 168.052744,405.476777 167.661213,405.628267 L167.554446,405.673173 C167.475883,405.708928 167.288723,405.788606 166.99247,405.906058 C166.478843,406.109689 165.855138,406.338791 165.120852,406.587213 C162.99692,407.305778 160.424717,408.027774 157.400136,408.703977 C148.702817,410.648432 138.147815,411.818071 125.701529,411.818071 C113.255389,411.818071 102.701268,410.647376 94.0053091,408.701174 C90.9812278,408.024368 88.4095521,407.301733 86.2861433,406.582535 C85.5520489,406.333898 84.9285235,406.1046 84.415059,405.900797 C84.1189142,405.783252 83.9318393,405.703516 83.8533323,405.667744 C83.3897063,405.479463 82.7357626,404.94053 82.5137874,404.5954 C82.423126,404.46001 82.2863298,404.252891 82.0846369,403.941137 C81.7443385,403.415143 81.348397,402.789761 80.9014455,402.067624 C79.6196554,399.996644 78.1893265,397.570128 76.6475132,394.809177 C72.2357354,386.908931 67.8215909,377.922839 63.7011465,368.020184 C60.6509312,360.689608 57.8788621,353.124332 55.4494133,345.361448 C52.6522298,334.032355 52.5697089,323.757106 54.1008638,315.187599 C54.3105489,314.014042 54.5342069,312.98633 54.7564001,312.113737 C54.8448814,311.766254 54.9183233,311.499444 54.9718137,311.316251 Z"></path>
                </g>
                <g id="Rectangle">
                    <use fill="#15304F" fill-rule="evenodd" xlink:href="#path-2"></use>
                    <path stroke="#13314D" stroke-width="4" d="M178.032797,390.762056 C176.213602,393.83082 174.33761,396.794307 172.468865,399.593312 C171.562618,400.950688 170.723403,402.170806 169.972524,403.234121 C169.710614,403.605011 169.478744,403.929423 169.279577,404.204919 C169.161475,404.368281 169.081384,404.477877 169.041963,404.531269 C168.762472,404.919254 168.051793,405.477145 167.661213,405.628267 L167.554446,405.673173 C167.475883,405.708928 167.288723,405.788606 166.99247,405.906058 C166.478843,406.109689 165.855138,406.338791 165.120852,406.587213 C162.99692,407.305778 160.424717,408.027774 157.400136,408.703977 C148.702817,410.648432 138.147815,411.818071 125.701529,411.818071 C113.255389,411.818071 102.701268,410.647376 94.0053091,408.701174 C90.9812278,408.024368 88.4095521,407.301733 86.2861433,406.582535 C85.5520489,406.333898 84.9285235,406.1046 84.415059,405.900797 C84.1189142,405.783252 83.9318393,405.703516 83.8533323,405.667744 C83.4028854,405.48475 82.7563292,404.943573 82.5442209,404.605517 C82.4961177,404.530425 82.4226782,404.415231 82.3149197,404.244848 C82.1338388,403.958531 81.9232942,403.622791 81.6857198,403.240521 C81.0053364,402.145749 80.2459563,400.899457 79.4270649,399.524837 C77.7466807,396.704084 76.0635232,393.761324 74.4354375,390.765745 C74.4757558,390.771853 74.5162498,390.777975 74.5569192,390.784112 C77.8953252,391.287909 81.7343011,391.791266 86.0198501,392.260805 C98.2545809,393.601283 111.625563,394.405354 125.701529,394.405354 C139.775801,394.405354 153.374209,393.601499 165.989544,392.261514 C170.407329,391.792263 174.388089,391.28927 177.86828,390.785907 C177.923423,390.777931 177.978263,390.769981 178.032797,390.762056 Z"></path>
                </g>
                <path d="M132.927685,76.0228961 C145.627418,76.0228961 152.740167,56.3775666 152.740167,40.9739451 C152.740167,25.5703235 144.372089,4.18006956 140.498258,4.18006956 C136.624426,4.18006956 120.851799,22.2173135 117.337775,40.1014828 C113.823752,57.9856521 120.227953,76.0228961 132.927685,76.0228961 Z" id="Path-7" stroke="#FF5994" stroke-width="3" fill="#FF5994"></path>
                <path d="M143.511018,76.0228961 C156.210751,76.0228961 163.323501,56.3775666 163.323501,40.9739451 C163.323501,25.5703235 154.955422,4.18006956 151.081591,4.18006956 C147.20776,4.18006956 131.435132,22.2173135 127.921109,40.1014828 C124.407085,57.9856521 130.811286,76.0228961 143.511018,76.0228961 Z" id="Path-7" stroke="#F0B1C9" stroke-width="3" fill="#F0B1C9" opacity="0.604959239" transform="translate(145.144830, 40.101483) rotate(14.000000) translate(-145.144830, -40.101483) "></path>
                <path d="M122.344352,76.0228961 C135.044084,76.0228961 142.156834,56.3775666 142.156834,40.9739451 C142.156834,25.5703235 133.788756,4.18006956 129.914924,4.18006956 C126.041093,4.18006956 110.268466,22.2173135 106.754442,40.1014828 C103.240418,57.9856521 109.644619,76.0228961 122.344352,76.0228961 Z" id="Path-7" stroke="#F0B1C9" stroke-width="3" fill="#F0B1C9" transform="translate(123.978164, 40.101483) rotate(-21.000000) translate(-123.978164, -40.101483) "></path>
                <ellipse id="Oval-5" stroke="#13314D" fill="#15304F" cx="58.779734" cy="331" rx="3.52777778" ry="3.53191489"></ellipse>
                <ellipse id="Oval-5" stroke="#13314D" fill="#15304F" cx="78.1825117" cy="345.12766" rx="3.52777778" ry="3.53191489"></ellipse>
                <ellipse id="Oval-5" stroke="#13314D" fill="#15304F" cx="74.654734" cy="316.87234" rx="3.52777778" ry="3.53191489"></ellipse>
                <ellipse id="Oval-5" stroke="#13314D" fill="#15304F" cx="94.0575117" cy="327.468085" rx="3.52777778" ry="3.53191489"></ellipse>
                <ellipse id="Oval-5" stroke="#13314D" fill="#15304F" cx="102.876956" cy="353.957447" rx="3.52777778" ry="3.53191489"></ellipse>
                <ellipse id="Oval-5" stroke="#13314D" fill="#15304F" cx="87.0019562" cy="369.851064" rx="3.52777778" ry="3.53191489"></ellipse>
                <path d="M64.0714006,366.319149 C66.0197385,366.319149 67.5991784,364.737857 67.5991784,362.787234 C67.5991784,360.836611 66.0197385,359.255319 64.0714006,359.255319 C62.1230628,359.255319 60.9362021,360.836611 60.9362021,362.787234 C60.9362021,364.737857 62.1230628,366.319149 64.0714006,366.319149 Z" id="Oval-5" stroke="#13314D" fill="#15304F"></path>
                <ellipse id="Oval-5" stroke="#13314D" fill="#15304F" cx="106.404734" cy="383.978723" rx="3.52777778" ry="3.53191489"></ellipse>
                <ellipse id="Oval-5" stroke="#13314D" fill="#15304F" cx="74.654734" cy="385.744681" rx="3.52777778" ry="3.53191489"></ellipse>
                <ellipse id="Oval-5" stroke="#13314D" fill="#15304F" cx="127.571401" cy="371.617021" rx="3.52777778" ry="3.53191489"></ellipse>
                <ellipse id="Oval-5" stroke="#13314D" fill="#15304F" cx="125.807512" cy="343.361702" rx="3.52777778" ry="3.53191489"></ellipse>
                <ellipse id="Oval-5" stroke="#13314D" fill="#15304F" cx="120.515845" cy="322.170213" rx="3.52777778" ry="3.53191489"></ellipse>
                <ellipse id="Oval-5" stroke="#13314D" fill="#15304F" cx="146.974178" cy="329.234043" rx="3.52777778" ry="3.53191489"></ellipse>
                <ellipse id="Oval-5" stroke="#13314D" fill="#15304F" cx="148.738067" cy="353.957447" rx="3.52777778" ry="3.53191489"></ellipse>
                <ellipse id="Oval-5" stroke="#13314D" fill="#15304F" cx="161.08529" cy="373.382979" rx="3.52777778" ry="3.53191489"></ellipse>
                <ellipse id="Oval-5" stroke="#13314D" fill="#15304F" cx="184.015845" cy="373.382979" rx="3.52777778" ry="3.53191489"></ellipse>
                <ellipse id="Oval-5" stroke="#13314D" fill="#15304F" cx="143.446401" cy="391.042553" rx="3.52777778" ry="3.53191489"></ellipse>
                <ellipse id="Oval-5" stroke="#13314D" fill="#15304F" cx="176.96029" cy="355.723404" rx="3.52777778" ry="3.53191489"></ellipse>
                <ellipse id="Oval-5" stroke="#13314D" fill="#15304F" cx="169.904734" cy="332.765957" rx="3.52777778" ry="3.53191489"></ellipse>
                <ellipse id="Oval-5" stroke="#13314D" fill="#15304F" cx="192.83529" cy="339.829787" rx="3.52777778" ry="3.53191489"></ellipse>
                <ellipse id="Oval-5" stroke="#13314D" fill="#15304F" cx="185.779734" cy="316.87234" rx="3.52777778" ry="3.53191489"></ellipse>
            </g>
        </g>
    </g>
</svg>