<?xml version="1.0" encoding="UTF-8"?>
<svg width="174px" height="395px" viewBox="0 0 174 395" version="1.1" xmlns="http://www.w3.org/2000/svg" xmlns:xlink="http://www.w3.org/1999/xlink">
    <!-- Generator: Sketch 43.2 (39069) - http://www.bohemiancoding.com/sketch -->
    <title>Group 2</title>
    <desc>Created with Sketch.</desc>
    <defs>
        <rect id="path-1" x="17.9927536" y="301.669014" width="127.333333" height="4.15140845"></rect>
    </defs>
    <g id="Page-1" stroke="none" stroke-width="1" fill="none" fill-rule="evenodd">
        <g id="A4" transform="translate(-216.000000, -298.000000)">
            <g id="Group-2" transform="translate(218.000000, 298.000000)">
                <path d="M101.439674,270.999958 C103.07749,271.191777 105.721064,271.05087 107.319412,270.627902 C107.319412,270.627902 137.512026,265.134197 148.176416,233.884141 C149.796431,229.136982 153.009116,211.681026 157.756741,197.326998 C162.250169,177.433594 180.872493,158.179967 180.872493,158.179967 C181.803838,157.167234 181.464379,156.603515 180.139612,156.952933 C180.139612,156.952933 171.778016,158.577071 159.979433,165.546888 C148.180849,172.516705 137.060365,181.937655 137.060365,181.937655 C137.060365,181.937655 118.711642,196.20789 115.745625,201.173587 C106.475409,216.693755 73.4743341,239.924239 73.1676013,254.309725 C72.8608684,268.695211 101.439674,270.999958 101.439674,270.999958 Z" id="Oval-2" stroke="#64985B" stroke-width="4" fill="#64985B" transform="translate(127.282280, 213.966646) rotate(-11.000000) translate(-127.282280, -213.966646) "></path>
                <path d="M88.585932,150.836873 C88.585932,150.836873 106.740583,138.85263 110.524555,130.741223 C114.308527,122.629817 115.93915,105.456837 115.93915,105.456837 C115.967016,105.181184 115.791954,105.04211 115.536335,105.154093 C115.536335,105.154093 100.496462,111.398785 94.4826948,121.467016 C88.4689273,131.535248 88.585932,150.836873 88.585932,150.836873 Z" id="Oval-2" stroke="#8CA35F" stroke-width="4" fill="#8CA35F" transform="translate(102.263914, 127.976063) rotate(11.000000) translate(-102.263914, -127.976063) "></path>
                <path d="M81.1255343,267.972913 C81.1800409,269.618122 82.5400889,270.655419 84.138436,270.232451 C84.138436,270.232451 114.33105,264.738746 124.995441,233.48869 C129.049046,221.610337 129.235985,208.531973 131.390373,197.741693 C133.544761,186.951413 138.927624,167.291168 138.927624,167.291168 C139.000837,167.022488 138.849439,166.877375 138.592011,166.968351 C138.592011,166.968351 106.278674,177.818157 92.5646495,200.778136 C78.8506248,223.738116 81.1255343,267.972913 81.1255343,267.972913 Z" id="Oval-2" stroke="#8CA35F" stroke-width="4" fill="#8CA35F" transform="translate(109.965214, 218.634149) rotate(-4.000000) translate(-109.965214, -218.634149) "></path>
                <path d="M27.1651889,278.063115 C28.6743804,278.740106 31.1875949,278.899918 32.7438511,278.375402 C32.7438511,278.375402 62.5539723,270.530349 68.2384686,243.53537 C68.7592842,240.929249 68.2729194,237.475386 67.8947301,233.693801 C67.5165407,229.912215 67.8671881,226.487288 69.3732496,213.644648 C70.8793112,200.802008 73.5230934,182.255651 73.5230934,182.255651 C73.5623939,181.978824 73.421986,181.883776 73.1946426,182.057577 C73.1946426,182.057577 53.80588,196.34325 46.4958211,216.176947 C42.2536504,227.686831 14.4634636,244.600939 11.3416611,257.718722 C8.21985855,270.836506 27.1651889,278.063115 27.1651889,278.063115 Z" id="Oval-2" stroke="#64985B" stroke-width="4" fill="#64985B" transform="translate(42.261966, 230.328585) scale(-1, 1) rotate(14.000000) translate(-42.261966, -230.328585) "></path>
                <path d="M33.501223,270.724173 C33.5368354,272.374226 34.8317948,273.290389 36.3779053,272.69479 C36.3779053,272.69479 65.01042,264.798586 73.0974397,226.394318 C73.8383754,222.686732 73.146451,217.773112 72.6084219,212.393259 C72.0703927,207.013406 72.5692393,202.14095 74.7118302,183.870434 C76.854421,165.599917 77.4086939,146.207745 77.4086939,146.207745 C77.4170732,145.939392 77.2367013,145.826706 76.9874346,145.970225 C76.9874346,145.970225 52.5649912,159.256688 42.1653731,187.472996 C31.765755,215.689304 33.501223,270.724173 33.501223,270.724173 Z" id="Oval-2" stroke="#A2AE88" stroke-width="4" fill="#A2AE88" transform="translate(55.400762, 209.392372) scale(-1, 1) rotate(2.000000) translate(-55.400762, -209.392372) "></path>
                <path d="M51.5650542,159.494236 C51.5650542,159.494236 64.2092684,152.474532 69.6736792,143.351263 C75.1380899,134.227994 74.9802958,120.781258 74.9802958,120.781258 C74.9815016,120.50931 74.7817596,120.386858 74.5321065,120.511679 C74.5321065,120.511679 61.6596872,126.635379 56.2338221,135.55092 C50.8079571,144.466462 51.5650542,159.494236 51.5650542,159.494236 Z" id="Oval-2" stroke="#64985B" stroke-width="4" fill="#64985B" transform="translate(63.254890, 139.978478) scale(-1, 1) rotate(11.000000) translate(-63.254890, -139.978478) "></path>
                <path d="M70.9310025,87.9752089 C70.9310025,87.9752089 69.8541031,89.2513075 68.4614062,93.5367979 C67.0687092,97.8222882 66.5907693,99.2929647 66.5907693,99.2929647" id="Line" stroke="#64985B" stroke-width="3" stroke-linecap="round" transform="translate(68.760886, 93.634087) scale(-1, -1) rotate(-18.000000) translate(-68.760886, -93.634087) "></path>
                <path d="M81.6594203,273.301056 L81.6594203,17.2975352" id="Line" stroke="#64985B" stroke-width="4" stroke-linecap="round"></path>
                <path d="M81.7592814,392.859772 C120.743381,392.859772 142.691178,375.14599 142.691178,327.48299 C142.691178,310.757445 142.691178,274.401459 142.691178,274.401459 C142.691178,274.401459 106.159448,274.401459 81.7592814,274.401459 C57.3644245,274.401459 20.6419737,274.401459 20.6419737,274.401459 C20.6419737,274.401459 20.6419737,287.653418 20.6419737,327.48299 C20.6419737,373.054013 42.7751817,392.859772 81.7592814,392.859772 Z" id="Oval-4" stroke="#576660" stroke-width="3.8" fill="#576660"></path>
                <rect id="Rectangle-8" fill="#FFFFFF" x="17.9927536" y="291.982394" width="127.333333" height="4.15140845"></rect>
                <g id="Rectangle-8">
                    <use fill="#FFFFFF" fill-rule="evenodd" xlink:href="#path-1"></use>
                    <rect stroke="#FFFFFF" stroke-width="1" x="18.4927536" y="302.169014" width="126.333333" height="3.15140845"></rect>
                </g>
                <g id="Group" transform="translate(92.731884, 48.049296)" stroke="#FFF4F6" stroke-width="2" fill="#FFF4F6">
                    <path d="M10.705954,0.584837598 C11.1271478,0.682059927 17.1534053,12.9072137 10.8116255,12.8609543 C4.46984563,12.8146949 10.2847601,0.487615269 10.705954,0.584837598 Z" id="Triangle-2" transform="translate(10.782629, 6.722675) scale(1, -1) rotate(-13.000000) translate(-10.782629, -6.722675) "></path>
                    <path d="M5.04338595,4.00655425 C5.39791838,4.08838942 10.4704138,14.3786958 5.13233306,14.3397578 C-0.205747668,14.3008198 4.68885351,3.92471908 5.04338595,4.00655425 Z" id="Triangle-2" transform="translate(5.107926, 9.172970) scale(1, -1) rotate(25.000000) translate(-5.107926, -9.172970) "></path>
                    <path d="M15.4502889,7.44610863 C15.775771,7.52123825 20.4326276,16.9683598 15.5319477,16.9326124 C10.6312678,16.8968649 15.1248067,7.370979 15.4502889,7.44610863 Z" id="Triangle-2" transform="translate(15.509540, 12.189190) scale(1, -1) rotate(-60.000000) translate(-15.509540, -12.189190) "></path>
                </g>
                <g id="Group" transform="translate(53.691533, 67.438992) rotate(-38.000000) translate(-53.691533, -67.438992) translate(43.191533, 58.938992)" stroke="#FFF4F6" stroke-width="2" fill="#FFF4F6">
                    <path d="M10.705954,0.584837598 C11.1271478,0.682059927 17.1534053,12.9072137 10.8116255,12.8609543 C4.46984563,12.8146949 10.2847601,0.487615269 10.705954,0.584837598 Z" id="Triangle-2" transform="translate(10.782629, 6.722675) scale(1, -1) rotate(-13.000000) translate(-10.782629, -6.722675) "></path>
                    <path d="M5.04338595,4.00655425 C5.39791838,4.08838942 10.4704138,14.3786958 5.13233306,14.3397578 C-0.205747668,14.3008198 4.68885351,3.92471908 5.04338595,4.00655425 Z" id="Triangle-2" transform="translate(5.107926, 9.172970) scale(1, -1) rotate(25.000000) translate(-5.107926, -9.172970) "></path>
                    <path d="M15.4502889,7.44610863 C15.775771,7.52123825 20.4326276,16.9683598 15.5319477,16.9326124 C10.6312678,16.8968649 15.1248067,7.370979 15.4502889,7.44610863 Z" id="Triangle-2" transform="translate(15.509540, 12.189190) scale(1, -1) rotate(-60.000000) translate(-15.509540, -12.189190) "></path>
                </g>
                <g id="Group" transform="translate(98.631180, 17.699265) scale(-1, 1) rotate(-26.000000) translate(-98.631180, -17.699265) translate(88.131180, 9.199265)" stroke="#FFF4F6" stroke-width="2" fill="#FFF4F6">
                    <path d="M10.705954,0.584837598 C11.1271478,0.682059927 17.1534053,12.9072137 10.8116255,12.8609543 C4.46984563,12.8146949 10.2847601,0.487615269 10.705954,0.584837598 Z" id="Triangle-2" transform="translate(10.782629, 6.722675) scale(1, -1) rotate(-13.000000) translate(-10.782629, -6.722675) "></path>
                    <path d="M5.04338595,4.00655425 C5.39791838,4.08838942 10.4704138,14.3786958 5.13233306,14.3397578 C-0.205747668,14.3008198 4.68885351,3.92471908 5.04338595,4.00655425 Z" id="Triangle-2" transform="translate(5.107926, 9.172970) scale(1, -1) rotate(25.000000) translate(-5.107926, -9.172970) "></path>
                    <path d="M15.4502889,7.44610863 C15.775771,7.52123825 20.4326276,16.9683598 15.5319477,16.9326124 C10.6312678,16.8968649 15.1248067,7.370979 15.4502889,7.44610863 Z" id="Triangle-2" transform="translate(15.509540, 12.189190) scale(1, -1) rotate(-60.000000) translate(-15.509540, -12.189190) "></path>
                </g>
                <path d="M71.312328,0.956073662 C71.7335218,1.05329599 77.7597793,13.2784498 71.4179995,13.2321904 C65.0762196,13.185931 70.8911341,0.858851333 71.312328,0.956073662 Z" id="Triangle-2" stroke="#FFF4F6" stroke-width="2" fill="#FFF4F6" transform="translate(71.389003, 7.093911) scale(1, -1) rotate(-13.000000) translate(-71.389003, -7.093911) "></path>
                <path d="M75.1730285,5.46262969 C75.527561,5.54446486 80.6000564,15.8347713 75.2619757,15.7958333 C69.9238949,15.7568952 74.8184961,5.38079452 75.1730285,5.46262969 Z" id="Triangle-2" stroke="#FFF4F6" stroke-width="2" fill="#FFF4F6" transform="translate(75.237568, 10.629046) scale(1, -1) rotate(25.000000) translate(-75.237568, -10.629046) "></path>
                <path d="M63.8724894,6.42938939 C64.1979715,6.50451901 68.8548281,15.9516406 63.9541482,15.9158932 C59.0534683,15.8801457 63.5470072,6.35425977 63.8724894,6.42938939 Z" id="Triangle-2" stroke="#FFF4F6" stroke-width="2" fill="#FFF4F6" transform="translate(63.931741, 11.172471) scale(1, -1) rotate(-60.000000) translate(-63.931741, -11.172471) "></path>
                <path d="M95.2667775,23.5246479 C95.2667775,23.5246479 91.6865773,27.4072249 89.3754922,33.4942148 C87.0644071,39.5812046 85.8115942,48.4279301 85.8115942,48.4279301" id="Line" stroke="#64985B" stroke-width="3" stroke-linecap="round" transform="translate(90.539186, 35.976289) scale(-1, -1) rotate(7.000000) translate(-90.539186, -35.976289) "></path>
                <path d="M98.0494925,60.9583094 C98.0494925,60.9583094 93.5906629,65.7937232 90.7124063,73.3745425 C87.8341497,80.9553618 86.2738796,91.9731931 86.2738796,91.9731931" id="Line" stroke="#64985B" stroke-width="3" stroke-linecap="round" transform="translate(92.161686, 76.465751) scale(-1, -1) rotate(12.000000) translate(-92.161686, -76.465751) "></path>
                <path d="M79.6851156,13.5370225 C79.6851156,13.5370225 74.5444578,19.8001556 69.8895528,29.4135234 C65.2346477,39.0268912 66.215529,44.549113 66.215529,44.549113" id="Line" stroke="#64985B" stroke-width="3" stroke-linecap="round" transform="translate(72.907210, 29.043068) scale(1, -1) rotate(7.000000) translate(-72.907210, -29.043068) "></path>
                <path d="M76.6787348,71.9708447 C76.6787348,71.9708447 65.0142335,81.1156224 62.4256768,92.2243273 C59.8371201,103.333032 58.7783318,111.224933 58.7783318,111.224933" id="Line" stroke="#64985B" stroke-width="3" stroke-linecap="round" transform="translate(67.728533, 91.597889) scale(1, -1) rotate(7.000000) translate(-67.728533, -91.597889) "></path>
            </g>
        </g>
    </g>
</svg>