<?xml version="1.0" encoding="UTF-8"?>
<svg width="143px" height="142px" viewBox="0 0 143 142" version="1.1" xmlns="http://www.w3.org/2000/svg" xmlns:xlink="http://www.w3.org/1999/xlink">
    <!-- Generator: Sketch 43.2 (39069) - http://www.bohemiancoding.com/sketch -->
    <title>Group 2</title>
    <desc>Created with Sketch.</desc>
    <defs></defs>
    <g id="Page-1" stroke="none" stroke-width="1" fill="none" fill-rule="evenodd">
        <g id="Group-2">
            <path d="M34.1671503,141.28866 C15.2971542,141.28866 0,126.001723 0,107.14433 C0,88.2869372 15.2971542,73 34.1671503,73 C53.0371463,73 68.3343006,88.2869372 68.3343006,107.14433 C68.3343006,126.001723 53.0371463,141.28866 34.1671503,141.28866 Z M42.3659257,91.2332789 C41.4019458,90.6552773 40.8235579,90.6552773 40.004175,91.3296125 C39.3293891,92.1002813 39.3775881,93.2081177 40.052374,94.0751201 C39.9077771,94.7976221 39.8113791,95.4719573 39.6667821,96.1462925 C39.4257871,97.1577953 39.1365932,98.1211313 38.9437972,99.0844673 C38.6064043,100.722139 37.7870214,101.974475 36.4856486,102.937811 C36.1964547,103.178645 35.9072607,103.419479 35.5216688,103.70848 C35.2806738,102.745144 35.3770718,101.974475 35.4252708,101.203807 C35.4734698,99.4216349 35.5698678,97.6876301 35.6180667,95.9054585 C35.6662657,94.9421225 35.5216688,94.0269533 35.9072607,93.0154505 C36.2928526,91.9557809 36.1482557,90.7034441 35.7626637,89.5956077 C35.6662657,89.3066069 35.3770718,89.0176061 35.1360768,88.8249389 C34.7022859,88.4396045 33.786505,88.7286053 33.6419081,89.3066069 C33.4973111,90.0291089 33.2563161,90.7034441 33.4491121,91.4259461 C33.5937091,92.1002813 33.882903,92.7746165 34.268495,93.3526181 C34.3648929,93.5934521 34.5576889,93.8342861 34.5576889,94.0751201 C34.6058879,95.3274569 34.6540869,96.5316269 34.6058879,97.7839637 C34.5576889,99.2771345 34.4612909,100.722139 34.3648929,102.215309 C34.316694,102.745144 34.268495,103.323146 34.220296,103.852981 C34.172097,104.141981 34.075699,104.430982 33.738306,104.382815 C33.2563161,104.334649 32.7261272,104.286482 32.2923363,104.045648 C31.0873615,103.371313 30.0751826,102.456143 29.2076008,101.396474 C28.1954219,100.192304 27.761631,98.6991329 27.2796411,97.2541289 C27.0868451,96.6279605 27.0386461,95.9536253 27.2796411,95.3274569 C27.3760391,95.1347897 27.4242381,94.8939557 27.4242381,94.6531217 C27.4724371,93.2081177 27.3760391,91.8112805 26.0264673,90.8479445 C25.3034824,90.3181097 24.5804975,90.5107769 24.2431046,91.3296125 C23.5683187,92.7746165 24.0021096,94.6049549 25.3034824,95.5682909 C25.7372733,95.9054585 25.9300693,96.3389597 26.0746663,96.8206277 C26.3156612,97.6876301 26.5084572,98.6509661 26.9422481,99.4698017 C27.1832431,99.9033029 27.3278401,100.433138 27.617034,101.059306 C27.1350441,100.866639 26.7976512,100.625805 26.4120592,100.577638 C25.8336713,100.481305 25.5444774,100.09597 25.1588854,99.8069693 C24.8696915,99.5661353 24.6286965,99.3253013 24.3877016,99.0363005 C23.8575126,98.3619653 23.1345278,97.8802973 23.1345278,96.8687945 C23.0863288,96.0017921 22.4115429,95.5201241 21.688558,95.1347897 C21.59216,95.0866229 21.447563,95.0384561 21.302966,95.0866229 C20.6281802,95.2311233 20.2425882,95.8091249 20.2907872,96.4834601 C20.3389862,97.3022957 21.2065681,98.6027993 22.1705479,98.6991329 C22.3633439,98.7472997 22.6043388,98.7954665 22.7489358,98.9399669 C23.1827267,99.2771345 23.6647167,99.6143021 24.0021096,100.047803 C24.9178905,101.107473 26.1710643,101.733641 27.520636,102.167143 C28.050825,102.35981 28.5810139,102.600644 29.0630038,102.937811 C29.8341877,103.467646 30.5089736,104.093815 31.2319585,104.671816 C31.6657494,104.960817 32.0513413,105.201651 32.5815302,105.297985 C33.6901071,105.538819 33.882903,105.827819 33.979301,106.935656 C34.075699,107.609991 34.172097,108.236159 34.220296,108.910495 C34.316694,110.307332 34.6058879,111.752336 34.4612909,113.19734 C34.3648929,114.353343 34.4612909,115.557513 34.4612909,116.761683 C34.4612909,117.147017 34.4130919,117.580518 34.4130919,118.01402 C34.268495,117.773186 34.268495,117.532352 34.172097,117.339684 C33.738306,116.617182 33.3527141,115.942847 32.8707242,115.268512 C32.1959383,114.257009 31.2801574,113.48634 30.4125756,112.715672 C29.4967947,111.896836 28.5810139,111.078 27.665233,110.259165 C26.8458502,109.488496 26.0746663,108.717827 25.2552834,107.947159 C25.1106864,107.850825 24.8214925,107.706325 24.7250945,107.754491 C24.5804975,107.850825 24.4359005,108.139826 24.4359005,108.332493 C24.3877016,108.765994 24.4359005,109.151329 24.5322985,109.58483 C24.6768955,110.403665 24.9660895,111.174334 25.0624874,111.99317 C25.2552834,113.534507 25.9782683,114.835011 26.9904471,116.039181 C27.858029,117.09885 28.9184068,117.580518 30.2197796,117.821352 C30.9427645,117.965853 31.6175504,118.110353 32.2441373,118.495688 C32.6297292,118.688355 33.0153212,118.832855 33.4009131,119.025522 C33.5937091,119.121856 33.786505,119.314523 33.882903,119.50719 C34.075699,120.085192 34.268495,120.71136 34.4612909,121.289362 L34.4612909,121.530196 C34.4130919,122.445365 34.3648929,123.360534 34.316694,124.275704 C34.316694,124.998206 34.268495,125.672541 34.268495,126.346876 C34.268495,126.973044 34.4130919,127.069378 35.1842758,126.973044 C35.2324748,126.491376 35.2324748,125.961542 35.2806738,125.431707 C35.4734698,123.938536 35.6662657,122.445365 35.6180667,120.952194 C35.6180667,120.615027 35.7626637,120.085192 36.0036587,119.892525 C36.7748426,119.266356 37.5942254,118.736522 38.5100063,118.543854 C39.6667821,118.351187 40.7271599,117.821352 41.7875378,117.291518 C43.9082934,116.135514 45.4506612,114.54601 45.5470591,111.945003 C45.5470591,111.800502 45.5952581,111.607835 45.6434571,111.415168 C45.9808501,110.162831 46.318243,108.862328 46.607437,107.609991 C46.703835,107.128323 46.366442,106.694822 45.8844521,106.694822 C45.5952581,106.694822 45.2578652,106.742989 45.0168702,106.839322 C43.7154974,107.417324 42.6069206,108.332493 41.5465428,109.247662 C41.4983438,109.295829 41.4019458,109.392163 41.3537468,109.488496 C40.6307619,110.499999 40.052374,111.656002 39.6185831,112.812005 C39.1365932,114.112509 38.3654093,115.075845 37.4496285,116.039181 C36.8712405,116.617182 36.1964547,117.195184 36.0036587,118.062186 C35.9554597,118.110353 35.8108627,118.15852 35.7144647,118.206687 L35.7144647,116.376348 C35.7144647,114.257009 35.7144647,112.13767 35.6180667,110.018331 C35.5698678,108.910495 35.3288728,107.850825 35.1842758,106.742989 C35.0878778,106.261321 35.0396788,105.827819 35.4734698,105.442485 C35.9554597,105.057151 36.3892506,104.575483 36.9194395,104.238315 C37.9798174,103.467646 38.7028022,102.35981 39.5221851,101.396474 C39.9077771,100.962973 40.24517,100.529471 40.7271599,100.288637 C41.5465428,99.9033029 42.3659257,99.4216349 43.1853085,99.0363005 C43.3781045,98.9399669 43.6190995,98.9399669 43.8600944,98.9399669 C44.8722733,98.9881337 45.6916561,98.3619653 45.7880541,97.3986293 C45.8362531,97.1577953 45.8362531,96.8687945 45.8362531,96.6279605 C45.7880541,95.7609581 45.1132682,95.3756237 44.3420843,95.7127913 C43.6672985,96.0017921 43.2335075,96.4834601 43.1371095,97.2541289 C43.0889105,97.8802973 42.7515176,98.3619653 42.1731297,98.6027993 C41.5465428,98.8436333 40.9681549,99.0844673 40.196971,99.4216349 C40.24517,98.8918001 40.293369,98.4582989 40.389767,98.0247977 C40.534364,97.3022957 41.0163539,96.7242941 40.8235579,95.9054585 C40.6789609,95.3274569 41.1127519,94.8457889 41.7393388,94.6531217 C42.0285327,94.5567881 42.2695277,94.3641209 42.4623236,94.1714537 C42.8961146,93.6416189 42.9443136,93.0154505 42.7515176,92.3892821 C42.6551196,92.0039477 42.5105226,91.6186133 42.3659257,91.2332789 Z" id="Combined-Shape" fill="#D1CAD8"></path>
            <path d="M34.1671503,68.2886598 C53.0371463,68.2886598 68.3343006,53.0017226 68.3343006,34.1443299 C68.3343006,15.2869372 53.0371463,0 34.1671503,0 C15.2971542,0 0,15.2869372 0,34.1443299 C0,53.0017226 15.2971542,68.2886598 34.1671503,68.2886598 Z M33.652019,46.5530673 C33.652019,46.3615526 33.7105523,46.2179166 33.7105523,46.026402 L33.7105523,43.0100459 C33.7105523,42.7227739 33.7105523,42.3397446 33.4764194,42.1003512 C32.8325541,41.4779285 32.5984213,40.7118698 32.1886888,39.9936898 C31.6033568,38.9882378 30.9009583,38.0785431 30.0229601,37.2646058 C29.6132277,36.8815764 29.3790948,36.4506684 28.9693624,36.0676391 C28.7352296,35.8282457 28.3840303,35.5409737 28.0328311,35.3973377 C26.9792333,34.9185511 26.1597684,34.1524924 25.4573699,33.4343124 C24.8720378,32.8597683 24.5793718,32.045831 24.1111061,31.3755296 C23.233108,29.9870483 22.9404419,28.5028096 22.7063091,26.9706922 C22.5892427,26.2525122 22.7648423,25.4864535 22.9404419,24.7682735 C22.9989752,24.4331228 23.3501744,24.0979721 23.6428404,23.8585788 C23.8769733,23.6191855 24.2281725,23.6191855 24.4623054,23.8585788 C25.5159031,25.1513028 26.9792333,26.1567549 27.6816318,27.6409936 C28.2084307,28.7422029 29.0278956,29.7955336 29.6132277,30.896743 C30.3741594,32.333103 30.6668254,33.8652204 30.6082922,35.4452164 C30.6082922,35.5888524 30.4326926,35.7324884 30.4326926,35.8761244 C30.4326926,36.0676391 30.4326926,36.3070324 30.549759,36.4506684 C31.3106907,37.3603631 32.1301556,38.2700578 32.8910873,39.2276311 C32.9496205,39.2755098 33.066687,39.3233885 33.1837534,39.3712672 C33.2422866,39.2276311 33.2422866,39.0839951 33.2422866,38.9882378 C33.3008198,36.9773338 33.3008198,35.0143084 33.359353,33.0034043 C33.359353,32.5724963 33.3008198,32.0937097 33.4178862,31.6628016 C33.7690855,30.5137136 33.4178862,29.5082616 32.7740209,28.5028096 C32.247222,27.6888722 32.0716224,26.7791775 32.0130892,25.8216042 C31.8960228,24.5288802 31.7789564,23.1882775 31.7789564,21.8955534 C31.7789564,19.7888921 32.0130892,17.6822307 32.9496205,15.7192053 C33.3008198,15.0010253 33.8861519,14.3307239 34.5300172,13.8040586 C35.5250817,13.0379999 36.5786795,13.2295146 36.9298787,14.2828453 C37.281078,15.2404186 37.4566776,16.197992 37.6908104,17.1555653 C38.1590761,18.7355614 37.86641,20.3634361 37.6908104,21.9434321 C37.5152108,23.4276708 36.9298787,24.8640308 36.2860134,26.2046335 C35.5250817,27.6409936 34.9397496,29.1731109 34.8812164,30.753107 C34.8226832,32.0937097 34.7056168,33.482191 34.5885504,34.8227937 C34.5885504,35.3015804 34.5885504,35.7324884 34.76415,36.2112751 C34.9982828,35.6367311 35.2909489,35.0621871 35.4080153,34.4397644 C35.6421481,33.194919 36.2274802,32.0937097 36.8128123,30.9446216 C37.3981444,29.8434123 38.0420097,28.8379603 38.7444082,27.7846296 C39.5053399,26.5876629 40.5589376,25.5343322 41.6710686,24.6246375 C42.2564007,24.1458508 43.0758656,23.9064575 43.7782641,23.5713068 C43.8953305,23.5234281 44.0123969,23.5234281 44.1294633,23.5234281 C44.8318618,23.4755495 45.0074614,23.6670641 45.0659946,24.2416082 C45.1245279,25.4864535 44.7147954,26.6834202 44.7147954,27.9282656 C44.7147954,28.9337176 44.4806626,29.8912909 44.0123969,30.8488643 C43.192932,32.476739 42.080801,34.0088564 40.5004044,35.2058231 C39.9736055,35.5888524 39.3882734,35.8761244 38.7444082,36.1633964 C37.3396112,36.8336978 35.876281,37.4561204 34.5300172,38.0785431 C34.5885504,40.2809618 34.6470836,42.5312592 34.76415,44.8773139 C35.4665485,43.7761046 35.9933474,42.8185312 36.6957459,41.9567152 C37.4566776,40.9512632 38.2176093,39.9458112 39.4468067,39.3233885 C40.3248048,38.8446018 41.2028029,38.4136938 42.3734671,38.4136938 C43.0173324,38.4136938 43.6611976,38.4136938 44.3635961,38.1743005 C45.1245279,37.8870285 46.0610592,38.4136938 46.2366588,39.1318738 C46.4122584,39.7542965 45.8269263,40.5682338 45.0659946,40.7597485 C44.3050629,40.9991419 43.485598,40.6639912 43.2514652,39.9936898 C43.192932,39.8021752 43.1343988,39.6106605 43.0758656,39.3712672 C41.8466682,39.1318738 40.8516037,39.6106605 39.9736055,40.1373258 C39.3882734,40.4724765 38.7444082,40.8555059 38.6273417,41.4779285 C38.6273417,41.5258072 38.5688085,41.5736859 38.5102753,41.6215645 C36.7542791,43.1058032 36.0518806,44.9251926 35.7006813,46.9360967 C35.5250817,47.8457913 35.2909489,48.755486 35.1153493,49.6651807 C34.9982828,50.1439674 35.056816,50.6706327 35.056816,51.1494194 L35.056816,51.5324488 C34.9982828,52.1069928 34.9397496,52.6815368 34.8812164,53.2560808 C34.8226832,53.5912315 34.76415,53.9263821 34.5885504,54.2136541 C34.5300172,54.3094115 34.2958843,54.4530475 34.1202847,54.4051688 C34.0032183,54.4051688 33.8276187,54.2136541 33.8276187,54.0700181 C33.7690855,53.6391101 33.7105523,53.1603235 33.652019,52.7294154 C33.5349526,51.7239634 33.5349526,50.6706327 33.3008198,49.6651807 C33.066687,48.3724567 32.3642885,47.17549 31.7789564,45.9785233 C31.1936243,44.8294353 30.4912258,43.7282259 29.4961613,42.8185312 C28.4425635,41.7652005 27.1548329,40.8555059 25.5159031,40.4724765 C24.9891042,40.3288405 24.5208386,40.3288405 23.9355065,40.5682338 C23.4087076,40.8076272 22.8819087,40.9512632 22.2380434,40.6639912 C21.5941782,40.3767192 21.3600453,40.0415685 21.3600453,39.4670245 C21.3015121,38.8924805 21.7112446,38.5573298 22.2380434,38.3658151 C22.8233755,38.1264218 23.525774,38.1264218 23.9355065,38.6052085 C24.5793718,39.2755098 25.4573699,39.4670245 26.3939012,39.7064178 C27.6816318,40.0415685 28.7937628,40.7597485 29.6717609,41.5736859 C30.8424251,42.6748952 31.954556,43.8239832 32.6569545,45.2124646 C32.8910873,45.6912513 33.1252202,46.170038 33.359353,46.6488246 C33.4764194,46.5530673 33.5934858,46.5530673 33.652019,46.5530673 Z" id="Combined-Shape" fill="#D57A49"></path>
            <path d="M108.16715,68.2886598 C89.2971542,68.2886598 74,53.0017226 74,34.1443299 C74,15.2869372 89.2971542,0 108.16715,0 C127.037146,0 142.334301,15.2869372 142.334301,34.1443299 C142.334301,53.0017226 127.037146,68.2886598 108.16715,68.2886598 Z M106.633664,33.2491003 C106.593883,33.2449191 106.51432,33.2365567 106.522677,33.1570468 C106.539217,32.2343213 106.551579,31.3513507 106.647683,30.4369876 C106.727072,29.6816441 106.842065,28.9702368 106.961237,28.2190746 C107.063694,27.626932 107.130549,26.9908533 107.312569,26.4070732 C107.571977,25.4696799 107.990511,24.5490115 108.249919,23.6116183 C108.392158,23.023657 108.739659,22.7788222 109.281888,22.5946483 C111.402669,21.9332814 112.675331,20.5396682 113.068448,18.3301176 C113.200154,17.4596907 113.486808,16.6457434 113.698078,15.7836788 C113.836138,15.2354724 113.970021,14.7270208 114.028518,14.170452 C114.130976,13.5783094 113.80637,13.2226392 113.192934,13.3189409 C112.826544,13.3608199 112.527181,13.530326 112.192216,13.6558961 C111.936813,13.7898286 111.721192,13.9279422 111.505571,14.0660559 C110.435822,14.6771143 109.694858,15.604088 109.104663,16.6272964 C108.361697,17.9560005 107.968407,19.4018452 107.734242,20.8644148 C107.684102,21.3414738 107.470656,21.8415629 107.738767,22.3520715 C107.770192,22.4357626 107.713697,22.590601 107.66138,22.7056846 C107.487716,23.2099549 107.278449,23.6702891 107.104786,24.1745594 C106.82231,24.9487518 106.575437,25.7668803 106.240645,26.6561562 C106.110768,26.3611469 106.008137,26.1895836 105.949466,25.9824466 C105.73785,25.3170995 105.566016,24.6559336 105.350222,24.0303414 C104.688128,21.9108542 103.814591,19.8897256 102.43025,18.136462 C102.145425,17.784973 101.781038,17.4251216 101.408293,17.1447801 C101.07533,16.8686198 100.828284,16.9230424 100.600128,17.1804208 C100.235914,17.5842753 99.938727,18.1157569 99.8802293,18.6723258 C99.7256281,20.1432577 99.5710269,21.6141897 100.184809,23.0452998 C100.507413,23.8027003 100.830016,24.5601009 101.495942,25.1124215 C102.685382,26.0413184 103.987811,26.6605383 105.470259,27.0977084 C105.820109,27.9785549 105.883131,28.9096429 105.826809,29.8281872 C105.737233,31.8284767 105.572273,33.7806489 105.562259,35.7893008 C105.554076,36.6325165 105.462151,37.5071247 105.493749,38.3545215 C105.4981,39.0784725 105.542233,39.8066046 105.670108,40.5033442 C105.802161,41.1603289 105.854651,41.8089512 105.783618,42.4847848 C105.676808,42.3529765 105.613959,42.1855944 105.50715,42.053786 C105.02542,41.2796607 104.591829,40.4302067 104.026358,39.6874738 C103.385503,38.8966236 102.872349,38.0388072 102.658557,37.0114847 C102.604065,36.7645928 102.553751,36.4779459 102.499258,36.231054 C102.084383,34.82085 101.414106,33.5445784 100.743828,32.2683068 C100.475717,31.7577981 100.119686,31.3184369 99.7636557,30.8790757 C99.2652126,30.26397 98.7667695,29.6488643 98.2285449,29.0295774 C97.9081172,28.6341523 97.5876895,28.2387273 97.2191235,27.9186308 C96.8505575,27.5985343 96.5197704,27.6843495 96.350285,28.1488649 C96.2372947,28.4585418 96.1599076,28.8121549 96.1223019,29.1699491 C96.0136632,30.203577 96.0327258,31.1702386 96.1669545,32.1891988 C96.2822937,33.0052032 96.5734726,33.6789127 96.9044329,34.3568034 C97.3694487,35.2899485 98.1819653,35.9782587 98.950522,36.7021426 C99.7546817,37.4699627 100.843493,37.8255659 101.792068,38.3674001 C101.947015,38.4238798 102.097784,38.5201144 102.16899,38.6079867 C102.560624,39.091284 102.868517,39.6059739 103.260151,40.0892712 C104.185831,41.2316103 104.816327,42.5037007 105.314943,43.8825123 C105.557983,44.6315504 105.801024,45.3805885 106.044064,46.1296267 C106.165585,46.5041458 106.410628,46.8514535 106.492367,47.2217914 C106.737583,48.332805 106.982799,49.4438186 107.188234,50.550651 C107.483765,51.9483115 107.906996,53.2790057 108.533314,54.590851 C108.734397,54.9737325 108.924948,55.0741483 109.176172,54.9799708 C109.431574,54.8460383 109.532029,54.6556262 109.330946,54.2727447 C108.7633,53.1680364 108.442699,52.0089054 108.126276,50.8100196 C108.017291,50.3162357 107.872703,49.7785158 107.887241,49.2575207 C107.878711,48.5733247 107.953922,47.8577361 108.064737,47.1860837 C108.175551,46.5144313 108.250763,45.7988428 108.552128,45.2276062 C108.949769,44.5057124 109.648949,43.9762879 110.513609,43.7858087 C111.171005,43.6539334 111.792798,43.4781219 112.387518,43.9425704 L112.586425,43.9634764 C114.757693,44.3524622 116.702635,43.8333902 118.484099,42.5736425 C118.659938,42.4313476 118.879738,42.2534791 119.059756,42.0714293 C119.647948,41.4499513 119.457224,40.5858296 118.709733,40.4268769 C118.316096,40.34531 117.83454,40.3348905 117.42419,40.4123432 C116.691409,40.4961012 115.990054,40.6635503 115.320123,40.9146904 C114.187525,41.3583667 112.979542,41.7539258 112.043849,42.6202386 C111.951751,42.7311409 111.748665,42.7499898 111.581182,42.8127748 C110.875648,43.0199788 110.134511,43.1832467 109.428977,43.3904506 C109.265672,43.4134807 109.142149,43.4406921 108.939064,43.459541 C109.173401,42.7606772 109.399381,42.1413234 109.625362,41.5219695 C109.686035,41.3273761 109.782312,41.1767188 109.914192,41.0699977 C110.221911,40.8209817 110.569412,40.5761469 110.912734,40.371067 C112.884749,39.2117351 114.22644,37.5440187 114.782862,35.311438 C115.050626,34.2945349 115.163443,33.2211522 115.316042,32.1519506 C115.349469,31.8339112 115.22377,31.4991471 115.098072,31.1643829 C115.007976,30.8735549 114.777644,30.7689578 114.415432,30.7710819 C113.889916,30.7962361 113.418892,31.0682822 113.063035,31.3926269 C111.815444,32.5477106 111.175108,34.0479779 110.68972,35.604725 C110.503521,36.2282601 110.436666,36.8643388 110.175083,37.4397566 C109.808866,38.2453414 109.597596,39.107406 109.346545,39.9652894 C109.229376,40.3147212 109.112208,40.6641531 108.995039,41.0135849 C108.639355,42.1016354 108.287849,43.149931 107.936343,44.1982266 C107.766857,44.662742 107.597372,45.1272574 107.37557,45.7068563 C107.281296,45.4557832 107.21009,45.367911 107.178665,45.2842199 C106.757436,43.5517953 106.658637,41.8130654 106.480275,40.0659732 C106.38165,39.0909491 106.446329,38.092895 106.387484,37.1220521 C106.336997,36.0716994 106.675968,35.1426686 107.094502,34.2220002 C107.460719,33.4164154 107.977705,32.7070651 108.339744,31.9412352 C108.544832,31.5206559 108.844194,31.3511498 109.250366,31.3134519 C111.245622,31.0810268 112.442898,29.6392963 113.481049,28.1808409 C114.002214,27.4317358 114.261621,26.4943426 114.556632,25.6008855 C114.843286,24.7869382 115.014774,23.9206924 115.186262,23.0544466 C115.301255,22.3430393 114.591369,21.8262924 113.957041,22.1213686 C113.490196,22.3536598 113.014994,22.6654608 112.579574,22.981443 C111.568496,23.7996385 110.930163,24.8981755 110.287651,26.0364674 C109.640961,27.2145142 109.23296,28.4176482 108.935946,29.7128357 C108.802064,30.2212872 108.601154,30.6021116 108.201336,30.96203 C107.805697,31.2821934 107.59643,31.7425276 107.311779,32.1547445 C107.075266,32.4916327 106.874356,32.8724571 106.633664,33.2491003 Z" id="Combined-Shape" fill="#576660"></path>
            <path d="M108.16715,141.28866 C89.2971542,141.28866 74,126.001723 74,107.14433 C74,88.2869372 89.2971542,73 108.16715,73 C127.037146,73 142.334301,88.2869372 142.334301,107.14433 C142.334301,126.001723 127.037146,141.28866 108.16715,141.28866 Z M108.525993,117.94811 C108.486088,117.982617 108.446182,117.982617 108.206751,118.051631 C107.96732,117.603037 107.72789,117.18895 107.528364,116.740355 C107.288933,116.188239 107.129312,115.567108 106.889881,115.014992 C106.610545,114.393861 106.331209,113.77273 106.011967,113.1516 C105.892252,112.875542 105.772536,112.633991 105.612916,112.39244 C105.33358,111.909338 105.054243,111.426236 104.735002,110.977642 C104.25614,110.322004 103.737373,109.700873 103.258511,109.045235 C103.218606,109.010728 103.178701,108.97622 103.138796,108.941713 C102.819554,108.631148 102.460408,108.35509 102.141166,108.079032 C101.901735,107.871988 101.742115,107.871988 101.542589,108.079032 C101.462779,108.182553 101.382968,108.251568 101.343063,108.35509 C101.263253,108.700162 101.143537,109.079742 101.103632,109.424815 C101.023822,110.11496 101.063727,110.805106 101.263253,111.495251 C101.502684,112.39244 101.941641,113.220614 102.540218,113.945267 C102.93927,114.428369 103.537847,114.807948 104.056614,115.222036 C104.575382,115.636123 105.173959,115.946688 105.852347,116.05021 C105.932157,116.05021 105.972062,116.084717 106.051873,116.119225 C106.530735,116.257254 106.73026,116.567819 106.770166,117.016413 C106.770166,117.119935 106.810071,117.257964 106.849976,117.361486 C107.249028,118.120646 107.448553,118.914313 107.648079,119.70798 C107.8077,120.398126 107.88751,121.157285 107.927415,121.881938 C107.96732,122.675605 107.88751,123.503779 107.88751,124.297447 C107.88751,124.538997 107.847605,124.88407 107.96732,125.056606 C108.166846,125.332665 108.166846,125.574215 108.166846,125.850274 C108.126941,126.160839 108.206751,126.264361 108.565898,126.298868 C108.725519,126.333375 108.925044,126.367883 109.12457,126.333375 C109.244286,126.298868 109.443812,126.195346 109.483717,126.091824 C109.563527,125.677737 109.683243,125.26365 109.603432,124.88407 C109.483717,124.400968 109.324096,123.917867 109.403906,123.36575 C109.443812,122.98617 109.324096,122.606591 109.443812,122.192503 C109.563527,121.812923 109.403906,121.398836 109.403906,121.019256 C109.364001,120.674184 109.443812,120.329111 109.443812,119.984038 C109.443812,119.776995 109.483717,119.535444 109.364001,119.431922 C109.12457,119.190371 109.164475,118.879806 109.12457,118.603748 C109.12457,118.258675 109.084665,117.913602 109.084665,117.56853 C109.04476,117.326979 109.04476,117.085428 109.04476,116.843877 C109.084665,115.705137 109.244286,114.53189 109.04476,113.393151 C109.04476,113.289629 109.04476,113.186107 109.084665,113.082585 C109.284191,112.39244 109.523622,111.667787 109.763053,110.977642 C109.922674,110.460033 110.321725,110.218482 110.920303,110.218482 C111.43907,110.218482 111.957837,110.183975 112.476604,110.218482 C113.075182,110.287497 113.673759,110.391018 114.272336,110.425526 C115.07044,110.49454 115.868543,110.632569 116.626741,110.218482 C117.025793,110.011438 117.46475,109.873409 117.863801,109.700873 C118.183043,109.562844 118.382568,109.286786 118.342663,108.97622 C118.262853,108.458612 118.063327,108.113539 117.424844,108.079032 L116.945983,108.079032 C115.309871,108.010017 113.83338,108.493119 112.476604,109.286786 C112.356889,109.3558 112.237173,109.390308 112.117458,109.424815 C111.678501,109.493829 111.239544,109.562844 110.800587,109.597351 C110.680872,109.597351 110.521251,109.562844 110.36163,109.528337 C110.401536,109.390308 110.441441,109.286786 110.481346,109.217771 C110.880398,108.493119 111.279449,107.802973 111.678501,107.112828 C111.878027,106.802263 111.997742,106.45719 112.237173,106.181132 C112.636225,105.69803 113.035276,105.145914 113.554044,104.731827 C114.272336,104.179711 115.030535,103.627594 115.629112,102.902942 C115.669017,102.868434 115.708922,102.833927 115.748828,102.79942 C116.068069,102.626884 116.22769,102.316318 116.38731,102.005753 C116.467121,101.867724 116.546931,101.695187 116.666646,101.626173 C117.185413,101.2811 117.345034,100.728984 117.62437,100.280389 C117.704181,100.14236 117.744086,100.004331 117.823896,99.9008095 C118.103232,99.5212296 118.183043,99.1071424 118.222948,98.658548 C118.262853,98.140939 117.823896,97.7613591 117.265224,97.8993881 C116.945983,97.9684027 116.626741,98.1064317 116.38731,98.278968 C115.868543,98.6930552 115.349776,99.176157 114.910819,99.6592587 C114.471862,100.14236 114.192526,100.763491 113.713664,101.246593 C113.194897,101.764202 112.955466,102.385333 112.636225,103.006463 C112.436699,103.420551 112.316983,103.869145 112.277078,104.31774 C112.237173,104.766334 112.037647,105.076899 111.798216,105.456479 C110.920303,106.802263 110.122199,108.182553 109.483717,109.666366 C109.324096,110.045946 109.164475,110.425526 108.96495,110.805106 C108.765424,110.49454 108.486088,110.183975 108.605803,109.838902 C108.725519,109.528337 108.605803,109.321293 108.446182,109.079742 C108.326467,108.872699 108.246657,108.596641 108.166846,108.35509 C108.126941,108.182553 108.087036,108.010017 108.047131,107.837481 C107.847605,107.285364 107.608174,106.733248 107.448553,106.146625 C107.049502,104.731827 106.73026,103.317029 106.371114,101.902231 C106.291304,101.591666 106.411019,101.453637 106.65045,101.2811 C107.089407,100.970535 107.528364,100.659969 107.96732,100.349404 C108.286562,100.14236 108.565898,99.8663023 108.925044,99.7972878 C109.842863,99.6592587 110.441441,99.1071424 110.960208,98.5205189 C111.59869,97.8648809 111.997742,97.0367065 112.277078,96.2085321 C112.436699,95.7254304 111.957837,94.897256 111.478975,94.9317633 C111.000113,94.9317633 110.561156,95.0697923 110.20201,95.4838795 C109.403906,96.450083 108.925044,97.5543155 108.525993,98.6930552 C108.366372,99.176157 108.087036,99.4522151 107.687984,99.693766 C107.528364,99.7972878 107.288933,99.9008095 107.169217,100.073346 C106.969691,100.349404 106.65045,100.383911 106.291304,100.52194 C105.972062,99.4867224 105.892252,98.4515044 105.892252,97.4162864 L105.892252,96.7951556 C105.852347,96.1050103 105.812442,95.3803577 105.732631,94.6557051 C105.692726,94.4486615 105.732631,94.2761252 105.972062,94.1726034 C106.291304,94.0345743 106.65045,93.8965453 107.009597,93.7930235 C107.96732,93.5514726 108.605803,93.0338636 108.885139,92.171182 C109.04476,91.6880803 108.685613,91.3085003 108.166846,91.3775149 C107.8077,91.4120221 107.448553,91.5155439 107.209122,91.7916021 C106.929786,92.1366747 106.65045,92.4472401 106.371114,92.7923128 C106.251398,92.8958346 106.131683,92.9993564 105.972062,93.2064 C105.892252,92.9648491 105.852347,92.8613273 105.852347,92.7578055 C105.892252,92.4817474 105.972062,92.2056892 105.972062,91.9296311 C106.011967,91.4120221 106.131683,90.9634277 106.450924,90.5148332 C106.969691,89.8246879 107.249028,88.9965135 107.608174,88.2373537 C107.687984,88.0648173 107.687984,87.8577737 107.687984,87.6507301 C107.687984,87.3401647 107.328838,86.9605848 107.009597,86.8915703 C106.690355,86.8225558 106.371114,86.9260776 106.211493,87.2366429 C106.011967,87.6162229 105.692726,87.9958028 105.612916,88.40989 C105.41339,89.3070789 105.33358,90.2387751 105.213864,91.1704713 C105.173959,91.5155439 105.173959,91.8951238 104.974433,92.3782256 C104.615287,91.5845585 104.455666,90.7563841 103.537847,90.4458187 C103.058985,90.7218768 102.93927,91.1014567 103.09889,91.5500512 C103.138796,91.653573 103.178701,91.7916021 103.218606,91.8951238 C103.458037,92.4472401 103.737373,92.9648491 103.976804,93.4824581 C104.09652,93.7585162 104.296045,94.0345743 104.615287,94.1726034 C104.735002,94.2416179 104.894623,94.379647 104.894623,94.5176761 C104.974433,95.0697923 104.974433,95.5874013 105.014338,96.1050103 C105.054243,96.9331847 105.054243,97.7958663 105.134054,98.6240407 C105.253769,99.7972878 105.293674,100.970535 105.652821,102.109275 C105.692726,102.178289 105.692726,102.247304 105.692726,102.316318 C105.33358,102.143782 105.373485,102.143782 105.213864,101.833216 C105.014338,101.453637 104.774907,101.074057 104.535476,100.728984 C104.375856,100.487433 104.17633,100.280389 104.016709,100.038839 C103.577752,99.4522151 103.178701,98.8310843 102.739744,98.2444608 C102.699839,98.2099535 102.699839,98.2099535 102.659934,98.1754463 C102.300787,97.9338954 102.260882,97.62333 102.260882,97.2437501 C102.260882,96.3465612 102.021451,95.4838795 101.422874,94.7592269 C101.143537,94.379647 100.784391,94.1380961 100.305529,94.0690816 C99.7069514,94.0000671 99.347805,94.1726034 99.1482791,94.6902124 C98.8290378,95.414865 98.868943,96.1395176 99.0684688,96.8641701 C99.2280895,97.5198082 99.6271411,98.1064317 100.185813,98.5550262 C100.864201,99.1071424 101.263253,99.314186 102.021451,98.8310843 L102.220977,98.8310843 C102.699839,99.314186 103.218606,99.831795 103.577752,100.487433 C103.697468,100.659969 103.777278,100.867013 103.896994,101.005042 C104.455666,101.626173 104.735002,102.350825 105.213864,103.006463 C105.573011,103.489565 105.732631,104.076189 105.972062,104.593798 C106.051873,104.766334 106.131683,104.973378 106.251398,105.042392 C106.530735,105.180421 106.530735,105.421972 106.610545,105.663523 C106.73026,106.008596 106.810071,106.388176 106.929786,106.733248 C107.049502,107.147335 107.288933,107.526915 107.408648,107.906495 C107.687984,108.73467 107.72789,109.597351 107.96732,110.425526 C108.166846,111.2537 108.087036,112.150889 108.446182,112.979063 C108.486088,113.117092 108.486088,113.220614 108.486088,113.358643 C108.486088,113.876252 108.525993,114.393861 108.525993,114.91147 L108.525993,117.94811 Z" id="Combined-Shape" fill="#8CA35F"></path>
        </g>
    </g>
</svg>