<?xml version="1.0" encoding="UTF-8"?>
<svg width="291px" height="69px" viewBox="0 0 291 69" version="1.1" xmlns="http://www.w3.org/2000/svg" xmlns:xlink="http://www.w3.org/1999/xlink">
    <!-- Generator: Sketch 43.2 (39069) - http://www.bohemiancoding.com/sketch -->
    <title>Group 2</title>
    <desc>Created with Sketch.</desc>
    <defs></defs>
    <g id="Page-1" stroke="none" stroke-width="1" fill="none" fill-rule="evenodd">
        <g id="Group-15" transform="translate(-55.000000, -60.000000)">
            <g id="Group-2" transform="translate(55.000000, 60.000000)">
                <path d="M106.914533,69 C88.0445373,69 72.747383,53.7130628 72.747383,34.8556701 C72.747383,15.9982774 88.0445373,0.711340206 106.914533,0.711340206 C125.784529,0.711340206 141.081684,15.9982774 141.081684,34.8556701 C141.081684,53.7130628 125.784529,69 106.914533,69 Z M115.113309,18.9446191 C114.149329,18.3666175 113.570941,18.3666175 112.751558,19.0409527 C112.076772,19.8116215 112.124971,20.9194579 112.799757,21.7864603 C112.65516,22.5089623 112.558762,23.1832975 112.414165,23.8576327 C112.17317,24.8691355 111.883976,25.8324715 111.69118,26.7958075 C111.353787,28.4334787 110.534404,29.6858155 109.233032,30.6491515 C108.943838,30.8899855 108.654644,31.1308195 108.269052,31.4198203 C108.028057,30.4564843 108.124455,29.6858155 108.172654,28.9151467 C108.220853,27.1329751 108.317251,25.3989703 108.36545,23.6167987 C108.413649,22.6534627 108.269052,21.7382935 108.654644,20.7267907 C109.040236,19.6671211 108.895639,18.4147843 108.510047,17.3069479 C108.413649,17.0179471 108.124455,16.7289463 107.88346,16.5362791 C107.449669,16.1509447 106.533888,16.4399455 106.389291,17.0179471 C106.244694,17.7404491 106.003699,18.4147843 106.196495,19.1372863 C106.341092,19.8116215 106.630286,20.4859567 107.015878,21.0639583 C107.112276,21.3047923 107.305072,21.5456263 107.305072,21.7864603 C107.353271,23.0387971 107.40147,24.2429671 107.353271,25.4953039 C107.305072,26.9884747 107.208674,28.4334787 107.112276,29.9266495 C107.064077,30.4564843 107.015878,31.0344859 106.967679,31.5643207 C106.91948,31.8533215 106.823082,32.1423223 106.485689,32.0941555 C106.003699,32.0459887 105.47351,31.9978219 105.039719,31.7569879 C103.834745,31.0826527 102.822566,30.1674835 101.954984,29.1078139 C100.942805,27.9036439 100.509014,26.4104731 100.027024,24.9654691 C99.8342281,24.3393007 99.7860292,23.6649655 100.027024,23.0387971 C100.123422,22.8461299 100.171621,22.6052959 100.171621,22.3644619 C100.21982,20.9194579 100.123422,19.5226207 98.7738503,18.5592847 C98.0508654,18.0294499 97.3278806,18.2221171 96.9904876,19.0409527 C96.3157017,20.4859567 96.7494926,22.3162951 98.0508654,23.2796311 C98.4846564,23.6167987 98.6774523,24.0502999 98.8220493,24.5319679 C99.0630443,25.3989703 99.2558402,26.3623063 99.6896312,27.1811419 C99.9306261,27.6146431 100.075223,28.1444779 100.364417,28.7706463 C99.8824271,28.5779791 99.5450342,28.3371451 99.1594423,28.2889783 C98.5810544,28.1926447 98.2918604,27.8073103 97.9062685,27.5183095 C97.6170745,27.2774755 97.3760795,27.0366415 97.1350846,26.7476407 C96.6048957,26.0733055 95.8819108,25.5916375 95.8819108,24.5801347 C95.8337118,23.7131323 95.1589259,23.2314643 94.435941,22.8461299 C94.339543,22.7979631 94.1949461,22.7497963 94.0503491,22.7979631 C93.3755632,22.9424635 92.9899713,23.5204651 93.0381702,24.1948003 C93.0863692,25.0136359 93.9539511,26.3141395 94.9179309,26.4104731 C95.1107269,26.4586399 95.3517219,26.5068067 95.4963188,26.6513071 C95.9301098,26.9884747 96.4120997,27.3256423 96.7494926,27.7591435 C97.6652735,28.8188131 98.9184473,29.4449815 100.268019,29.8784827 C100.798208,30.0711499 101.328397,30.3119839 101.810387,30.6491515 C102.581571,31.1789863 103.256357,31.8051547 103.979341,32.3831563 C104.413132,32.6721571 104.798724,32.9129911 105.328913,33.0093247 C106.43749,33.2501587 106.630286,33.5391595 106.726684,34.6469959 C106.823082,35.3213311 106.91948,35.9474995 106.967679,36.6218347 C107.064077,38.0186719 107.353271,39.4636759 107.208674,40.9086799 C107.112276,42.0646831 107.208674,43.2688531 107.208674,44.4730231 C107.208674,44.8583575 107.160475,45.2918587 107.160475,45.7253599 C107.015878,45.4845259 107.015878,45.2436919 106.91948,45.0510247 C106.485689,44.3285227 106.100097,43.6541875 105.618107,42.9798523 C104.943321,41.9683495 104.02754,41.1976807 103.159959,40.4270119 C102.244178,39.6081763 101.328397,38.7893407 100.412616,37.9705051 C99.5932332,37.1998363 98.8220493,36.4291675 98.0026664,35.6584987 C97.8580695,35.5621651 97.5688755,35.4176647 97.4724775,35.4658315 C97.3278806,35.5621651 97.1832836,35.8511659 97.1832836,36.0438331 C97.1350846,36.4773343 97.1832836,36.8626687 97.2796816,37.2961699 C97.4242785,38.1150055 97.7134725,38.8856743 97.8098705,39.7045099 C98.0026664,41.2458475 98.7256513,42.5463511 99.7378302,43.7505211 C100.605412,44.8101907 101.66579,45.2918587 102.967163,45.5326927 C103.690148,45.6771931 104.364933,45.8216935 104.99152,46.2070279 C105.377112,46.3996951 105.762704,46.5441955 106.148296,46.7368627 C106.341092,46.8331963 106.533888,47.0258635 106.630286,47.2185307 C106.823082,47.7965323 107.015878,48.4227007 107.208674,49.0007023 L107.208674,49.2415363 C107.160475,50.1567055 107.112276,51.0718747 107.064077,51.9870439 C107.064077,52.7095459 107.015878,53.3838811 107.015878,54.0582163 C107.015878,54.6843847 107.160475,54.7807183 107.931659,54.6843847 C107.979858,54.2027167 107.979858,53.6728819 108.028057,53.1430471 C108.220853,51.6498763 108.413649,50.1567055 108.36545,48.6635347 C108.36545,48.3263671 108.510047,47.7965323 108.751042,47.6038651 C109.522226,46.9776967 110.341608,46.4478619 111.257389,46.2551947 C112.414165,46.0625275 113.474543,45.5326927 114.534921,45.0028579 C116.655676,43.8468547 118.198044,42.2573503 118.294442,39.6563431 C118.294442,39.5118427 118.342641,39.3191755 118.39084,39.1265083 C118.728233,37.8741715 119.065626,36.5736679 119.35482,35.3213311 C119.451218,34.8396631 119.113825,34.4061619 118.631835,34.4061619 C118.342641,34.4061619 118.005248,34.4543287 117.764253,34.5506623 C116.46288,35.1286639 115.354304,36.0438331 114.293926,36.9590023 C114.245727,37.0071691 114.149329,37.1035027 114.10113,37.1998363 C113.378145,38.2113391 112.799757,39.3673423 112.365966,40.5233455 C111.883976,41.8238491 111.112792,42.7871851 110.197011,43.7505211 C109.618624,44.3285227 108.943838,44.9065243 108.751042,45.7735267 C108.702843,45.8216935 108.558246,45.8698603 108.461848,45.9180271 L108.461848,44.0876887 C108.461848,41.9683495 108.461848,39.8490103 108.36545,37.7296711 C108.317251,36.6218347 108.076256,35.5621651 107.931659,34.4543287 C107.835261,33.9726607 107.787062,33.5391595 108.220853,33.1538251 C108.702843,32.7684907 109.136634,32.2868227 109.666823,31.9496551 C110.7272,31.1789863 111.450185,30.0711499 112.269568,29.1078139 C112.65516,28.6743127 112.992553,28.2408115 113.474543,27.9999775 C114.293926,27.6146431 115.113309,27.1329751 115.932692,26.7476407 C116.125488,26.6513071 116.366482,26.6513071 116.607477,26.6513071 C117.619656,26.6994739 118.439039,26.0733055 118.535437,25.1099695 C118.583636,24.8691355 118.583636,24.5801347 118.583636,24.3393007 C118.535437,23.4722983 117.860651,23.0869639 117.089467,23.4241315 C116.414681,23.7131323 115.980891,24.1948003 115.884493,24.9654691 C115.836294,25.5916375 115.498901,26.0733055 114.920513,26.3141395 C114.293926,26.5549735 113.715538,26.7958075 112.944354,27.1329751 C112.992553,26.6031403 113.040752,26.1696391 113.13715,25.7361379 C113.281747,25.0136359 113.763737,24.4356343 113.570941,23.6167987 C113.426344,23.0387971 113.860135,22.5571291 114.486722,22.3644619 C114.775916,22.2681283 115.016911,22.0754611 115.209707,21.8827939 C115.643498,21.3529591 115.691697,20.7267907 115.498901,20.1006223 C115.402503,19.7152879 115.257906,19.3299535 115.113309,18.9446191 Z" id="Combined-Shape" fill="#D1CAD8"></path>
                <path d="M34.1671503,68.2886598 C53.0371463,68.2886598 68.3343006,53.0017226 68.3343006,34.1443299 C68.3343006,15.2869372 53.0371463,0 34.1671503,0 C15.2971542,0 0,15.2869372 0,34.1443299 C0,53.0017226 15.2971542,68.2886598 34.1671503,68.2886598 Z M33.652019,46.5530673 C33.652019,46.3615526 33.7105523,46.2179166 33.7105523,46.026402 L33.7105523,43.0100459 C33.7105523,42.7227739 33.7105523,42.3397446 33.4764194,42.1003512 C32.8325541,41.4779285 32.5984213,40.7118698 32.1886888,39.9936898 C31.6033568,38.9882378 30.9009583,38.0785431 30.0229601,37.2646058 C29.6132277,36.8815764 29.3790948,36.4506684 28.9693624,36.0676391 C28.7352296,35.8282457 28.3840303,35.5409737 28.0328311,35.3973377 C26.9792333,34.9185511 26.1597684,34.1524924 25.4573699,33.4343124 C24.8720378,32.8597683 24.5793718,32.045831 24.1111061,31.3755296 C23.233108,29.9870483 22.9404419,28.5028096 22.7063091,26.9706922 C22.5892427,26.2525122 22.7648423,25.4864535 22.9404419,24.7682735 C22.9989752,24.4331228 23.3501744,24.0979721 23.6428404,23.8585788 C23.8769733,23.6191855 24.2281725,23.6191855 24.4623054,23.8585788 C25.5159031,25.1513028 26.9792333,26.1567549 27.6816318,27.6409936 C28.2084307,28.7422029 29.0278956,29.7955336 29.6132277,30.896743 C30.3741594,32.333103 30.6668254,33.8652204 30.6082922,35.4452164 C30.6082922,35.5888524 30.4326926,35.7324884 30.4326926,35.8761244 C30.4326926,36.0676391 30.4326926,36.3070324 30.549759,36.4506684 C31.3106907,37.3603631 32.1301556,38.2700578 32.8910873,39.2276311 C32.9496205,39.2755098 33.066687,39.3233885 33.1837534,39.3712672 C33.2422866,39.2276311 33.2422866,39.0839951 33.2422866,38.9882378 C33.3008198,36.9773338 33.3008198,35.0143084 33.359353,33.0034043 C33.359353,32.5724963 33.3008198,32.0937097 33.4178862,31.6628016 C33.7690855,30.5137136 33.4178862,29.5082616 32.7740209,28.5028096 C32.247222,27.6888722 32.0716224,26.7791775 32.0130892,25.8216042 C31.8960228,24.5288802 31.7789564,23.1882775 31.7789564,21.8955534 C31.7789564,19.7888921 32.0130892,17.6822307 32.9496205,15.7192053 C33.3008198,15.0010253 33.8861519,14.3307239 34.5300172,13.8040586 C35.5250817,13.0379999 36.5786795,13.2295146 36.9298787,14.2828453 C37.281078,15.2404186 37.4566776,16.197992 37.6908104,17.1555653 C38.1590761,18.7355614 37.86641,20.3634361 37.6908104,21.9434321 C37.5152108,23.4276708 36.9298787,24.8640308 36.2860134,26.2046335 C35.5250817,27.6409936 34.9397496,29.1731109 34.8812164,30.753107 C34.8226832,32.0937097 34.7056168,33.482191 34.5885504,34.8227937 C34.5885504,35.3015804 34.5885504,35.7324884 34.76415,36.2112751 C34.9982828,35.6367311 35.2909489,35.0621871 35.4080153,34.4397644 C35.6421481,33.194919 36.2274802,32.0937097 36.8128123,30.9446216 C37.3981444,29.8434123 38.0420097,28.8379603 38.7444082,27.7846296 C39.5053399,26.5876629 40.5589376,25.5343322 41.6710686,24.6246375 C42.2564007,24.1458508 43.0758656,23.9064575 43.7782641,23.5713068 C43.8953305,23.5234281 44.0123969,23.5234281 44.1294633,23.5234281 C44.8318618,23.4755495 45.0074614,23.6670641 45.0659946,24.2416082 C45.1245279,25.4864535 44.7147954,26.6834202 44.7147954,27.9282656 C44.7147954,28.9337176 44.4806626,29.8912909 44.0123969,30.8488643 C43.192932,32.476739 42.080801,34.0088564 40.5004044,35.2058231 C39.9736055,35.5888524 39.3882734,35.8761244 38.7444082,36.1633964 C37.3396112,36.8336978 35.876281,37.4561204 34.5300172,38.0785431 C34.5885504,40.2809618 34.6470836,42.5312592 34.76415,44.8773139 C35.4665485,43.7761046 35.9933474,42.8185312 36.6957459,41.9567152 C37.4566776,40.9512632 38.2176093,39.9458112 39.4468067,39.3233885 C40.3248048,38.8446018 41.2028029,38.4136938 42.3734671,38.4136938 C43.0173324,38.4136938 43.6611976,38.4136938 44.3635961,38.1743005 C45.1245279,37.8870285 46.0610592,38.4136938 46.2366588,39.1318738 C46.4122584,39.7542965 45.8269263,40.5682338 45.0659946,40.7597485 C44.3050629,40.9991419 43.485598,40.6639912 43.2514652,39.9936898 C43.192932,39.8021752 43.1343988,39.6106605 43.0758656,39.3712672 C41.8466682,39.1318738 40.8516037,39.6106605 39.9736055,40.1373258 C39.3882734,40.4724765 38.7444082,40.8555059 38.6273417,41.4779285 C38.6273417,41.5258072 38.5688085,41.5736859 38.5102753,41.6215645 C36.7542791,43.1058032 36.0518806,44.9251926 35.7006813,46.9360967 C35.5250817,47.8457913 35.2909489,48.755486 35.1153493,49.6651807 C34.9982828,50.1439674 35.056816,50.6706327 35.056816,51.1494194 L35.056816,51.5324488 C34.9982828,52.1069928 34.9397496,52.6815368 34.8812164,53.2560808 C34.8226832,53.5912315 34.76415,53.9263821 34.5885504,54.2136541 C34.5300172,54.3094115 34.2958843,54.4530475 34.1202847,54.4051688 C34.0032183,54.4051688 33.8276187,54.2136541 33.8276187,54.0700181 C33.7690855,53.6391101 33.7105523,53.1603235 33.652019,52.7294154 C33.5349526,51.7239634 33.5349526,50.6706327 33.3008198,49.6651807 C33.066687,48.3724567 32.3642885,47.17549 31.7789564,45.9785233 C31.1936243,44.8294353 30.4912258,43.7282259 29.4961613,42.8185312 C28.4425635,41.7652005 27.1548329,40.8555059 25.5159031,40.4724765 C24.9891042,40.3288405 24.5208386,40.3288405 23.9355065,40.5682338 C23.4087076,40.8076272 22.8819087,40.9512632 22.2380434,40.6639912 C21.5941782,40.3767192 21.3600453,40.0415685 21.3600453,39.4670245 C21.3015121,38.8924805 21.7112446,38.5573298 22.2380434,38.3658151 C22.8233755,38.1264218 23.525774,38.1264218 23.9355065,38.6052085 C24.5793718,39.2755098 25.4573699,39.4670245 26.3939012,39.7064178 C27.6816318,40.0415685 28.7937628,40.7597485 29.6717609,41.5736859 C30.8424251,42.6748952 31.954556,43.8239832 32.6569545,45.2124646 C32.8910873,45.6912513 33.1252202,46.170038 33.359353,46.6488246 C33.4764194,46.5530673 33.5934858,46.5530673 33.652019,46.5530673 Z" id="Combined-Shape" fill="#D57A49"></path>
                <path d="M181.14661,68.2886598 C162.276614,68.2886598 146.97946,53.0017226 146.97946,34.1443299 C146.97946,15.2869372 162.276614,0 181.14661,0 C200.016606,0 215.313761,15.2869372 215.313761,34.1443299 C215.313761,53.0017226 200.016606,68.2886598 181.14661,68.2886598 Z M179.613124,33.2491003 C179.573343,33.2449191 179.49378,33.2365567 179.502137,33.1570468 C179.518677,32.2343213 179.531039,31.3513507 179.627143,30.4369876 C179.706532,29.6816441 179.821525,28.9702368 179.940696,28.2190746 C180.043154,27.626932 180.110009,26.9908533 180.292029,26.4070732 C180.551437,25.4696799 180.969971,24.5490115 181.229379,23.6116183 C181.371618,23.023657 181.719119,22.7788222 182.261348,22.5946483 C184.382129,21.9332814 185.654791,20.5396682 186.047907,18.3301176 C186.179614,17.4596907 186.466268,16.6457434 186.677538,15.7836788 C186.815598,15.2354724 186.949481,14.7270208 187.007978,14.170452 C187.110436,13.5783094 186.78583,13.2226392 186.172394,13.3189409 C185.806004,13.3608199 185.506641,13.530326 185.171676,13.6558961 C184.916273,13.7898286 184.700652,13.9279422 184.485031,14.0660559 C183.415282,14.6771143 182.674318,15.604088 182.084123,16.6272964 C181.341157,17.9560005 180.947867,19.4018452 180.713702,20.8644148 C180.663561,21.3414738 180.450116,21.8415629 180.718227,22.3520715 C180.749652,22.4357626 180.693157,22.590601 180.64084,22.7056846 C180.467176,23.2099549 180.257909,23.6702891 180.084246,24.1745594 C179.80177,24.9487518 179.554897,25.7668803 179.220105,26.6561562 C179.090228,26.3611469 178.987597,26.1895836 178.928926,25.9824466 C178.71731,25.3170995 178.545476,24.6559336 178.329682,24.0303414 C177.667588,21.9108542 176.794051,19.8897256 175.40971,18.136462 C175.124885,17.784973 174.760497,17.4251216 174.387753,17.1447801 C174.05479,16.8686198 173.807744,16.9230424 173.579588,17.1804208 C173.215374,17.5842753 172.918187,18.1157569 172.859689,18.6723258 C172.705088,20.1432577 172.550487,21.6141897 173.164269,23.0452998 C173.486873,23.8027003 173.809476,24.5601009 174.475402,25.1124215 C175.664841,26.0413184 176.967271,26.6605383 178.449719,27.0977084 C178.799569,27.9785549 178.862591,28.9096429 178.806269,29.8281872 C178.716693,31.8284767 178.551732,33.7806489 178.541719,35.7893008 C178.533536,36.6325165 178.441611,37.5071247 178.473209,38.3545215 C178.47756,39.0784725 178.521693,39.8066046 178.649568,40.5033442 C178.781621,41.1603289 178.83411,41.8089512 178.763078,42.4847848 C178.656268,42.3529765 178.593419,42.1855944 178.48661,42.053786 C178.00488,41.2796607 177.571289,40.4302067 177.005818,39.6874738 C176.364963,38.8966236 175.851809,38.0388072 175.638017,37.0114847 C175.583525,36.7645928 175.533211,36.4779459 175.478718,36.231054 C175.063843,34.82085 174.393566,33.5445784 173.723288,32.2683068 C173.455177,31.7577981 173.099146,31.3184369 172.743116,30.8790757 C172.244673,30.26397 171.746229,29.6488643 171.208005,29.0295774 C170.887577,28.6341523 170.567149,28.2387273 170.198583,27.9186308 C169.830017,27.5985343 169.49923,27.6843495 169.329745,28.1488649 C169.216755,28.4585418 169.139367,28.8121549 169.101762,29.1699491 C168.993123,30.203577 169.012186,31.1702386 169.146414,32.1891988 C169.261754,33.0052032 169.552932,33.6789127 169.883893,34.3568034 C170.348909,35.2899485 171.161425,35.9782587 171.929982,36.7021426 C172.734142,37.4699627 173.822953,37.8255659 174.771528,38.3674001 C174.926475,38.4238798 175.077244,38.5201144 175.14845,38.6079867 C175.540084,39.091284 175.847977,39.6059739 176.239611,40.0892712 C177.165291,41.2316103 177.795787,42.5037007 178.294403,43.8825123 C178.537443,44.6315504 178.780484,45.3805885 179.023524,46.1296267 C179.145045,46.5041458 179.390088,46.8514535 179.471827,47.2217914 C179.717043,48.332805 179.962259,49.4438186 180.167694,50.550651 C180.463224,51.9483115 180.886456,53.2790057 181.512774,54.590851 C181.713857,54.9737325 181.904408,55.0741483 182.155632,54.9799708 C182.411034,54.8460383 182.511489,54.6556262 182.310406,54.2727447 C181.742759,53.1680364 181.422159,52.0089054 181.105736,50.8100196 C180.996751,50.3162357 180.852163,49.7785158 180.866701,49.2575207 C180.858171,48.5733247 180.933382,47.8577361 181.044197,47.1860837 C181.155011,46.5144313 181.230223,45.7988428 181.531588,45.2276062 C181.929229,44.5057124 182.628409,43.9762879 183.493069,43.7858087 C184.150465,43.6539334 184.772258,43.4781219 185.366978,43.9425704 L185.565885,43.9634764 C187.737153,44.3524622 189.682095,43.8333902 191.463559,42.5736425 C191.639398,42.4313476 191.859198,42.2534791 192.039216,42.0714293 C192.627408,41.4499513 192.436684,40.5858296 191.689193,40.4268769 C191.295556,40.34531 190.814,40.3348905 190.40365,40.4123432 C189.670869,40.4961012 188.969514,40.6635503 188.299583,40.9146904 C187.166985,41.3583667 185.959002,41.7539258 185.023309,42.6202386 C184.931211,42.7311409 184.728125,42.7499898 184.560642,42.8127748 C183.855108,43.0199788 183.113971,43.1832467 182.408437,43.3904506 C182.245132,43.4134807 182.121609,43.4406921 181.918524,43.459541 C182.152861,42.7606772 182.378841,42.1413234 182.604822,41.5219695 C182.665495,41.3273761 182.761772,41.1767188 182.893652,41.0699977 C183.201371,40.8209817 183.548872,40.5761469 183.892194,40.371067 C185.864209,39.2117351 187.2059,37.5440187 187.762321,35.311438 C188.030086,34.2945349 188.142903,33.2211522 188.295502,32.1519506 C188.328929,31.8339112 188.20323,31.4991471 188.077532,31.1643829 C187.987436,30.8735549 187.757104,30.7689578 187.394892,30.7710819 C186.869376,30.7962361 186.398352,31.0682822 186.042495,31.3926269 C184.794904,32.5477106 184.154568,34.0479779 183.66918,35.604725 C183.482981,36.2282601 183.416126,36.8643388 183.154543,37.4397566 C182.788326,38.2453414 182.577056,39.107406 182.326005,39.9652894 C182.208836,40.3147212 182.091668,40.6641531 181.974499,41.0135849 C181.618815,42.1016354 181.267309,43.149931 180.915803,44.1982266 C180.746317,44.662742 180.576832,45.1272574 180.35503,45.7068563 C180.260756,45.4557832 180.18955,45.367911 180.158125,45.2842199 C179.736896,43.5517953 179.638097,41.8130654 179.459735,40.0659732 C179.36111,39.0909491 179.425789,38.092895 179.366944,37.1220521 C179.316457,36.0716994 179.655428,35.1426686 180.073962,34.2220002 C180.440179,33.4164154 180.957165,32.7070651 181.319203,31.9412352 C181.524292,31.5206559 181.823654,31.3511498 182.229826,31.3134519 C184.225082,31.0810268 185.422358,29.6392963 186.460509,28.1808409 C186.981674,27.4317358 187.241081,26.4943426 187.536092,25.6008855 C187.822746,24.7869382 187.994234,23.9206924 188.165722,23.0544466 C188.280715,22.3430393 187.570829,21.8262924 186.936501,22.1213686 C186.469656,22.3536598 185.994454,22.6654608 185.559033,22.981443 C184.547956,23.7996385 183.909623,24.8981755 183.267111,26.0364674 C182.620421,27.2145142 182.21242,28.4176482 181.915406,29.7128357 C181.781524,30.2212872 181.580614,30.6021116 181.180796,30.96203 C180.785157,31.2821934 180.57589,31.7425276 180.291239,32.1547445 C180.054726,32.4916327 179.853816,32.8724571 179.613124,33.2491003 Z" id="Combined-Shape" fill="#576660"></path>
                <path d="M256.83285,68.2886598 C237.962854,68.2886598 222.665699,53.0017226 222.665699,34.1443299 C222.665699,15.2869372 237.962854,0 256.83285,0 C275.702846,0 291,15.2869372 291,34.1443299 C291,53.0017226 275.702846,68.2886598 256.83285,68.2886598 Z M257.191692,44.9481096 C257.151787,44.9826169 257.111882,44.9826169 256.872451,45.0516314 C256.63302,44.603037 256.393589,44.1889498 256.194063,43.7403553 C255.954632,43.1882391 255.795011,42.5671083 255.55558,42.014992 C255.276244,41.3938612 254.996908,40.7727305 254.677667,40.1515997 C254.557951,39.8755415 254.438236,39.6339907 254.278615,39.3924398 C253.999279,38.9093381 253.719943,38.4262364 253.400702,37.9776419 C252.92184,37.3220039 252.403072,36.7008731 251.924211,36.045235 C251.884305,36.0107278 251.8444,35.9762205 251.804495,35.9417132 C251.485254,35.6311478 251.126107,35.3550897 250.806866,35.0790316 C250.567435,34.871988 250.407814,34.871988 250.208288,35.0790316 C250.128478,35.1825534 250.048668,35.2515679 250.008763,35.3550897 C249.928952,35.7001624 249.809237,36.0797423 249.769332,36.4248149 C249.689521,37.1149603 249.729426,37.8051056 249.928952,38.4952509 C250.168383,39.3924398 250.60734,40.2206142 251.205918,40.9452668 C251.604969,41.4283685 252.203547,41.8079484 252.722314,42.2220356 C253.241081,42.6361228 253.839658,42.9466882 254.518046,43.05021 C254.597857,43.05021 254.637762,43.0847173 254.717572,43.1192245 C255.196434,43.2572536 255.39596,43.567819 255.435865,44.0164135 C255.435865,44.1199353 255.47577,44.2579643 255.515675,44.3614861 C255.914727,45.120646 256.114253,45.9143131 256.313779,46.7079802 C256.473399,47.3981255 256.55321,48.1572854 256.593115,48.881938 C256.63302,49.6756051 256.55321,50.5037795 256.55321,51.2974466 C256.55321,51.5389974 256.513304,51.8840701 256.63302,52.0566064 C256.832546,52.3326645 256.832546,52.5742154 256.832546,52.8502735 C256.792641,53.1608389 256.872451,53.2643607 257.231597,53.298868 C257.391218,53.3333753 257.590744,53.3678825 257.79027,53.3333753 C257.909985,53.298868 258.109511,53.1953462 258.149416,53.0918244 C258.229226,52.6777372 258.348942,52.26365 258.269132,51.8840701 C258.149416,51.4009684 257.989796,50.9178666 258.069606,50.3657504 C258.109511,49.9861705 257.989796,49.6065905 258.109511,49.1925033 C258.229226,48.8129234 258.069606,48.3988362 258.069606,48.0192563 C258.029701,47.6741836 258.109511,47.329111 258.109511,46.9840383 C258.109511,46.7769947 258.149416,46.5354439 258.029701,46.4319221 C257.79027,46.1903712 257.830175,45.8798058 257.79027,45.6037477 C257.79027,45.258675 257.750365,44.9136024 257.750365,44.5685297 C257.710459,44.3269788 257.710459,44.085428 257.710459,43.8438771 C257.750365,42.7051374 257.909985,41.5318903 257.710459,40.3931505 C257.710459,40.2896287 257.710459,40.1861069 257.750365,40.0825851 C257.94989,39.3924398 258.189321,38.6677872 258.428752,37.9776419 C258.588373,37.4600329 258.987425,37.2184821 259.586002,37.2184821 C260.104769,37.2184821 260.623536,37.1839748 261.142304,37.2184821 C261.740881,37.2874966 262.339458,37.3910184 262.938036,37.4255257 C263.736139,37.4945402 264.534242,37.6325693 265.292441,37.2184821 C265.691492,37.0114385 266.130449,36.8734094 266.529501,36.7008731 C266.848742,36.562844 267.048268,36.2867859 267.008363,35.9762205 C266.928552,35.4586115 266.729027,35.1135388 266.090544,35.0790316 L265.611682,35.0790316 C263.97557,35.010017 262.499079,35.4931188 261.142304,36.2867859 C261.022588,36.3558004 260.902873,36.3903077 260.783157,36.4248149 C260.3442,36.4938295 259.905243,36.562844 259.466287,36.5973513 C259.346571,36.5973513 259.18695,36.562844 259.02733,36.5283367 C259.067235,36.3903077 259.10714,36.2867859 259.147045,36.2177714 C259.546097,35.4931188 259.945149,34.8029734 260.3442,34.1128281 C260.543726,33.8022627 260.663442,33.4571901 260.902873,33.1811319 C261.301924,32.6980302 261.700976,32.145914 262.219743,31.7318268 C262.938036,31.1797105 263.696234,30.6275943 264.294811,29.9029417 C264.334717,29.8684344 264.374622,29.8339272 264.414527,29.7994199 C264.733768,29.6268836 264.893389,29.3163182 265.05301,29.0057528 C265.13282,28.8677237 265.21263,28.6951874 265.332346,28.6261728 C265.851113,28.2811002 266.010734,27.7289839 266.29007,27.2803895 C266.36988,27.1423604 266.409785,27.0043313 266.489596,26.9008095 C266.768932,26.5212296 266.848742,26.1071424 266.888647,25.658548 C266.928552,25.140939 266.489596,24.7613591 265.930923,24.8993881 C265.611682,24.9684027 265.292441,25.1064317 265.05301,25.278968 C264.534242,25.6930552 264.015475,26.176157 263.576519,26.6592587 C263.137562,27.1423604 262.858226,27.7634912 262.379364,28.2465929 C261.860596,28.7642019 261.621165,29.3853327 261.301924,30.0064635 C261.102398,30.4205507 260.982683,30.8691451 260.942778,31.3177396 C260.902873,31.766334 260.703347,32.0768994 260.463916,32.4564794 C259.586002,33.8022627 258.787899,35.1825534 258.149416,36.6663658 C257.989796,37.0459457 257.830175,37.4255257 257.630649,37.8051056 C257.431123,37.4945402 257.151787,37.1839748 257.271503,36.8389021 C257.391218,36.5283367 257.271503,36.3212932 257.111882,36.0797423 C256.992166,35.8726987 256.912356,35.5966406 256.832546,35.3550897 C256.792641,35.1825534 256.752735,35.010017 256.71283,34.8374807 C256.513304,34.2853645 256.273873,33.7332482 256.114253,33.1466247 C255.715201,31.7318268 255.39596,30.3170289 255.036813,28.902231 C254.957003,28.5916656 255.076718,28.4536365 255.316149,28.2811002 C255.755106,27.9705348 256.194063,27.6599694 256.63302,27.349404 C256.952261,27.1423604 257.231597,26.8663023 257.590744,26.7972878 C258.508563,26.6592587 259.10714,26.1071424 259.625907,25.5205189 C260.26439,24.8648809 260.663442,24.0367065 260.942778,23.2085321 C261.102398,22.7254304 260.623536,21.897256 260.144674,21.9317633 C259.665812,21.9317633 259.226856,22.0697923 258.867709,22.4838795 C258.069606,23.450083 257.590744,24.5543155 257.191692,25.6930552 C257.032072,26.176157 256.752735,26.4522151 256.353684,26.693766 C256.194063,26.7972878 255.954632,26.9008095 255.834917,27.0733459 C255.635391,27.349404 255.316149,27.3839113 254.957003,27.5219403 C254.637762,26.4867224 254.557951,25.4515044 254.557951,24.4162864 L254.557951,23.7951556 C254.518046,23.1050103 254.478141,22.3803577 254.398331,21.6557051 C254.358426,21.4486615 254.398331,21.2761252 254.637762,21.1726034 C254.957003,21.0345743 255.316149,20.8965453 255.675296,20.7930235 C256.63302,20.5514726 257.271503,20.0338636 257.550839,19.171182 C257.710459,18.6880803 257.351313,18.3085003 256.832546,18.3775149 C256.473399,18.4120221 256.114253,18.5155439 255.874822,18.7916021 C255.595486,19.1366747 255.316149,19.4472401 255.036813,19.7923128 C254.917098,19.8958346 254.797382,19.9993564 254.637762,20.2064 C254.557951,19.9648491 254.518046,19.8613273 254.518046,19.7578055 C254.557951,19.4817474 254.637762,19.2056892 254.637762,18.9296311 C254.677667,18.4120221 254.797382,17.9634277 255.116624,17.5148332 C255.635391,16.8246879 255.914727,15.9965135 256.273873,15.2373537 C256.353684,15.0648173 256.353684,14.8577737 256.353684,14.6507301 C256.353684,14.3401647 255.994537,13.9605848 255.675296,13.8915703 C255.356055,13.8225558 255.036813,13.9260776 254.877193,14.2366429 C254.677667,14.6162229 254.358426,14.9958028 254.278615,15.40989 C254.079089,16.3070789 253.999279,17.2387751 253.879564,18.1704713 C253.839658,18.5155439 253.839658,18.8951238 253.640133,19.3782256 C253.280986,18.5845585 253.121365,17.7563841 252.203547,17.4458187 C251.724685,17.7218768 251.604969,18.1014567 251.76459,18.5500512 C251.804495,18.653573 251.8444,18.7916021 251.884305,18.8951238 C252.123736,19.4472401 252.403072,19.9648491 252.642503,20.4824581 C252.762219,20.7585162 252.961745,21.0345743 253.280986,21.1726034 C253.400702,21.2416179 253.560322,21.379647 253.560322,21.5176761 C253.640133,22.0697923 253.640133,22.5874013 253.680038,23.1050103 C253.719943,23.9331847 253.719943,24.7958663 253.799753,25.6240407 C253.919469,26.7972878 253.959374,27.9705348 254.31852,29.1092746 C254.358426,29.1782891 254.358426,29.2473036 254.358426,29.3163182 C253.999279,29.1437818 254.039184,29.1437818 253.879564,28.8332164 C253.680038,28.4536365 253.440607,28.0740566 253.201176,27.7289839 C253.041555,27.4874331 252.842029,27.2803895 252.682409,27.0388386 C252.243452,26.4522151 251.8444,25.8310843 251.405443,25.2444608 C251.365538,25.2099535 251.365538,25.2099535 251.325633,25.1754463 C250.966487,24.9338954 250.926581,24.62333 250.926581,24.2437501 C250.926581,23.3465612 250.68715,22.4838795 250.088573,21.7592269 C249.809237,21.379647 249.45009,21.1380961 248.971228,21.0690816 C248.372651,21.0000671 248.013504,21.1726034 247.813979,21.6902124 C247.494737,22.414865 247.534642,23.1395176 247.734168,23.8641701 C247.893789,24.5198082 248.292841,25.1064317 248.851513,25.5550262 C249.529901,26.1071424 249.928952,26.314186 250.68715,25.8310843 L250.886676,25.8310843 C251.365538,26.314186 251.884305,26.831795 252.243452,27.4874331 C252.363167,27.6599694 252.442978,27.867013 252.562693,28.0050421 C253.121365,28.6261728 253.400702,29.3508254 253.879564,30.0064635 C254.23871,30.4895652 254.398331,31.0761887 254.637762,31.5937977 C254.717572,31.766334 254.797382,31.9733776 254.917098,32.0423922 C255.196434,32.1804212 255.196434,32.4219721 255.276244,32.663523 C255.39596,33.0085956 255.47577,33.3881755 255.595486,33.7332482 C255.715201,34.1473354 255.954632,34.5269153 256.074348,34.9064952 C256.353684,35.7346696 256.393589,36.5973513 256.63302,37.4255257 C256.832546,38.2537 256.752735,39.150889 257.111882,39.9790633 C257.151787,40.1170924 257.151787,40.2206142 257.151787,40.3586433 C257.151787,40.8762523 257.191692,41.3938612 257.191692,41.9114702 L257.191692,44.9481096 Z" id="Combined-Shape" fill="#8CA35F"></path>
            </g>
        </g>
    </g>
</svg>