<?xml version="1.0" encoding="UTF-8"?>
<svg width="274px" height="171px" viewBox="0 0 274 171" version="1.1" xmlns="http://www.w3.org/2000/svg" xmlns:xlink="http://www.w3.org/1999/xlink">
    <!-- Generator: Sketch 43.2 (39069) - http://www.bohemiancoding.com/sketch -->
    <title>The botanist logo</title>
    <desc>Created with Sketch.</desc>
    <defs></defs>
    <g id="Page-1" stroke="none" stroke-width="1" fill="none" fill-rule="evenodd">
        <g id="Desktop-Landscape" transform="translate(-503.000000, -83.000000)" fill="#000000">
            <g id="The-botanist-logo" transform="translate(0.000000, 74.000000)">
                <text id="The-Botanist" font-family="Baskerville" font-size="40" font-weight="normal" letter-spacing="2.6400001">
                    <tspan x="520.009609" y="36">The Botanist</tspan>
                </text>
                <path d="M746.616538,158.046 C746.616538,157.584462 746.757505,157.238308 746.757505,156.776769 L746.757505,149.507539 C746.757505,148.815231 746.757505,147.892154 746.193636,147.315231 C744.642997,145.815231 744.079128,143.969077 743.092358,142.238308 C741.682686,139.815231 739.99108,137.622923 737.876573,135.661385 C736.889802,134.738308 736.325934,133.699846 735.339163,132.776769 C734.775295,132.199846 733.929491,131.507539 733.083688,131.161385 C730.546279,130.007539 728.572739,128.161385 726.881132,126.430616 C725.471461,125.046 724.766625,123.084462 723.638887,121.469077 C721.52438,118.122923 720.819544,114.546 720.255675,110.853692 C719.973741,109.122923 720.396642,107.276769 720.819544,105.546 C720.960511,104.738308 721.806314,103.930616 722.51115,103.353692 C723.075019,102.776769 723.920822,102.776769 724.48469,103.353692 C727.0221,106.469077 730.546279,108.892154 732.237885,112.469077 C733.50659,115.122923 735.48013,117.661385 736.889802,120.315231 C738.722376,123.776769 739.427212,127.469077 739.286244,131.276769 C739.286244,131.622923 738.863343,131.969077 738.863343,132.315231 C738.863343,132.776769 738.863343,133.353692 739.145277,133.699846 C740.97785,135.892154 742.951391,138.084462 744.783964,140.392154 C744.924932,140.507539 745.206866,140.622923 745.4888,140.738308 C745.629767,140.392154 745.629767,140.046 745.629767,139.815231 C745.770735,134.969077 745.770735,130.238308 745.911702,125.392154 C745.911702,124.353692 745.770735,123.199846 746.052669,122.161385 C746.898472,119.392154 746.052669,116.969077 744.50203,114.546 C743.233325,112.584462 742.810424,110.392154 742.669457,108.084462 C742.387522,104.969077 742.105588,101.738308 742.105588,98.6229232 C742.105588,93.5460001 742.669457,88.4690771 744.924932,83.7383078 C745.770735,82.0075386 747.180406,80.392154 748.731045,79.1229232 C751.127487,77.2767694 753.664897,77.7383078 754.5107,80.2767694 C755.356503,82.5844617 755.779404,84.892154 756.343273,87.1998463 C757.471011,91.0075386 756.766175,94.9306155 756.343273,98.7383078 C755.920372,102.315231 754.5107,105.776769 752.960061,109.007539 C751.127487,112.469077 749.717816,116.161385 749.576849,119.969077 C749.435881,123.199846 749.153947,126.546 748.872013,129.776769 C748.872013,130.930616 748.872013,131.969077 749.294914,133.122923 C749.858783,131.738308 750.563619,130.353692 750.845553,128.853692 C751.409422,125.853692 752.819094,123.199846 754.228765,120.430616 C755.638437,117.776769 757.189076,115.353692 758.880682,112.815231 C760.713256,109.930616 763.250665,107.392154 765.929041,105.199846 C767.338713,104.046 769.312254,103.469077 771.00386,102.661385 C771.285794,102.546 771.567729,102.546 771.849663,102.546 C773.541269,102.430616 773.964171,102.892154 774.105138,104.276769 C774.246105,107.276769 773.259335,110.161385 773.259335,113.161385 C773.259335,115.584462 772.695466,117.892154 771.567729,120.199846 C769.594188,124.122923 766.915812,127.815231 763.109698,130.699846 C761.840993,131.622923 760.431321,132.315231 758.880682,133.007539 C755.49747,134.622923 751.973291,136.122923 748.731045,137.622923 C748.872013,142.930616 749.01298,148.353692 749.294914,154.007539 C750.98652,151.353692 752.255225,149.046 753.946831,146.969077 C755.779404,144.546 757.611978,142.122923 760.572289,140.622923 C762.686796,139.469077 764.801304,138.430616 767.620648,138.430616 C769.171287,138.430616 770.721926,138.430616 772.413532,137.853692 C774.246105,137.161385 776.50158,138.430616 776.924482,140.161385 C777.347383,141.661385 775.937711,143.622923 774.105138,144.084462 C772.272565,144.661385 770.299024,143.853692 769.735155,142.238308 C769.594188,141.776769 769.453221,141.315231 769.312254,140.738308 C766.351943,140.161385 763.955501,141.315231 761.840993,142.584462 C760.431321,143.392154 758.880682,144.315231 758.598748,145.815231 C758.598748,145.930616 758.457781,146.046 758.316814,146.161385 C754.087798,149.738308 752.396192,154.122923 751.550389,158.969077 C751.127487,161.161385 750.563619,163.353692 750.140717,165.546 C749.858783,166.699846 749.99975,167.969077 749.99975,169.122923 L749.99975,170.046 C749.858783,171.430616 749.717816,172.815231 749.576849,174.199846 C749.435881,175.007539 749.294914,175.815231 748.872013,176.507539 C748.731045,176.738308 748.167177,177.084462 747.744275,176.969077 C747.462341,176.969077 747.039439,176.507539 747.039439,176.161385 C746.898472,175.122923 746.757505,173.969077 746.616538,172.930616 C746.334603,170.507539 746.334603,167.969077 745.770735,165.546 C745.206866,162.430616 743.51526,159.546 742.105588,156.661385 C740.695916,153.892154 739.00431,151.238308 736.607868,149.046 C734.070459,146.507539 730.969181,144.315231 727.0221,143.392154 C725.753395,143.046 724.625658,143.046 723.215986,143.622923 C721.947281,144.199846 720.678576,144.546 719.127937,143.853692 C717.577299,143.161385 717.01343,142.353692 717.01343,140.969077 C716.872463,139.584462 717.859233,138.776769 719.127937,138.315231 C720.537609,137.738308 722.229215,137.738308 723.215986,138.892154 C724.766625,140.507539 726.881132,140.969077 729.136607,141.546 C732.237885,142.353692 734.916262,144.084462 737.030769,146.046 C739.850113,148.699846 742.528489,151.469077 744.220096,154.815231 C744.783964,155.969077 745.347833,157.122923 745.911702,158.276769 C746.193636,158.046 746.475571,158.046 746.616538,158.046 Z" id="Shape" fill-rule="nonzero"></path>
                <path d="M677.088225,155.929126 L677.088225,148.3144 C677.088225,147.016435 676.988225,145.718471 676.988225,144.420506 C676.988225,144.074382 676.988225,143.814789 676.888225,143.468665 C675.988225,141.391922 676.188225,139.142116 675.688225,137.065373 C675.088225,134.988629 674.988225,132.825355 674.288225,130.748612 C673.988225,129.796771 673.388225,128.84493 673.088225,127.806558 C672.788225,126.941249 672.588225,125.989408 672.288225,125.124098 C672.088225,124.518381 672.088225,123.912664 671.388225,123.56654 C671.088225,123.393479 670.888225,122.874293 670.688225,122.441638 C670.088225,121.143673 669.688225,119.672646 668.788225,118.461213 C667.588225,116.817124 666.888225,114.999974 665.488225,113.442416 C665.188225,113.096292 664.988225,112.577106 664.688225,112.144451 C663.788225,110.500363 662.488225,109.202398 661.288225,107.990965 L660.788225,107.990965 C658.888225,109.202398 657.888225,108.683212 656.188225,107.298717 C654.788225,106.173814 653.788225,104.702787 653.388225,103.058699 C652.888225,101.241548 652.788225,99.4243978 653.588225,97.6072472 C654.088225,96.3092826 654.988225,95.8766277 656.488225,96.0496896 C657.688225,96.2227516 658.588225,96.8284684 659.288225,97.7803092 C660.788225,99.5974597 661.388225,101.760734 661.388225,104.01054 C661.388225,104.96238 661.488225,105.741159 662.388225,106.346876 C662.488225,106.433407 662.488225,106.433407 662.588225,106.519938 C663.688225,107.990965 664.688225,109.548522 665.788225,111.019549 C666.188225,111.625266 666.688225,112.144451 667.088225,112.750168 C667.688225,113.615478 668.288225,114.567319 668.788225,115.51916 C669.188225,116.297938 669.088225,116.297938 669.988225,116.730593 C669.988225,116.557531 669.988225,116.384469 669.888225,116.211407 C668.988225,113.355885 668.888225,110.413832 668.588225,107.471779 C668.388225,105.395035 668.388225,103.231761 668.288225,101.155017 C668.188225,99.8570526 668.188225,98.559088 667.988225,97.1745923 C667.988225,96.8284684 667.588225,96.4823445 667.288225,96.3092826 C666.488225,95.9631587 665.988225,95.2709108 665.688225,94.578663 C665.088225,93.2806983 664.388225,91.9827337 663.788225,90.598238 C663.688225,90.3386451 663.588225,89.9925212 663.488225,89.7329283 C663.088225,88.6080256 663.388225,87.6561848 664.588225,86.963937 C666.888225,87.7427158 667.288225,89.8194593 668.188225,91.8096717 C668.688225,90.598238 668.688225,89.6463973 668.788225,88.7810875 C669.088225,86.4447511 669.288225,84.1084147 669.788225,81.8586093 C669.988225,80.8202376 670.788225,79.8683968 671.288225,78.9165561 C671.688225,78.1377773 672.488225,77.8781844 673.288225,78.0512463 C674.088225,78.2243083 674.988225,79.176149 674.988225,79.9549278 C674.988225,80.4741137 674.988225,80.9932995 674.788225,81.4259544 C673.888225,83.3296359 673.188225,85.4063794 671.888225,87.1369989 C671.088225,88.2619017 670.788225,89.3868044 670.688225,90.684769 C670.688225,91.3770168 670.488225,92.0692647 670.388225,92.7615125 C670.388225,93.0211054 670.488225,93.2806983 670.688225,93.8864152 C671.088225,93.3672293 671.388225,93.1076364 671.688225,92.8480435 C672.388225,91.9827337 673.088225,91.2039549 673.788225,90.3386451 C674.388225,89.6463973 675.288225,89.3868044 676.188225,89.3002734 C677.488225,89.1272114 678.388225,90.0790522 677.988225,91.2904859 C677.288225,93.4537603 675.688225,94.751725 673.288225,95.3574418 C672.388225,95.6170347 671.488225,95.9631587 670.688225,96.3092826 C670.088225,96.5688755 669.988225,97.0015304 670.088225,97.5207162 C670.288225,99.3378668 670.388225,101.155017 670.488225,102.885637 L670.488225,104.443194 C670.488225,107.039124 670.688225,109.635053 671.488225,112.230982 C672.388225,111.884859 673.188225,111.798328 673.688225,111.10608 C673.988225,110.673425 674.588225,110.413832 674.988225,110.154239 C675.988225,109.548522 676.688225,108.856274 677.088225,107.644841 C678.088225,104.789318 679.288225,102.020327 681.288225,99.5974597 C682.188225,98.559088 683.288225,98.2129641 684.488225,98.2129641 C685.688225,98.1264331 686.888225,100.203177 686.488225,101.41461 C685.788225,103.491354 684.788225,105.568097 683.188225,107.212186 C681.888225,108.683212 680.388225,110.067708 678.088225,110.413832 C677.188225,110.586894 676.488225,111.279142 675.688225,111.798328 C674.588225,112.577106 673.488225,113.355885 672.388225,114.134664 C671.788225,114.567319 671.488225,114.913443 671.688225,115.692222 C672.588225,119.239992 673.388225,122.787762 674.388225,126.335532 C674.788225,127.806558 675.388225,129.191054 675.888225,130.57555 C675.988225,131.008205 676.088225,131.440859 676.188225,131.873514 C676.388225,132.479231 676.588225,133.171479 676.888225,133.690665 C677.288225,134.296382 677.588225,134.815568 677.288225,135.594346 C676.988225,136.459656 677.688225,137.238435 678.188225,138.017214 C678.688225,137.065373 679.088225,136.113532 679.488225,135.161691 C681.088225,131.440859 683.088225,127.97962 685.288225,124.604912 C685.888225,123.653071 686.388225,122.874293 686.488225,121.74939 C686.588225,120.624487 686.888225,119.499585 687.388225,118.461213 C688.188225,116.903655 688.788225,115.346098 690.088225,114.048133 C691.288225,112.836699 691.988225,111.279142 693.088225,110.067708 C694.188225,108.856274 695.488225,107.644841 696.788225,106.606469 C697.388225,106.173814 698.188225,105.82769 698.988225,105.654628 C700.388225,105.308504 701.488225,106.260345 701.388225,107.55831 C701.288225,108.683212 701.088225,109.721584 700.388225,110.673425 C700.188225,110.933018 700.088225,111.279142 699.888225,111.625266 C699.188225,112.750168 698.788225,114.134664 697.488225,114.999974 C697.188225,115.173036 696.988225,115.605691 696.788225,115.951814 C696.388225,116.730593 695.988225,117.509372 695.188225,117.942027 C695.088225,118.028558 694.988225,118.115089 694.888225,118.20162 C693.388225,120.01877 691.488225,121.403266 689.688225,122.787762 C688.388225,123.826133 687.388225,125.210629 686.388225,126.422063 C685.788225,127.114311 685.488225,127.97962 684.988225,128.758399 C683.988225,130.489019 682.988225,132.219638 681.988225,134.036789 C681.888225,134.209851 681.788225,134.469444 681.688225,134.815568 C682.088225,134.902099 682.488225,134.988629 682.788225,134.988629 C683.888225,134.902099 684.988225,134.729037 686.088225,134.555975 C686.388225,134.469444 686.688225,134.382913 686.988225,134.209851 C690.388225,132.219638 694.088225,131.008205 698.188225,131.181266 L699.388225,131.181266 C700.988225,131.267797 701.488225,132.133107 701.688225,133.431072 C701.788225,134.209851 701.288225,134.902099 700.488225,135.248222 C699.488225,135.680877 698.388225,136.027001 697.388225,136.546187 C695.488225,137.584559 693.488225,137.238435 691.488225,137.065373 C689.988225,136.978842 688.488225,136.719249 686.988225,136.546187 C685.688225,136.459656 684.388225,136.546187 683.088225,136.546187 C681.588225,136.546187 680.588225,137.151904 680.188225,138.449869 C679.588225,140.180488 678.988225,141.997639 678.488225,143.728258 C678.388225,143.987851 678.388225,144.247444 678.388225,144.507037 C678.888225,147.362559 678.488225,150.304613 678.388225,153.160135 C678.388225,153.765852 678.388225,154.371568 678.488225,154.977285 C678.488225,155.842595 678.588225,156.707905 678.588225,157.573215 C678.688225,158.265462 678.588225,159.044241 679.188225,159.649958 C679.488225,159.909551 679.388225,160.515268 679.388225,161.034454 C679.388225,161.899763 679.188225,162.765073 679.288225,163.630383 C679.288225,164.582224 679.688225,165.620596 679.388225,166.572436 C679.088225,167.610808 679.388225,168.562649 679.288225,169.51449 C679.088225,170.898985 679.488225,172.110419 679.788225,173.321853 C679.988225,174.273693 679.688225,175.312065 679.488225,176.350437 C679.388225,176.61003 678.888225,176.869623 678.588225,176.956154 C678.088225,177.042685 677.588225,176.956154 677.188225,176.869623 C676.288225,176.783092 676.088225,176.523499 676.188225,175.74472 C676.188225,175.052472 676.188225,174.446755 675.688225,173.754507 C675.388225,173.321853 675.488225,172.456543 675.488225,171.850826 C675.488225,169.860613 675.688225,167.78387 675.588225,165.793657 C675.488225,163.976507 675.288225,162.072825 674.888225,160.342206 C674.388225,158.351993 673.888225,156.361781 672.888225,154.458099 C672.788225,154.198506 672.688225,153.852383 672.688225,153.59279 C672.588225,152.467887 672.088225,151.689108 670.888225,151.342984 C670.688225,151.256453 670.588225,151.169922 670.388225,151.169922 C668.688225,150.910329 667.188225,150.131551 665.888225,149.093179 C664.588225,148.054807 663.088225,147.102966 662.088225,145.891533 C660.588225,144.074382 659.488225,141.997639 658.888225,139.747833 C658.388225,138.017214 658.288225,136.286594 658.488225,134.555975 C658.588225,133.690665 658.888225,132.738824 659.088225,131.873514 C659.188225,131.613921 659.388225,131.440859 659.588225,131.181266 C660.088225,130.662081 660.488225,130.662081 661.088225,131.181266 C661.888225,131.873514 662.788225,132.565762 663.588225,133.344541 C663.688225,133.431072 663.788225,133.517603 663.888225,133.604134 C665.088225,135.248222 666.388225,136.80578 667.588225,138.449869 C668.388225,139.574771 669.088225,140.786205 669.788225,141.997639 C670.188225,142.603356 670.488225,143.209072 670.788225,143.90132 C671.588225,145.458878 672.288225,147.016435 672.988225,148.573993 C673.588225,149.958489 673.988225,151.516046 674.588225,152.900542 C675.088225,154.025445 675.688225,155.063816 676.288225,156.188719 C676.888225,156.015657 676.988225,156.015657 677.088225,155.929126 Z M699.588225,132.911886 C699.588225,132.998417 699.488225,132.998417 699.488225,133.084948 C699.588225,133.171479 699.688225,133.344541 699.788225,133.431072 C699.888225,133.517603 700.088225,133.431072 700.288225,133.431072 L700.288225,133.171479 C699.988225,133.084948 699.788225,132.998417 699.588225,132.911886 Z M697.588225,112.230982 C697.488225,112.404044 697.488225,112.577106 697.388225,112.663637 L697.588225,112.750168 C697.688225,112.663637 697.788225,112.490575 697.788225,112.317513 C697.888225,112.404044 697.788225,112.317513 697.588225,112.230982 Z" id="Shape" fill-rule="nonzero" transform="translate(677.350452, 127.495998) scale(-1, 1) translate(-677.350452, -127.495998) "></path>
                <path d="M559.123671,88.5722071 C559.491226,89.5523538 559.858781,90.5325004 560.103817,91.5126471 C560.593891,93.1053855 560.471372,94.6981238 559.368707,96.0458255 C558.878634,96.5358988 558.266042,97.0259721 557.530932,97.2710088 C555.938194,97.7610821 554.835529,98.9862655 555.203084,100.456485 C555.693157,102.539297 554.467974,104.009517 554.100419,105.847292 C553.855382,106.949957 553.732864,108.052622 553.610346,109.400324 C555.570639,108.542696 557.040859,107.930104 558.633597,107.317512 C560.103817,106.704921 560.961446,105.479737 561.083964,103.886999 C561.329001,101.926705 562.431666,100.701522 564.146922,99.9664122 C566.107216,99.1087838 567.822472,100.08893 567.944991,102.29426 C567.944991,102.906852 567.944991,103.641962 567.822472,104.254554 C567.577436,106.704921 565.494624,108.297659 562.921739,108.175141 C562.309147,108.175141 561.696556,108.175141 561.206482,108.420177 C559.123671,109.400324 557.040859,110.625507 554.958047,111.605654 C553.732864,112.218246 552.875236,113.320911 551.895089,114.423576 C549.812277,116.873942 547.974502,119.691864 545.279099,121.652157 C543.931397,122.509786 542.828732,123.734969 541.603549,124.715116 C540.500884,125.695262 540.623402,126.797927 540.868439,128.023111 C541.235994,130.841032 541.848586,133.536436 541.971104,136.354357 C542.216141,141.745164 542.216141,147.135971 542.216141,152.526777 L542.216141,157.182474 C542.461177,157.059956 542.828732,156.937437 542.951251,156.814919 C543.441324,154.609589 545.156581,153.139369 546.626801,151.669149 C548.954649,149.218782 550.914942,146.768416 552.140126,143.460421 C553.242791,140.519981 554.713011,137.579541 556.550786,135.006656 C556.673304,134.761619 556.918341,134.516582 557.040859,134.394064 C559.736262,132.066216 562.554184,129.738367 565.862179,128.268147 C566.474771,128.023111 567.332399,127.900592 568.067509,127.900592 C569.292692,127.900592 570.150321,129.003257 569.905284,130.228441 C569.170174,133.413917 568.312546,136.721912 567.454917,139.907389 C567.332399,140.397462 567.209881,140.887536 567.209881,141.255091 C566.964844,147.871081 563.044257,151.914186 557.653451,154.854626 C554.958047,156.202327 552.262644,157.550029 549.322204,158.040102 C546.994356,158.530176 544.911544,159.877877 542.951251,161.470616 C542.338659,161.960689 541.971104,163.308391 541.971104,164.166019 C542.093622,167.964087 541.603549,171.762156 541.113476,175.560224 C540.990957,176.907926 540.990957,178.255627 540.868439,179.480811 C538.908146,179.725848 538.540591,179.480811 538.540591,177.888072 C538.540591,176.172816 538.663109,174.457559 538.663109,172.619784 C538.785627,170.291936 538.908146,167.964087 539.030664,165.636239 L539.030664,165.023647 C538.540591,163.553427 538.050517,161.960689 537.560444,160.490469 C537.315407,160.000396 536.825334,159.510322 536.335261,159.265286 C535.355114,158.775212 534.374967,158.407657 533.394821,157.917584 C531.802082,156.937437 530.086826,156.569882 528.249051,156.202327 C524.941056,155.589736 522.245652,154.364552 520.040322,151.669149 C517.467437,148.606191 515.629662,145.298196 515.139589,141.377609 C514.894552,139.294797 514.159442,137.334504 513.791887,135.251692 C513.54685,134.149027 513.424332,133.168881 513.54685,132.066216 C513.54685,131.576142 513.914405,130.841032 514.28196,130.595996 C514.526997,130.473477 515.262107,130.841032 515.629662,131.086069 C517.712474,133.046362 519.672767,135.006656 521.755579,136.966949 C524.083427,139.049761 526.411276,141.132572 528.739124,143.215384 C530.944454,145.175677 533.272302,147.135971 534.987559,149.708856 C536.212742,151.424112 537.192889,153.139369 538.295554,154.977144 C538.540591,155.467217 538.540591,156.079809 538.908146,156.692401 C538.908146,155.589736 539.030664,154.487071 539.030664,153.506924 C539.030664,150.443966 538.785627,147.381007 539.030664,144.440567 C539.398219,140.765017 538.663109,137.089467 538.418072,133.536436 C538.295554,131.821179 538.050517,130.228441 537.805481,128.513184 C537.560444,125.695262 537.070371,124.960152 534.252449,124.347561 C532.904747,124.102524 531.924601,123.489932 530.821936,122.754822 C528.984161,121.284602 527.268904,119.691864 525.308611,118.344162 C524.083427,117.486534 522.735726,116.873942 521.388024,116.383869 C517.957511,115.281204 514.772034,113.688466 512.444185,110.993062 C511.586557,109.890397 510.361374,109.032769 509.258709,108.175141 C508.891154,107.807586 508.278562,107.685067 507.788489,107.562549 C505.338122,107.317512 503.132792,104.009517 503.010274,101.926705 C502.887755,100.211449 503.867902,98.7412288 505.583159,98.3736738 C505.950714,98.2511555 506.318269,98.3736738 506.563305,98.4961921 C508.40108,99.4763388 510.116337,100.701522 510.238855,102.906852 C510.238855,105.479737 512.07663,106.704921 513.424332,108.420177 C514.036924,109.155287 514.649515,109.767879 515.384625,110.380471 C516.364772,111.115581 517.099882,112.095727 518.570102,112.340764 C519.550249,112.463282 520.407877,113.075874 521.633061,113.565947 C520.897951,111.973209 520.530396,110.625507 519.917804,109.522842 C518.815139,107.440031 518.325066,104.989664 517.712474,102.784334 C517.344919,101.55915 516.854846,100.456485 515.75218,99.5988572 C512.444185,97.1484905 511.34152,92.4927938 513.056777,88.8172438 C513.914405,86.7344321 515.75218,86.2443588 517.589956,87.5920604 C521.020469,90.0424271 521.265506,93.5954588 521.142987,97.2710088 C521.142987,97.8836005 521.020469,98.4961921 520.775432,98.9862655 C520.162841,100.579004 520.285359,102.29426 520.775432,103.886999 C522.000616,107.562549 523.103281,111.360617 525.676166,114.423576 C527.881496,117.118979 530.454381,119.446827 533.517339,121.162084 C534.620004,121.774676 535.967706,121.897194 537.192889,122.019712 C538.050517,122.142231 538.295554,121.407121 538.418072,120.672011 C538.540591,119.324309 538.663109,117.854089 538.785627,116.506387 C539.030664,112.708319 539.275701,109.032769 539.398219,105.234701 C539.520737,102.049224 539.398219,98.9862655 539.275701,95.8007888 C539.275701,95.1881971 538.785627,94.5756055 538.540591,93.9630138 C537.560444,92.4927938 536.825334,90.7775371 536.457779,89.0622804 C535.967706,87.2245054 536.580297,85.5092488 536.947852,83.6714737 C537.315407,82.2012537 539.643256,81.4661437 540.745921,82.4462904 C541.358512,82.9363637 542.093622,83.6714737 542.338659,84.4065838 C543.318806,87.2245054 543.686361,90.4099821 542.706214,93.1053855 C541.726067,95.6782705 542.093622,98.0061188 541.971104,100.456485 C541.848586,104.989664 541.603549,109.400324 541.481031,113.933502 C541.358512,115.893796 541.113476,117.854089 541.726067,120.304456 C542.706214,119.569346 543.441324,118.956754 544.176434,118.344162 C547.484429,115.893796 549.567241,112.708319 550.424869,108.542696 C550.914942,106.092329 551.650052,103.641962 552.262644,101.069077 C552.630199,99.3538205 552.875236,97.6385638 553.242791,95.8007888 C551.527534,93.5954588 551.405016,90.7775371 553.120272,88.8172438 C555.203084,87.1019871 556.673304,87.1019871 559.123671,88.5722071 Z M517.099882,92.3702755 C516.977364,92.3702755 516.732327,92.4927938 516.609809,92.4927938 C516.487291,93.2279038 516.487291,93.8404955 517.467437,94.3305688 C517.344919,93.7179771 517.222401,93.1053855 517.099882,92.3702755 Z M540.133329,86.9794688 C540.255847,86.9794688 540.378366,86.9794688 540.500884,87.1019871 C540.623402,86.8569504 540.623402,86.6119138 540.745921,86.3668771 C540.745921,86.3668771 540.500884,86.2443588 540.378366,86.2443588 C540.255847,86.3668771 540.255847,86.6119138 540.133329,86.9794688 Z" id="Shape" fill-rule="nonzero"></path>
                <path d="M609.885206,127.581323 C610.360115,126.631504 610.740042,125.681686 611.214951,124.826849 C611.784842,123.782049 612.16477,122.642267 613.019606,121.78743 C613.874443,120.837612 614.25437,119.887793 614.444334,118.653029 C614.824261,115.518628 615.489134,112.574191 616.723898,109.629754 C617.958662,106.780299 619.193426,104.025825 621.378009,101.841243 C622.327827,100.986406 623.372627,100.13157 624.417428,99.4666967 C625.842155,98.6118601 627.64681,99.6566604 627.551829,101.366334 C627.361865,103.455934 627.171901,105.545535 626.696992,107.540153 C626.222083,109.724736 625.842155,112.0043 624.797355,113.903937 C622.707755,117.608229 620.238227,121.312521 615.584116,122.357321 C614.634298,122.547285 613.969425,123.022194 613.589497,124.066994 C612.924625,125.966631 611.879824,127.771286 611.214951,129.765905 C610.455097,132.045469 609.885206,134.325034 610.265133,136.794562 C610.64506,139.074126 610.740042,141.448672 611.214951,143.728236 C612.069788,147.812455 612.734661,151.896675 614.159389,155.885912 C614.25437,156.075876 614.444334,156.26584 614.72928,156.835731 C615.109207,155.411003 615.394153,154.271221 615.679098,153.131439 C616.248989,150.566929 616.81888,148.002419 617.388771,145.342928 C617.578735,144.488091 617.768699,143.633254 617.958662,142.778418 C618.33859,140.688817 618.623535,138.599217 619.288408,136.604598 C619.763317,135.17987 619.763317,133.660161 620.048263,132.140451 C620.808118,128.341177 621.9479,124.636885 624.607391,121.597466 C625.367246,120.74263 626.412046,119.982775 627.64681,119.792811 C628.501647,119.69783 629.071538,119.887793 629.356484,120.552666 C629.736411,121.312521 630.116338,122.072376 630.116338,122.83223 C630.021357,125.39674 630.021357,127.96125 629.641429,130.430778 C628.881574,135.844743 626.127101,140.118926 621.757936,143.348309 C620.998081,143.9182 620.238227,144.583073 619.573354,145.247946 C619.288408,145.532891 619.098444,145.912819 619.003463,146.387728 C618.623535,147.907437 618.243608,149.427147 617.86368,151.13682 C618.33859,151.041838 618.623535,150.946856 619.003463,150.851874 C620.618154,150.187002 622.327827,149.617111 623.942519,148.952238 C624.322446,148.762274 624.797355,148.667292 624.987319,148.382347 C626.981938,146.102782 629.736411,144.868018 632.300921,143.538272 C633.82063,142.778418 635.435322,142.208527 637.144995,141.828599 C638.094813,141.543654 639.234595,141.448672 640.184414,141.543654 C641.989069,141.733617 642.653942,143.728236 641.419178,145.342928 C641.03925,145.817837 640.564341,146.292746 640.184414,146.672673 C636.290158,150.09202 631.826012,151.801693 626.60201,151.421766 L626.127101,151.421766 C624.607391,150.471947 623.182664,151.041838 621.662954,151.516747 C619.668336,152.18162 618.148626,153.606348 617.388771,155.411003 C616.81888,156.835731 616.81888,158.545404 616.723898,160.160095 C616.628916,161.774787 616.628916,163.48446 616.81888,165.099151 C616.913862,166.333915 617.388771,167.568679 617.768699,168.708461 C618.813499,171.462935 619.858299,174.122426 621.472991,176.591954 C622.042882,177.446791 621.852918,177.9217 621.283027,178.301627 C620.713136,178.586573 620.238227,178.396609 619.668336,177.541773 C617.86368,174.597336 616.533935,171.557917 615.489134,168.328534 C614.72928,165.764024 613.874443,163.199514 613.019606,160.635004 C612.734661,159.780168 612.069788,159.020313 611.689861,158.165476 C610.930006,156.455803 610.170151,154.74613 609.410296,153.036457 C607.890587,149.902056 606.085932,147.052601 603.616404,144.583073 C602.571604,143.538272 601.716767,142.39849 600.671967,141.35369 C600.482003,141.163726 600.102076,140.973763 599.722148,140.878781 C597.347602,139.833981 594.68811,139.264089 592.59851,137.649398 C590.603891,136.129689 588.514291,134.704961 587.184545,132.61536 C586.234726,131.095651 585.37989,129.575941 584.90498,127.676304 C584.335089,125.301758 584.050144,123.022194 584.050144,120.552666 C584.050144,119.69783 584.145126,118.842993 584.335089,118.083138 C584.620035,116.943356 585.37989,116.658411 586.329708,117.323283 C587.279527,117.988156 588.134363,118.842993 588.9892,119.69783 C590.413927,121.027575 591.743673,122.357321 593.073419,123.687067 C594.023238,124.636885 594.973056,125.586704 595.732911,126.726486 C597.632548,129.575941 599.532185,132.425397 600.86193,135.654779 C601.051894,136.22467 601.241858,136.889543 601.431821,137.459434 C602.191676,139.833981 603.616404,141.733617 605.326077,143.443291 C606.845787,145.057982 608.080551,146.957619 609.410296,148.667292 C609.695242,148.952238 609.885206,149.332165 610.170151,149.617111 C610.170151,148.002419 609.885206,146.48271 609.410296,144.963 C608.935387,143.348309 608.650442,141.638636 608.460478,139.928962 C608.175532,137.934344 608.175532,135.844743 607.985569,133.850124 C607.510659,129.101032 607.415678,124.446922 607.130732,119.69783 C607.03575,117.513247 606.655823,115.328665 605.611023,113.334046 C602.001712,112.669173 598.77233,111.529391 595.732911,109.629754 C594.023238,108.489972 593.073419,106.780299 592.123601,105.070626 C590.318946,101.841243 590.318946,98.3269146 590.318946,94.8125864 C590.318946,93.4828405 590.888837,92.1530947 591.648691,91.1082944 C592.123601,90.4434215 592.693492,90.2534578 593.548328,90.8233489 C594.498147,91.39324 595.447965,92.1530947 596.20782,92.9129495 C599.912112,96.7122232 602.476622,101.271352 604.566222,106.115426 C605.231095,107.540153 605.800986,109.059863 606.465859,110.579573 C606.655823,111.054482 606.940768,111.434409 607.320696,112.099282 C607.890587,109.9147 608.270514,107.920081 608.745423,106.020444 C609.030369,104.78568 609.410296,103.645898 609.695242,102.411134 C609.790224,102.126188 609.885206,101.746261 609.790224,101.556297 C609.030369,100.416515 609.410296,99.1817512 609.410296,98.0419691 C609.60026,94.5276408 610.170151,91.0133126 611.594879,87.688948 C612.734661,85.1244382 614.25437,82.7498921 616.628916,81.0402189 C617.103826,80.6602916 617.578735,80.2803642 618.148626,79.9004368 C618.908481,79.5205094 619.573354,79.0456002 620.42819,78.8556365 C621.852918,78.4757091 622.707755,79.2355639 622.612773,80.6602916 C622.612773,81.9900374 622.422809,83.2248014 622.232845,84.5545472 C621.9479,86.6441477 621.472991,88.6387665 621.378009,90.7283671 C620.998081,96.0473503 618.33859,99.6566604 613.494516,101.746261 C612.259752,102.316152 611.499897,102.981025 611.309933,104.405753 C610.930006,106.685317 610.170151,108.964881 609.790224,111.244445 C609.505278,112.669173 609.505278,114.188883 609.410296,115.61361 C609.315314,117.418265 609.220333,119.127938 609.220333,120.932594 C609.220333,123.117176 609.410296,125.206777 609.60026,127.391359 C609.60026,127.581323 609.790224,127.581323 609.885206,127.581323 Z" id="Shape" fill-rule="nonzero" transform="translate(613.050144, 128.591735) rotate(6.000000) translate(-613.050144, -128.591735) "></path>
            </g>
        </g>
    </g>
</svg>