<?xml version="1.0" encoding="UTF-8"?>
<svg width="75px" height="160px" viewBox="0 0 75 160" version="1.1" xmlns="http://www.w3.org/2000/svg" xmlns:xlink="http://www.w3.org/1999/xlink">
    <!-- Generator: Sketch 43.2 (39069) - http://www.bohemiancoding.com/sketch -->
    <title>Shape</title>
    <desc>Created with Sketch.</desc>
    <defs></defs>
    <g id="Page-1" stroke="none" stroke-width="1" fill="none" fill-rule="evenodd">
        <g id="Desktop-Landscape" transform="translate(-969.000000, -320.000000)" fill-rule="nonzero" fill="#000000">
            <path d="M1005.75088,448.838414 C1005.75088,448.095542 1005.9258,447.538389 1005.9258,446.795517 L1005.9258,435.095293 C1005.9258,433.980986 1005.9258,432.495243 1005.2261,431.566654 C1003.30193,429.152322 1002.60223,426.180836 1001.37776,423.395069 C999.628508,419.494994 997.529411,415.966355 994.905538,412.809151 C993.681065,411.323409 992.981365,409.651948 991.756892,408.166205 C991.057192,407.237616 990.007643,406.123309 988.958094,405.566155 C985.809448,403.708977 983.3605,400.737491 981.261402,397.951724 C979.512154,395.723109 978.63753,392.565906 977.238131,389.965856 C974.614259,384.580039 973.739635,378.822785 973.039936,372.879814 C972.690086,370.094047 973.214861,367.122561 973.739635,364.336793 C973.91456,363.036768 974.964109,361.736743 975.838733,360.808154 C976.538432,359.879565 977.587981,359.879565 978.28768,360.808154 C981.436327,365.822536 985.809448,369.722611 987.908546,375.479864 C989.482869,379.751375 991.931816,383.837167 993.681065,388.108678 C995.955087,393.680213 996.829711,399.623184 996.654787,405.751873 C996.654787,406.309027 996.130012,406.86618 996.130012,407.423334 C996.130012,408.166205 996.130012,409.094794 996.479862,409.651948 C998.753884,413.180587 1001.20283,416.709226 1003.47685,420.423583 C1003.65178,420.609301 1004.00163,420.795019 1004.35148,420.980737 C1004.5264,420.423583 1004.5264,419.866429 1004.5264,419.494994 C1004.70133,411.694844 1004.70133,404.080412 1004.87625,396.280263 C1004.87625,394.608802 1004.70133,392.751624 1005.05118,391.080163 C1006.10073,386.622935 1005.05118,382.72286 1003.127,378.822785 C1001.55268,375.665582 1001.02791,372.136943 1000.85298,368.422586 C1000.50313,363.408204 1000.15328,358.208104 1000.15328,353.193722 C1000.15328,345.022137 1000.85298,336.850552 1003.65178,329.23612 C1004.70133,326.450352 1006.45058,323.850303 1008.37475,321.807406 C1011.34847,318.835921 1014.49712,319.578792 1015.54667,323.664585 C1016.59622,327.378942 1017.12099,331.093299 1017.82069,334.807656 C1019.22009,340.936345 1018.34546,347.250751 1017.82069,353.37944 C1017.29592,359.136694 1015.54667,364.708229 1013.62249,369.908329 C1011.34847,375.479864 1009.59922,381.422835 1009.4243,387.551524 C1009.24937,392.751624 1008.89952,398.137441 1008.54967,403.337541 C1008.54967,405.19472 1008.54967,406.86618 1009.07445,408.723359 C1009.77415,406.494745 1010.64877,404.26613 1010.99862,401.851798 C1011.69832,397.023134 1013.44757,392.751624 1015.19682,388.294396 C1016.94607,384.022885 1018.87024,380.12281 1020.96934,376.037018 C1023.24336,371.394071 1026.39201,367.308279 1029.71558,363.77964 C1031.46483,361.922461 1033.91377,360.993872 1036.01287,359.693847 C1036.36272,359.508129 1036.71257,359.508129 1037.06242,359.508129 C1039.16152,359.322411 1039.68629,360.065283 1039.86122,362.293897 C1040.03614,367.122561 1038.81167,371.765507 1038.81167,376.594171 C1038.81167,380.494246 1038.11197,384.208603 1036.71257,387.92296 C1034.26362,394.237367 1030.94005,400.180338 1026.21708,404.823284 C1024.64276,406.309027 1022.89351,407.423334 1020.96934,408.537641 C1016.77114,411.137691 1012.39802,413.552023 1008.37475,415.966355 C1008.54967,424.509376 1008.7246,433.238114 1009.07445,442.338289 C1011.17355,438.066778 1012.74787,434.352422 1014.84697,431.0095 C1017.12099,427.109426 1019.39501,423.209351 1023.06843,420.795019 C1025.69231,418.93784 1028.31618,417.26638 1031.81468,417.26638 C1033.73885,417.26638 1035.66302,417.26638 1037.76212,416.33779 C1040.03614,415.223483 1042.83494,417.26638 1043.35971,420.052147 C1043.88449,422.466479 1042.13524,425.623683 1039.86122,426.366554 C1037.58719,427.295143 1035.13825,425.995118 1034.43855,423.395069 C1034.26362,422.652197 1034.0887,421.909326 1033.91377,420.980737 C1030.24035,420.052147 1027.26663,421.909326 1024.64276,423.952222 C1022.89351,425.252247 1020.96934,426.73799 1020.61949,429.152322 C1020.61949,429.33804 1020.44456,429.523758 1020.26964,429.709475 C1015.02189,435.466729 1012.92279,442.524007 1011.87325,450.324156 C1011.34847,453.852795 1010.64877,457.381435 1010.124,460.910074 C1009.77415,462.767252 1009.94907,464.810148 1009.94907,466.667327 L1009.94907,468.15307 C1009.77415,470.381684 1009.59922,472.610298 1009.4243,474.838912 C1009.24937,476.138937 1009.07445,477.438962 1008.54967,478.553269 C1008.37475,478.924705 1007.67505,479.481858 1007.15028,479.29614 C1006.80043,479.29614 1006.27565,478.553269 1006.27565,477.996116 C1006.10073,476.324655 1005.9258,474.467476 1005.75088,472.796016 C1005.40103,468.895941 1005.40103,464.810148 1004.70133,460.910074 C1004.00163,455.895692 1001.90253,451.252746 1000.15328,446.609799 C998.404035,442.152571 996.304937,437.881061 993.331215,434.352422 C990.182568,430.266629 986.334222,426.73799 981.436327,425.252247 C979.862004,424.695094 978.462605,424.695094 976.713357,425.623683 C975.139034,426.552272 973.56471,427.109426 971.640537,425.995118 C969.716364,424.880811 969.016665,423.580786 969.016665,421.352172 C968.84174,419.123558 970.066214,417.823533 971.640537,417.080662 C973.389785,416.152073 975.488883,416.152073 976.713357,418.009251 C978.63753,420.609301 981.261402,421.352172 984.060199,422.280761 C987.908546,423.580786 991.232117,426.366554 993.855989,429.523758 C997.354486,433.795268 1000.67806,438.252496 1002.77716,443.638314 C1003.47685,445.495492 1004.17655,447.352671 1004.87625,449.209849 C1005.2261,448.838414 1005.57595,448.838414 1005.75088,448.838414 Z" id="Shape"></path>
        </g>
    </g>
</svg>