<?xml version="1.0" encoding="UTF-8"?>
<svg width="84px" height="158px" viewBox="0 0 84 158" version="1.1" xmlns="http://www.w3.org/2000/svg" xmlns:xlink="http://www.w3.org/1999/xlink">
    <!-- Generator: Sketch 43.2 (39069) - http://www.bohemiancoding.com/sketch -->
    <title>Shape</title>
    <desc>Created with Sketch.</desc>
    <defs></defs>
    <g id="Page-1" stroke="none" stroke-width="1" fill="none" fill-rule="evenodd">
        <g id="Desktop-Landscape" transform="translate(-240.000000, -322.000000)" fill-rule="nonzero" fill="#000000">
            <path d="M309.643324,332.578327 C310.099419,334.155926 310.555515,335.733526 310.859579,337.311126 C311.467706,339.874725 311.315674,342.438324 309.947388,344.607524 C309.33926,345.396324 308.579101,346.185124 307.66691,346.579524 C305.690497,347.368323 304.32221,349.340323 304.778306,351.706722 C305.386433,355.059122 303.866115,357.425521 303.410019,360.383521 C303.105956,362.15832 302.953924,363.93312 302.801892,366.102319 C305.234401,364.72192 307.058783,363.73592 309.035197,362.74992 C310.859579,361.76392 311.923801,359.791921 312.075833,357.228321 C312.379897,354.073122 313.748183,352.101122 315.876629,350.917923 C318.309138,349.537523 320.437583,351.115123 320.589615,354.664722 C320.589615,355.650722 320.589615,356.833921 320.437583,357.819921 C320.13352,361.76392 317.548979,364.32752 314.35631,364.13032 C313.596151,364.13032 312.835992,364.13032 312.227865,364.52472 C309.643324,366.102319 307.058783,368.074319 304.474242,369.651919 C302.953924,370.637918 301.889701,372.412718 300.673446,374.187518 C298.088905,378.131517 295.808428,382.667116 292.463728,385.822315 C290.791378,387.202715 289.423091,389.174714 287.902773,390.752314 C286.534487,392.329914 286.686519,394.104713 286.990582,396.076713 C287.446678,400.612312 288.206837,404.950711 288.358869,409.48631 C288.662932,418.163108 288.662932,426.839906 288.662932,435.516704 L288.662932,443.010302 C288.966996,442.813103 289.423091,442.615903 289.575123,442.418703 C290.183251,438.869103 292.311696,436.502704 294.136078,434.136304 C297.024683,430.192305 299.457192,426.248306 300.97751,420.923907 C302.345796,416.191108 304.170178,411.458309 306.450656,407.31711 C306.602687,406.92271 306.906751,406.52831 307.058783,406.331111 C310.403483,402.584311 313.900215,398.837512 318.005074,396.471113 C318.765233,396.076713 319.829456,395.879513 320.741647,395.879513 C322.261965,395.879513 323.326188,397.654312 323.022124,399.626312 C322.109934,404.753511 321.045711,410.07791 319.981488,415.205109 C319.829456,415.993908 319.677424,416.782708 319.677424,417.374308 C319.373361,428.023106 314.508342,434.530704 307.818942,439.263503 C304.474242,441.432703 301.129542,443.601902 297.480778,444.390702 C294.592173,445.179502 292.007632,447.348702 289.575123,449.912301 C288.814964,450.701101 288.358869,452.8703 288.358869,454.2507 C288.5109,460.363899 287.902773,466.477097 287.294646,472.590296 C287.142614,474.759496 287.142614,476.928695 286.990582,478.900695 C284.558073,479.295095 284.101978,478.900695 284.101978,476.337095 C284.101978,473.576296 284.254009,470.815496 284.254009,467.857497 C284.406041,464.110698 284.558073,460.363899 284.710105,456.6171 L284.710105,455.6311 C284.101978,453.2647 283.49385,450.701101 282.885723,448.334701 C282.581659,447.545902 281.973532,446.757102 281.365405,446.362702 C280.14915,445.573902 278.932896,444.982302 277.716641,444.193502 C275.740227,442.615903 273.611782,442.024303 271.331304,441.432703 C267.226445,440.446703 263.881745,438.474703 261.145172,434.136304 C257.952504,429.206306 255.672026,423.881907 255.063899,417.571508 C254.759836,414.219109 253.847645,411.063909 253.391549,407.71151 C253.087485,405.936711 252.935454,404.359111 253.087485,402.584311 C253.087485,401.795512 253.543581,400.612312 253.999676,400.217912 C254.30374,400.020712 255.215931,400.612312 255.672026,401.006712 C258.256567,404.161911 260.689077,407.31711 263.273618,410.47231 C266.162222,413.824709 269.050827,417.177108 271.939432,420.529507 C274.676004,423.684707 277.564609,426.839906 279.693055,430.981105 C281.213373,433.741905 282.429627,436.502704 283.797914,439.460703 C284.101978,440.249503 284.101978,441.235503 284.558073,442.221503 C284.558073,440.446703 284.710105,438.671903 284.710105,437.094304 C284.710105,432.164305 284.406041,427.234306 284.710105,422.501507 C285.1662,416.585508 284.254009,410.66951 283.949946,404.950711 C283.797914,402.189911 283.49385,399.626312 283.189787,396.865513 C282.885723,392.329914 282.277596,391.146714 278.780864,390.160714 C277.108514,389.766314 275.892259,388.780314 274.523973,387.597115 C272.243495,385.230715 270.11505,382.667116 267.682541,380.497916 C266.162222,379.117516 264.489872,378.131517 262.817522,377.342717 C258.560631,375.567917 254.607804,373.004318 251.719199,368.665919 C250.654976,366.891119 249.134658,365.510719 247.766372,364.13032 C247.310276,363.53872 246.550117,363.34152 245.94199,363.14432 C242.901353,362.74992 240.16478,357.425521 240.012749,354.073122 C239.860717,351.312323 241.076971,348.945923 243.205417,348.354323 C243.661512,348.157123 244.117608,348.354323 244.421672,348.551523 C246.702149,350.129123 248.830594,352.101122 248.982626,355.650722 C248.982626,359.791921 251.263104,361.76392 252.935454,364.52472 C253.695613,365.707919 254.455772,366.693919 255.367963,367.679919 C256.584217,368.863119 257.496408,370.440718 259.32079,370.835118 C260.537045,371.032318 261.601268,372.018318 263.121586,372.807118 C262.209395,370.243518 261.753299,368.074319 260.99314,366.299519 C259.624854,362.94712 259.016727,359.003121 258.256567,355.453522 C257.800472,353.481522 257.192345,351.706722 255.824058,350.326323 C251.719199,346.382324 250.350913,338.888725 252.479358,332.972727 C253.543581,329.620327 255.824058,328.831527 258.104536,331.000727 C262.361427,334.944726 262.66549,340.663525 262.513459,346.579524 C262.513459,347.565523 262.361427,348.551523 262.057363,349.340323 C261.297204,351.903922 261.449236,354.664722 262.057363,357.228321 C263.577681,363.14432 264.945968,369.257519 268.138636,374.187518 C270.875209,378.525917 274.067877,382.272716 277.868673,385.033515 C279.236959,386.019515 280.909309,386.216715 282.429627,386.413915 C283.49385,386.611115 283.797914,385.427915 283.949946,384.244715 C284.101978,382.075516 284.254009,379.709116 284.406041,377.539917 C284.710105,371.426718 285.014168,365.510719 285.1662,359.397521 C285.318232,354.270322 285.1662,349.340323 285.014168,344.213124 C285.014168,343.227124 284.406041,342.241125 284.101978,341.255125 C282.885723,338.888725 281.973532,336.127926 281.517437,333.367126 C280.909309,330.409127 281.669468,327.648328 282.125564,324.690328 C282.581659,322.323929 285.470264,321.140729 286.83855,322.718329 C287.598709,323.507129 288.5109,324.690328 288.814964,325.873528 C290.031219,330.409127 290.487314,335.536326 289.27106,339.874725 C288.054805,344.015924 288.5109,347.762723 288.358869,351.706722 C288.206837,359.003121 287.902773,366.102319 287.750741,373.398718 C287.598709,376.553917 287.294646,379.709116 288.054805,383.653115 C289.27106,382.469916 290.183251,381.483916 291.095441,380.497916 C295.200301,376.553917 297.784842,371.426718 298.849064,364.72192 C299.457192,360.77792 300.369383,356.833921 301.129542,352.692722 C301.585637,349.931923 301.889701,347.171123 302.345796,344.213124 C300.217351,340.663525 300.065319,336.127926 302.193765,332.972727 C304.778306,330.211927 306.602687,330.211927 309.643324,332.578327 Z M257.496408,338.691525 C257.344377,338.691525 257.040313,338.888725 256.888281,338.888725 C256.736249,340.071925 256.736249,341.057925 257.952504,341.846725 C257.800472,340.860725 257.64844,339.874725 257.496408,338.691525 Z M286.078391,330.014727 C286.230423,330.014727 286.382455,330.014727 286.534487,330.211927 C286.686519,329.817527 286.686519,329.423127 286.83855,329.028727 C286.83855,329.028727 286.534487,328.831527 286.382455,328.831527 C286.230423,329.028727 286.230423,329.423127 286.078391,330.014727 Z" id="Shape"></path>
        </g>
    </g>
</svg>