<?xml version="1.0" encoding="UTF-8"?>
<svg width="69px" height="160px" viewBox="0 0 69 160" version="1.1" xmlns="http://www.w3.org/2000/svg" xmlns:xlink="http://www.w3.org/1999/xlink">
    <!-- Generator: Sketch 43.2 (39069) - http://www.bohemiancoding.com/sketch -->
    <title>Shape</title>
    <desc>Created with Sketch.</desc>
    <defs></defs>
    <g id="Page-1" stroke="none" stroke-width="1" fill="none" fill-rule="evenodd">
        <g id="Desktop-Landscape" transform="translate(-342.000000, -318.000000)" fill-rule="nonzero" fill="#000000">
            <path d="M373.178633,394.283172 C373.887914,392.842663 374.479979,391.386173 375.17694,390.097705 C376.015758,388.521135 376.632463,386.760564 377.79829,385.536017 C378.976437,384.159428 379.568502,382.702939 379.963094,380.758366 C380.838518,375.804934 382.040951,371.203525 383.946682,366.697996 C385.840093,362.344509 387.721185,358.143062 390.70052,355.013663 C391.983564,353.805095 393.383824,352.612508 394.759444,351.724003 C396.628569,350.595336 398.720161,352.57141 398.381186,355.292168 C397.875714,358.605109 397.370243,361.91805 396.525442,365.03101 C395.656002,368.448052 394.891458,372.033115 393.355678,374.898153 C390.29644,380.476189 386.768336,385.990303 380.889213,386.879727 C379.692409,387.024007 378.810295,387.672351 378.20591,389.280881 C377.138996,392.20984 375.615537,394.922837 374.536304,398.003837 C373.302894,401.524979 372.303917,405.078082 372.452464,409.095068 C372.625651,412.807972 372.434869,416.624977 372.725272,420.353862 C373.250463,427.035446 373.54122,433.685069 374.782028,440.310493 C374.874605,440.630555 375.084398,440.966597 375.362127,441.926784 C376.015792,439.710089 376.515281,437.933538 377.014769,436.156987 C378.050706,432.147761 379.086643,428.138535 380.134899,423.977268 C380.480211,422.64086 380.825524,421.304451 381.170836,419.968043 C381.91074,416.687062 382.533428,413.3901 383.612662,410.309101 C384.383543,408.108387 384.580662,405.675731 385.12943,403.291015 C386.559959,397.337217 388.447033,391.59938 392.12333,387.181513 C393.171941,385.940985 394.559881,384.900439 396.108334,384.804099 C397.175602,384.79588 397.85426,385.195843 398.11967,386.30807 C398.489976,387.588318 398.860282,388.868567 398.761722,390.084895 C398.311867,394.174021 397.979229,398.279128 397.190045,402.168273 C395.550077,410.706768 391.596405,417.085188 385.785572,421.519495 C384.773921,422.303899 383.749951,423.240345 382.843196,424.192771 C382.454587,424.600953 382.170875,425.177157 381.992059,425.921382 C381.326074,428.290117 380.660089,430.658852 379.969465,433.331669 C380.567867,433.259529 380.931836,433.155429 381.413021,433.067308 C383.49194,432.274684 385.675755,431.650081 387.754673,430.857456 C388.248178,430.617295 388.84658,430.545155 389.117973,430.120992 C391.875196,426.807592 395.434631,425.294483 398.771953,423.597373 C400.745974,422.636728 402.812573,421.996145 404.971748,421.675623 C406.180872,421.379302 407.599788,421.419023 408.759632,421.730865 C410.962104,422.33857 411.5239,425.643292 409.790648,428.020247 C409.260183,428.716531 408.612501,429.396835 408.094356,429.941079 C402.844965,434.759368 397.114036,436.745039 390.716414,435.257966 L390.130332,435.178066 C388.378069,433.401973 386.545903,434.074517 384.608841,434.579039 C382.061057,435.307743 380.000796,437.332675 378.828986,440.093613 C377.940888,442.278347 377.719129,445.015085 377.392474,447.583801 C377.065818,450.152518 376.84406,452.889256 376.869053,455.505913 C376.826111,457.498426 377.252033,459.554859 377.57306,461.443272 C378.505162,466.028242 379.449584,470.461171 381.121944,474.6859 C381.714363,476.150149 381.418331,476.878394 380.665752,477.390677 C379.925494,477.750919 379.364052,477.366936 378.771633,475.902687 C376.92644,470.885793 375.679648,465.796759 374.809146,460.451584 C374.204053,456.218636 373.481744,451.969708 372.759435,447.72078 C372.518665,446.304471 371.79671,444.976282 371.438723,443.543993 C370.722751,440.679414 370.006779,437.814835 369.290807,434.950256 C367.821902,429.677221 365.964389,424.812368 363.237081,420.443819 C362.08322,418.595586 361.176112,416.627273 360.022251,414.77904 C359.812458,414.442998 359.368232,414.074995 358.911686,413.859034 C356.116796,411.787079 352.908656,410.427389 350.539335,407.491129 C348.274909,404.72289 345.880948,402.090712 344.510957,398.522088 C343.535912,395.929631 342.678083,393.353153 342.3384,390.232433 C341.9431,386.335527 341.887129,382.638603 342.207448,378.685538 C342.318327,377.317169 342.546423,375.96478 342.879416,374.780412 C343.378904,373.003861 344.353595,372.675579 345.439519,373.899668 C346.525444,375.123756 347.469512,376.635946 348.41358,378.148137 C349.999347,380.516413 351.467897,382.868709 352.936448,385.221005 C353.985412,386.901216 355.034377,388.581427 355.824269,390.53376 C357.798999,395.414593 359.773728,400.295426 360.99588,405.688541 C361.156393,406.632748 361.304586,407.728995 361.465099,408.673201 C362.094832,412.602067 363.606679,415.882589 365.494816,418.906969 C367.160839,421.747349 368.438253,424.99591 369.857524,427.95637 C370.172213,428.460434 370.357366,429.100558 370.672056,429.604621 C370.881495,427.019925 370.726965,424.539328 370.338002,422.026772 C369.961359,419.362174 369.831468,416.577496 369.818794,413.808798 C369.725864,410.567997 369.996903,407.223095 370.021189,403.998274 C370.051104,396.316324 370.537564,388.850335 370.801912,381.200345 C370.968054,377.687423 370.782547,374.126559 369.751886,370.757917 C365.383902,369.086384 361.546384,366.718567 358.041858,363.166383 C356.079802,361.054248 355.129397,358.157709 354.178992,355.26117 C352.370758,349.788153 352.826596,344.162637 353.282434,338.53712 C353.454913,336.408546 354.330691,334.375853 355.403941,332.831244 C356.076263,331.846857 356.804201,331.638656 357.785229,332.694724 C358.883473,333.766771 359.957078,335.142901 360.796249,336.48707 C364.874891,343.191935 367.448377,350.921367 369.398821,359.02702 C370.034536,361.419496 370.540716,363.948033 371.164111,366.49255 C371.336945,367.284715 371.639314,367.940819 372.02194,369.069027 C373.008597,365.667965 373.736181,362.539025 374.568662,359.578106 C375.080471,357.649514 375.697175,355.888942 376.208984,353.96035 C376.36316,353.520207 376.529656,352.928023 376.43708,352.607961 C375.647188,350.655628 376.276213,348.743016 376.424052,346.918524 C377.114322,341.324968 378.273459,335.795332 380.462902,330.7136 C382.202138,326.800255 384.385598,323.254913 387.537767,320.917679 C388.173129,320.389416 388.808491,319.861153 389.561069,319.348869 C390.54808,318.868547 391.430194,318.220203 392.509782,318.059942 C394.317308,317.691481 395.273696,319.05163 394.97168,321.316265 C394.799201,323.444838 394.404609,325.389411 393.997697,327.486024 C393.375009,330.782986 392.530208,333.895946 392.141953,337.224867 C390.983171,345.675242 387.232954,351.005355 380.983879,353.535269 C379.386147,354.239773 378.362176,355.176219 377.942944,357.424873 C377.1784,361.009936 375.94499,364.531079 375.180446,368.116142 C374.643998,370.348816 374.446878,372.781472 374.144863,375.046107 C373.793568,377.918905 373.454592,380.639663 373.220514,383.528442 C372.937155,387.025384 372.900549,390.402246 372.851623,393.931149" id="Shape"></path>
        </g>
    </g>
</svg>