<?xml version="1.0" encoding="UTF-8"?>
<svg width="61px" height="160px" viewBox="0 0 61 160" version="1.1" xmlns="http://www.w3.org/2000/svg" xmlns:xlink="http://www.w3.org/1999/xlink">
    <!-- Generator: Sketch 43.2 (39069) - http://www.bohemiancoding.com/sketch -->
    <title>Shape</title>
    <desc>Created with Sketch.</desc>
    <defs></defs>
    <g id="Page-1" stroke="none" stroke-width="1" fill="none" fill-rule="evenodd">
        <g id="Desktop-Landscape" transform="translate(-889.000000, -320.000000)" fill-rule="nonzero" fill="#000000">
            <path d="M919.541637,445.431189 L919.541637,433.174871 C919.541637,431.085726 919.665726,428.996581 919.665726,426.907436 C919.665726,426.350331 919.665726,425.932502 919.789815,425.375396 C920.906617,422.032764 920.658439,418.411579 921.278884,415.068947 C922.023418,411.726315 922.147507,408.244406 923.01613,404.901774 C923.388398,403.369735 924.132932,401.837695 924.505199,400.166379 C924.877466,398.773615 925.125644,397.241576 925.497911,395.848812 C925.746089,394.873878 925.746089,393.898944 926.614713,393.341838 C926.98698,393.063285 927.235158,392.227627 927.483336,391.531246 C928.22787,389.442101 928.724226,387.074403 929.841028,385.124534 C931.330096,382.478284 932.198719,379.553481 933.935966,377.046506 C934.308233,376.489401 934.556411,375.653743 934.928678,374.957361 C936.04548,372.311111 937.658637,370.221966 939.147706,368.272097 L939.768151,368.272097 C942.125843,370.221966 943.366733,369.386308 945.476247,367.157886 C947.213493,365.347294 948.454384,362.979596 948.95074,360.333346 C949.571185,357.408543 949.695274,354.48374 948.702562,351.558936 C948.082116,349.469791 946.965315,348.77341 945.103979,349.051962 C943.614911,349.330515 942.49811,350.305449 941.629486,351.837489 C939.768151,354.762292 939.023617,358.244201 939.023617,361.865386 C939.023617,363.397425 938.899528,364.650912 937.782726,365.625847 C937.658637,365.765123 937.658637,365.765123 937.534548,365.904399 C936.169569,368.272097 934.928678,370.779071 933.563699,373.146769 C933.067343,374.121703 932.446897,374.957361 931.950541,375.932296 C931.206007,377.325059 930.461473,378.857099 929.841028,380.389139 C929.344671,381.642626 929.468761,381.642626 928.351959,382.339007 C928.351959,382.060455 928.351959,381.781902 928.476048,381.503349 C929.59285,376.90723 929.716939,372.171835 930.089206,367.436439 C930.337384,364.093807 930.337384,360.611898 930.461473,357.269266 C930.585562,355.180121 930.585562,353.090976 930.83374,350.862555 C930.83374,350.305449 931.330096,349.748344 931.702363,349.469791 C932.695076,348.912686 933.315521,347.798475 933.687788,346.684265 C934.432322,344.595119 935.300945,342.505974 936.04548,340.277553 C936.169569,339.859724 936.293658,339.302619 936.417747,338.88479 C936.914103,337.074197 936.541836,335.542157 935.052767,334.427947 C932.198719,335.681434 931.702363,339.024066 930.585562,342.227422 C929.965117,340.277553 929.965117,338.745513 929.841028,337.35275 C929.468761,333.592289 929.220582,329.831827 928.600137,326.210643 C928.351959,324.539327 927.359247,323.007287 926.738802,321.475247 C926.242445,320.22176 925.249733,319.803931 924.257021,320.082484 C923.264309,320.361036 922.147507,321.893076 922.147507,323.146563 C922.147507,323.982221 922.147507,324.817879 922.395685,325.514261 C923.512487,328.57834 924.38111,331.920973 925.994267,334.706499 C926.98698,336.517092 927.359247,338.327684 927.483336,340.416829 C927.483336,341.53104 927.731514,342.645251 927.855603,343.759461 C927.855603,344.17729 927.731514,344.595119 927.483336,345.570054 C926.98698,344.734396 926.614713,344.316567 926.242445,343.898738 C925.373822,342.505974 924.505199,341.252487 923.636576,339.859724 C922.892041,338.745513 921.77524,338.327684 920.658439,338.188408 C919.045281,337.909855 917.92848,339.441895 918.424836,341.391764 C919.293459,344.873672 921.278884,346.962817 924.257021,347.937752 C925.373822,348.355581 926.490624,348.912686 927.483336,349.469791 C928.22787,349.88762 928.351959,350.584002 928.22787,351.41966 C927.979692,354.344463 927.855603,357.269266 927.731514,360.054793 L927.731514,362.561767 C927.731514,366.740057 927.483336,370.918348 926.490624,375.096638 C925.373822,374.539532 924.38111,374.400256 923.760665,373.286045 C923.388398,372.589664 922.643863,372.171835 922.147507,371.754006 C920.906617,370.779071 920.037993,369.66486 919.541637,367.714992 C918.300747,363.118873 916.811678,358.66203 914.329898,354.762292 C913.213096,353.090976 911.848117,352.533871 910.359048,352.533871 C908.86998,352.394594 907.380911,355.737227 907.877268,357.687095 C908.745891,361.029727 909.986781,364.37236 911.972206,367.01861 C913.585363,369.386308 915.446699,371.614729 918.300747,372.171835 C919.417548,372.450387 920.286172,373.564598 921.278884,374.400256 C922.643863,375.653743 924.008843,376.90723 925.373822,378.160717 C926.118356,378.857099 926.490624,379.414204 926.242445,380.667691 C925.125644,386.378021 924.132932,392.088351 922.892041,397.798681 C922.395685,400.166379 921.651151,402.3948 921.030706,404.623222 C920.906617,405.319603 920.782528,406.015985 920.658439,406.712367 C920.410261,407.687301 920.162083,408.801512 919.789815,409.63717 C919.293459,410.612104 918.921192,411.447762 919.293459,412.701249 C919.665726,414.094013 918.797103,415.3475 918.176658,416.600987 C917.556213,415.068947 917.059857,413.536907 916.5635,412.004868 C914.578076,406.015985 912.096295,400.444931 909.366336,395.013154 C908.621802,393.481115 908.001357,392.227627 907.877268,390.417035 C907.753179,388.606443 907.380911,386.79585 906.760466,385.124534 C905.767754,382.61756 905.02322,380.110586 903.410062,378.021441 C901.920994,376.071572 901.05237,373.564598 899.687391,371.614729 C898.322412,369.66486 896.709254,367.714992 895.096097,366.043676 C894.351562,365.347294 893.35885,364.790189 892.366138,364.511636 C890.628891,363.954531 889.263912,365.48657 889.388001,367.575715 C889.51209,369.386308 889.760268,371.057624 890.628891,372.589664 C890.877069,373.007493 891.001158,373.564598 891.249336,374.121703 C892.11796,375.932296 892.614316,378.160717 894.227473,379.553481 C894.59974,379.832033 894.847918,380.528415 895.096097,381.08552 C895.592453,382.339007 896.088809,383.592494 897.081521,384.288876 C897.20561,384.428152 897.329699,384.567429 897.453788,384.706705 C899.315124,387.631508 901.672816,389.85993 903.906418,392.088351 C905.519576,393.759667 906.760466,395.988089 908.001357,397.937957 C908.745891,399.052168 909.118158,400.444931 909.738603,401.698419 C910.979494,404.483945 912.220384,407.269472 913.461274,410.194275 C913.585363,410.472828 913.709452,410.890657 913.833542,411.447762 C913.337185,411.587039 912.840829,411.726315 912.468562,411.726315 C911.103583,411.587039 909.738603,411.308486 908.373624,411.029933 C908.001357,410.890657 907.62909,410.751381 907.256822,410.472828 C903.037795,407.269472 898.446501,405.319603 893.35885,405.598156 L891.869782,405.598156 C889.884357,405.737432 889.263912,407.130196 889.015734,409.219341 C888.891645,410.472828 889.51209,411.587039 890.504802,412.144144 C891.745692,412.840526 893.110672,413.397631 894.351562,414.233289 C896.709254,415.904605 899.191035,415.3475 901.672816,415.068947 C903.534151,414.929671 905.395487,414.511842 907.256822,414.233289 C908.86998,414.094013 910.483137,414.233289 912.096295,414.233289 C913.957631,414.233289 915.198521,415.208223 915.694877,417.297369 C916.439411,420.082895 917.183946,423.007698 917.804391,425.793225 C917.92848,426.211054 917.92848,426.628883 917.92848,427.046712 C917.308035,431.642831 917.804391,436.378227 917.92848,440.974346 C917.92848,441.949281 917.92848,442.924215 917.804391,443.899149 C917.804391,445.291913 917.680302,446.684676 917.680302,448.077439 C917.556213,449.19165 917.680302,450.445137 916.935768,451.420072 C916.5635,451.837901 916.687589,452.812835 916.687589,453.648493 C916.687589,455.041256 916.935768,456.43402 916.811678,457.826783 C916.811678,459.358823 916.315322,461.030139 916.687589,462.562179 C917.059857,464.233495 916.687589,465.765535 916.811678,467.297574 C917.059857,469.525996 916.5635,471.475864 916.191233,473.425733 C915.943055,474.957773 916.315322,476.629089 916.5635,478.300405 C916.687589,478.718234 917.308035,479.136063 917.680302,479.275339 C918.300747,479.414616 918.921192,479.275339 919.417548,479.136063 C920.53435,478.996787 920.782528,478.578958 920.658439,477.325471 C920.658439,476.21126 920.658439,475.236326 921.278884,474.122115 C921.651151,473.425733 921.527062,472.03297 921.527062,471.058035 C921.527062,467.85468 921.278884,464.512047 921.402973,461.308692 C921.527062,458.383889 921.77524,455.319809 922.271596,452.534282 C922.892041,449.330927 923.512487,446.127571 924.753377,443.063491 C924.877466,442.645662 925.001555,442.088557 925.001555,441.670728 C925.125644,439.860135 925.746089,438.606648 927.235158,438.049543 C927.483336,437.910267 927.607425,437.77099 927.855603,437.77099 C929.965117,437.353161 931.826452,436.099674 933.43961,434.428358 C935.052767,432.757042 936.914103,431.225002 938.154993,429.275134 C940.016329,426.350331 941.381308,423.007698 942.125843,419.386514 C942.746288,416.600987 942.870377,413.81546 942.622199,411.029933 C942.49811,409.63717 942.125843,408.10513 941.877664,406.712367 C941.753575,406.294538 941.505397,406.015985 941.257219,405.598156 C940.636774,404.762498 940.140418,404.762498 939.395884,405.598156 C938.403171,406.712367 937.28637,407.826577 936.293658,409.080064 C936.169569,409.219341 936.04548,409.358617 935.921391,409.497894 C934.432322,412.144144 932.819165,414.651118 931.330096,417.297369 C930.337384,419.107961 929.468761,421.05783 928.600137,423.007698 C928.103781,423.982633 927.731514,424.957567 927.359247,426.071778 C926.366535,428.578752 925.497911,431.085726 924.629288,433.5927 C923.884754,435.821122 923.388398,438.328096 922.643863,440.556517 C922.023418,442.36711 921.278884,444.038426 920.53435,445.849018 M890.116801,320 C890.116801,320.139276 890.24089,320.139276 890.24089,320.278553 C890.116801,320.417829 889.992712,320.696382 889.868623,320.835658 C889.744534,320.974934 889.496356,320.835658 889.248178,320.835658 L889.248178,320.417829 M889.992712,320 C890.116801,320.278553 890.116801,320.557105 890.24089,320.696382 L889.992712,320.835658 C889.868623,320.696382 889.744534,320.417829 889.744534,320.139276" id="Shape"></path>
        </g>
    </g>
</svg>