<?xml version="1.0" encoding="UTF-8"?>
<svg width="180px" height="407px" viewBox="0 0 180 407" version="1.1" xmlns="http://www.w3.org/2000/svg" xmlns:xlink="http://www.w3.org/1999/xlink">
    <!-- Generator: Sketch 43.2 (39069) - http://www.bohemiancoding.com/sketch -->
    <title>Group 2</title>
    <desc>Created with Sketch.</desc>
    <defs>
        <rect id="path-1" x="18.5739303" y="310.989767" width="131.446276" height="4.27967569"></rect>
    </defs>
    <g id="Page-1" stroke="none" stroke-width="1" fill="none" fill-rule="evenodd">
        <g id="Desktop-Landscape" transform="translate(-364.000000, -222.000000)">
            <g id="Group-2" transform="translate(366.000000, 222.000000)">
                <path d="M104.799047,279.370553 C106.441564,279.561704 109.088818,279.421553 110.689956,279.000712 C110.689956,279.000712 141.949279,273.311614 152.958136,241.096016 C154.630478,236.202183 157.946936,218.206885 162.847911,203.409357 C167.48648,182.901301 186.764595,162.992312 186.764595,162.992312 C187.696046,161.981688 187.366075,161.416458 186.034377,161.765681 C186.034377,161.765681 177.322081,163.462163 165.142397,170.647328 C152.962713,177.832493 141.483029,187.544524 141.483029,187.544524 C141.483029,187.544524 122.541632,202.255671 119.479811,207.374795 C109.910161,223.374494 75.8431322,247.322737 75.5264917,262.152695 C75.2098512,276.982653 104.799047,279.370553 104.799047,279.370553 Z" id="Oval-2" stroke="#64985B" stroke-width="4" fill="#64985B" transform="translate(131.466382, 220.547091) rotate(-11.000000) translate(-131.466382, -220.547091) "></path>
                <path d="M91.449095,155.498201 C91.449095,155.498201 110.190152,143.143679 114.096349,134.781651 C118.002545,126.419624 119.687869,108.696589 119.687869,108.696589 C119.715514,108.423165 119.533888,108.288505 119.270012,108.403948 C119.270012,108.403948 103.744342,114.841584 97.5363267,125.220896 C91.328311,135.600209 91.449095,155.498201 91.449095,155.498201 Z" id="Oval-2" stroke="#8CA35F" stroke-width="4" fill="#8CA35F" transform="translate(105.572541, 131.921304) rotate(11.000000) translate(-105.572541, -131.921304) "></path>
                <path d="M83.7507126,276.346209 C83.8057398,277.989995 85.1660795,279.027437 86.7672179,278.606597 C86.7672179,278.606597 118.026541,272.917498 129.035398,240.7019 C133.219937,228.456538 133.412915,214.974089 135.63689,203.850418 C137.860866,192.726748 143.423216,172.43842 143.423216,172.43842 C143.495691,172.172835 143.336888,172.032477 143.084226,172.121605 C143.084226,172.121605 109.714069,183.311299 95.5570728,206.980679 C81.4000769,230.65006 83.7507126,276.346209 83.7507126,276.346209 Z" id="Oval-2" stroke="#8CA35F" stroke-width="4" fill="#8CA35F" transform="translate(113.532053, 225.425245) rotate(-4.000000) translate(-113.532053, -225.425245) "></path>
                <path d="M28.1228546,286.698572 C29.6318408,287.372719 32.1449045,287.531508 33.7042575,287.008683 C33.7042575,287.008683 64.5660793,278.890039 70.4341883,251.060989 C70.9718266,248.374346 70.4697519,244.813769 70.0793468,240.915342 C69.6889417,237.016916 70.0509152,233.486168 71.6056234,220.246725 C73.1603317,207.007282 75.8924078,187.867465 75.8924078,187.867465 C75.9313771,187.593366 75.7851364,187.504528 75.5689757,187.669459 C75.5689757,187.669459 55.5354185,202.410761 47.9892403,222.857265 C43.6100449,234.722773 14.9222185,252.159481 11.6995799,265.682569 C8.47694129,279.205656 28.1228546,286.698572 28.1228546,286.698572 Z" id="Oval-2" stroke="#64985B" stroke-width="4" fill="#64985B" transform="translate(43.626325, 237.474125) scale(-1, 1) rotate(14.000000) translate(-43.626325, -237.474125) "></path>
                <path d="M34.5787944,279.173748 C34.6147859,280.827932 35.9103328,281.749017 37.4599518,281.1558 C37.4599518,281.1558 67.1043608,272.980246 75.4525962,233.38939 C76.2174645,229.567251 75.5031905,224.501814 74.9477827,218.955737 C74.3923749,213.409661 74.9073346,208.38666 77.1191324,189.551634 C79.3309301,170.716609 79.9031064,150.725271 79.9031064,150.725271 C79.9117563,150.448626 79.7255583,150.332459 79.4900251,150.467756 C79.4900251,150.467756 54.2569373,164.177391 43.5214053,193.265506 C32.7858733,222.353621 34.5787944,279.173748 34.5787944,279.173748 Z" id="Oval-2" stroke="#A2AE88" stroke-width="4" fill="#A2AE88" transform="translate(57.188071, 215.908009) scale(-1, 1) rotate(2.000000) translate(-57.188071, -215.908009) "></path>
                <path d="M53.2274655,164.422481 C53.2274655,164.422481 66.2800954,157.185887 71.9210098,147.780734 C77.5619243,138.375581 77.399251,124.496174 77.399251,124.496174 C77.4003755,124.225325 77.2049216,124.101442 76.9523296,124.227426 C76.9523296,124.227426 63.6481611,130.548375 58.0470374,139.739382 C52.4459137,148.930389 53.2274655,164.422481 53.2274655,164.422481 Z" id="Oval-2" stroke="#64985B" stroke-width="4" fill="#64985B" transform="translate(65.295289, 144.291214) scale(-1, 1) rotate(11.000000) translate(-65.295289, -144.291214) "></path>
                <path d="M73.2221162,90.6934037 C73.2221162,90.6934037 72.1104324,92.0089303 70.6727505,96.4268307 C69.2350686,100.844731 68.741691,102.360847 68.741691,102.360847" id="Line" stroke="#64985B" stroke-width="3" stroke-linecap="round" transform="translate(70.981904, 96.527126) scale(-1, -1) rotate(-18.000000) translate(-70.981904, -96.527126) "></path>
                <path d="M84.2970683,281.745316 L84.2970683,17.831982" id="Line" stroke="#64985B" stroke-width="4" stroke-linecap="round"></path>
                <path d="M84.400155,404.998071 C124.643464,404.998071 147.300189,386.736981 147.300189,337.601324 C147.300189,320.359005 147.300189,282.879718 147.300189,282.879718 C147.300189,282.879718 109.588461,282.879718 84.400155,282.879718 C59.2173297,282.879718 21.3087218,282.879718 21.3087218,282.879718 C21.3087218,282.879718 21.3087218,296.541126 21.3087218,337.601324 C21.3087218,384.580368 44.1568457,404.998071 84.400155,404.998071 Z" id="Oval-4" stroke="#576660" stroke-width="3.8" fill="#576660"></path>
                <rect id="Rectangle-8" fill="#FFFFFF" x="18.5739303" y="301.003857" width="131.446276" height="4.27967569"></rect>
                <g id="Rectangle-8">
                    <use fill="#FFFFFF" fill-rule="evenodd" xlink:href="#path-1"></use>
                    <rect stroke="#FFFFFF" stroke-width="1" x="19.0739303" y="311.489767" width="130.446276" height="3.27967569"></rect>
                </g>
                <g id="Group" transform="translate(95.727179, 49.403308)" stroke="#FFF4F6" stroke-width="2" fill="#FFF4F6">
                    <path d="M11.0517627,0.733487812 C11.4865613,0.833714047 17.7074706,13.4365919 11.1608474,13.3889032 C4.61422431,13.3412145 10.616964,0.633261577 11.0517627,0.733487812 Z" id="Triangle-2" transform="translate(11.130914, 7.060968) scale(1, -1) rotate(-13.000000) translate(-11.130914, -7.060968) "></path>
                    <path d="M5.20629032,4.26092621 C5.57227436,4.34528986 10.8086144,14.9535388 5.29811049,14.9133977 C-0.212393441,14.8732566 4.84030628,4.17656255 5.20629032,4.26092621 Z" id="Triangle-2" transform="translate(5.272915, 9.586971) scale(1, -1) rotate(25.000000) translate(-5.272915, -9.586971) "></path>
                    <path d="M15.9493424,7.80675346 C16.2853379,7.88420438 21.0926137,17.6232164 16.0336389,17.5863644 C10.9746641,17.5495125 15.613347,7.72930254 15.9493424,7.80675346 Z" id="Triangle-2" transform="translate(16.010508, 12.696383) scale(1, -1) rotate(-60.000000) translate(-16.010508, -12.696383) "></path>
                </g>
                <g id="Group" transform="translate(55.465206, 69.630987) rotate(-38.000000) translate(-55.465206, -69.630987) translate(44.661403, 60.627818)" stroke="#FFF4F6" stroke-width="2" fill="#FFF4F6">
                    <path d="M11.0517627,0.733487812 C11.4865613,0.833714047 17.7074706,13.4365919 11.1608474,13.3889032 C4.61422431,13.3412145 10.616964,0.633261577 11.0517627,0.733487812 Z" id="Triangle-2" transform="translate(11.130914, 7.060968) scale(1, -1) rotate(-13.000000) translate(-11.130914, -7.060968) "></path>
                    <path d="M5.20629032,4.26092621 C5.57227436,4.34528986 10.8086144,14.9535388 5.29811049,14.9133977 C-0.212393441,14.8732566 4.84030628,4.17656255 5.20629032,4.26092621 Z" id="Triangle-2" transform="translate(5.272915, 9.586971) scale(1, -1) rotate(25.000000) translate(-5.272915, -9.586971) "></path>
                    <path d="M15.9493424,7.80675346 C16.2853379,7.88420438 21.0926137,17.6232164 16.0336389,17.5863644 C10.9746641,17.5495125 15.613347,7.72930254 15.9493424,7.80675346 Z" id="Triangle-2" transform="translate(16.010508, 12.696383) scale(1, -1) rotate(-60.000000) translate(-16.010508, -12.696383) "></path>
                </g>
                <g id="Group" transform="translate(101.800907, 18.360382) scale(-1, 1) rotate(-26.000000) translate(-101.800907, -18.360382) translate(90.997103, 9.357213)" stroke="#FFF4F6" stroke-width="2" fill="#FFF4F6">
                    <path d="M11.0517627,0.733487812 C11.4865613,0.833714047 17.7074706,13.4365919 11.1608474,13.3889032 C4.61422431,13.3412145 10.616964,0.633261577 11.0517627,0.733487812 Z" id="Triangle-2" transform="translate(11.130914, 7.060968) scale(1, -1) rotate(-13.000000) translate(-11.130914, -7.060968) "></path>
                    <path d="M5.20629032,4.26092621 C5.57227436,4.34528986 10.8086144,14.9535388 5.29811049,14.9133977 C-0.212393441,14.8732566 4.84030628,4.17656255 5.20629032,4.26092621 Z" id="Triangle-2" transform="translate(5.272915, 9.586971) scale(1, -1) rotate(25.000000) translate(-5.272915, -9.586971) "></path>
                    <path d="M15.9493424,7.80675346 C16.2853379,7.88420438 21.0926137,17.6232164 16.0336389,17.5863644 C10.9746641,17.5495125 15.613347,7.72930254 15.9493424,7.80675346 Z" id="Triangle-2" transform="translate(16.010508, 12.696383) scale(1, -1) rotate(-60.000000) translate(-16.010508, -12.696383) "></path>
                </g>
                <path d="M73.6157587,0.98561374 C74.0505574,1.08583997 80.2714666,13.6887178 73.7248435,13.6410291 C67.1782204,13.5933404 73.1809601,0.885387505 73.6157587,0.98561374 Z" id="Triangle-2" stroke="#FFF4F6" stroke-width="2" fill="#FFF4F6" transform="translate(73.694910, 7.313094) scale(1, -1) rotate(-13.000000) translate(-73.694910, -7.313094) "></path>
                <path d="M77.6011623,5.6314101 C77.9671463,5.71577375 83.2034864,16.3240227 77.6929824,16.2838816 C72.1824785,16.2437405 77.2351782,5.54704644 77.6011623,5.6314101 Z" id="Triangle-2" stroke="#FFF4F6" stroke-width="2" fill="#FFF4F6" transform="translate(77.667787, 10.957454) scale(1, -1) rotate(25.000000) translate(-77.667787, -10.957454) "></path>
                <path d="M65.9356089,6.62804005 C66.2716044,6.70549097 71.0788802,16.4445029 66.0199054,16.407651 C60.9609306,16.370799 65.5996135,6.55058913 65.9356089,6.62804005 Z" id="Triangle-2" stroke="#FFF4F6" stroke-width="2" fill="#FFF4F6" transform="translate(65.996774, 11.517670) scale(1, -1) rotate(-60.000000) translate(-65.996774, -11.517670) "></path>
                <path d="M98.3439513,24.2514956 C98.3439513,24.2514956 94.6481085,28.2540336 92.262374,34.5290949 C89.8766394,40.8041562 88.58336,49.9242215 88.58336,49.9242215" id="Line" stroke="#64985B" stroke-width="3" stroke-linecap="round" transform="translate(93.463656, 37.087859) scale(-1, -1) rotate(7.000000) translate(-93.463656, -37.087859) "></path>
                <path d="M101.21655,62.8417554 C101.21655,62.8417554 96.6136972,67.8265704 93.6424712,75.6416164 C90.6712452,83.4566624 89.0605775,94.8149147 89.0605775,94.8149147" id="Line" stroke="#64985B" stroke-width="3" stroke-linecap="round" transform="translate(95.138564, 78.828335) scale(-1, -1) rotate(12.000000) translate(-95.138564, -78.828335) "></path>
                <path d="M82.2589925,13.9552797 C82.2589925,13.9552797 76.9522883,20.4119265 72.1470271,30.3223213 C67.3417658,40.232716 68.3543301,45.9255595 68.3543301,45.9255595" id="Line" stroke="#64985B" stroke-width="3" stroke-linecap="round" transform="translate(75.262156, 29.940420) scale(1, -1) rotate(7.000000) translate(-75.262156, -29.940420) "></path>
                <path d="M79.1555037,74.1945481 C79.1555037,74.1945481 67.1142321,83.6218747 64.4420634,95.0738083 C61.7698948,106.525742 60.676907,114.661481 60.676907,114.661481" id="Line" stroke="#64985B" stroke-width="3" stroke-linecap="round" transform="translate(69.916205, 94.428015) scale(1, -1) rotate(7.000000) translate(-69.916205, -94.428015) "></path>
            </g>
        </g>
    </g>
</svg>