<?xml version="1.0" encoding="UTF-8"?>
<svg width="93px" height="211px" viewBox="0 0 93 211" version="1.1" xmlns="http://www.w3.org/2000/svg" xmlns:xlink="http://www.w3.org/1999/xlink">
    <!-- Generator: Sketch 43.2 (39069) - http://www.bohemiancoding.com/sketch -->
    <title>Group 3</title>
    <desc>Created with Sketch.</desc>
    <defs>
        <rect id="path-1" x="0" y="0" width="86" height="98" rx="1.5"></rect>
        <rect id="path-2" x="19" y="141" width="86" height="40"></rect>
    </defs>
    <g id="Page-1" stroke="none" stroke-width="1" fill="none" fill-rule="evenodd">
        <g id="Desktop-Landscape" transform="translate(-560.000000, -321.000000)">
            <g id="Group-3" transform="translate(547.000000, 322.000000)">
                <g id="Group" transform="translate(19.000000, 112.000000)">
                    <g id="Rectangle">
                        <use fill="#13314D" fill-rule="evenodd" xlink:href="#path-1"></use>
                        <rect stroke="#13314D" stroke-width="4" x="2" y="2" width="82" height="94" rx="1.5"></rect>
                    </g>
                </g>
                <path d="M62,109 L62,27.5" id="Line" stroke="#678F49" stroke-width="6" stroke-linecap="square"></path>
                <g id="Rectangle-2">
                    <use fill="#FFFFFF" fill-rule="evenodd" xlink:href="#path-2"></use>
                    <rect stroke="#FFFFFF" stroke-width="1" x="19.5" y="141.5" width="85" height="39"></rect>
                </g>
                <g id="Group-2" transform="translate(52.000000, 0.000000)" stroke-width="3">
                    <path d="M9.91058655,0.84863663 C10.1103815,0.659799476 10.2724363,0.73669112 10.2725441,1.01509342 L10.2840598,30.7670146 C10.2841685,31.0477833 10.1244091,31.1283024 9.92207192,30.9388967 C9.92207192,30.9388967 0.107823508,22.07005 0.107823508,15.967273 C0.107823508,9.86449606 9.91058655,0.84863663 9.91058655,0.84863663 Z" id="Path-5" stroke="#8CA35F" fill="#8CA35F"></path>
                    <path d="M19.9103939,0.84863663 C20.1101889,0.659799476 20.2722437,0.73669112 20.2723515,1.01509342 L20.2838671,30.7670146 C20.2839758,31.0477833 20.1242164,31.1283024 19.9218793,30.9388967 C19.9218793,30.9388967 10.1076309,22.07005 10.1076309,15.967273 C10.1076309,9.86449606 19.9103939,0.84863663 19.9103939,0.84863663 Z" id="Path-5" stroke="#678F49" fill="#678F49" transform="translate(15.195749, 15.893358) scale(-1, 1) translate(-15.195749, -15.893358) "></path>
                </g>
                <g id="Group-2" transform="translate(79.983056, 46.977652) rotate(44.000000) translate(-79.983056, -46.977652) translate(65.483056, 24.977652)" stroke-width="3">
                    <path d="M13.8415695,1.04084376 C14.0412357,0.852939857 14.2031858,0.929503457 14.2032936,1.20802185 L14.2193671,42.7356216 C14.2194756,43.0158554 14.0615454,43.0980306 13.8576122,42.9082215 C13.8576122,42.9082215 0.149082553,30.5152323 0.149082553,22.0772062 C0.149082553,13.6391802 13.8415695,1.04084376 13.8415695,1.04084376 Z" id="Path-5" stroke="#8CA35F" fill="#8CA35F"></path>
                    <path d="M27.6677626,1.04084376 C27.8674289,0.852939857 28.0293789,0.929503457 28.0294867,1.20802185 L28.0455603,42.7356216 C28.0456687,43.0158554 27.8877386,43.0980306 27.6838054,42.9082215 C27.6838054,42.9082215 13.9752757,30.5152323 13.9752757,22.0772062 C13.9752757,13.6391802 27.6677626,1.04084376 27.6677626,1.04084376 Z" id="Path-5" stroke="#678F49" fill="#678F49" transform="translate(21.010418, 21.974337) scale(-1, 1) translate(-21.010418, -21.974337) "></path>
                </g>
                <g id="Group-2" transform="translate(84.173393, 86.953688) rotate(44.000000) translate(-84.173393, -86.953688) translate(65.173393, 58.453688)" stroke-width="3">
                    <path d="M18.6905809,0.191683535 C18.8892534,0.00532907757 19.0503983,0.0841649152 19.0505002,0.34755656 L19.0722043,56.4221907 C19.0723098,56.6946315 18.909242,56.766053 18.7038733,56.5756597 C18.7038733,56.5756597 0.199961228,39.8439668 0.199961228,28.5262236 C0.199961228,17.2084804 18.6905809,0.191683535 18.6905809,0.191683535 Z" id="Path-5" stroke="#8CA35F" fill="#8CA35F"></path>
                    <path d="M37.2352845,0.191683535 C37.433957,0.00532907757 37.5951019,0.0841649152 37.5952038,0.34755656 L37.6169079,56.4221907 C37.6170133,56.6946315 37.4539455,56.766053 37.2485769,56.5756597 C37.2485769,56.5756597 18.7446648,39.8439668 18.7446648,28.5262236 C18.7446648,17.2084804 37.2352845,0.191683535 37.2352845,0.191683535 Z" id="Path-5" stroke="#678F49" fill="#678F49" transform="translate(28.180786, 28.386141) scale(-1, 1) translate(-28.180786, -28.386141) "></path>
                </g>
                <g id="Group-2" transform="translate(43.710946, 42.041827) scale(-1, 1) rotate(44.000000) translate(-43.710946, -42.041827) translate(29.210946, 20.041827)" stroke-width="3">
                    <path d="M13.8415695,1.04084376 C14.0412357,0.852939857 14.2031858,0.929503457 14.2032936,1.20802185 L14.2193671,42.7356216 C14.2194756,43.0158554 14.0615454,43.0980306 13.8576122,42.9082215 C13.8576122,42.9082215 0.149082553,30.5152323 0.149082553,22.0772062 C0.149082553,13.6391802 13.8415695,1.04084376 13.8415695,1.04084376 Z" id="Path-5" stroke="#8CA35F" fill="#8CA35F"></path>
                    <path d="M27.6677626,1.04084376 C27.8674289,0.852939857 28.0293789,0.929503457 28.0294867,1.20802185 L28.0455603,42.7356216 C28.0456687,43.0158554 27.8877386,43.0980306 27.6838054,42.9082215 C27.6838054,42.9082215 13.9752757,30.5152323 13.9752757,22.0772062 C13.9752757,13.6391802 27.6677626,1.04084376 27.6677626,1.04084376 Z" id="Path-5" stroke="#678F49" fill="#678F49" transform="translate(21.010418, 21.974337) scale(-1, 1) translate(-21.010418, -21.974337) "></path>
                </g>
                <g id="Group-2" transform="translate(37.142935, 78.789368) scale(-1, -1) rotate(135.000000) translate(-37.142935, -78.789368) translate(16.142935, 47.289368)" stroke-width="3">
                    <path d="M20.6533497,0.254325493 C20.8526766,0.0675310502 21.0143513,0.144022769 21.0144591,0.422767137 L21.0384298,62.3532846 C21.0385381,62.6331068 20.8710522,62.7065338 20.6772896,62.5271389 C20.6772896,62.5271389 0.220575833,44.0284715 0.220575833,31.5439481 C0.220575833,19.0594247 20.6533497,0.254325493 20.6533497,0.254325493 Z" id="Path-5" stroke="#8CA35F" fill="#8CA35F"></path>
                    <path d="M41.109868,0.254325493 C41.309195,0.0675310502 41.4708696,0.144022769 41.4709775,0.422767137 L41.4949482,62.3532846 C41.4950565,62.6331068 41.3275706,62.7065338 41.133808,62.5271389 C41.133808,62.5271389 20.6770942,44.0284715 20.6770942,31.5439481 C20.6770942,19.0594247 41.109868,0.254325493 41.109868,0.254325493 Z" id="Path-5" stroke="#678F49" fill="#678F49" transform="translate(31.086021, 31.388407) scale(-1, 1) translate(-31.086021, -31.388407) "></path>
                </g>
            </g>
        </g>
    </g>
</svg>