<?xml version="1.0" encoding="UTF-8"?>
<svg width="98px" height="200px" viewBox="0 0 98 200" version="1.1" xmlns="http://www.w3.org/2000/svg" xmlns:xlink="http://www.w3.org/1999/xlink">
    <!-- Generator: Sketch 43.2 (39069) - http://www.bohemiancoding.com/sketch -->
    <title>Group</title>
    <desc>Created with Sketch.</desc>
    <defs></defs>
    <g id="Page-1" stroke="none" stroke-width="1" fill="none" fill-rule="evenodd">
        <g id="Desktop-Landscape" transform="translate(-1050.000000, -338.000000)" stroke-width="3">
            <g id="Group" transform="translate(1051.000000, 339.000000)">
                <path d="M43.6383448,97.2185266 C43.6383448,97.2185266 45.6183267,76.8413498 56.4437452,57 C67.2691638,37.1586502 82.7082981,25.5345592 82.7082981,25.5345592 C82.7468424,25.5051527 82.7611646,25.5218545 82.7402607,25.5719284 L67.7944557,61.3734876 L54.5568856,97.2185266 L43.6383448,97.2185266 Z" id="Path-37" stroke="#8CA35F" fill="#8CA35F"></path>
                <path d="M52,97.2185266 C52,97.2185266 42.5500197,60.7881475 30.2861454,41.8585412 C18.0222712,22.9289349 1.00279098,21.6389508 1.00279098,21.6389508 C0.951404756,21.6342631 0.927514074,21.6625693 0.958798931,21.7191433 C0.958798931,21.7191433 11.7885399,41.2783273 20.9930853,59.4284881 C30.1976306,77.5786488 39.2429489,97.2185266 39.2429489,97.2185266 L52,97.2185266 Z" id="Path-37" stroke="#889F5C" fill="#8CA35F"></path>
                <path d="M43.6383448,97.2185266 C43.6383448,97.2185266 37.2365553,84.2232568 27.8071801,77.1022044 C18.377805,69.981152 4.67361137,68.9586867 4.67361137,68.9586867 C4.62442923,68.9546498 4.61461113,68.976249 4.66311821,69.0164649 C4.66311821,69.0164649 15.0070796,77.562754 20.0311803,83.0883665 C25.055281,88.613979 30.2861454,97.2185266 30.2861454,97.2185266 L43.6383448,97.2185266 Z" id="Path-37" stroke="#8CA35F" fill="#8CA35F"></path>
                <path d="M43.2422951,97.3397002 C43.2422951,97.3397002 43.2422951,46.141028 49.8337298,27.0664233 C53.9202963,10.4596985 64.5128104,0.696290866 64.5128104,0.696290866 C64.550642,0.660685439 64.5769526,0.671303155 64.5692688,0.740916995 L53.9202963,97.2185266 L43.2422951,97.3397002 Z" id="Path-37" stroke="#A2AE88" fill="#A2AE88"></path>
                <path d="M54.1939363,97.2185266 C54.1939363,97.2185266 61.6160111,84.7295374 72.1855193,76.7646841 C82.7550275,68.7998308 93.4478214,68.8011335 93.4478214,68.8011335 C93.5002828,68.8004141 93.5163092,68.8229281 93.4624435,68.8700213 C93.4624435,68.8700213 84.3787648,76.7646841 77.3845747,84.9199789 C70.3903846,93.0752738 69.9202963,97.2185266 69.9202963,97.2185266 L54.1939363,97.2185266 Z" id="Path-37" stroke="#64985B" fill="#64985B"></path>
                <path d="M24.2397516,98.5891144 C24.2306388,98.3195636 24.4409009,98.0972341 24.7223171,98.0923009 L72.5417252,97.2540327 C72.8173516,97.249201 73.0284094,97.4783399 73.0161218,97.7445432 C73.0161218,97.7445432 72.629238,104.073393 73.6316695,108.561414 C74.9175918,114.318661 76.970901,116.673683 78.4859411,118.357149 C80.0009812,120.040615 95.1914938,132.486138 95.1914938,158.088971 C95.1914938,178.700125 70.3978788,197.046093 70.3978788,197.046093 C70.1793599,197.212513 69.7849457,197.347424 69.5061986,197.347424 L30.1155837,197.347424 C29.8416412,197.347424 29.412133,197.260255 29.1611442,197.148674 C29.1611442,197.148674 7.29992162,188.532308 3.27996729,158.088971 C-0.045480744,140.176943 15.5785483,123.575248 18.5622071,118.357149 C19.8507389,116.103645 22.5464466,112.475675 23.5297541,108.561414 C24.5130616,104.647153 24.2397516,98.5891144 24.2397516,98.5891144 Z" id="Path-36" stroke="#6A5B7A" fill="#6A5B7A"></path>
            </g>
        </g>
    </g>
</svg>