<?xml version="1.0" encoding="UTF-8"?>
<svg width="115px" height="184px" viewBox="0 0 115 184" version="1.1" xmlns="http://www.w3.org/2000/svg" xmlns:xlink="http://www.w3.org/1999/xlink">
    <!-- Generator: Sketch 43.2 (39069) - http://www.bohemiancoding.com/sketch -->
    <title>Group 2</title>
    <desc>Created with Sketch.</desc>
    <defs>
        <path d="M7.20788167,28.2750801 L107.237834,28.2750801 L100.753599,93.1815191 C100.644148,94.2771098 99.6575939,95.1652616 98.5461901,95.1652616 L16.1340715,95.1652616 C15.0244041,95.1652616 14.0322911,94.2702626 13.9197067,93.1815191 L7.20788167,28.2750801 Z" id="path-1"></path>
        <polygon id="path-2" points="7.28754781 28.7176217 107.159758 28.7176217 106.234361 38 8.1249333 38"></polygon>
        <rect id="path-3" x="0" y="0" width="115" height="29"></rect>
    </defs>
    <g id="Page-1" stroke="none" stroke-width="1" fill="none" fill-rule="evenodd">
        <g id="Desktop-Landscape" transform="translate(-833.000000, -348.000000)">
            <g id="Group-2" transform="translate(833.000000, 350.000000)">
                <g id="Group" transform="translate(5.000000, 0.000000)" stroke-width="3">
                    <path d="M54.5355268,83.3987608 L56.3473287,84.7424563 L53.0023812,82.5766047 L50.2606426,81.1063353 L49.5366952,81.111891 L43.9864933,83.3756214 L48.7998894,80.323 L47.864388,79.8213333 L25.7764354,82.2411973 L2.63507135,48.6484485 C-0.27256655,44.4276278 0.710642745,43.480348 4.83620951,46.5400123 L40.7866747,73.2021322 L32.7638191,58.8199363 L24.2107624,17.1036434 C23.2038359,12.1925057 24.1165428,11.880176 26.2523823,16.4208242 L45.2859633,56.8849099 L51.2750208,3.69863779 C51.7658494,-0.660202235 52.5042494,-0.652924665 52.9252685,3.72513678 L58.0263022,56.7693769 L78.7869736,15.3395131 C81.0297685,10.8638059 82.000524,11.1954123 80.9506266,16.101627 L71.2600428,61.3861321 L59.4521852,71.5967401 L59.6308007,73.4541136 L99.9779095,47.8662659 C103.656307,45.5334523 104.428459,46.3973337 101.703055,49.795181 L76.7515241,80.9030393 L56.6562012,81.0572546 L58.8445246,85.7094798 L54.5355268,83.3987608 Z M54.3012894,76.0508739 L54.5850367,76.654101 L57.370008,74.8878922 L56.2638975,74.3537479 L54.3012894,76.0508739 Z M52.8779355,73.0249212 L52.9508111,72.7538481 L52.6915328,72.6286418 L52.8779355,73.0249212 Z" id="Combined-Shape" stroke="#7B888E" fill="#7B888E"></path>
                    <path d="M34.9383591,76.4363701 L24.1183134,48.068605 C22.3390229,43.403699 23.6628941,42.5675525 27.0818574,46.2183094 L45.3635155,65.7393996 L50.0665326,43.5256016 C51.3498775,37.4639686 53.3415987,37.4773369 54.5157974,43.5587287 L58.7707008,65.595659 L76.9177446,46.2183094 C80.3367079,42.5675525 81.6605792,43.403699 79.8812886,48.068605 L69.061171,76.4365588 L96.0379416,65.6040658 C100.546935,63.7934846 101.377857,65.064809 97.8975767,68.4400419 L77.8108262,87.9205044 L61.1536121,88.0003751 L61.0652331,87.9359077 L59.8874755,87.9359077 L59.8426256,87.9918714 L59.753065,87.9359077 L46.3294363,87.9359077 L46.2507058,87.993836 L46.1937035,87.9359077 L40.664159,87.9359077 L40.9225835,86.7152892 L38.0231225,87.9957791 L26.1891738,87.9205044 L6.10242327,68.4400419 C2.62214334,65.064809 3.45306548,63.7934846 7.96205838,65.6040658 L34.9383591,76.4363701 Z" id="Combined-Shape" stroke="#A2AE88" fill="#A2AE88"></path>
                </g>
                <g id="Pot" transform="translate(0.000000, 86.000000)">
                    <g id="Rectangle-4">
                        <use fill="#6A5B7A" fill-rule="evenodd" xlink:href="#path-1"></use>
                        <path stroke="#6A5B7A" stroke-width="4" d="M9.42536177,30.2750801 L105.028076,30.2750801 L98.7635052,92.9827063 C98.7564243,93.0535855 98.6322244,93.1652616 98.5461901,93.1652616 L16.1340715,93.1652616 C16.0497469,93.1652616 15.9163014,93.0454555 15.9090985,92.9758007 L9.42536177,30.2750801 Z"></path>
                    </g>
                    <g id="Rectangle-5">
                        <use fill="#3B3243" fill-rule="evenodd" xlink:href="#path-2"></use>
                        <path stroke="#3B3243" stroke-width="1" d="M7.83468444,29.2176217 L106.607433,29.2176217 L105.781729,37.5 L8.58185755,37.5 L7.83468444,29.2176217 Z"></path>
                    </g>
                    <g id="Rectangle">
                        <use fill="#6A5B7A" fill-rule="evenodd" xlink:href="#path-3"></use>
                        <rect stroke="#6A5B7A" stroke-width="4" x="2" y="2" width="111" height="25"></rect>
                    </g>
                </g>
                <rect id="Rectangle" fill="#A2AE88" x="42.0490264" y="81.9848591" width="6.99357841" height="4.01535883"></rect>
            </g>
        </g>
    </g>
</svg>