<?xml version="1.0" encoding="UTF-8"?>
<svg width="191px" height="341px" viewBox="0 0 191 341" version="1.1" xmlns="http://www.w3.org/2000/svg" xmlns:xlink="http://www.w3.org/1999/xlink">
    <!-- Generator: Sketch 43.2 (39069) - http://www.bohemiancoding.com/sketch -->
    <title>Group</title>
    <desc>Created with Sketch.</desc>
    <defs>
        <path d="M43.9006434,257.727772 C44.114439,256.933668 44.9523126,256.393245 45.7734745,256.516445 C45.7734745,256.516445 71.859407,260.73466 103.372029,260.73466 C134.884652,260.73466 162.041132,256.507307 162.041132,256.507307 C162.856218,256.387247 163.589545,256.960988 163.671171,257.776725 C163.671171,257.776725 165.575886,274.007679 163.516976,286.73275 C159.581946,311.153367 141.166291,335.971091 141.166291,335.971091 C140.686969,336.639918 139.672135,337.441305 138.906975,337.732695 C138.906975,337.732695 127.67187,342.870387 103.899079,342.870387 C80.1262886,342.870387 68.8928575,337.727526 68.8928575,337.727526 C68.1330662,337.426301 67.1499724,336.621741 66.6987572,335.916171 C66.6987572,335.916171 53.5600708,316.409561 44.2877545,286.73275 C40.0468919,269.594088 43.9006434,257.727772 43.9006434,257.727772 Z" id="path-1"></path>
        <path d="M150.276382,321.646064 C145.60414,329.964981 141.173865,335.961999 141.173865,335.961999 C140.69036,336.635848 139.672135,337.441305 138.906975,337.732695 C138.906975,337.732695 127.67187,342.870387 103.899079,342.870387 C80.1262886,342.870387 68.8928575,337.727526 68.8928575,337.727526 C68.1330662,337.426301 67.1532002,336.606986 66.7192782,335.913135 C66.7192782,335.913135 62.7133203,329.678321 58.53416,321.646064 C58.53416,321.646064 77.4724106,325.171576 103.899079,325.171576 C130.325748,325.171576 150.276382,321.646064 150.276382,321.646064 Z" id="path-2"></path>
    </defs>
    <g id="Page-1" stroke="none" stroke-width="1" fill="none" fill-rule="evenodd">
        <g id="Desktop-Landscape" transform="translate(-551.000000, -286.000000)">
            <g id="Group" transform="translate(539.000000, 284.000000)">
                <path d="M154.874559,192.997092 C161.606319,173.534105 163.652515,166.374891 173.235455,156.975937 C182.818396,147.576984 204.423887,143.617091 204.423887,143.617091 C204.693688,143.564712 204.714629,143.434186 204.444834,143.320335 C204.444834,143.320335 168.540316,126.456614 142.266637,173.77929 C125.052946,212.677266 103.855887,266.192595 103.855887,266.192595 L135.907589,264.898947 C135.907589,264.898947 148.1428,212.46008 154.874559,192.997092 Z" id="Oval-2" stroke="#64985B" stroke-width="4" fill="#64985B" transform="translate(154.261929, 203.303174) rotate(-4.000000) translate(-154.261929, -203.303174) "></path>
                <path d="M83.3333179,222.02853 C83.5374051,219.104137 84.8036542,216.290978 84.8036542,216.290978 C84.8036542,216.290978 99.1380648,186.933628 104.13643,167.573001 C109.134795,148.212375 118.299512,128.028071 118.299512,128.028071 C118.322345,127.977507 118.296616,127.93707 118.250812,127.938497 C118.250812,127.938497 98.4961071,127.747723 72.2224284,175.070399 C55.0087373,213.968376 19.9972379,262.976399 19.9972379,262.976399 L65.8633801,266.190057 C65.8633801,266.190057 83.864261,229.75167 84.0004245,227.800564 C84.1365881,225.849458 83.1292306,224.952924 83.3333179,222.02853 Z" id="Oval-2" stroke="#8CA35F" stroke-width="4" fill="#8CA35F" transform="translate(69.155810, 197.064246) scale(-1, 1) rotate(-4.000000) translate(-69.155810, -197.064246) "></path>
                <path d="M107.654372,258.960022 C107.752901,260.614886 107.805639,263.293226 107.806019,264.948988 C107.806019,264.948988 106.558576,296.491306 120.295648,262.829641 C129.907725,228.728721 135.142633,204.778663 142.018097,178.187851 C154.632033,122.290573 181.064271,80.844915 181.064271,80.844915 C181.20677,80.6176253 181.152182,80.5749059 180.943188,80.7512859 C180.943188,80.7512859 146.97632,108.572646 125.144846,157.905479 C103.313373,207.238312 107.654372,258.960022 107.654372,258.960022 Z" id="Oval-2" stroke="#8CA35F" stroke-width="4" fill="#8CA35F" transform="translate(144.237652, 179.450287) rotate(-4.000000) translate(-144.237652, -179.450287) "></path>
                <path d="M7.2791607,257.792977 C7.06398095,259.42586 7.97630426,259.950868 9.28527699,258.953601 C9.28527699,258.953601 58.6191609,224.1192 68.5682208,171.1355 C78.5172808,118.1518 115.353599,55.1565441 115.353599,55.1565441 C115.376645,55.1169844 115.362758,55.1145131 115.315246,55.1577998 C115.315246,55.1577998 56.882199,108.125956 35.0507255,157.458788 C13.219252,206.791621 7.2791607,257.792977 7.2791607,257.792977 Z" id="Oval-2" stroke="#64985B" stroke-width="4" fill="#64985B" transform="translate(61.288443, 157.356858) scale(-1, 1) rotate(-4.000000) translate(-61.288443, -157.356858) "></path>
                <path d="M102.529846,272.227115 L108.356897,65.6848267" id="Line" stroke="#8CA35F" stroke-width="4" stroke-linecap="round"></path>
                <path d="M49.6295042,261.597194 C49.7333967,263.245935 51.1537147,264.676119 52.8080484,264.792032 L62.3024581,265.457267 C76.0395306,231.795602 89.4757043,218.259571 103.023647,177.767512 C116.571591,137.275452 122.966778,80.5276978 122.966778,80.5276978 C122.972613,80.4764856 122.938387,80.467121 122.901262,80.4979454 C122.901262,80.4979454 88.6313756,108.574246 66.7999021,157.907078 C44.9684286,207.239911 49.6295042,261.597194 49.6295042,261.597194 Z" id="Oval-2" stroke="#A2AE88" stroke-width="4" fill="#A2AE88" transform="translate(86.095828, 172.966245) scale(-1, 1) rotate(-4.000000) translate(-86.095828, -172.966245) "></path>
                <g id="Rectangle">
                    <use fill="#D1CAD8" fill-rule="evenodd" xlink:href="#path-1"></use>
                    <path stroke="#D1CAD8" stroke-width="4" d="M45.8234957,258.275951 L45.8318759,258.247715 C45.8292655,258.257411 45.8264713,258.266823 45.8234957,258.275951 Z M45.7450947,258.536688 C45.7522524,258.537803 45.7595296,258.538934 45.7669243,258.540084 C46.0195771,258.579358 46.3181645,258.624801 46.6614278,258.675899 C47.6390631,258.82143 48.7802708,258.983393 50.074985,259.157666 C53.7688114,259.654868 57.9556072,260.1518 62.5549107,260.615467 C75.6932854,261.939977 89.5128492,262.73466 103.372029,262.73466 C117.230065,262.73466 131.24862,261.938408 144.719886,260.61135 C149.435091,260.146853 153.746143,259.64906 157.564235,259.151031 C158.902261,258.9765 160.083647,258.814313 161.097282,258.668602 C161.334134,258.634554 161.55055,258.603018 161.746118,258.574147 C161.764936,258.754864 161.784986,258.953451 161.80605,259.169172 C161.898574,260.116695 161.991245,261.193191 162.077812,262.3774 C162.497503,268.118617 162.62249,274.069137 162.275767,279.605379 C162.123132,282.042559 161.881049,284.321848 161.542652,286.413306 C161.482613,286.785907 161.419071,287.158894 161.351852,287.533517 C159.73242,296.558805 156.053338,306.26581 150.933187,316.141508 C148.440068,320.950214 145.767276,325.484155 143.095483,329.602346 C142.161505,331.04194 141.295137,332.325684 140.518968,333.436121 C140.248544,333.823008 140.009105,334.160079 139.803477,334.44516 C139.681997,334.613578 139.599955,334.72568 139.560172,334.779292 C139.281438,335.167756 138.57936,335.71734 138.195197,335.863638 L138.075236,335.913846 C138.018131,335.93996 137.873075,336.001922 137.639414,336.094744 C137.229564,336.257556 136.729819,336.441239 136.139518,336.6408 C134.426141,337.220038 132.34275,337.802814 129.883997,338.349159 C122.801099,339.923008 114.153898,340.870387 103.899079,340.870387 C93.6444131,340.870387 84.9976764,339.922072 77.9154449,338.346674 C75.456944,337.799796 73.3738148,337.216453 71.660695,336.636657 C71.0704907,336.436905 70.5708368,336.253049 70.1610713,336.090085 C69.9274688,335.997181 69.7824608,335.935169 69.7253915,335.909041 L69.6299574,335.86831 C69.2540641,335.719285 68.605196,335.185045 68.3836783,334.838655 C68.3032763,334.718272 68.1915002,334.548948 68.0260705,334.293021 C67.7461358,333.859949 67.4201942,333.344486 67.0520754,332.748747 C65.9954272,331.03874 64.8159293,329.032904 63.5442069,326.748194 C59.9039052,320.20822 56.2611498,312.754963 52.8605656,304.524521 C50.4122966,298.598971 48.1806342,292.479635 46.2148121,286.194094 C43.9139107,276.862051 43.8329115,268.484186 45.0677721,261.561005 C45.2344577,260.626491 45.412013,259.81053 45.5880662,259.120122 C45.6515956,258.870986 45.7049393,258.675943 45.7450947,258.536688 Z"></path>
                </g>
                <g id="Rectangle">
                    <use fill="#15304F" fill-rule="evenodd" xlink:href="#path-2"></use>
                    <path stroke="#13314D" stroke-width="4" d="M146.449083,324.259961 C145.08084,326.547979 143.688038,328.744163 142.308585,330.814746 C141.578655,331.910383 140.905277,332.89098 140.304861,333.742044 C140.095667,334.038567 139.910838,334.297319 139.752424,334.516491 C139.658838,334.645972 139.595753,334.732282 139.565217,334.773616 C139.284985,335.16384 138.578971,335.717488 138.195197,335.863638 L138.075236,335.913846 C138.018131,335.93996 137.873075,336.001922 137.639414,336.094744 C137.229564,336.257556 136.729819,336.441239 136.139518,336.6408 C134.426141,337.220038 132.34275,337.802814 129.883997,338.349159 C122.801099,339.923008 114.153898,340.870387 103.899079,340.870387 C93.6444131,340.870387 84.9976764,339.922072 77.9154449,338.346674 C75.456944,337.799796 73.3738148,337.216453 71.660695,336.636657 C71.0704907,336.436905 70.5708368,336.253049 70.1610713,336.090085 C69.9274688,335.997181 69.7824608,335.935169 69.7253915,335.909041 L69.6299574,335.86831 C69.2685323,335.725021 68.6237703,335.186526 68.4149837,334.852671 C68.3732078,334.787375 68.3151091,334.696238 68.2294765,334.560789 C68.0852059,334.332591 67.9171416,334.064417 67.7271596,333.758444 C67.1826547,332.881499 66.5729114,331.879366 65.9129478,330.769497 C64.6726177,328.683619 63.4229141,326.501372 62.1980559,324.262744 C64.8189835,324.650247 67.7944335,325.035687 71.0886199,325.396904 C81.2051415,326.506209 92.2605718,327.171576 103.899079,327.171576 C115.535893,327.171576 126.778727,326.506425 137.209151,325.397614 C140.617675,325.035269 143.711853,324.64858 146.449083,324.259961 Z"></path>
                </g>
                <path d="M109.867027,63.6637409 C120.355499,63.6637409 126.229786,47.4257749 126.229786,34.6938183 C126.229786,21.9618617 119.318746,4.28161785 116.119421,4.28161785 C112.920096,4.28161785 99.8937783,19.190411 96.9916118,33.9726794 C94.0894453,48.7549477 99.3785552,63.6637409 109.867027,63.6637409 Z" id="Path-7" stroke="#FF5994" stroke-width="3" fill="#FF5994"></path>
                <path d="M118.607604,63.6637409 C129.096076,63.6637409 134.970363,47.4257749 134.970363,34.6938183 C134.970363,21.9618617 128.059323,4.28161785 124.859998,4.28161785 C121.660673,4.28161785 108.634355,19.190411 105.732189,33.9726794 C102.830022,48.7549477 108.119132,63.6637409 118.607604,63.6637409 Z" id="Path-7" stroke="#F0B1C9" stroke-width="3" fill="#F0B1C9" opacity="0.604959239" transform="translate(119.956939, 33.972679) rotate(14.000000) translate(-119.956939, -33.972679) "></path>
                <path d="M101.12645,63.6637409 C111.614921,63.6637409 117.489208,47.4257749 117.489208,34.6938183 C117.489208,21.9618617 110.578169,4.28161785 107.378844,4.28161785 C104.179519,4.28161785 91.1532012,19.190411 88.2510347,33.9726794 C85.3488682,48.7549477 90.637978,63.6637409 101.12645,63.6637409 Z" id="Path-7" stroke="#F0B1C9" stroke-width="3" fill="#F0B1C9" transform="translate(102.475784, 33.972679) rotate(-21.000000) translate(-102.475784, -33.972679) "></path>
                <ellipse id="Oval-5" stroke="#13314D" fill="#15304F" cx="48.6296202" cy="274.416609" rx="2.91352572" ry="2.91932563"></ellipse>
                <ellipse id="Oval-5" stroke="#13314D" fill="#15304F" cx="64.6540116" cy="286.093912" rx="2.91352572" ry="2.91932563"></ellipse>
                <ellipse id="Oval-5" stroke="#13314D" fill="#15304F" cx="61.7404859" cy="262.739307" rx="2.91352572" ry="2.91932563"></ellipse>
                <ellipse id="Oval-5" stroke="#13314D" fill="#15304F" cx="77.7648774" cy="271.497284" rx="2.91352572" ry="2.91932563"></ellipse>
                <ellipse id="Oval-5" stroke="#13314D" fill="#15304F" cx="85.0486916" cy="293.392226" rx="2.91352572" ry="2.91932563"></ellipse>
                <ellipse id="Oval-5" stroke="#13314D" fill="#15304F" cx="71.9378259" cy="306.529191" rx="2.91352572" ry="2.91932563"></ellipse>
                <path d="M52.9999088,303.609865 C54.6090046,303.609865 55.9134345,302.302839 55.9134345,300.69054 C55.9134345,299.078241 54.6090046,297.771214 52.9999088,297.771214 C51.390813,297.771214 50.4106069,299.078241 50.4106069,300.69054 C50.4106069,302.302839 51.390813,303.609865 52.9999088,303.609865 Z" id="Oval-5" stroke="#13314D" fill="#15304F"></path>
                <ellipse id="Oval-5" stroke="#13314D" fill="#15304F" cx="87.9622174" cy="318.206494" rx="2.91352572" ry="2.91932563"></ellipse>
                <ellipse id="Oval-5" stroke="#13314D" fill="#15304F" cx="61.7404859" cy="319.666156" rx="2.91352572" ry="2.91932563"></ellipse>
                <ellipse id="Oval-5" stroke="#13314D" fill="#15304F" cx="105.443372" cy="307.988854" rx="2.91352572" ry="2.91932563"></ellipse>
                <ellipse id="Oval-5" stroke="#13314D" fill="#15304F" cx="103.986609" cy="284.634249" rx="2.91352572" ry="2.91932563"></ellipse>
                <ellipse id="Oval-5" stroke="#13314D" fill="#15304F" cx="99.6163202" cy="267.118295" rx="2.91352572" ry="2.91932563"></ellipse>
                <ellipse id="Oval-5" stroke="#13314D" fill="#15304F" cx="121.467763" cy="272.956946" rx="2.91352572" ry="2.91932563"></ellipse>
                <ellipse id="Oval-5" stroke="#13314D" fill="#15304F" cx="122.924526" cy="293.392226" rx="2.91352572" ry="2.91932563"></ellipse>
                <ellipse id="Oval-5" stroke="#13314D" fill="#15304F" cx="133.121866" cy="309.448517" rx="2.91352572" ry="2.91932563"></ellipse>
                <ellipse id="Oval-5" stroke="#13314D" fill="#15304F" cx="152.059783" cy="309.448517" rx="2.91352572" ry="2.91932563"></ellipse>
                <ellipse id="Oval-5" stroke="#13314D" fill="#15304F" cx="118.554237" cy="324.045145" rx="2.91352572" ry="2.91932563"></ellipse>
                <ellipse id="Oval-5" stroke="#13314D" fill="#15304F" cx="146.232732" cy="294.851889" rx="2.91352572" ry="2.91932563"></ellipse>
                <ellipse id="Oval-5" stroke="#13314D" fill="#15304F" cx="140.40568" cy="275.876272" rx="2.91352572" ry="2.91932563"></ellipse>
                <ellipse id="Oval-5" stroke="#13314D" fill="#15304F" cx="159.343597" cy="281.714923" rx="2.91352572" ry="2.91932563"></ellipse>
                <ellipse id="Oval-5" stroke="#13314D" fill="#15304F" cx="153.516546" cy="262.739307" rx="2.91352572" ry="2.91932563"></ellipse>
            </g>
        </g>
    </g>
</svg>