<?xml version="1.0" encoding="UTF-8"?>
<svg width="127px" height="250px" viewBox="0 0 127 250" version="1.1" xmlns="http://www.w3.org/2000/svg" xmlns:xlink="http://www.w3.org/1999/xlink">
    <!-- Generator: Sketch 43.2 (39069) - http://www.bohemiancoding.com/sketch -->
    <title>Group 2</title>
    <desc>Created with Sketch.</desc>
    <defs>
        <path d="M17.0454545,163.450597 C17.0454545,162.346833 17.9489143,161.452055 19.0376384,161.452055 L109.3929,161.452055 C110.493153,161.452055 111.385084,162.347265 111.385084,163.450597 L111.385084,175.09589 L17.0454545,175.09589 L17.0454545,163.450597 Z" id="path-1"></path>
    </defs>
    <g id="Page-1" stroke="none" stroke-width="1" fill="none" fill-rule="evenodd">
        <g id="Desktop-Landscape" transform="translate(-684.000000, -282.000000)">
            <g id="Group-2" transform="translate(685.000000, 283.000000)">
                <path d="M17.0454545,163.445108 C17.0454545,162.344375 17.9489887,161.452055 19.0378025,161.452055 L109.400509,161.452055 C110.500852,161.452055 111.389359,162.347065 111.385069,163.445108 L111.058537,247.006947 C111.054236,248.10768 110.150491,249 109.043824,249 L19.0523788,249 C17.9439851,249 17.0454545,248.10499 17.0454545,247.006947 L17.0454545,163.445108 Z" id="Rectangle-11" fill="#FFFFFF"></path>
                <g id="Group" transform="translate(18.181818, 191.013699)" stroke="#576660" stroke-width="3" fill="#576660">
                    <path d="M0.36369482,35.3253348 C2.4547116,35.3253348 8.97454218,28.2140872 8.97454218,17.9334829 C8.97454218,7.65287866 2.50957594,0.974250222 0.36369482,0.974250222 L0.36369482,35.3253348 Z" id="Oval-6"></path>
                </g>
                <g id="Group" transform="translate(105.363636, 209.013699) scale(-1, 1) translate(-105.363636, -209.013699) translate(100.363636, 191.013699)" stroke="#576660" stroke-width="3" fill="#576660">
                    <path d="M0.603254949,35.2618093 C2.69427173,35.2618093 9.21410231,28.1505617 9.21410231,17.8699574 C9.21410231,7.58935313 2.74913607,0.712711619 0.603254949,0.712711619 L0.603254949,35.2618093 Z" id="Oval-6"></path>
                </g>
                <g id="Group" transform="translate(28.272727, 191.013699)" stroke="#576660" stroke-width="3" fill="#576660">
                    <path d="M8.09090909,35.1277327 C10.1819259,35.1277327 16.1686478,28.1505617 16.1686478,17.8699574 C16.1686478,7.58935313 10.2367902,0.846646296 8.09090909,0.846646296 C5.94502797,0.846646296 0.110135746,7.47398185 0.110135746,17.8699574 C0.110135746,28.2659329 5.99989231,35.1277327 8.09090909,35.1277327 Z" id="Oval-6"></path>
                </g>
                <g id="Group" transform="translate(46.454545, 191.013699)" stroke="#576660" stroke-width="3" fill="#576660">
                    <path d="M8.09090909,35.1277327 C10.1819259,35.1277327 16.1686478,28.1505617 16.1686478,17.8699574 C16.1686478,7.58935313 10.2367902,0.846646296 8.09090909,0.846646296 C5.94502797,0.846646296 0.110135746,7.47398185 0.110135746,17.8699574 C0.110135746,28.2659329 5.99989231,35.1277327 8.09090909,35.1277327 Z" id="Oval-6"></path>
                </g>
                <g id="Group" transform="translate(64.636364, 191.013699)" stroke="#576660" stroke-width="3" fill="#576660">
                    <path d="M8.09090909,35.1277327 C10.1819259,35.1277327 16.1686478,28.1505617 16.1686478,17.8699574 C16.1686478,7.58935313 10.2367902,0.846646296 8.09090909,0.846646296 C5.94502797,0.846646296 0.110135746,7.47398185 0.110135746,17.8699574 C0.110135746,28.2659329 5.99989231,35.1277327 8.09090909,35.1277327 Z" id="Oval-6"></path>
                </g>
                <g id="Group" transform="translate(82.818182, 191.013699)" stroke="#576660" stroke-width="3" fill="#576660">
                    <path d="M8.09090909,35.1277327 C10.1819259,35.1277327 16.1686478,28.1505617 16.1686478,17.8699574 C16.1686478,7.58935313 10.2367902,0.846646296 8.09090909,0.846646296 C5.94502797,0.846646296 0.110135746,7.47398185 0.110135746,17.8699574 C0.110135746,28.2659329 5.99989231,35.1277327 8.09090909,35.1277327 Z" id="Oval-6"></path>
                </g>
                <path d="M85.8725105,163.611284 L85.8725105,110.604694 C85.8725105,110.604694 96.9507718,107.091299 103.734631,102.521272 C127.605465,78.872624 129.98403,56.2018306 114.752977,56.2018306 C103.734631,56.2018306 102.64803,71.1661713 97.7878206,82.7499198 C92.927611,94.3336684 85.9529292,96.2199386 85.9529292,96.2199386 C85.9085152,96.2333506 85.872739,96.2089315 85.8732018,96.1369651 C85.8732018,96.1369651 86.1893794,47.5704133 85.8725105,44.1044954 C85.5556416,40.6385776 84.8326415,40.1405001 84.4999991,37.3461482 C84.1673566,34.5517962 85.1133357,31.534228 84.4999991,28.8240707 C83.8866624,26.1139134 85.8725105,-4.80090102 63.6363636,1.3661766 C41.4002168,7.53325422 41.2867181,73.958866 41.9232828,76.916543 C42.5598474,79.8742201 44.7049723,80.2435596 44.7049723,88.6849315 C44.7049723,97.1263034 41.9449811,103.383824 41.9232828,105.728574 C41.9015844,108.073323 41.9232134,138.414625 41.9232134,138.414625 C41.9232517,138.469043 41.8843076,138.516181 41.8240949,138.51786 C41.8240949,138.51786 33.3253352,139.605902 22.5574625,108.602676 C11.7895898,77.5994502 21.4339655,42.1962022 10.7285552,42.1962022 C0.0231449811,42.1962022 1.0916292,53.3260659 0.734119108,68.1129413 C0.376609012,82.8998167 6.12473841,115.327165 10.7285552,124.244806 C18.6675906,139.622799 41.748423,151.592358 41.748423,151.592358 C41.8449954,151.643261 41.9232828,151.773669 41.9232828,151.891536 L41.9232828,163.611284 L85.8725105,163.611284 Z" id="Path-32" stroke="#8CA35F" stroke-width="3" fill="#8CA35F"></path>
                <path d="M81.25,22.4554795 L85.7954545,22.4554795" id="Line" stroke="#4A4A4A" stroke-width="1.5" stroke-linecap="square"></path>
                <path d="M72.570109,12.9080317 L76.2935274,15.5166259" id="Line" stroke="#4A4A4A" stroke-width="1.5" stroke-linecap="square"></path>
                <path d="M63.8490126,6.28142103 L64.5600783,10.7733735" id="Line" stroke="#4A4A4A" stroke-width="1.5" stroke-linecap="square"></path>
                <path d="M52.4369608,7.01367552 L55.5944989,10.2851935" id="Line" stroke="#4A4A4A" stroke-width="1.5" stroke-linecap="square"></path>
                <path d="M58.3492222,17.9419202 L56.5004193,22.0966749" id="Line" stroke="#4A4A4A" stroke-width="1.5" stroke-linecap="square"></path>
                <path d="M46.7268508,25.2332739 L49.9409725,28.4491568" id="Line" stroke="#4A4A4A" stroke-width="1.5" stroke-linecap="square"></path>
                <path d="M59.3028931,31.4237073 L60.092203,35.902559" id="Line" stroke="#4A4A4A" stroke-width="1.5" stroke-linecap="square"></path>
                <path d="M58.4323094,53.3690966 L58.2736753,57.9142713" id="Line" stroke="#4A4A4A" stroke-width="1.5" stroke-linecap="square"></path>
                <path d="M48.4475597,65.9135782 L47.1946626,70.2853437" id="Line" stroke="#4A4A4A" stroke-width="1.5" stroke-linecap="square"></path>
                <path d="M50.8954159,40.6867309 L52.5981732,44.9035123" id="Line" stroke="#4A4A4A" stroke-width="1.5" stroke-linecap="square"></path>
                <path d="M40.441408,53.5395308 L44.8703629,52.5164658" id="Line" stroke="#4A4A4A" stroke-width="1.5" stroke-linecap="square"></path>
                <path d="M67.5331481,22.2963865 L67.7710388,26.8380989" id="Line" stroke="#4A4A4A" stroke-width="1.5" stroke-linecap="square"></path>
                <path d="M76.0944729,30.1855313 L75.1494197,34.634093" id="Line" stroke="#4A4A4A" stroke-width="1.5" stroke-linecap="square"></path>
                <path d="M83.7179863,41.8586137 L81.1762004,45.6290312" id="Line" stroke="#4A4A4A" stroke-width="1.5" stroke-linecap="square"></path>
                <path d="M68.1399274,42.6923807 L67.1948743,47.1409423" id="Line" stroke="#4A4A4A" stroke-width="1.5" stroke-linecap="square"></path>
                <path d="M74.2916811,55.1861736 L74.6878436,59.7168125" id="Line" stroke="#4A4A4A" stroke-width="1.5" stroke-linecap="square"></path>
                <path d="M65.8468471,66.4870933 L64.9795335,70.9514799" id="Line" stroke="#4A4A4A" stroke-width="1.5" stroke-linecap="square"></path>
                <path d="M54.2167081,78.1263201 L56.2093042,82.2139862" id="Line" stroke="#4A4A4A" stroke-width="1.5" stroke-linecap="square"></path>
                <path d="M53.3483424,96.4150813 L53.1897083,100.960256" id="Line" stroke="#4A4A4A" stroke-width="1.5" stroke-linecap="square"></path>
                <path d="M44.7835952,111.396888 L45.8832402,115.80974" id="Line" stroke="#4A4A4A" stroke-width="1.5" stroke-linecap="square"></path>
                <path d="M37.9896125,126.510981 L41.3675435,123.467811" id="Line" stroke="#4A4A4A" stroke-width="1.5" stroke-linecap="square"></path>
                <path d="M41.3795851,86.9039464 L44.7039201,90.0056375" id="Line" stroke="#4A4A4A" stroke-width="1.5" stroke-linecap="square"></path>
                <path d="M74.742176,77.8393651 L74.2670466,82.3623962" id="Line" stroke="#4A4A4A" stroke-width="1.5" stroke-linecap="square"></path>
                <path d="M75.0072248,100.123571 L75.4823542,104.646602" id="Line" stroke="#4A4A4A" stroke-width="1.5" stroke-linecap="square"></path>
                <path d="M72.1139233,119.313641 L71.5599717,123.827687" id="Line" stroke="#4A4A4A" stroke-width="1.5" stroke-linecap="square"></path>
                <path d="M80.0684687,131.82049 L79.5145171,136.334536" id="Line" stroke="#4A4A4A" stroke-width="1.5" stroke-linecap="square"></path>
                <path d="M75.0777379,147.902678 L73.228935,152.057432" id="Line" stroke="#4A4A4A" stroke-width="1.5" stroke-linecap="square"></path>
                <path d="M88.6411085,157.904416 L84.6655644,155.699529" id="Line" stroke="#4A4A4A" stroke-width="1.5" stroke-linecap="square"></path>
                <path d="M63.8793001,135.743396 L66.2880241,139.600272" id="Line" stroke="#4A4A4A" stroke-width="1.5" stroke-linecap="square"></path>
                <path d="M12.5766467,133.620659 L17.1048045,134.017039" id="Line" stroke="#4A4A4A" stroke-width="1.5" stroke-linecap="square"></path>
                <path d="M57.0051255,153.150733 L56.7672348,157.692445" id="Line" stroke="#4A4A4A" stroke-width="1.5" stroke-linecap="square"></path>
                <path d="M89.0133262,119.535824 L86.5376942,123.350051" id="Line" stroke="#4A4A4A" stroke-width="1.5" stroke-linecap="square"></path>
                <path d="M55.5393898,124.046373 L56.4067034,128.51076" id="Line" stroke="#4A4A4A" stroke-width="1.5" stroke-linecap="square"></path>
                <path d="M17.08592,123.434962 L20.1859126,126.761119" id="Line" stroke="#4A4A4A" stroke-width="1.5" stroke-linecap="square"></path>
                <path d="M19.9308174,111.459744 L19.6137425,115.996611" id="Line" stroke="#4A4A4A" stroke-width="1.5" stroke-linecap="square"></path>
                <path d="M13.1126356,97.8159084 L12.7955607,102.352775" id="Line" stroke="#4A4A4A" stroke-width="1.5" stroke-linecap="square"></path>
                <path d="M7.4308174,72.8022097 L7.11374252,77.3390764" id="Line" stroke="#4A4A4A" stroke-width="1.5" stroke-linecap="square"></path>
                <path d="M11.9236993,52.3157251 L7.65236918,53.871214" id="Line" stroke="#4A4A4A" stroke-width="1.5" stroke-linecap="square"></path>
                <path d="M9.4289891,39.5867712 L7.87435208,43.8604418" id="Line" stroke="#4A4A4A" stroke-width="1.5" stroke-linecap="square"></path>
                <path d="M15.731749,61.779763 L12.6317564,65.1059195" id="Line" stroke="#4A4A4A" stroke-width="1.5" stroke-linecap="square"></path>
                <path d="M2.11580496,59.0061922 L3.52042767,63.3315451" id="Line" stroke="#4A4A4A" stroke-width="1.5" stroke-linecap="square"></path>
                <path d="M16.046436,81.3517044 L12.4162746,84.0887261" id="Line" stroke="#4A4A4A" stroke-width="1.5" stroke-linecap="square"></path>
                <path d="M2.11193817,89.1204885 L6.08748229,91.3253761" id="Line" stroke="#4A4A4A" stroke-width="1.5" stroke-linecap="square"></path>
                <path d="M8.22478306,109.966526 L11.0853303,113.500943" id="Line" stroke="#4A4A4A" stroke-width="1.5" stroke-linecap="square"></path>
                <path d="M21.8700717,97.1184946 L20.1673144,101.335276" id="Line" stroke="#4A4A4A" stroke-width="1.5" stroke-linecap="square"></path>
                <path d="M48.0832687,137.513893 L48.2419028,142.059067" id="Line" stroke="#4A4A4A" stroke-width="1.5" stroke-linecap="square"></path>
                <path d="M28.4090909,129.616438 L28.567725,134.161613" id="Line" stroke="#4A4A4A" stroke-width="1.5" stroke-linecap="square"></path>
                <path d="M34.7453474,141.284082 L38.5574863,143.761071" id="Line" stroke="#4A4A4A" stroke-width="1.5" stroke-linecap="square"></path>
                <path d="M38.357927,156.509066 L41.3994297,159.888848" id="Line" stroke="#4A4A4A" stroke-width="1.5" stroke-linecap="square"></path>
                <path d="M85.3822298,86.5278025 L83.3186366,90.5800514" id="Line" stroke="#4A4A4A" stroke-width="1.5" stroke-linecap="square"></path>
                <path d="M64.6284446,88.7982016 L65.4177545,93.2770533" id="Line" stroke="#4A4A4A" stroke-width="1.5" stroke-linecap="square"></path>
                <path d="M90.9090909,86.4109589 L91.6984008,90.8898106" id="Line" stroke="#4A4A4A" stroke-width="1.5" stroke-linecap="square"></path>
                <path d="M91.5217899,99.1717355 L88.9146243,102.897194" id="Line" stroke="#4A4A4A" stroke-width="1.5" stroke-linecap="square"></path>
                <path d="M103.743529,93.2328767 L101.136364,96.9583353" id="Line" stroke="#4A4A4A" stroke-width="1.5" stroke-linecap="square"></path>
                <path d="M102.162971,80.3317339 L102.716922,84.8457795" id="Line" stroke="#4A4A4A" stroke-width="1.5" stroke-linecap="square"></path>
                <path d="M111.321531,73.5279533 L109.545481,77.7143589" id="Line" stroke="#4A4A4A" stroke-width="1.5" stroke-linecap="square"></path>
                <path d="M121.210601,70.0037713 L120.110956,74.4166231" id="Line" stroke="#4A4A4A" stroke-width="1.5" stroke-linecap="square"></path>
                <path d="M107.288869,65.8628656 L104.490408,69.4466953" id="Line" stroke="#4A4A4A" stroke-width="1.5" stroke-linecap="square"></path>
                <path d="M117.516142,59.0409478 L114.717681,62.6247775" id="Line" stroke="#4A4A4A" stroke-width="1.5" stroke-linecap="square"></path>
                <path d="M65.2984613,107.712816 L62.5,111.296646" id="Line" stroke="#4A4A4A" stroke-width="1.5" stroke-linecap="square"></path>
                <path d="M116.075964,88.2340019 L111.531202,88.3133745" id="Line" stroke="#4A4A4A" stroke-width="1.5" stroke-linecap="square"></path>
                <path d="M85.752115,64.1943595 L82.594577,67.4658775" id="Line" stroke="#4A4A4A" stroke-width="1.5" stroke-linecap="square"></path>
                <path d="M75.498799,0.834667118 L73.3648374,4.85026439" id="Line" stroke="#4A4A4A" stroke-width="1.5" stroke-linecap="square"></path>
                <g id="Rectangle-11">
                    <use fill="#576660" fill-rule="evenodd" xlink:href="#path-1"></use>
                    <path stroke="#576660" stroke-width="3" d="M109.885084,173.59589 L18.5454545,173.59589 L18.5454545,163.450597 C18.5454545,163.179508 18.7730904,162.952055 19.0376384,162.952055 L109.3929,162.952055 C109.663455,162.952055 109.885084,163.174425 109.885084,163.450597 L109.885084,173.59589 Z"></path>
                </g>
            </g>
        </g>
    </g>
</svg>