<?xml version="1.0" encoding="UTF-8"?>
<svg width="170px" height="285px" viewBox="0 0 170 285" version="1.1" xmlns="http://www.w3.org/2000/svg" xmlns:xlink="http://www.w3.org/1999/xlink">
    <!-- Generator: Sketch 43.2 (39069) - http://www.bohemiancoding.com/sketch -->
    <title>Group</title>
    <desc>Created with Sketch.</desc>
    <defs>
        <rect id="path-1" x="42.3380282" y="219.589212" width="75.2676056" height="17.6141079" rx="2"></rect>
    </defs>
    <g id="Page-1" stroke="none" stroke-width="1" fill="none" fill-rule="evenodd">
        <g id="Desktop-Landscape" transform="translate(-265.000000, -248.000000)">
            <g id="Group" transform="translate(267.000000, 248.000000)">
                <path d="M70.6041262,86.3981148 C70.6041262,86.3981148 57.6141652,76.7109837 49.2495061,73.884221 C40.8848471,71.0574583 25.4453331,71.1370991 25.4453331,71.1370991" id="Path-42" stroke="#64985B" stroke-width="3" transform="translate(48.024730, 78.767494) rotate(-24.000000) translate(-48.024730, -78.767494) "></path>
                <path d="M101.722617,48.8650967 C101.722617,48.8650967 117.748783,43.4364505 125.226648,42.763548 C132.704514,42.0906455 142.48513,45.1970451 142.48513,45.1970451" id="Path-43" stroke="#64985B" stroke-width="3"></path>
                <ellipse id="Oval" fill="#D98444" cx="119.369718" cy="45.2095436" rx="9.99647887" ry="8.80705394"></ellipse>
                <ellipse id="Oval" fill="#D98444" cx="51.1584507" cy="119.188797" rx="9.99647887" ry="8.80705394"></ellipse>
                <ellipse id="Oval" fill="#D98444" cx="143.478873" cy="103.3361" rx="10.584507" ry="9.39419087"></ellipse>
                <path d="M79.4844691,222.282296 C79.4844691,222.282296 81.1478873,117.987966 81.1478873,107.767543 C81.1478873,97.5471206 79.377238,68.7360306 77.9007565,65.690636 C74.4641682,61.130541 71.0790499,57.5905785 66.2627259,48.4393711 C61.4464019,39.2881636 55.3584728,28.7678963 55.3584728,28.7678963" id="Path-39" stroke="#64985B" stroke-width="3" stroke-linecap="round"></path>
                <path d="M9.50838185,56.1648969 C8.63675766,56.1648969 3.94538969,47.8821633 7.29544587,39.6030505 C11.5861237,30.8228946 22.6023408,32.0078029 22.6023408,32.0078029 C22.7004166,32.016232 22.7679965,32.1117584 22.7526905,32.2200722 C22.7526905,32.2200722 21.7924104,39.7851978 18.3678194,46.0147607 C14.9432284,52.2443235 10.380006,56.1648969 9.50838185,56.1648969 Z" id="Path-40" stroke="#64985B" stroke-width="3" fill="#64985B" transform="translate(14.429726, 44.059587) scale(-1, 1) rotate(68.000000) translate(-14.429726, -44.059587) "></path>
                <path d="M141.352561,94.4471734 C140.480937,94.4471734 137.791887,89.7600873 139.139625,77.8853271 C143.430303,69.1051712 156.134377,72.1487901 156.134377,72.1487901 C156.224928,72.1688774 156.274605,72.2636855 156.240317,72.3740115 C156.240317,72.3740115 154.278786,79.0635525 149.986058,84.2924036 C145.69333,89.5212547 142.224186,94.4471734 141.352561,94.4471734 Z" id="Path-40" stroke="#64985B" stroke-width="3" fill="#64985B" transform="translate(147.509750, 83.042870) rotate(78.000000) translate(-147.509750, -83.042870) "></path>
                <path d="M62.0374189,96.794869 C61.1657947,96.794869 58.3208099,89.0674809 62.0374189,80.1738532 C65.7540279,71.2802256 76.5787303,73.2743004 76.5787303,73.2743004 C76.6853241,73.2913696 76.7503817,73.3975181 76.7274606,73.4935352 C76.7274606,73.4935352 74.9636436,81.4112481 70.6709155,86.6400992 C66.3781873,91.8689502 62.9090431,96.794869 62.0374189,96.794869 Z" id="Path-40" stroke="#64985B" stroke-width="3" fill="#64985B" transform="translate(68.453182, 84.939019) scale(-1, 1) rotate(26.000000) translate(-68.453182, -84.939019) "></path>
                <path d="M36.7474387,29.4184671 C36.7474387,29.4184671 38.3523447,18.6385172 43.3463486,12.2247504 C48.3403525,5.81098355 54.9914019,5.75465716 54.9914019,5.75465716 C55.0949926,5.75041261 55.1775662,5.83614098 55.1749693,5.95494437 C55.1749693,5.95494437 55.0664406,17.5854722 50.7737124,22.8143233 C46.4809842,28.0431744 36.7474387,29.4184671 36.7474387,29.4184671 Z" id="Path-40" stroke="#8CA35F" stroke-width="3" fill="#8CA35F" transform="translate(45.961234, 17.586487) scale(-1, 1) translate(-45.961234, -17.586487) "></path>
                <path d="M129.930443,103.633728 C129.930443,103.633728 131.535349,92.8537783 136.529352,86.4400114 C141.523356,80.0262446 148.174406,79.9699182 148.174406,79.9699182 C148.277996,79.9656736 148.36057,80.051402 148.357973,80.1702054 C148.357973,80.1702054 148.249444,91.8007333 143.956716,97.0295843 C139.663988,102.258435 129.930443,103.633728 129.930443,103.633728 Z" id="Path-40" stroke="#64985B" stroke-width="3" fill="#64985B" transform="translate(139.144238, 91.801748) scale(-1, 1) rotate(-171.000000) translate(-139.144238, -91.801748) "></path>
                <path d="M15.8434653,103.633535 C15.8434653,103.633535 17.4483712,92.8535857 22.4423751,86.4398188 C27.436379,80.026052 34.0874284,79.9697256 34.0874284,79.9697256 C34.1910191,79.9654811 34.2735927,80.0512094 34.2709959,80.1700128 C34.2709959,80.1700128 34.1624671,91.8005407 29.8697389,97.0293917 C25.5770108,102.258243 15.8434653,103.633535 15.8434653,103.633535 Z" id="Path-40" stroke="#64985B" stroke-width="3" fill="#64985B" transform="translate(25.057260, 91.801555) scale(-1, 1) rotate(-242.000000) translate(-25.057260, -91.801555) "></path>
                <path d="M42.337306,107.035717 C42.337306,107.035717 43.9422119,96.2557675 48.9362158,89.8420006 C53.9302197,83.4282338 60.5812691,83.3719074 60.5812691,83.3719074 C60.6848598,83.3676628 60.7674334,83.4533912 60.7648366,83.5721946 C60.7648366,83.5721946 60.6563078,95.2027225 56.3635796,100.431574 C52.0708515,105.660425 42.337306,107.035717 42.337306,107.035717 Z" id="Path-40" stroke="#64985B" stroke-width="3" fill="#64985B" transform="translate(51.551101, 95.203737) scale(-1, 1) rotate(14.000000) translate(-51.551101, -95.203737) "></path>
                <path d="M20.5879297,67.6109054 C20.5879297,67.6109054 22.1928356,56.8309556 27.1868395,50.4171888 C32.1808434,44.0034219 38.8318928,43.9470955 38.8318928,43.9470955 C38.9354835,43.942851 39.0180571,44.0285793 39.0154603,44.1473827 C39.0154603,44.1473827 38.9069315,55.7779106 34.6142034,61.0067616 C30.3214752,66.2356127 20.5879297,67.6109054 20.5879297,67.6109054 Z" id="Path-40" stroke="#64985B" stroke-width="3" fill="#64985B" transform="translate(29.801725, 55.778925) scale(-1, 1) rotate(-97.000000) translate(-29.801725, -55.778925) "></path>
                <path d="M24.4720948,76.2076995 C24.4720948,76.2076995 26.0770008,65.4277497 31.0710047,59.0139829 C36.0650086,52.600216 42.716058,52.5438896 42.716058,52.5438896 C42.8196487,52.5396451 42.9022223,52.6253735 42.8996254,52.7441769 C42.8996254,52.7441769 42.7910967,64.3747047 38.4983685,69.6035558 C34.2056403,74.8324068 24.4720948,76.2076995 24.4720948,76.2076995 Z" id="Path-40" stroke="#8CA35F" stroke-width="3" fill="#8CA35F" transform="translate(33.685890, 64.375719) scale(-1, 1) rotate(-60.000000) translate(-33.685890, -64.375719) "></path>
                <path d="M87.300817,139.777879 C87.300817,139.777879 98.9011206,132.130486 101.318971,126.95443 C103.736821,121.778374 104.760105,110.996111 104.760105,110.996111 C104.788204,110.722916 104.601775,110.591371 104.351658,110.702494 C104.351658,110.702494 94.9113057,114.611621 91.06868,121.036367 C87.2260543,127.461114 87.300817,139.777879 87.300817,139.777879 Z" id="Oval-2" stroke="#64985B" stroke-width="3" fill="#64985B" transform="translate(96.031810, 125.220450) rotate(25.000000) translate(-96.031810, -125.220450) "></path>
                <path d="M82.1034509,53.22651 C82.1034509,53.22651 90.3910505,47.7629871 92.1184339,44.0650597 C93.8458174,40.3671322 94.5618736,32.8025045 94.5618736,32.8025045 C94.5902371,32.5308122 94.4063119,32.4000855 94.1610996,32.5104778 C94.1610996,32.5104778 87.5406088,35.2469921 84.7953235,39.8370207 C82.0500382,44.4270493 82.1034509,53.22651 82.1034509,53.22651 Z" id="Oval-2" stroke="#8CA35F" stroke-width="3" fill="#8CA35F" transform="translate(88.334069, 42.848893) rotate(-33.000000) translate(-88.334069, -42.848893) "></path>
                <path d="M57.1021545,30.6487487 C56.2305303,30.6487487 53.5414799,25.9616626 54.8892185,14.0869023 C59.1798963,5.30674643 71.8839704,8.35036534 71.8839704,8.35036534 C71.9745208,8.37045265 72.0241978,8.46526077 71.9899104,8.57558673 C71.9899104,8.57558673 70.0283792,15.2651278 65.735651,20.4939789 C61.4429229,25.7228299 57.9737787,30.6487487 57.1021545,30.6487487 Z" id="Path-40" stroke="#64985B" stroke-width="3" fill="#64985B"></path>
                <path d="M79.9286529,89.5233839 C79.9286529,89.5233839 70.7854825,65.8267501 59.0905056,55.6868458 C47.3955287,45.5469416 27.872782,44.3893449 27.872782,44.3893449" id="Path-42" stroke="#64985B" stroke-width="3"></path>
                <path d="M44.8221805,119.197969 C44.8221417,119.253166 44.8591628,119.273333 44.9044829,119.243093 C44.9044829,119.243093 53.1097098,113.834389 54.8370932,110.136461 C56.5644767,106.438534 57.2805329,98.8739061 57.2805329,98.8739061 C57.3088964,98.6022138 57.1249712,98.4714871 56.8797589,98.5818795 C56.8797589,98.5818795 50.2592681,101.318394 47.5139828,105.908422 C44.7686975,110.498451 44.8221805,119.197969 44.8221805,119.197969 Z" id="Oval-2" stroke="#64985B" stroke-width="3" fill="#64985B" transform="translate(51.052764, 108.899911) rotate(219.000000) translate(-51.052764, -108.899911) "></path>
                <path d="M115.65344,99.7657318 C115.653401,99.8209286 115.690422,99.8410953 115.735742,99.8108561 C115.735742,99.8108561 123.940969,94.4021515 125.668353,90.7042241 C127.395736,87.0062967 128.111792,79.4416689 128.111792,79.4416689 C128.140156,79.1699766 127.956231,79.0392499 127.711018,79.1496423 C127.711018,79.1496423 121.090528,81.8861566 118.345242,86.4761851 C115.599957,91.0662137 115.65344,99.7657318 115.65344,99.7657318 Z" id="Oval-2" stroke="#8CA35F" stroke-width="3" fill="#8CA35F" transform="translate(121.884023, 89.467674) rotate(264.000000) translate(-121.884023, -89.467674) "></path>
                <path d="M107.344555,82.7225231 C107.344582,82.7776232 107.386362,82.8107426 107.450165,82.7927549 C107.450165,82.7927549 116.657403,80.2957051 120.648429,75.5399285 C124.639455,70.784152 124.872217,62.3968778 124.872217,62.3968778 C124.885999,62.1259628 124.687728,61.9702647 124.423809,62.0536084 C124.423809,62.0536084 114.986896,64.8268361 111.121591,69.4328014 C107.256286,74.0387666 107.344555,82.7225231 107.344555,82.7225231 Z" id="Oval-2" stroke="#64985B" stroke-width="3" fill="#64985B" transform="translate(116.108640, 72.414392) rotate(178.000000) translate(-116.108640, -72.414392) "></path>
                <path d="M5.04202203,93.7755093 C5.04204864,93.8306094 5.08382853,93.8637288 5.14763168,93.8457411 C5.14763168,93.8457411 14.3548699,91.3486912 18.345896,86.5929147 C22.3369221,81.8371382 22.5696841,73.4498639 22.5696841,73.4498639 C22.5834661,73.1789489 22.3851953,73.0232509 22.1212763,73.1065946 C22.1212763,73.1065946 12.6843628,75.8798223 8.81905765,80.4857876 C4.95375252,85.0917528 5.04202203,93.7755093 5.04202203,93.7755093 Z" id="Oval-2" stroke="#8CA35F" stroke-width="3" fill="#8CA35F" transform="translate(13.806107, 83.467379) rotate(392.000000) translate(-13.806107, -83.467379) "></path>
                <path d="M104.418633,105.535184 C104.418599,105.584052 104.451375,105.601907 104.501346,105.568546 C104.501346,105.568546 111.755955,100.786565 113.285285,97.5126241 C114.814616,94.2386827 115.442351,87.597884 115.442351,87.597884 C115.470899,87.326135 115.282522,87.1976546 115.032981,87.3107523 C115.032981,87.3107523 109.232331,89.7055925 106.801807,93.7693511 C104.371282,97.8331098 104.418633,105.535184 104.418633,105.535184 Z" id="Oval-2" stroke="#8CA35F" stroke-width="3" fill="#8CA35F" transform="translate(109.931891, 96.427650) rotate(304.000000) translate(-109.931891, -96.427650) "></path>
                <path d="M137.87783,63.3924242 C137.877795,63.4412924 137.910572,63.4591469 137.960543,63.4257857 C137.960543,63.4257857 145.215152,58.6438055 146.744482,55.3698641 C148.273812,52.0959227 148.901548,45.455124 148.901548,45.455124 C148.930095,45.183375 148.741719,45.0548946 148.492178,45.1679923 C148.492178,45.1679923 142.691528,47.5628325 140.261003,51.6265911 C137.830479,55.6903498 137.87783,63.3924242 137.87783,63.3924242 Z" id="Oval-2" stroke="#64985B" stroke-width="3" fill="#64985B" transform="translate(143.391087, 54.284890) rotate(304.000000) translate(-143.391087, -54.284890) "></path>
                <path d="M11.044044,82.190287 C11.0440096,82.2391552 11.076786,82.2570097 11.1267573,82.2236485 C11.1267573,82.2236485 18.3813662,77.4416682 19.9106964,74.1677269 C21.4400266,70.8937855 22.0677623,64.2529868 22.0677623,64.2529868 C22.0963095,63.9812378 21.9079332,63.8527574 21.6583918,63.9658551 C21.6583918,63.9658551 15.8577421,66.3606953 13.4272175,70.4244539 C10.996693,74.4882125 11.044044,82.190287 11.044044,82.190287 Z" id="Oval-2" stroke="#64985B" stroke-width="3" fill="#64985B" transform="translate(16.557302, 73.082753) rotate(431.000000) translate(-16.557302, -73.082753) "></path>
                <path d="M87.180797,78.5767636 C87.180797,78.5767636 96.6169764,72.3560501 98.5837581,68.1456263 C100.55054,63.9352026 101.373317,55.2535707 101.373317,55.2535707 C101.401479,54.9821229 101.222674,54.8490233 100.958844,54.9671843 C100.958844,54.9671843 93.3714915,58.1054614 90.2457367,63.3316228 C87.1199819,68.5577841 87.180797,78.5767636 87.180797,78.5767636 Z" id="Oval-2" stroke="#64985B" stroke-width="3" fill="#64985B" transform="translate(94.278471, 66.750337) rotate(27.000000) translate(-94.278471, -66.750337) "></path>
                <path d="M145.98772,59.8001352 C145.98772,59.8001352 155.4239,53.5794217 157.390682,49.368998 C159.357463,45.1585742 160.18024,36.4769423 160.18024,36.4769423 C160.208402,36.2054946 160.029597,36.072395 159.765768,36.1905559 C159.765768,36.1905559 152.178415,39.328833 149.05266,44.5549944 C145.926905,49.7811557 145.98772,59.8001352 145.98772,59.8001352 Z" id="Oval-2" stroke="#64985B" stroke-width="3" fill="#64985B" transform="translate(153.085394, 47.973708) rotate(76.000000) translate(-153.085394, -47.973708) "></path>
                <path d="M98.3701886,32.6313944 C98.3701886,32.6313944 108.934405,25.6670328 111.136304,20.9532787 C113.338202,16.2395246 114.265621,6.46191993 114.265621,6.46191993 C114.293679,6.19013039 114.108647,6.05925666 113.86078,6.16974157 C113.86078,6.16974157 105.300943,9.71287359 101.801523,15.5637905 C98.3021034,21.4147074 98.3701886,32.6313944 98.3701886,32.6313944 Z" id="Oval-2" stroke="#8CA35F" stroke-width="3" fill="#8CA35F" transform="translate(106.319265, 19.380952) rotate(-64.000000) translate(-106.319265, -19.380952) "></path>
                <path d="M122.967785,22.9547455 C122.967785,22.9547455 132.711063,21.2056845 134.908353,16.2318943 C137.105644,11.2581041 134.464324,1.76202632 134.464324,1.76202632 C134.395409,1.49754854 134.170405,1.42254525 133.960681,1.59890541 C133.960681,1.59890541 128.991622,5.60273216 126.246337,10.1927607 C123.501052,14.7827893 122.967785,22.9547455 122.967785,22.9547455 Z" id="Oval-2" stroke="#64985B" stroke-width="3" fill="#64985B" transform="translate(129.374770, 12.228993) rotate(6.000000) translate(-129.374770, -12.228993) "></path>
                <path d="M78.3799489,64.7124172 C78.3799489,64.7124172 92.6728153,56.0910919 106.144683,45.002691 C119.61655,33.9142902 121.8278,22.4827027 121.8278,22.4827027" id="Path-41" stroke="#64985B" stroke-width="3"></path>
                <ellipse id="Oval" fill="#D98444" cx="66.4471831" cy="68.6950207" rx="9.99647887" ry="8.80705394"></ellipse>
                <ellipse id="Oval" fill="#D98444" cx="36.3039624" cy="82.7863071" rx="11.2460387" ry="9.9813278"></ellipse>
                <path d="M81.1047092,134.145791 C81.1047092,134.145791 75.9554867,119.287062 71.836258,112.779554 C67.7170294,106.272046 62.5678069,104.861415 62.5678069,104.861415" id="Path-42" stroke="#64985B" stroke-width="3"></path>
                <path d="M127.322973,113.075643 C127.322973,113.075643 122.17375,98.2169147 118.054521,91.7094067 C113.935293,85.2018987 108.938645,82.5517697 108.938645,82.5517697 L89.58481,68.5792173" id="Path-42" stroke="#64985B" stroke-width="3" transform="translate(108.453891, 90.827430) scale(-1, 1) rotate(-25.000000) translate(-108.453891, -90.827430) "></path>
                <polygon id="Path-38" stroke="#BECBC5" stroke-width="4" fill="#BECBC5" points="50.0763059 234.945226 58.360707 282.855685 102.146626 282.855685 108.911361 235.497639"></polygon>
                <g id="Rectangle-13">
                    <use fill="#576660" fill-rule="evenodd" xlink:href="#path-1"></use>
                    <rect stroke="#576660" stroke-width="4" x="44.3380282" y="221.589212" width="71.2676056" height="13.6141079" rx="2"></rect>
                </g>
            </g>
        </g>
    </g>
</svg>