<?xml version="1.0" encoding="UTF-8"?>
<svg width="204px" height="287px" viewBox="0 0 204 287" version="1.1" xmlns="http://www.w3.org/2000/svg" xmlns:xlink="http://www.w3.org/1999/xlink">
    <!-- Generator: Sketch 43.2 (39069) - http://www.bohemiancoding.com/sketch -->
    <title>Pot</title>
    <desc>Created with Sketch.</desc>
    <defs></defs>
    <g id="Page-1" stroke="none" stroke-width="1" fill="none" fill-rule="evenodd">
        <g id="Desktop-Landscape" transform="translate(-954.000000, -243.000000)">
            <g id="Pot" transform="translate(955.000000, 244.000000)">
                <g id="Group-2">
                    <path d="M63.6669884,199.077498 C62.0388331,198.768257 60.5626437,199.846584 60.4074753,201.493645 C60.4074753,201.493645 57.7031829,219.930326 64.2780955,241.602505 C70.8530082,263.274683 85.7423737,282.190384 85.7423737,282.190384 C86.0730949,282.622844 86.7825387,282.973422 87.3380754,282.973422 L136.395594,282.973422 C136.946154,282.973422 137.647385,282.602419 137.953632,282.149542 C137.953632,282.149542 151.215945,263.185517 157.40923,242.436496 C163.602516,221.687474 162.631182,199.506794 162.631182,199.506794 C162.614697,198.96046 162.164996,198.603514 161.61451,198.708426 C161.61451,198.708426 139.433185,203.237141 111.325647,203.237141 C83.2181082,203.237141 63.6669884,199.077498 63.6669884,199.077498 Z" id="Path" stroke="#BECBC5" stroke-width="4" fill="#BECBC5"></path>
                    <path d="M59.0079442,227.103789 C59.0079442,227.103789 73.7467195,244.990811 94.3868585,259.937997 C115.026997,274.885182 137.040787,285.063388 137.040787,285.063388 L87.3391404,285.063388 C86.2373936,285.063388 84.8325593,284.332444 84.2018521,283.420815 C84.2018521,283.420815 72.7480962,267.274994 66.9002183,254.21082 C61.0523404,241.146647 59.0079442,227.103789 59.0079442,227.103789 Z" id="Line" fill="#13314D"></path>
                    <path d="M62.436245,198.596757 C62.436245,198.596757 85.4574911,194.633463 112.955868,194.633463 C140.454245,194.633463 160.52399,197.963185 160.52399,197.963185 C161.601742,198.127087 161.58003,198.26297 160.499599,198.266608 L62.436245,198.596757 Z" id="Line" stroke="#BECBC5" stroke-width="3" fill="#D8D8D8" stroke-linecap="square"></path>
                    <path d="M152.525929,196.021364 L153.794765,201.233387 C153.794765,201.233387 115.402469,200.165597 115.402469,198.217048 C115.402469,196.2685 152.525929,196.021364 152.525929,196.021364 Z" id="Path-3" fill="#303030" transform="translate(134.598617, 198.627375) scale(-1, 1) translate(-134.598617, -198.627375) "></path>
                    <path d="M103.525929,196.021364 L104.794765,201.233387 C104.794765,201.233387 66.4024688,200.165597 66.4024688,198.217048 C66.4024688,196.2685 103.525929,196.021364 103.525929,196.021364 Z" id="Path-3" fill="#303030"></path>
                    <path d="M154.784204,197.059198 C157.266939,197.059198 159.644122,156.903824 158.189465,126 C156.734807,95.0961757 153.11774,89.8058061 151.507549,90 C151.507549,90 147.764386,91.6504813 146.932326,90 C146.100266,88.3495187 149.95098,86.2250571 149.296427,84.3457011 C148.641874,82.4663451 142.211627,67.8577553 130.838146,49 C119.464664,30.1422447 109.404975,17.5346246 109.404975,17.5346246 C108.39532,16.2301681 107.838366,16.495408 108.155627,18.1197091 C108.155627,18.1197091 110.636784,30.4619805 113.739513,49 C116.842242,67.5380195 115.066677,69.1122291 117.822949,79.2128483 C126.3696,110.532855 137.780927,106.115948 140.872076,130 C143.963226,153.884052 150.65612,197.059198 154.784204,197.059198 Z" id="Leaf-Three" stroke="#678F49" stroke-width="3" fill="#678F49" transform="translate(133.350027, 106.882508) scale(-1, 1) translate(-133.350027, -106.882508) "></path>
                    <path d="M201.522636,199.753628 C201.522636,199.753628 198.270176,142.63439 187.47556,127.91539 C187.47556,127.91539 182.53217,110.310331 162.227559,106.057489 C154.200244,103.392647 145.480969,110.381468 137.589406,115.409337 C129.141545,119.665056 124.818274,119.673997 119.193616,126 C107.293594,141.108457 111.7274,169.018958 111.7274,169.018958 C111.802782,169.560773 111.840515,169.545235 111.826763,168.997754 C111.826763,168.997754 110.024766,146.549159 131.256471,133.425661 C145.043518,123.16247 161.284655,119.22791 170.875429,126 C183.82686,135.145066 192.970274,181.539667 197.57747,199.753628 L201.522636,199.753628 Z" id="Leaf-Three" stroke="#8CA35F" stroke-width="3" fill="#8CA35F" transform="translate(156.220828, 152.612138) scale(-1, 1) translate(-156.220828, -152.612138) "></path>
                    <g id="Leaf-Four" transform="translate(9.000000, 0.000000)">
                        <path d="M101,199.230686 C101,199.230686 98.0426947,100.731512 91.4157284,70 C84.788762,39.2684875 71.3266711,28.6454596 64.8649132,22.0492085 C61.8078681,18.928535 55.3210313,15.7728852 48.4381861,11.8212513 C41.5553409,7.86961741 32.356541,3.35877845 25.5858655,2.17955399 C12.7358931,-0.058479945 2.53927901,12.813658 2.53927901,12.813658 C1.43630322,14.0338728 1.61962793,14.2345822 2.99161979,13.2865134 C2.99161979,13.2865134 8.18567574,9.15255398 14.9105664,7.34638897 C21.6354572,5.54022395 26.9415356,7.2516231 30.3984004,8.35909252 C32.1097576,8.9073569 38.5566855,9.84828994 50.2225064,18.7351171 C61.8883273,27.6219443 77.1277643,39.2675369 77.1277643,67.5456496 C78.6156165,90.2858513 101,199.230686 101,199.230686 Z" stroke="#8CA35F" stroke-width="3" fill="#8CA35F"></path>
                        <path d="M75.6532181,57.0201931 C75.6532181,57.0201931 75.4738686,47.0096081 74.2055467,39.2967868 C72.9372247,31.5839656 71.0978618,29.6443687 69.9346859,26.6122274 C68.7715101,23.580086 60.4837073,16.0744809 48.3910448,9.77600008 C36.2983823,3.47751931 28.7033794,0.436833939 21.260234,0.436833939 C13.8170886,0.436833939 -0.69665379,12.3758626 0.920613638,14.5857458 C2.53788107,16.7956289 12.3469659,8.47262768 18.3766514,7.79424212 C24.406337,7.11585657 34.3823738,10.8210429 34.3823738,10.8210429 C34.3823738,10.8210429 50.5725244,19.1658274 60.6473576,29.2313071 C60.9057152,29.4894249 61.1606903,29.7525787 61.4122864,30.0203403 C70.9718493,40.1941251 75.6532181,57.0201931 75.6532181,57.0201931 Z" id="Line" stroke="#678F49" fill="#678F49" stroke-linecap="square"></path>
                    </g>
                    <g id="Leaf-Two" transform="translate(0.000000, 53.000000)" stroke-linecap="square">
                        <path d="M109.286788,145.882758 C113.980616,145.523886 91.4556841,37 91.4556841,37 C85.3156981,24.1980766 81.283746,13.9686446 67.5119352,7.64384172 C53.7401245,1.31903883 46.3544896,0.59631038 40.9627521,2.35155875 C35.5232413,4.12235943 31.9956945,9.55260463 25.9225096,12.9352458 C19.8493247,16.3178869 13.0242314,13.2023254 7.76884434,22.6643233 C-4.55297138,55.9659276 3.17716496,87.8464377 3.17716496,87.8464377 C3.50495769,89.456588 3.76912042,89.4195707 3.79900024,87.7662205 C3.79900024,87.7662205 3.17847653,60.7627329 15.313734,43.763123 C27.4489914,26.7635131 62.5950832,51.264151 67.5119352,67.5175278 C72.4287872,83.7709046 102.263907,146.4197 109.286788,145.882758 Z" stroke="#678F49" stroke-width="3" fill="#678F49"></path>
                        <path d="M24.7393261,11.9356559 C21.1263803,13.973966 16.3825752,13.6358128 13.3540093,15.1678706 C10.3254433,16.6999285 8.93668815,17.3677844 7.14666919,20.9853373 C5.35665023,24.6028902 2.24347817,33.1068596 0.761912769,47.2879079 C-0.719652637,61.4689562 0.330117173,90.5602614 3.25450382,90.5602614 C6.17889047,90.5602614 5.60612649,72.5412959 8.93668815,59.7651142 C12.2672498,46.9889325 18.7783855,41.9170563 18.7783855,41.9170563 C18.7783855,41.9170563 30.8504162,27.0789557 43.91844,19.6328384 C56.9864639,12.1867212 68.2285266,7.09880303 68.2285266,7.09880303 C68.7312133,6.86742107 68.7310699,6.51631856 68.2060034,6.30911905 C68.2060034,6.30911905 50.663079,-0.849809712 43.91844,0.239863456 C37.1738011,1.32953662 33.4398973,7.02706789 24.7393261,11.9356559 Z" id="Line" stroke="#8CA35F" fill="#8CA35F"></path>
                    </g>
                    <g id="Leaf-One" transform="translate(13.000000, 113.000000)">
                        <path d="M98.4067373,86.7520863 C98.4067373,86.7520863 95.4432068,29.7361466 84.6485908,15.0171468 C84.6485908,15.0171468 78.5112489,8.19858536 66.3078259,3.97770424 C54.104403,-0.243176874 37.6621606,3.97770424 37.6621606,3.97770424 C23.2922618,8.2444997 21.9019306,11.9862536 16.5852419,18.9904363 C14.3669983,21.9127409 11.4652747,25.4029522 6.65222779,29.7361466 C-5.66958793,63.0377509 7.9245888,94.197081 7.9245888,94.197081 C8.51970644,95.7450904 9.38547734,95.7144794 9.87902854,94.133766 C9.87902854,94.133766 16.2456286,71.5484456 28.3808861,54.5488357 C40.5161435,37.5492257 52.2370263,29.7361466 52.2370263,29.7361466 C52.2370263,29.7361466 66.3078259,38.2954589 71.2246779,54.5488357 C76.1415299,70.8022125 90.7310682,86.7520863 90.7310682,86.7520863 L98.4067373,86.7520863 Z" id="Path-2" stroke="#678F49" stroke-width="3" fill="#678F49"></path>
                        <path d="M52.5,30.5 C52.5,30.5 59.9484581,24.0595753 65.9070851,20.3929564 C71.8657121,16.7263374 83.4424419,12.421145 83.4424419,12.421145 C83.4424419,12.421145 73.8971306,0.88405276 55.0880092,0.287408966 C36.2788878,-0.309234828 23.2427652,9.11041512 23.2427652,9.11041512 C23.2427652,9.11041512 19.3655699,12.421145 14.0823535,20.3929564 C9.37611863,25.4271158 7.77505965,25.030376 5.52600652,28.7130827 C3.64725038,31.7894474 0.275152975,41.9473653 0.232400724,57.1813031 C0.189648473,72.4152409 5.56060966,96.5860141 8.71948554,96.5860141 C11.9398272,96.5860141 13.6141198,88.4697473 17.0611199,78.8331403 C20.5081199,69.1965332 23.9849878,62.5388922 28.5225185,56.608901 C37.0208417,43.7847108 52.5,30.5 52.5,30.5 Z" id="Line" stroke="#8CA35F" fill="#8CA35F" stroke-linecap="square"></path>
                    </g>
                </g>
            </g>
        </g>
    </g>
</svg>