<?xml version="1.0" encoding="UTF-8"?>
<svg width="1280px" height="850px" viewBox="0 0 1280 850" version="1.1" xmlns="http://www.w3.org/2000/svg" xmlns:xlink="http://www.w3.org/1999/xlink" style="background: #D3D1D2;">
    <!-- Generator: Sketch 43.2 (39069) - http://www.bohemiancoding.com/sketch -->
    <title>Desktop Landscape</title>
    <desc>Created with Sketch.</desc>
    <defs>
        <rect id="path-1" x="18.5739303" y="310.989767" width="131.446276" height="4.27967569"></rect>
        <path d="M43.9006434,257.727772 C44.114439,256.933668 44.9523126,256.393245 45.7734745,256.516445 C45.7734745,256.516445 71.859407,260.73466 103.372029,260.73466 C134.884652,260.73466 162.041132,256.507307 162.041132,256.507307 C162.856218,256.387247 163.589545,256.960988 163.671171,257.776725 C163.671171,257.776725 165.575886,274.007679 163.516976,286.73275 C159.581946,311.153367 141.166291,335.971091 141.166291,335.971091 C140.686969,336.639918 139.672135,337.441305 138.906975,337.732695 C138.906975,337.732695 127.67187,342.870387 103.899079,342.870387 C80.1262886,342.870387 68.8928575,337.727526 68.8928575,337.727526 C68.1330662,337.426301 67.1499724,336.621741 66.6987572,335.916171 C66.6987572,335.916171 53.5600708,316.409561 44.2877545,286.73275 C40.0468919,269.594088 43.9006434,257.727772 43.9006434,257.727772 Z" id="path-2"></path>
        <path d="M150.276382,321.646064 C145.60414,329.964981 141.173865,335.961999 141.173865,335.961999 C140.69036,336.635848 139.672135,337.441305 138.906975,337.732695 C138.906975,337.732695 127.67187,342.870387 103.899079,342.870387 C80.1262886,342.870387 68.8928575,337.727526 68.8928575,337.727526 C68.1330662,337.426301 67.1532002,336.606986 66.7192782,335.913135 C66.7192782,335.913135 62.7133203,329.678321 58.53416,321.646064 C58.53416,321.646064 77.4724106,325.171576 103.899079,325.171576 C130.325748,325.171576 150.276382,321.646064 150.276382,321.646064 Z" id="path-3"></path>
        <path d="M2.8082591,187.195891 C2.61056229,185.552948 3.78789665,184.221079 5.45611197,184.221079 L122.276634,184.221079 C123.9367,184.221079 125.143758,185.550377 124.972075,187.195891 L112.241554,309.213034 C112.070139,310.855977 110.583124,312.187846 108.933818,312.187846 L20.8460115,312.187846 C19.1906144,312.187846 17.6886944,310.858548 17.4906882,309.213034 L2.8082591,187.195891 Z" id="path-4"></path>
        <path d="M2.89504032,186.280754 C2.70129846,184.635765 3.88292253,183.302239 5.55248926,183.302239 L122.467647,183.302239 C124.129058,183.302239 125.328514,184.638024 125.147264,186.280754 L121.265452,221.462988 L7.03869931,221.462988 L2.89504032,186.280754 Z" id="path-5"></path>
        <polygon id="path-6" points="8.28101908 232.629537 120.209893 232.629537 119.650321 238.008255 8.92916588 238.008255"></polygon>
    </defs>
    <g id="Page-1" stroke="none" stroke-width="1" fill="none" fill-rule="evenodd">
        <g id="Desktop-Landscape">
            <g id="Group-2" transform="translate(366.000000, 222.000000)">
                <path d="M104.799047,279.370553 C106.441564,279.561704 109.088818,279.421553 110.689956,279.000712 C110.689956,279.000712 141.949279,273.311614 152.958136,241.096016 C154.630478,236.202183 157.946936,218.206885 162.847911,203.409357 C167.48648,182.901301 186.764595,162.992312 186.764595,162.992312 C187.696046,161.981688 187.366075,161.416458 186.034377,161.765681 C186.034377,161.765681 177.322081,163.462163 165.142397,170.647328 C152.962713,177.832493 141.483029,187.544524 141.483029,187.544524 C141.483029,187.544524 122.541632,202.255671 119.479811,207.374795 C109.910161,223.374494 75.8431322,247.322737 75.5264917,262.152695 C75.2098512,276.982653 104.799047,279.370553 104.799047,279.370553 Z" id="Oval-2" stroke="#64985B" stroke-width="4" fill="#64985B" transform="translate(131.466382, 220.547091) rotate(-11.000000) translate(-131.466382, -220.547091) "></path>
                <path d="M91.449095,155.498201 C91.449095,155.498201 110.190152,143.143679 114.096349,134.781651 C118.002545,126.419624 119.687869,108.696589 119.687869,108.696589 C119.715514,108.423165 119.533888,108.288505 119.270012,108.403948 C119.270012,108.403948 103.744342,114.841584 97.5363267,125.220896 C91.328311,135.600209 91.449095,155.498201 91.449095,155.498201 Z" id="Oval-2" stroke="#8CA35F" stroke-width="4" fill="#8CA35F" transform="translate(105.572541, 131.921304) rotate(11.000000) translate(-105.572541, -131.921304) "></path>
                <path d="M83.7507126,276.346209 C83.8057398,277.989995 85.1660795,279.027437 86.7672179,278.606597 C86.7672179,278.606597 118.026541,272.917498 129.035398,240.7019 C133.219937,228.456538 133.412915,214.974089 135.63689,203.850418 C137.860866,192.726748 143.423216,172.43842 143.423216,172.43842 C143.495691,172.172835 143.336888,172.032477 143.084226,172.121605 C143.084226,172.121605 109.714069,183.311299 95.5570728,206.980679 C81.4000769,230.65006 83.7507126,276.346209 83.7507126,276.346209 Z" id="Oval-2" stroke="#8CA35F" stroke-width="4" fill="#8CA35F" transform="translate(113.532053, 225.425245) rotate(-4.000000) translate(-113.532053, -225.425245) "></path>
                <path d="M28.1228546,286.698572 C29.6318408,287.372719 32.1449045,287.531508 33.7042575,287.008683 C33.7042575,287.008683 64.5660793,278.890039 70.4341883,251.060989 C70.9718266,248.374346 70.4697519,244.813769 70.0793468,240.915342 C69.6889417,237.016916 70.0509152,233.486168 71.6056234,220.246725 C73.1603317,207.007282 75.8924078,187.867465 75.8924078,187.867465 C75.9313771,187.593366 75.7851364,187.504528 75.5689757,187.669459 C75.5689757,187.669459 55.5354185,202.410761 47.9892403,222.857265 C43.6100449,234.722773 14.9222185,252.159481 11.6995799,265.682569 C8.47694129,279.205656 28.1228546,286.698572 28.1228546,286.698572 Z" id="Oval-2" stroke="#64985B" stroke-width="4" fill="#64985B" transform="translate(43.626325, 237.474125) scale(-1, 1) rotate(14.000000) translate(-43.626325, -237.474125) "></path>
                <path d="M34.5787944,279.173748 C34.6147859,280.827932 35.9103328,281.749017 37.4599518,281.1558 C37.4599518,281.1558 67.1043608,272.980246 75.4525962,233.38939 C76.2174645,229.567251 75.5031905,224.501814 74.9477827,218.955737 C74.3923749,213.409661 74.9073346,208.38666 77.1191324,189.551634 C79.3309301,170.716609 79.9031064,150.725271 79.9031064,150.725271 C79.9117563,150.448626 79.7255583,150.332459 79.4900251,150.467756 C79.4900251,150.467756 54.2569373,164.177391 43.5214053,193.265506 C32.7858733,222.353621 34.5787944,279.173748 34.5787944,279.173748 Z" id="Oval-2" stroke="#A2AE88" stroke-width="4" fill="#A2AE88" transform="translate(57.188071, 215.908009) scale(-1, 1) rotate(2.000000) translate(-57.188071, -215.908009) "></path>
                <path d="M53.2274655,164.422481 C53.2274655,164.422481 66.2800954,157.185887 71.9210098,147.780734 C77.5619243,138.375581 77.399251,124.496174 77.399251,124.496174 C77.4003755,124.225325 77.2049216,124.101442 76.9523296,124.227426 C76.9523296,124.227426 63.6481611,130.548375 58.0470374,139.739382 C52.4459137,148.930389 53.2274655,164.422481 53.2274655,164.422481 Z" id="Oval-2" stroke="#64985B" stroke-width="4" fill="#64985B" transform="translate(65.295289, 144.291214) scale(-1, 1) rotate(11.000000) translate(-65.295289, -144.291214) "></path>
                <path d="M73.2221162,90.6934037 C73.2221162,90.6934037 72.1104324,92.0089303 70.6727505,96.4268307 C69.2350686,100.844731 68.741691,102.360847 68.741691,102.360847" id="Line" stroke="#64985B" stroke-width="3" stroke-linecap="round" transform="translate(70.981904, 96.527126) scale(-1, -1) rotate(-18.000000) translate(-70.981904, -96.527126) "></path>
                <path d="M84.2970683,281.745316 L84.2970683,17.831982" id="Line" stroke="#64985B" stroke-width="4" stroke-linecap="round"></path>
                <path d="M84.400155,404.998071 C124.643464,404.998071 147.300189,386.736981 147.300189,337.601324 C147.300189,320.359005 147.300189,282.879718 147.300189,282.879718 C147.300189,282.879718 109.588461,282.879718 84.400155,282.879718 C59.2173297,282.879718 21.3087218,282.879718 21.3087218,282.879718 C21.3087218,282.879718 21.3087218,296.541126 21.3087218,337.601324 C21.3087218,384.580368 44.1568457,404.998071 84.400155,404.998071 Z" id="Oval-4" stroke="#576660" stroke-width="3.8" fill="#576660"></path>
                <rect id="Rectangle-8" fill="#FFFFFF" x="18.5739303" y="301.003857" width="131.446276" height="4.27967569"></rect>
                <g id="Rectangle-8">
                    <use fill="#FFFFFF" fill-rule="evenodd" xlink:href="#path-1"></use>
                    <rect stroke="#FFFFFF" stroke-width="1" x="19.0739303" y="311.489767" width="130.446276" height="3.27967569"></rect>
                </g>
                <g id="Group" transform="translate(95.727179, 49.403308)" stroke="#FFF4F6" stroke-width="2" fill="#FFF4F6">
                    <path d="M11.0517627,0.733487812 C11.4865613,0.833714047 17.7074706,13.4365919 11.1608474,13.3889032 C4.61422431,13.3412145 10.616964,0.633261577 11.0517627,0.733487812 Z" id="Triangle-2" transform="translate(11.130914, 7.060968) scale(1, -1) rotate(-13.000000) translate(-11.130914, -7.060968) "></path>
                    <path d="M5.20629032,4.26092621 C5.57227436,4.34528986 10.8086144,14.9535388 5.29811049,14.9133977 C-0.212393441,14.8732566 4.84030628,4.17656255 5.20629032,4.26092621 Z" id="Triangle-2" transform="translate(5.272915, 9.586971) scale(1, -1) rotate(25.000000) translate(-5.272915, -9.586971) "></path>
                    <path d="M15.9493424,7.80675346 C16.2853379,7.88420438 21.0926137,17.6232164 16.0336389,17.5863644 C10.9746641,17.5495125 15.613347,7.72930254 15.9493424,7.80675346 Z" id="Triangle-2" transform="translate(16.010508, 12.696383) scale(1, -1) rotate(-60.000000) translate(-16.010508, -12.696383) "></path>
                </g>
                <g id="Group" transform="translate(55.465206, 69.630987) rotate(-38.000000) translate(-55.465206, -69.630987) translate(44.661403, 60.627818)" stroke="#FFF4F6" stroke-width="2" fill="#FFF4F6">
                    <path d="M11.0517627,0.733487812 C11.4865613,0.833714047 17.7074706,13.4365919 11.1608474,13.3889032 C4.61422431,13.3412145 10.616964,0.633261577 11.0517627,0.733487812 Z" id="Triangle-2" transform="translate(11.130914, 7.060968) scale(1, -1) rotate(-13.000000) translate(-11.130914, -7.060968) "></path>
                    <path d="M5.20629032,4.26092621 C5.57227436,4.34528986 10.8086144,14.9535388 5.29811049,14.9133977 C-0.212393441,14.8732566 4.84030628,4.17656255 5.20629032,4.26092621 Z" id="Triangle-2" transform="translate(5.272915, 9.586971) scale(1, -1) rotate(25.000000) translate(-5.272915, -9.586971) "></path>
                    <path d="M15.9493424,7.80675346 C16.2853379,7.88420438 21.0926137,17.6232164 16.0336389,17.5863644 C10.9746641,17.5495125 15.613347,7.72930254 15.9493424,7.80675346 Z" id="Triangle-2" transform="translate(16.010508, 12.696383) scale(1, -1) rotate(-60.000000) translate(-16.010508, -12.696383) "></path>
                </g>
                <g id="Group" transform="translate(101.800907, 18.360382) scale(-1, 1) rotate(-26.000000) translate(-101.800907, -18.360382) translate(90.997103, 9.357213)" stroke="#FFF4F6" stroke-width="2" fill="#FFF4F6">
                    <path d="M11.0517627,0.733487812 C11.4865613,0.833714047 17.7074706,13.4365919 11.1608474,13.3889032 C4.61422431,13.3412145 10.616964,0.633261577 11.0517627,0.733487812 Z" id="Triangle-2" transform="translate(11.130914, 7.060968) scale(1, -1) rotate(-13.000000) translate(-11.130914, -7.060968) "></path>
                    <path d="M5.20629032,4.26092621 C5.57227436,4.34528986 10.8086144,14.9535388 5.29811049,14.9133977 C-0.212393441,14.8732566 4.84030628,4.17656255 5.20629032,4.26092621 Z" id="Triangle-2" transform="translate(5.272915, 9.586971) scale(1, -1) rotate(25.000000) translate(-5.272915, -9.586971) "></path>
                    <path d="M15.9493424,7.80675346 C16.2853379,7.88420438 21.0926137,17.6232164 16.0336389,17.5863644 C10.9746641,17.5495125 15.613347,7.72930254 15.9493424,7.80675346 Z" id="Triangle-2" transform="translate(16.010508, 12.696383) scale(1, -1) rotate(-60.000000) translate(-16.010508, -12.696383) "></path>
                </g>
                <path d="M73.6157587,0.98561374 C74.0505574,1.08583997 80.2714666,13.6887178 73.7248435,13.6410291 C67.1782204,13.5933404 73.1809601,0.885387505 73.6157587,0.98561374 Z" id="Triangle-2" stroke="#FFF4F6" stroke-width="2" fill="#FFF4F6" transform="translate(73.694910, 7.313094) scale(1, -1) rotate(-13.000000) translate(-73.694910, -7.313094) "></path>
                <path d="M77.6011623,5.6314101 C77.9671463,5.71577375 83.2034864,16.3240227 77.6929824,16.2838816 C72.1824785,16.2437405 77.2351782,5.54704644 77.6011623,5.6314101 Z" id="Triangle-2" stroke="#FFF4F6" stroke-width="2" fill="#FFF4F6" transform="translate(77.667787, 10.957454) scale(1, -1) rotate(25.000000) translate(-77.667787, -10.957454) "></path>
                <path d="M65.9356089,6.62804005 C66.2716044,6.70549097 71.0788802,16.4445029 66.0199054,16.407651 C60.9609306,16.370799 65.5996135,6.55058913 65.9356089,6.62804005 Z" id="Triangle-2" stroke="#FFF4F6" stroke-width="2" fill="#FFF4F6" transform="translate(65.996774, 11.517670) scale(1, -1) rotate(-60.000000) translate(-65.996774, -11.517670) "></path>
                <path d="M98.3439513,24.2514956 C98.3439513,24.2514956 94.6481085,28.2540336 92.262374,34.5290949 C89.8766394,40.8041562 88.58336,49.9242215 88.58336,49.9242215" id="Line" stroke="#64985B" stroke-width="3" stroke-linecap="round" transform="translate(93.463656, 37.087859) scale(-1, -1) rotate(7.000000) translate(-93.463656, -37.087859) "></path>
                <path d="M101.21655,62.8417554 C101.21655,62.8417554 96.6136972,67.8265704 93.6424712,75.6416164 C90.6712452,83.4566624 89.0605775,94.8149147 89.0605775,94.8149147" id="Line" stroke="#64985B" stroke-width="3" stroke-linecap="round" transform="translate(95.138564, 78.828335) scale(-1, -1) rotate(12.000000) translate(-95.138564, -78.828335) "></path>
                <path d="M82.2589925,13.9552797 C82.2589925,13.9552797 76.9522883,20.4119265 72.1470271,30.3223213 C67.3417658,40.232716 68.3543301,45.9255595 68.3543301,45.9255595" id="Line" stroke="#64985B" stroke-width="3" stroke-linecap="round" transform="translate(75.262156, 29.940420) scale(1, -1) rotate(7.000000) translate(-75.262156, -29.940420) "></path>
                <path d="M79.1555037,74.1945481 C79.1555037,74.1945481 67.1142321,83.6218747 64.4420634,95.0738083 C61.7698948,106.525742 60.676907,114.661481 60.676907,114.661481" id="Line" stroke="#64985B" stroke-width="3" stroke-linecap="round" transform="translate(69.916205, 94.428015) scale(1, -1) rotate(7.000000) translate(-69.916205, -94.428015) "></path>
            </g>
            <g id="Group" transform="translate(539.000000, 284.000000)">
                <path d="M154.874559,192.997092 C161.606319,173.534105 163.652515,166.374891 173.235455,156.975937 C182.818396,147.576984 204.423887,143.617091 204.423887,143.617091 C204.693688,143.564712 204.714629,143.434186 204.444834,143.320335 C204.444834,143.320335 168.540316,126.456614 142.266637,173.77929 C125.052946,212.677266 103.855887,266.192595 103.855887,266.192595 L135.907589,264.898947 C135.907589,264.898947 148.1428,212.46008 154.874559,192.997092 Z" id="Oval-2" stroke="#64985B" stroke-width="4" fill="#64985B" transform="translate(154.261929, 203.303174) rotate(-4.000000) translate(-154.261929, -203.303174) "></path>
                <path d="M83.3333179,222.02853 C83.5374051,219.104137 84.8036542,216.290978 84.8036542,216.290978 C84.8036542,216.290978 99.1380648,186.933628 104.13643,167.573001 C109.134795,148.212375 118.299512,128.028071 118.299512,128.028071 C118.322345,127.977507 118.296616,127.93707 118.250812,127.938497 C118.250812,127.938497 98.4961071,127.747723 72.2224284,175.070399 C55.0087373,213.968376 19.9972379,262.976399 19.9972379,262.976399 L65.8633801,266.190057 C65.8633801,266.190057 83.864261,229.75167 84.0004245,227.800564 C84.1365881,225.849458 83.1292306,224.952924 83.3333179,222.02853 Z" id="Oval-2" stroke="#8CA35F" stroke-width="4" fill="#8CA35F" transform="translate(69.155810, 197.064246) scale(-1, 1) rotate(-4.000000) translate(-69.155810, -197.064246) "></path>
                <path d="M107.654372,258.960022 C107.752901,260.614886 107.805639,263.293226 107.806019,264.948988 C107.806019,264.948988 106.558576,296.491306 120.295648,262.829641 C129.907725,228.728721 135.142633,204.778663 142.018097,178.187851 C154.632033,122.290573 181.064271,80.844915 181.064271,80.844915 C181.20677,80.6176253 181.152182,80.5749059 180.943188,80.7512859 C180.943188,80.7512859 146.97632,108.572646 125.144846,157.905479 C103.313373,207.238312 107.654372,258.960022 107.654372,258.960022 Z" id="Oval-2" stroke="#8CA35F" stroke-width="4" fill="#8CA35F" transform="translate(144.237652, 179.450287) rotate(-4.000000) translate(-144.237652, -179.450287) "></path>
                <path d="M7.2791607,257.792977 C7.06398095,259.42586 7.97630426,259.950868 9.28527699,258.953601 C9.28527699,258.953601 58.6191609,224.1192 68.5682208,171.1355 C78.5172808,118.1518 115.353599,55.1565441 115.353599,55.1565441 C115.376645,55.1169844 115.362758,55.1145131 115.315246,55.1577998 C115.315246,55.1577998 56.882199,108.125956 35.0507255,157.458788 C13.219252,206.791621 7.2791607,257.792977 7.2791607,257.792977 Z" id="Oval-2" stroke="#64985B" stroke-width="4" fill="#64985B" transform="translate(61.288443, 157.356858) scale(-1, 1) rotate(-4.000000) translate(-61.288443, -157.356858) "></path>
                <path d="M102.529846,272.227115 L108.356897,65.6848267" id="Line" stroke="#8CA35F" stroke-width="4" stroke-linecap="round"></path>
                <path d="M49.6295042,261.597194 C49.7333967,263.245935 51.1537147,264.676119 52.8080484,264.792032 L62.3024581,265.457267 C76.0395306,231.795602 89.4757043,218.259571 103.023647,177.767512 C116.571591,137.275452 122.966778,80.5276978 122.966778,80.5276978 C122.972613,80.4764856 122.938387,80.467121 122.901262,80.4979454 C122.901262,80.4979454 88.6313756,108.574246 66.7999021,157.907078 C44.9684286,207.239911 49.6295042,261.597194 49.6295042,261.597194 Z" id="Oval-2" stroke="#A2AE88" stroke-width="4" fill="#A2AE88" transform="translate(86.095828, 172.966245) scale(-1, 1) rotate(-4.000000) translate(-86.095828, -172.966245) "></path>
                <g id="Rectangle">
                    <use fill="#D1CAD8" fill-rule="evenodd" xlink:href="#path-2"></use>
                    <path stroke="#D1CAD8" stroke-width="4" d="M45.8234957,258.275951 L45.8318759,258.247715 C45.8292655,258.257411 45.8264713,258.266823 45.8234957,258.275951 Z M45.7450947,258.536688 C45.7522524,258.537803 45.7595296,258.538934 45.7669243,258.540084 C46.0195771,258.579358 46.3181645,258.624801 46.6614278,258.675899 C47.6390631,258.82143 48.7802708,258.983393 50.074985,259.157666 C53.7688114,259.654868 57.9556072,260.1518 62.5549107,260.615467 C75.6932854,261.939977 89.5128492,262.73466 103.372029,262.73466 C117.230065,262.73466 131.24862,261.938408 144.719886,260.61135 C149.435091,260.146853 153.746143,259.64906 157.564235,259.151031 C158.902261,258.9765 160.083647,258.814313 161.097282,258.668602 C161.334134,258.634554 161.55055,258.603018 161.746118,258.574147 C161.764936,258.754864 161.784986,258.953451 161.80605,259.169172 C161.898574,260.116695 161.991245,261.193191 162.077812,262.3774 C162.497503,268.118617 162.62249,274.069137 162.275767,279.605379 C162.123132,282.042559 161.881049,284.321848 161.542652,286.413306 C161.482613,286.785907 161.419071,287.158894 161.351852,287.533517 C159.73242,296.558805 156.053338,306.26581 150.933187,316.141508 C148.440068,320.950214 145.767276,325.484155 143.095483,329.602346 C142.161505,331.04194 141.295137,332.325684 140.518968,333.436121 C140.248544,333.823008 140.009105,334.160079 139.803477,334.44516 C139.681997,334.613578 139.599955,334.72568 139.560172,334.779292 C139.281438,335.167756 138.57936,335.71734 138.195197,335.863638 L138.075236,335.913846 C138.018131,335.93996 137.873075,336.001922 137.639414,336.094744 C137.229564,336.257556 136.729819,336.441239 136.139518,336.6408 C134.426141,337.220038 132.34275,337.802814 129.883997,338.349159 C122.801099,339.923008 114.153898,340.870387 103.899079,340.870387 C93.6444131,340.870387 84.9976764,339.922072 77.9154449,338.346674 C75.456944,337.799796 73.3738148,337.216453 71.660695,336.636657 C71.0704907,336.436905 70.5708368,336.253049 70.1610713,336.090085 C69.9274688,335.997181 69.7824608,335.935169 69.7253915,335.909041 L69.6299574,335.86831 C69.2540641,335.719285 68.605196,335.185045 68.3836783,334.838655 C68.3032763,334.718272 68.1915002,334.548948 68.0260705,334.293021 C67.7461358,333.859949 67.4201942,333.344486 67.0520754,332.748747 C65.9954272,331.03874 64.8159293,329.032904 63.5442069,326.748194 C59.9039052,320.20822 56.2611498,312.754963 52.8605656,304.524521 C50.4122966,298.598971 48.1806342,292.479635 46.2148121,286.194094 C43.9139107,276.862051 43.8329115,268.484186 45.0677721,261.561005 C45.2344577,260.626491 45.412013,259.81053 45.5880662,259.120122 C45.6515956,258.870986 45.7049393,258.675943 45.7450947,258.536688 Z"></path>
                </g>
                <g id="Rectangle">
                    <use fill="#15304F" fill-rule="evenodd" xlink:href="#path-3"></use>
                    <path stroke="#13314D" stroke-width="4" d="M146.449083,324.259961 C145.08084,326.547979 143.688038,328.744163 142.308585,330.814746 C141.578655,331.910383 140.905277,332.89098 140.304861,333.742044 C140.095667,334.038567 139.910838,334.297319 139.752424,334.516491 C139.658838,334.645972 139.595753,334.732282 139.565217,334.773616 C139.284985,335.16384 138.578971,335.717488 138.195197,335.863638 L138.075236,335.913846 C138.018131,335.93996 137.873075,336.001922 137.639414,336.094744 C137.229564,336.257556 136.729819,336.441239 136.139518,336.6408 C134.426141,337.220038 132.34275,337.802814 129.883997,338.349159 C122.801099,339.923008 114.153898,340.870387 103.899079,340.870387 C93.6444131,340.870387 84.9976764,339.922072 77.9154449,338.346674 C75.456944,337.799796 73.3738148,337.216453 71.660695,336.636657 C71.0704907,336.436905 70.5708368,336.253049 70.1610713,336.090085 C69.9274688,335.997181 69.7824608,335.935169 69.7253915,335.909041 L69.6299574,335.86831 C69.2685323,335.725021 68.6237703,335.186526 68.4149837,334.852671 C68.3732078,334.787375 68.3151091,334.696238 68.2294765,334.560789 C68.0852059,334.332591 67.9171416,334.064417 67.7271596,333.758444 C67.1826547,332.881499 66.5729114,331.879366 65.9129478,330.769497 C64.6726177,328.683619 63.4229141,326.501372 62.1980559,324.262744 C64.8189835,324.650247 67.7944335,325.035687 71.0886199,325.396904 C81.2051415,326.506209 92.2605718,327.171576 103.899079,327.171576 C115.535893,327.171576 126.778727,326.506425 137.209151,325.397614 C140.617675,325.035269 143.711853,324.64858 146.449083,324.259961 Z"></path>
                </g>
                <path d="M109.867027,63.6637409 C120.355499,63.6637409 126.229786,47.4257749 126.229786,34.6938183 C126.229786,21.9618617 119.318746,4.28161785 116.119421,4.28161785 C112.920096,4.28161785 99.8937783,19.190411 96.9916118,33.9726794 C94.0894453,48.7549477 99.3785552,63.6637409 109.867027,63.6637409 Z" id="Path-7" stroke="#FF5994" stroke-width="3" fill="#FF5994"></path>
                <path d="M118.607604,63.6637409 C129.096076,63.6637409 134.970363,47.4257749 134.970363,34.6938183 C134.970363,21.9618617 128.059323,4.28161785 124.859998,4.28161785 C121.660673,4.28161785 108.634355,19.190411 105.732189,33.9726794 C102.830022,48.7549477 108.119132,63.6637409 118.607604,63.6637409 Z" id="Path-7" stroke="#F0B1C9" stroke-width="3" fill="#F0B1C9" opacity="0.604959239" transform="translate(119.956939, 33.972679) rotate(14.000000) translate(-119.956939, -33.972679) "></path>
                <path d="M101.12645,63.6637409 C111.614921,63.6637409 117.489208,47.4257749 117.489208,34.6938183 C117.489208,21.9618617 110.578169,4.28161785 107.378844,4.28161785 C104.179519,4.28161785 91.1532012,19.190411 88.2510347,33.9726794 C85.3488682,48.7549477 90.637978,63.6637409 101.12645,63.6637409 Z" id="Path-7" stroke="#F0B1C9" stroke-width="3" fill="#F0B1C9" transform="translate(102.475784, 33.972679) rotate(-21.000000) translate(-102.475784, -33.972679) "></path>
                <ellipse id="Oval-5" stroke="#13314D" fill="#15304F" cx="48.6296202" cy="274.416609" rx="2.91352572" ry="2.91932563"></ellipse>
                <ellipse id="Oval-5" stroke="#13314D" fill="#15304F" cx="64.6540116" cy="286.093912" rx="2.91352572" ry="2.91932563"></ellipse>
                <ellipse id="Oval-5" stroke="#13314D" fill="#15304F" cx="61.7404859" cy="262.739307" rx="2.91352572" ry="2.91932563"></ellipse>
                <ellipse id="Oval-5" stroke="#13314D" fill="#15304F" cx="77.7648774" cy="271.497284" rx="2.91352572" ry="2.91932563"></ellipse>
                <ellipse id="Oval-5" stroke="#13314D" fill="#15304F" cx="85.0486916" cy="293.392226" rx="2.91352572" ry="2.91932563"></ellipse>
                <ellipse id="Oval-5" stroke="#13314D" fill="#15304F" cx="71.9378259" cy="306.529191" rx="2.91352572" ry="2.91932563"></ellipse>
                <path d="M52.9999088,303.609865 C54.6090046,303.609865 55.9134345,302.302839 55.9134345,300.69054 C55.9134345,299.078241 54.6090046,297.771214 52.9999088,297.771214 C51.390813,297.771214 50.4106069,299.078241 50.4106069,300.69054 C50.4106069,302.302839 51.390813,303.609865 52.9999088,303.609865 Z" id="Oval-5" stroke="#13314D" fill="#15304F"></path>
                <ellipse id="Oval-5" stroke="#13314D" fill="#15304F" cx="87.9622174" cy="318.206494" rx="2.91352572" ry="2.91932563"></ellipse>
                <ellipse id="Oval-5" stroke="#13314D" fill="#15304F" cx="61.7404859" cy="319.666156" rx="2.91352572" ry="2.91932563"></ellipse>
                <ellipse id="Oval-5" stroke="#13314D" fill="#15304F" cx="105.443372" cy="307.988854" rx="2.91352572" ry="2.91932563"></ellipse>
                <ellipse id="Oval-5" stroke="#13314D" fill="#15304F" cx="103.986609" cy="284.634249" rx="2.91352572" ry="2.91932563"></ellipse>
                <ellipse id="Oval-5" stroke="#13314D" fill="#15304F" cx="99.6163202" cy="267.118295" rx="2.91352572" ry="2.91932563"></ellipse>
                <ellipse id="Oval-5" stroke="#13314D" fill="#15304F" cx="121.467763" cy="272.956946" rx="2.91352572" ry="2.91932563"></ellipse>
                <ellipse id="Oval-5" stroke="#13314D" fill="#15304F" cx="122.924526" cy="293.392226" rx="2.91352572" ry="2.91932563"></ellipse>
                <ellipse id="Oval-5" stroke="#13314D" fill="#15304F" cx="133.121866" cy="309.448517" rx="2.91352572" ry="2.91932563"></ellipse>
                <ellipse id="Oval-5" stroke="#13314D" fill="#15304F" cx="152.059783" cy="309.448517" rx="2.91352572" ry="2.91932563"></ellipse>
                <ellipse id="Oval-5" stroke="#13314D" fill="#15304F" cx="118.554237" cy="324.045145" rx="2.91352572" ry="2.91932563"></ellipse>
                <ellipse id="Oval-5" stroke="#13314D" fill="#15304F" cx="146.232732" cy="294.851889" rx="2.91352572" ry="2.91932563"></ellipse>
                <ellipse id="Oval-5" stroke="#13314D" fill="#15304F" cx="140.40568" cy="275.876272" rx="2.91352572" ry="2.91932563"></ellipse>
                <ellipse id="Oval-5" stroke="#13314D" fill="#15304F" cx="159.343597" cy="281.714923" rx="2.91352572" ry="2.91932563"></ellipse>
                <ellipse id="Oval-5" stroke="#13314D" fill="#15304F" cx="153.516546" cy="262.739307" rx="2.91352572" ry="2.91932563"></ellipse>
            </g>
            <g id="Group-3" transform="translate(756.000000, 315.000000)">
                <g id="Rectangle-4">
                    <use fill="#EFAAC4" fill-rule="evenodd" xlink:href="#path-4"></use>
                    <path stroke="#EFAAC4" stroke-width="4" d="M4.79393495,186.956953 C4.73926479,186.502621 4.98933001,186.221079 5.45611197,186.221079 L122.276634,186.221079 C122.753788,186.221079 123.031023,186.526845 122.982873,186.98835 L110.252351,309.005493 C110.187581,309.626288 109.562382,310.187846 108.933818,310.187846 L20.8460115,310.187846 C20.201507,310.187846 19.5532986,309.613455 19.4763641,308.974096 L4.79393495,186.956953 Z"></path>
                </g>
                <g id="Rectangle-5">
                    <use fill="#C48CA1" fill-rule="evenodd" xlink:href="#path-5"></use>
                    <path stroke="#C48CA1" stroke-width="1" d="M120.817585,220.962988 L7.48326671,220.962988 L3.39160813,186.222269 C3.23256649,184.871907 4.18490799,183.802239 5.55248926,183.802239 L122.467647,183.802239 C123.830854,183.802239 124.798902,184.878901 124.65028,186.225919 L120.817585,220.962988 Z"></path>
                </g>
                <path d="M100.49179,44.2912652 C110.133021,44.2912652 109.798314,33.4117357 111.095649,24.1374235 C112.392983,14.8631113 115.848798,3.4306484 106.207567,3.4306484 C96.5663355,3.4306484 87.6326093,22.8740385 87.6326093,29.5578518 C87.6326093,36.2416652 90.8505591,44.2912652 100.49179,44.2912652 Z" id="Oval" stroke="#8CA35F" stroke-width="4" fill="#8CA35F" transform="translate(100.202168, 23.860957) rotate(-23.000000) translate(-100.202168, -23.860957) "></path>
                <path d="M87.2134311,116.736925 C87.2134311,116.736925 77.2530911,42.6818901 115.816634,42.6818901 C140.091129,42.6818901 140.37724,75.9500881 130.253286,99.325134 C120.129332,122.70018 104.1044,129.477408 104.1044,129.477408 C104.1044,129.477408 100.981521,125.062387 97.9618398,122.082544 C94.942159,119.102702 87.2134311,116.736925 87.2134311,116.736925 Z" id="Path-6" stroke="#64985B" stroke-width="4" fill="#64985B"></path>
                <path d="M43.5987302,181.530254 C43.5987302,181.530254 40.147689,115.717441 78.7112323,115.717441 C126.605035,115.717441 94.3369345,181.530254 94.3369345,181.530254 L43.5987302,181.530254 Z" id="Path-6" stroke="#8CA35F" stroke-width="4" fill="#8CA35F"></path>
                <path d="M11.291519,123.460322 C11.291519,123.460322 16.1937579,102.330326 16.9374362,81.8439134 C17.6811145,61.3575006 14.1415317,41.9650322 33.3161491,41.9650322 C57.5906439,41.9650322 64.4553276,82.6734851 54.331374,106.048531 C44.2074203,129.423577 19.8240309,136.820403 19.8240309,136.820403 L11.291519,123.460322 Z" id="Path-6" stroke="#8CA35F" stroke-width="4" fill="#8CA35F" transform="translate(35.068325, 89.392717) scale(-1, 1) translate(-35.068325, -89.392717) "></path>
                <path d="M23.3729679,46.9818754 C33.014199,46.9818754 36.5133964,39.7324644 36.5133964,33.048651 C36.5133964,26.3648376 28.6976343,20.9465364 19.0564031,20.9465364 C9.41517197,20.9465364 4.13248776,32.1198099 4.13248776,38.8036233 C4.13248776,45.4874367 13.7317367,46.9818754 23.3729679,46.9818754 Z" id="Oval" stroke="#64985B" stroke-width="4" fill="#64985B" transform="translate(20.322942, 33.964206) rotate(-23.000000) translate(-20.322942, -33.964206) "></path>
                <path d="M139.812722,54.3113873 C148.454288,47.0255249 151.479456,39.2246449 152.307919,29.815367 C153.136382,20.4060891 153.324106,10.3560827 143.682875,10.3560827 C134.041644,10.3560827 128.621717,27.0556317 127.12655,35.9401716 C125.631383,44.8247116 131.171156,61.5972498 139.812722,54.3113873 Z" id="Oval" stroke="#64985B" stroke-width="4" fill="#64985B" transform="translate(139.774984, 33.227192) scale(-1, 1) rotate(-15.000000) translate(-139.774984, -33.227192) "></path>
                <g id="Group" transform="translate(55.056671, 168.084926)" stroke="#FFFFFF" stroke-width="2" stroke-linecap="round">
                    <path d="M4.0285369,0.672339704 L4.0285369,6.05105733" id="Line"></path>
                    <path d="M4.0285369,0.672339704 L4.0285369,6.05105733" id="Line" transform="translate(4.028537, 3.361699) rotate(90.000000) translate(-4.028537, -3.361699) "></path>
                </g>
                <g id="Group" transform="translate(57.742362, 150.604094)" stroke="#FFFFFF" stroke-width="2" stroke-linecap="round">
                    <path d="M4.0285369,0.672339704 L4.0285369,6.05105733" id="Line"></path>
                    <path d="M4.0285369,0.672339704 L4.0285369,6.05105733" id="Line" transform="translate(4.028537, 3.361699) rotate(90.000000) translate(-4.028537, -3.361699) "></path>
                </g>
                <g id="Group" transform="translate(65.799436, 160.016849)" stroke="#FFFFFF" stroke-width="2" stroke-linecap="round">
                    <path d="M4.0285369,0.672339704 L4.0285369,6.05105733" id="Line"></path>
                    <path d="M4.0285369,0.672339704 L4.0285369,6.05105733" id="Line" transform="translate(4.028537, 3.361699) rotate(90.000000) translate(-4.028537, -3.361699) "></path>
                </g>
                <g id="Group" transform="translate(76.542201, 168.084926)" stroke="#FFFFFF" stroke-width="2" stroke-linecap="round">
                    <path d="M4.0285369,0.672339704 L4.0285369,6.05105733" id="Line"></path>
                    <path d="M4.0285369,0.672339704 L4.0285369,6.05105733" id="Line" transform="translate(4.028537, 3.361699) rotate(90.000000) translate(-4.028537, -3.361699) "></path>
                </g>
                <g id="Group" transform="translate(67.142282, 173.463644)" stroke="#FFFFFF" stroke-width="2" stroke-linecap="round">
                    <path d="M4.0285369,0.672339704 L4.0285369,6.05105733" id="Line"></path>
                    <path d="M4.0285369,0.672339704 L4.0285369,6.05105733" id="Line" transform="translate(4.028537, 3.361699) rotate(90.000000) translate(-4.028537, -3.361699) "></path>
                </g>
                <g id="Group" transform="translate(87.284966, 160.016849)" stroke="#FFFFFF" stroke-width="2" stroke-linecap="round">
                    <path d="M4.0285369,0.672339704 L4.0285369,6.05105733" id="Line"></path>
                    <path d="M4.0285369,0.672339704 L4.0285369,6.05105733" id="Line" transform="translate(4.028537, 3.361699) rotate(90.000000) translate(-4.028537, -3.361699) "></path>
                </g>
                <g id="Group" transform="translate(81.913584, 149.259414)" stroke="#FFFFFF" stroke-width="2" stroke-linecap="round">
                    <path d="M4.0285369,0.672339704 L4.0285369,6.05105733" id="Line"></path>
                    <path d="M4.0285369,0.672339704 L4.0285369,6.05105733" id="Line" transform="translate(4.028537, 3.361699) rotate(90.000000) translate(-4.028537, -3.361699) "></path>
                </g>
                <g id="Group" transform="translate(69.827973, 145.225376)" stroke="#FFFFFF" stroke-width="2" stroke-linecap="round">
                    <path d="M4.0285369,0.672339704 L4.0285369,6.05105733" id="Line"></path>
                    <path d="M4.0285369,0.672339704 L4.0285369,6.05105733" id="Line" transform="translate(4.028537, 3.361699) rotate(90.000000) translate(-4.028537, -3.361699) "></path>
                </g>
                <g id="Group" transform="translate(76.542201, 134.467941)" stroke="#FFFFFF" stroke-width="2" stroke-linecap="round">
                    <path d="M4.0285369,0.672339704 L4.0285369,6.05105733" id="Line"></path>
                    <path d="M4.0285369,0.672339704 L4.0285369,6.05105733" id="Line" transform="translate(4.028537, 3.361699) rotate(90.000000) translate(-4.028537, -3.361699) "></path>
                </g>
                <g id="Group" transform="translate(88.627812, 139.846658)" stroke="#FFFFFF" stroke-width="2" stroke-linecap="round">
                    <path d="M4.0285369,0.672339704 L4.0285369,6.05105733" id="Line"></path>
                    <path d="M4.0285369,0.672339704 L4.0285369,6.05105733" id="Line" transform="translate(4.028537, 3.361699) rotate(90.000000) translate(-4.028537, -3.361699) "></path>
                </g>
                <g id="Group" transform="translate(59.085208, 135.812620)" stroke="#FFFFFF" stroke-width="2" stroke-linecap="round">
                    <path d="M4.0285369,0.672339704 L4.0285369,6.05105733" id="Line"></path>
                    <path d="M4.0285369,0.672339704 L4.0285369,6.05105733" id="Line" transform="translate(4.028537, 3.361699) rotate(90.000000) translate(-4.028537, -3.361699) "></path>
                </g>
                <g id="Group" transform="translate(42.971060, 112.953070)" stroke="#FFFFFF" stroke-width="2" stroke-linecap="round">
                    <path d="M4.0285369,0.672339704 L4.0285369,6.05105733" id="Line"></path>
                    <path d="M4.0285369,0.672339704 L4.0285369,6.05105733" id="Line" transform="translate(4.028537, 3.361699) rotate(90.000000) translate(-4.028537, -3.361699) "></path>
                </g>
                <g id="Group" transform="translate(30.885450, 108.919032)" stroke="#FFFFFF" stroke-width="2" stroke-linecap="round">
                    <path d="M4.0285369,0.672339704 L4.0285369,6.05105733" id="Line"></path>
                    <path d="M4.0285369,0.672339704 L4.0285369,6.05105733" id="Line" transform="translate(4.028537, 3.361699) rotate(90.000000) translate(-4.028537, -3.361699) "></path>
                </g>
                <g id="Group" transform="translate(38.942523, 99.506276)" stroke="#FFFFFF" stroke-width="2" stroke-linecap="round">
                    <path d="M4.0285369,0.672339704 L4.0285369,6.05105733" id="Line"></path>
                    <path d="M4.0285369,0.672339704 L4.0285369,6.05105733" id="Line" transform="translate(4.028537, 3.361699) rotate(90.000000) translate(-4.028537, -3.361699) "></path>
                </g>
                <g id="Group" transform="translate(22.828376, 98.161597)" stroke="#FFFFFF" stroke-width="2" stroke-linecap="round">
                    <path d="M4.0285369,0.672339704 L4.0285369,6.05105733" id="Line"></path>
                    <path d="M4.0285369,0.672339704 L4.0285369,6.05105733" id="Line" transform="translate(4.028537, 3.361699) rotate(90.000000) translate(-4.028537, -3.361699) "></path>
                </g>
                <g id="Group" transform="translate(29.542604, 88.748841)" stroke="#FFFFFF" stroke-width="2" stroke-linecap="round">
                    <path d="M4.0285369,0.672339704 L4.0285369,6.05105733" id="Line"></path>
                    <path d="M4.0285369,0.672339704 L4.0285369,6.05105733" id="Line" transform="translate(4.028537, 3.361699) rotate(90.000000) translate(-4.028537, -3.361699) "></path>
                </g>
                <g id="Group" transform="translate(40.285369, 82.025444)" stroke="#FFFFFF" stroke-width="2" stroke-linecap="round">
                    <path d="M4.0285369,0.672339704 L4.0285369,6.05105733" id="Line"></path>
                    <path d="M4.0285369,0.672339704 L4.0285369,6.05105733" id="Line" transform="translate(4.028537, 3.361699) rotate(90.000000) translate(-4.028537, -3.361699) "></path>
                </g>
                <g id="Group" transform="translate(29.542604, 75.302047)" stroke="#FFFFFF" stroke-width="2" stroke-linecap="round">
                    <path d="M4.0285369,0.672339704 L4.0285369,6.05105733" id="Line"></path>
                    <path d="M4.0285369,0.672339704 L4.0285369,6.05105733" id="Line" transform="translate(4.028537, 3.361699) rotate(90.000000) translate(-4.028537, -3.361699) "></path>
                </g>
                <g id="Group" transform="translate(18.799839, 82.025444)" stroke="#FFFFFF" stroke-width="2" stroke-linecap="round">
                    <path d="M4.0285369,0.672339704 L4.0285369,6.05105733" id="Line"></path>
                    <path d="M4.0285369,0.672339704 L4.0285369,6.05105733" id="Line" transform="translate(4.028537, 3.361699) rotate(90.000000) translate(-4.028537, -3.361699) "></path>
                </g>
                <g id="Group" transform="translate(21.485530, 67.233970)" stroke="#FFFFFF" stroke-width="2" stroke-linecap="round">
                    <path d="M4.0285369,0.672339704 L4.0285369,6.05105733" id="Line"></path>
                    <path d="M4.0285369,0.672339704 L4.0285369,6.05105733" id="Line" transform="translate(4.028537, 3.361699) rotate(90.000000) translate(-4.028537, -3.361699) "></path>
                </g>
                <g id="Group" transform="translate(37.599678, 64.544612)" stroke="#FFFFFF" stroke-width="2" stroke-linecap="round">
                    <path d="M4.0285369,0.672339704 L4.0285369,6.05105733" id="Line"></path>
                    <path d="M4.0285369,0.672339704 L4.0285369,6.05105733" id="Line" transform="translate(4.028537, 3.361699) rotate(90.000000) translate(-4.028537, -3.361699) "></path>
                </g>
                <g id="Group" transform="translate(29.542604, 53.787176)" stroke="#FFFFFF" stroke-width="2" stroke-linecap="round">
                    <path d="M4.0285369,0.672339704 L4.0285369,6.05105733" id="Line"></path>
                    <path d="M4.0285369,0.672339704 L4.0285369,6.05105733" id="Line" transform="translate(4.028537, 3.361699) rotate(90.000000) translate(-4.028537, -3.361699) "></path>
                </g>
                <g id="Group-4" transform="translate(14.771302, 32.272306)" stroke="#FFFFFF" stroke-width="2" stroke-linecap="round">
                    <path d="M4.0285369,0.672339704 L4.0285369,6.05105733" id="Line"></path>
                    <path d="M4.0285369,0.672339704 L4.0285369,6.05105733" id="Line" transform="translate(4.028537, 3.361699) rotate(90.000000) translate(-4.028537, -3.361699) "></path>
                </g>
                <g id="Group" transform="translate(67.142282, 126.399864)" stroke="#FFFFFF" stroke-width="2" stroke-linecap="round">
                    <path d="M4.0285369,0.672339704 L4.0285369,6.05105733" id="Line"></path>
                    <path d="M4.0285369,0.672339704 L4.0285369,6.05105733" id="Line" transform="translate(4.028537, 3.361699) rotate(90.000000) translate(-4.028537, -3.361699) "></path>
                </g>
                <g id="Group" transform="translate(84.599275, 126.399864)" stroke="#FFFFFF" stroke-width="2" stroke-linecap="round">
                    <path d="M4.0285369,0.672339704 L4.0285369,6.05105733" id="Line"></path>
                    <path d="M4.0285369,0.672339704 L4.0285369,6.05105733" id="Line" transform="translate(4.028537, 3.361699) rotate(90.000000) translate(-4.028537, -3.361699) "></path>
                </g>
                <g id="Group" transform="translate(100.713423, 110.263711)" stroke="#FFFFFF" stroke-width="2" stroke-linecap="round">
                    <path d="M4.0285369,0.672339704 L4.0285369,6.05105733" id="Line"></path>
                    <path d="M4.0285369,0.672339704 L4.0285369,6.05105733" id="Line" transform="translate(4.028537, 3.361699) rotate(90.000000) translate(-4.028537, -3.361699) "></path>
                </g>
                <g id="Group" transform="translate(100.713423, 98.161597)" stroke="#FFFFFF" stroke-width="2" stroke-linecap="round">
                    <path d="M4.0285369,0.672339704 L4.0285369,6.05105733" id="Line"></path>
                    <path d="M4.0285369,0.672339704 L4.0285369,6.05105733" id="Line" transform="translate(4.028537, 3.361699) rotate(90.000000) translate(-4.028537, -3.361699) "></path>
                </g>
                <g id="Group" transform="translate(112.799033, 96.816917)" stroke="#FFFFFF" stroke-width="2" stroke-linecap="round">
                    <path d="M4.0285369,0.672339704 L4.0285369,6.05105733" id="Line"></path>
                    <path d="M4.0285369,0.672339704 L4.0285369,6.05105733" id="Line" transform="translate(4.028537, 3.361699) rotate(90.000000) translate(-4.028537, -3.361699) "></path>
                </g>
                <g id="Group" transform="translate(107.427651, 86.059482)" stroke="#FFFFFF" stroke-width="2" stroke-linecap="round">
                    <path d="M4.0285369,0.672339704 L4.0285369,6.05105733" id="Line"></path>
                    <path d="M4.0285369,0.672339704 L4.0285369,6.05105733" id="Line" transform="translate(4.028537, 3.361699) rotate(90.000000) translate(-4.028537, -3.361699) "></path>
                </g>
                <g id="Group" transform="translate(89.970657, 96.816917)" stroke="#FFFFFF" stroke-width="2" stroke-linecap="round">
                    <path d="M4.0285369,0.672339704 L4.0285369,6.05105733" id="Line"></path>
                    <path d="M4.0285369,0.672339704 L4.0285369,6.05105733" id="Line" transform="translate(4.028537, 3.361699) rotate(90.000000) translate(-4.028537, -3.361699) "></path>
                </g>
                <g id="Group" transform="translate(93.999194, 86.059482)" stroke="#FFFFFF" stroke-width="2" stroke-linecap="round">
                    <path d="M4.0285369,0.672339704 L4.0285369,6.05105733" id="Line"></path>
                    <path d="M4.0285369,0.672339704 L4.0285369,6.05105733" id="Line" transform="translate(4.028537, 3.361699) rotate(90.000000) translate(-4.028537, -3.361699) "></path>
                </g>
                <g id="Group" transform="translate(95.342040, 73.957367)" stroke="#FFFFFF" stroke-width="2" stroke-linecap="round">
                    <path d="M4.0285369,0.672339704 L4.0285369,6.05105733" id="Line"></path>
                    <path d="M4.0285369,0.672339704 L4.0285369,6.05105733" id="Line" transform="translate(4.028537, 3.361699) rotate(90.000000) translate(-4.028537, -3.361699) "></path>
                </g>
                <g id="Group" transform="translate(93.999194, 86.059482)" stroke="#FFFFFF" stroke-width="2" stroke-linecap="round">
                    <path d="M4.0285369,0.672339704 L4.0285369,6.05105733" id="Line"></path>
                    <path d="M4.0285369,0.672339704 L4.0285369,6.05105733" id="Line" transform="translate(4.028537, 3.361699) rotate(90.000000) translate(-4.028537, -3.361699) "></path>
                </g>
                <g id="Group" transform="translate(106.084805, 75.302047)" stroke="#FFFFFF" stroke-width="2" stroke-linecap="round">
                    <path d="M4.0285369,0.672339704 L4.0285369,6.05105733" id="Line"></path>
                    <path d="M4.0285369,0.672339704 L4.0285369,6.05105733" id="Line" transform="translate(4.028537, 3.361699) rotate(90.000000) translate(-4.028537, -3.361699) "></path>
                </g>
                <g id="Group" transform="translate(118.170416, 80.680764)" stroke="#FFFFFF" stroke-width="2" stroke-linecap="round">
                    <path d="M4.0285369,0.672339704 L4.0285369,6.05105733" id="Line"></path>
                    <path d="M4.0285369,0.672339704 L4.0285369,6.05105733" id="Line" transform="translate(4.028537, 3.361699) rotate(90.000000) translate(-4.028537, -3.361699) "></path>
                </g>
                <g id="Group" transform="translate(122.198953, 64.544612)" stroke="#FFFFFF" stroke-width="2" stroke-linecap="round">
                    <path d="M4.0285369,0.672339704 L4.0285369,6.05105733" id="Line"></path>
                    <path d="M4.0285369,0.672339704 L4.0285369,6.05105733" id="Line" transform="translate(4.028537, 3.361699) rotate(90.000000) translate(-4.028537, -3.361699) "></path>
                </g>
                <g id="Group" transform="translate(110.113342, 63.199932)" stroke="#FFFFFF" stroke-width="2" stroke-linecap="round">
                    <path d="M4.0285369,0.672339704 L4.0285369,6.05105733" id="Line"></path>
                    <path d="M4.0285369,0.672339704 L4.0285369,6.05105733" id="Line" transform="translate(4.028537, 3.361699) rotate(90.000000) translate(-4.028537, -3.361699) "></path>
                </g>
                <g id="Group" transform="translate(96.684886, 61.855253)" stroke="#FFFFFF" stroke-width="2" stroke-linecap="round">
                    <path d="M4.0285369,0.672339704 L4.0285369,6.05105733" id="Line"></path>
                    <path d="M4.0285369,0.672339704 L4.0285369,6.05105733" id="Line" transform="translate(4.028537, 3.361699) rotate(90.000000) translate(-4.028537, -3.361699) "></path>
                </g>
                <g id="Group" transform="translate(103.399114, 52.442497)" stroke="#FFFFFF" stroke-width="2" stroke-linecap="round">
                    <path d="M4.0285369,0.672339704 L4.0285369,6.05105733" id="Line"></path>
                    <path d="M4.0285369,0.672339704 L4.0285369,6.05105733" id="Line" transform="translate(4.028537, 3.361699) rotate(90.000000) translate(-4.028537, -3.361699) "></path>
                </g>
                <g id="Group" transform="translate(116.827570, 53.787176)" stroke="#FFFFFF" stroke-width="2" stroke-linecap="round">
                    <path d="M4.0285369,0.672339704 L4.0285369,6.05105733" id="Line"></path>
                    <path d="M4.0285369,0.672339704 L4.0285369,6.05105733" id="Line" transform="translate(4.028537, 3.361699) rotate(90.000000) translate(-4.028537, -3.361699) "></path>
                </g>
                <g id="Group" transform="translate(135.627409, 37.651023)" stroke="#FFFFFF" stroke-width="2" stroke-linecap="round">
                    <path d="M4.0285369,0.672339704 L4.0285369,6.05105733" id="Line"></path>
                    <path d="M4.0285369,0.672339704 L4.0285369,6.05105733" id="Line" transform="translate(4.028537, 3.361699) rotate(90.000000) translate(-4.028537, -3.361699) "></path>
                </g>
                <path d="M139.655946,23.5318896 L139.655946,28.9106073" id="Line" stroke="#FFFFFF" stroke-width="2" stroke-linecap="round"></path>
                <path d="M139.655946,23.5318896 L139.655946,28.9106073" id="Line" stroke="#FFFFFF" stroke-width="2" stroke-linecap="round" transform="translate(139.655946, 26.221248) rotate(90.000000) translate(-139.655946, -26.221248) "></path>
                <g id="Group" transform="translate(93.999194, 17.480832)" stroke="#F9F9F9" stroke-width="2" stroke-linecap="round">
                    <path d="M4.0285369,0.672339704 L4.0285369,6.05105733" id="Line"></path>
                    <path d="M4.0285369,0.672339704 L4.0285369,6.05105733" id="Line" transform="translate(4.028537, 3.361699) rotate(90.000000) translate(-4.028537, -3.361699) "></path>
                </g>
                <g id="Rectangle-7">
                    <use fill="#C48CA1" fill-rule="evenodd" xlink:href="#path-6"></use>
                    <path stroke="#C48CA1" stroke-width="1" d="M8.84488724,233.129537 L119.655177,233.129537 L119.19964,237.508255 L9.37253194,237.508255 L8.84488724,233.129537 Z"></path>
                </g>
            </g>
        </g>
    </g>
</svg>