<?xml version="1.0" encoding="UTF-8"?>
<svg width="96px" height="223px" viewBox="0 0 96 223" version="1.1" xmlns="http://www.w3.org/2000/svg" xmlns:xlink="http://www.w3.org/1999/xlink">
    <!-- Generator: Sketch 43.2 (39069) - http://www.bohemiancoding.com/sketch -->
    <title>Group 2</title>
    <desc>Created with Sketch.</desc>
    <defs>
        <path d="M5.10815959,101.995113 C4.95161203,100.340958 6.17083406,99 7.81612187,99 L93.3048236,99 C94.9569374,99 96.1862816,100.340019 96.0504688,101.995113 L86.5994921,217.170149 C86.4637563,218.824304 85.0166997,220.165262 83.3544573,220.165262 L19.2909251,220.165262 C17.6344777,220.165262 16.1648437,218.825242 16.0082073,217.170149 L5.10815959,101.995113 Z" id="path-1"></path>
        <path d="M5.10815959,100.402215 C4.95161203,98.7480593 5.57975,98.5292199 6.4995194,99.8961455 L84.6789064,216.083319 C85.6038808,217.45798 85.0166997,218.572363 83.3544573,218.572363 L19.2909251,218.572363 C17.6344777,218.572363 16.1648437,217.232344 16.0082073,215.57725 L5.10815959,100.402215 Z" id="path-2"></path>
    </defs>
    <g id="Page-1" stroke="none" stroke-width="1" fill="none" fill-rule="evenodd">
        <g id="Desktop-Landscape" transform="translate(-266.000000, -315.000000)">
            <g id="Group-2" transform="translate(262.000000, 317.000000)">
                <path d="M75.5807541,104.38492 C77.9712893,104.38492 85.5278327,85.6788694 85.5278327,62.6037865 C85.5278327,39.5287035 77.7297952,20.8226528 75.5807541,20.8226528 C73.431713,20.8226528 65.8037069,39.5287035 65.8037069,62.6037865 C65.8037069,85.6788694 73.1902189,104.38492 75.5807541,104.38492 Z" id="Oval-3" stroke="#408F62" stroke-width="4" fill="#408F62" transform="translate(75.665770, 62.603786) rotate(30.000000) translate(-75.665770, -62.603786) "></path>
                <g id="Group" transform="translate(0.000000, 40.000000)" stroke="#1AB68B" stroke-width="4" fill="#1AB68B">
                    <path d="M29.9259896,67.6971371 C31.9484224,67.6971371 38.3413846,51.871505 38.3413846,32.3495985 C38.3413846,12.827692 31.7441143,-2.99794012 29.9259896,-2.99794012 C28.1078648,-2.99794012 21.6544439,12.827692 21.6544439,32.3495985 C21.6544439,51.871505 27.9035567,67.6971371 29.9259896,67.6971371 Z" id="Oval-3" transform="translate(29.997914, 32.349598) rotate(-42.000000) translate(-29.997914, -32.349598) "></path>
                </g>
                <path d="M53,100 C55.8607831,100 64.9037922,77.6142375 64.9037922,50 C64.9037922,22.3857625 55.5717841,0 53,0 C50.4282159,1.33431329e-15 41.2996866,22.3857625 41.2996866,50 C41.2996866,77.6142375 50.1392169,100 53,100 Z" id="Oval-3" stroke="#159C67" stroke-width="4" fill="#159C67"></path>
                <g id="Rectangle-4" transform="translate(50.577670, 159.582631) scale(1, -1) translate(-50.577670, -159.582631) ">
                    <use fill="#0E4D66" fill-rule="evenodd" xlink:href="#path-1"></use>
                    <path stroke="#0E4D66" stroke-width="4" d="M7.09926278,101.806677 C7.05382482,101.326558 7.34958891,101 7.81612187,101 L93.3048236,101 C93.785992,101 94.0975235,101.339757 94.0571684,101.831548 L84.6061918,217.006583 C84.5553316,217.626395 83.9722203,218.165262 83.3544573,218.165262 L19.2909251,218.165262 C18.6668516,218.165262 18.0588296,217.610619 17.9993105,216.981713 L7.09926278,101.806677 L7.09926278,101.806677 Z"></path>
                </g>
                <g id="Rectangle-4" transform="translate(45.100447, 158.786182) scale(1, -1) translate(-45.100447, -158.786182) ">
                    <use fill="#FFFFFF" fill-rule="evenodd" xlink:href="#path-2"></use>
                    <path stroke="#FFFFFF" stroke-width="4" d="M7.55698257,105.050261 L82.5973617,216.572363 L19.2909251,216.572363 C18.6668516,216.572363 18.0588296,216.017721 17.9993105,215.388814 L7.55698257,105.050261 Z"></path>
                </g>
            </g>
        </g>
    </g>
</svg>