<?xml version="1.0" encoding="UTF-8"?>
<svg width="123px" height="206px" viewBox="0 0 123 206" version="1.1" xmlns="http://www.w3.org/2000/svg" xmlns:xlink="http://www.w3.org/1999/xlink">
    <!-- Generator: Sketch 43.2 (39069) - http://www.bohemiancoding.com/sketch -->
    <title>Plant One</title>
    <desc>Created with Sketch.</desc>
    <defs></defs>
    <g id="Page-1" stroke="none" stroke-width="1" fill="none" fill-rule="evenodd">
        <g id="Desktop-Landscape" transform="translate(-410.000000, -326.000000)">
            <g id="Plant-One" transform="translate(411.000000, 327.000000)">
                <g id="Stalks" transform="translate(12.000000, 5.000000)" stroke="#678F49" stroke-width="3" stroke-linecap="round">
                    <path d="M94.3313418,14 C94.3313418,14 86.0479115,23.4854565 79.6963661,51.2551402 C73.3448207,79.0248239 72,111.934924 72,111.934924" id="Line"></path>
                    <path d="M49.7554693,0 C49.7554693,0 36.9522086,25.4433001 32.2543752,51.239641 C27.5565417,77.035982 29.3270581,112.174743 29.3270581,112.174743" id="Line" transform="translate(39.377735, 56.087372) scale(-1, 1) translate(-39.377735, -56.087372) "></path>
                    <path d="M32.1871235,40 C32.1871235,40 17.2136849,46.5453801 7.40903561,66.6838462 C-2.39561364,86.8223124 0.355468451,112.174743 0.355468451,112.174743" id="Line" transform="translate(16.093562, 76.087372) scale(-1, 1) translate(-16.093562, -76.087372) "></path>
                    <path d="M41.8718167,66.4865645 C41.8718167,66.4865645 21.4359084,47.3917944 8.32251727,66.4865645 C-1.11673108,78.462645 1.26895011,111.977462 1.26895011,111.977462" id="Line" transform="translate(21.435908, 84.988731) scale(-1, 1) translate(-21.435908, -84.988731) "></path>
                    <path d="M94.0915285,44 C94.0915285,44 74.2136849,46.7085359 64.4090356,66.8470021 C54.6043864,86.9854683 57.3554685,112.337899 57.3554685,112.337899" id="Line"></path>
                    <path d="M105.007833,76.4621309 C105.007833,76.4621309 87.0821109,53.0218739 73.6555175,68.0023184 C62.9456329,80.1420884 66.6019503,113.493216 66.6019503,113.493216" id="Line"></path>
                </g>
                <g id="Pot" transform="translate(13.000000, 116.000000)" fill="#D1A1AC">
                    <path d="M5.71292242,2.51756805 C4.05939845,2.51756805 3.11116368,3.81037186 3.58982041,5.3881166 L28.0534477,86.0249428 C28.2123675,86.5487732 28.7825387,86.9734216 29.3380754,86.9734216 L78.395594,86.9734216 C78.9461545,86.9734216 79.5220943,86.5391548 79.6799224,86.0103921 L104.313883,3.48059752 C104.472637,2.94873103 104.147098,2.51756805 103.592968,2.51756805 L5.71292242,2.51756805 Z" id="Path" stroke="#D1A1AC" stroke-width="4"></path>
                    <rect id="Rectangle" x="0" y="0" width="107" height="14" rx="7"></rect>
                </g>
                <g id="Pot-Detaiks" transform="translate(28.000000, 154.000000)" fill="#13314D">
                    <polygon id="Path-4" stroke="#13314D" stroke-width="2" points="4.78510464 1.84313052 0.10941442 8.12884121 4.78510464 14.7599238 9.46079485 8.12884121"></polygon>
                    <polygon id="Path-4" stroke="#13314D" stroke-width="2" points="15.6632517 1.85040015 10.9875615 8.13611084 15.6632517 14.7671934 20.3389419 8.13611084"></polygon>
                    <polygon id="Path-4" stroke="#13314D" stroke-width="2" points="26.6632517 1.85040015 21.9875615 8.13611084 26.6632517 14.7671934 31.3389419 8.13611084"></polygon>
                    <polygon id="Path-4" stroke="#13314D" stroke-width="2" points="37.6632517 1.85040015 32.9875615 8.13611084 37.6632517 14.7671934 42.3389419 8.13611084"></polygon>
                    <polygon id="Path-4" stroke="#13314D" stroke-width="2" points="48.6632517 1.85040015 43.9875615 8.13611084 48.6632517 14.7671934 53.3389419 8.13611084"></polygon>
                    <polygon id="Path-4" stroke="#13314D" stroke-width="2" points="59.6632517 1.85040015 54.9875615 8.13611084 59.6632517 14.7671934 64.3389419 8.13611084"></polygon>
                    <polygon id="Path-4" stroke="#13314D" stroke-width="2" points="70.6632517 1.85040015 65.9875615 8.13611084 70.6632517 14.7671934 75.3389419 8.13611084"></polygon>
                    <polygon id="Path-4" points="80.8006064 0.780817675 75.8784557 8.30609122 77.6833696 11.5086735"></polygon>
                </g>
                <path d="M61.1773835,60.8850258 C61.1773835,60.8850258 69.0097448,55.7137767 70.642243,52.2136718 C72.2747412,48.7135668 72.9488598,41.5773763 72.9488598,41.5773763 C72.9771038,41.307094 72.7895841,41.1793118 72.5515389,41.2869203 C72.5515389,41.2869203 66.3158781,43.8673311 63.7213915,48.2118138 C61.1269048,52.5562966 61.1773835,60.8850258 61.1773835,60.8850258 Z" id="Oval-2" stroke="#8CA35F" stroke-width="2" fill="#8CA35F"></path>
                <path d="M98.1479591,35.6368516 C98.1479591,35.6368516 104.608942,35.2823068 109.650476,33.1009344 C114.692011,30.9195621 117.759476,27.1240472 117.486855,27.1171134 C117.486855,27.1171134 112.166544,26.7981625 107.632067,28.8317319 C103.09759,30.8653014 98.1479591,35.6368516 98.1479591,35.6368516 Z" id="Oval-2" stroke="#678F49" stroke-width="2" fill="#678F49" transform="translate(107.825798, 31.367890) rotate(-9.000000) translate(-107.825798, -31.367890) "></path>
                <path d="M79.2984196,41.1409147 C79.2984196,41.1409147 85.7594026,40.7863698 90.8009369,38.6049975 C95.8424712,36.4236252 98.9099361,32.6281102 98.6373157,32.6211764 C98.6373157,32.6211764 93.3170047,32.3022255 88.7825277,34.335795 C84.2480506,36.3693645 79.2984196,41.1409147 79.2984196,41.1409147 Z" id="Oval-2" stroke="#8CA35F" stroke-width="2" fill="#8CA35F" transform="translate(88.976259, 36.871953) rotate(-79.000000) translate(-88.976259, -36.871953) "></path>
                <path d="M70.5646283,55.5217556 C70.5646283,55.5217556 76.3284583,56.2514574 81.5868639,53.37925 C86.8452695,50.5070427 89.0517388,45.5797057 88.7791183,45.5727719 C88.7791183,45.5727719 84.6062599,44.183849 78.9243303,47.2873905 C73.2424007,50.390932 70.5646283,55.5217556 70.5646283,55.5217556 Z" id="Oval-2" stroke="#678F49" stroke-width="2" fill="#678F49" transform="translate(79.683068, 50.433761) rotate(-79.000000) translate(-79.683068, -50.433761) "></path>
                <path d="M63.1773835,85.8850258 C63.1773835,85.8850258 71.0097448,80.7137767 72.642243,77.2136718 C74.2747412,73.7135668 74.9488598,66.5773763 74.9488598,66.5773763 C74.9771038,66.307094 74.7895841,66.1793118 74.5515389,66.2869203 C74.5515389,66.2869203 68.3158781,68.8673311 65.7213915,73.2118138 C63.1269048,77.5562966 63.1773835,85.8850258 63.1773835,85.8850258 Z" id="Oval-2" stroke="#678F49" stroke-width="2" fill="#678F49" transform="translate(69.064497, 76.066930) rotate(5.000000) translate(-69.064497, -76.066930) "></path>
                <path d="M88.4964412,108.878058 C88.4964412,108.878058 93.6900701,106.158037 96.1780471,101.840455 C98.6660241,97.5228739 98.130227,93.3121301 98.130227,93.3121301 C98.1088852,93.0353285 97.8821619,92.9022824 97.6362148,93.0146805 C97.6362148,93.0146805 92.6668032,95.0666306 90.5611382,98.5925788 C88.4554731,102.118527 88.4964412,108.878058 88.4964412,108.878058 Z" id="Oval-2" stroke="#678F49" stroke-width="2" fill="#678F49" transform="translate(93.337585, 100.926409) rotate(11.000000) translate(-93.337585, -100.926409) "></path>
                <path d="M42.1597427,57.3943244 C42.1597427,57.3943244 49.992104,52.2230753 51.6246022,48.7229704 C53.2571004,45.2228654 53.9312189,38.0866749 53.9312189,38.0866749 C53.9594629,37.8163926 53.7719432,37.6886104 53.5338981,37.7962189 C53.5338981,37.7962189 47.2982373,40.3766297 44.7037506,44.7211124 C42.109264,49.0655952 42.1597427,57.3943244 42.1597427,57.3943244 Z" id="Oval-2" stroke="#678F49" stroke-width="2" fill="#678F49" transform="translate(48.046856, 47.576228) rotate(-85.000000) translate(-48.046856, -47.576228) "></path>
                <path d="M2.40288822,81.8860325 C2.40288822,81.8860325 6.51610023,81.0733952 8.81260157,77.8885093 C11.1091029,74.7036235 11.5664425,69.5766074 11.5664425,69.5766074 C11.5980289,69.3015313 11.4185037,69.1523401 11.1586082,69.2505071 C11.1586082,69.2505071 6.31048213,70.8998629 4.23693253,73.7755498 C2.16338293,76.6512367 2.40288822,81.8860325 2.40288822,81.8860325 Z" id="Oval-2" stroke="#678F49" stroke-width="2" fill="#678F49" transform="translate(6.982249, 75.553147) rotate(-159.000000) translate(-6.982249, -75.553147) "></path>
                <path d="M48.4168786,75.5160398 C48.4168786,75.5160398 54.0654258,71.7866352 55.2427519,69.2624273 C56.4200779,66.7382195 56.8894183,61.7424565 56.8894183,61.7424565 C56.9190772,61.4642941 56.7323369,61.3310454 56.4859298,61.4444293 C56.4859298,61.4444293 52.1226613,63.2432082 50.2515678,66.3763649 C48.3804743,69.5095217 48.4168786,75.5160398 48.4168786,75.5160398 Z" id="Oval-2" stroke="#8CA35F" stroke-width="2" fill="#8CA35F" transform="translate(52.654673, 68.460021) rotate(-85.000000) translate(-52.654673, -68.460021) "></path>
                <path d="M29.33419,92.5310265 C29.33419,92.5310265 33.9706578,89.6003494 36.1600633,86.277414 C38.3494688,82.9544785 37.8763208,78.4497808 37.8763208,78.4497808 C37.8675456,78.3415356 37.7835472,78.283435 37.6682986,78.3299104 C37.6682986,78.3299104 33.4946826,79.8651357 31.1688793,83.3913516 C28.843076,86.9175674 29.33419,92.5310265 29.33419,92.5310265 Z" id="Oval-2" stroke="#8CA35F" stroke-width="2" fill="#8CA35F" transform="translate(33.605152, 85.422395) rotate(-85.000000) translate(-33.605152, -85.422395) "></path>
                <path d="M86.1607262,71.892711 C86.1607262,71.892711 91.8092734,68.1633063 92.9865995,65.6390985 C94.1639256,63.1148906 94.6332659,58.1191276 94.6332659,58.1191276 C94.6629248,57.8409652 94.4761846,57.7077165 94.2297774,57.8211004 C94.2297774,57.8211004 89.8665089,59.6198793 87.9954155,62.7530361 C86.124322,65.8861928 86.1607262,71.892711 86.1607262,71.892711 Z" id="Oval-2" stroke="#8CA35F" stroke-width="2" fill="#8CA35F" transform="translate(90.398521, 64.836692) scale(-1, 1) rotate(-106.000000) translate(-90.398521, -64.836692) "></path>
                <path d="M44.7129943,94.0560188 C44.7129943,94.0560188 50.3615416,90.3266141 51.5388676,87.8024063 C52.7161937,85.2781984 53.185534,80.2824354 53.185534,80.2824354 C53.215193,80.004273 53.0284527,79.8710243 52.7820456,79.9844082 C52.7820456,79.9844082 48.4187771,81.7831871 46.5476836,84.9163438 C44.6765901,88.0495006 44.7129943,94.0560188 44.7129943,94.0560188 Z" id="Oval-2" stroke="#8CA35F" stroke-width="2" fill="#8CA35F" transform="translate(48.950789, 87.000000) scale(-1, 1) rotate(-61.000000) translate(-48.950789, -87.000000) "></path>
                <path d="M59.7692341,16.093695 C59.7692341,16.093695 57.1824926,18.899425 55.5127034,23.2981657 C53.8429141,27.6969065 52.9377404,34.08996 52.9377404,34.08996" id="Line" stroke="#678F49" stroke-width="3" stroke-linecap="round"></path>
                <path d="M107.702711,37.6596047 C107.702711,37.6596047 103.305117,40.8859272 100.530519,46.9779997 C97.7559214,53.0700723 96.4506218,62.3653647 96.4506218,62.3653647" id="Line" stroke="#678F49" stroke-width="3" stroke-linecap="round" transform="translate(102.076666, 50.012485) rotate(27.000000) translate(-102.076666, -50.012485) "></path>
                <path d="M62.7692341,30.093695 C62.7692341,30.093695 60.8629575,31.4544442 59.2093226,35.7763763 C57.5556878,40.0983084 56.5840414,46.2592852 56.5840414,46.2592852" id="Line" stroke="#678F49" stroke-width="3" stroke-linecap="round"></path>
                <path d="M112.185193,73 C112.185193,73 110.278916,74.3607492 108.625281,78.6826813 C106.971646,83.0046134 106,89.1655902 106,89.1655902" id="Line" stroke="#678F49" stroke-width="3" stroke-linecap="round" transform="translate(109.092596, 81.082795) rotate(149.000000) translate(-109.092596, -81.082795) "></path>
                <path d="M108.116597,73.2205476 C108.116597,73.2205476 104.406894,74.7437296 103.609036,77.0681579 C102.811178,79.3925863 102.648828,81.8045762 102.648828,81.8045762" id="Line" stroke="#678F49" stroke-width="3" stroke-linecap="round" transform="translate(105.382713, 77.512562) rotate(157.000000) translate(-105.382713, -77.512562) "></path>
                <path d="M54.6584675,29.2288538 C54.6584675,29.2288538 51.6290065,30.7414694 47.9510861,33.9758062 C44.2731656,37.210143 41.2437046,41.0256999 41.2437046,41.0256999" id="Line" stroke="#678F49" stroke-width="3" stroke-linecap="round" transform="translate(47.951086, 35.127277) scale(-1, 1) translate(-47.951086, -35.127277) "></path>
                <path d="M43.8198845,100.261909 C43.8198845,100.261909 40.1602536,101.767218 37.4945008,104.57142 C34.828748,107.375622 33.2746849,111.354787 33.2746849,111.354787" id="Line" stroke="#678F49" stroke-width="3" stroke-linecap="round" transform="translate(38.547285, 105.808348) scale(-1, 1) translate(-38.547285, -105.808348) "></path>
                <path d="M40.1064599,105.479982 C40.1064599,105.479982 38.9311972,105.127574 36.3032299,105.479982 C33.6752627,105.832389 32.5,106.5 32.5,106.5" id="Line" stroke="#678F49" stroke-width="3" stroke-linecap="round"></path>
                <path d="M26.4114889,51.4949015 C26.4114889,51.4949015 23.3820279,53.007517 19.7041074,56.2418538 C16.0261869,59.4761906 12.9967259,63.2917475 12.9967259,63.2917475" id="Line" stroke="#678F49" stroke-width="3" stroke-linecap="round" transform="translate(19.704107, 57.393325) scale(-1, 1) rotate(31.000000) translate(-19.704107, -57.393325) "></path>
                <path d="M29.4114889,65.4949015 C29.4114889,65.4949015 26.3820279,67.007517 22.7041074,70.2418538 C19.0261869,73.4761906 15.9967259,77.2917475 15.9967259,77.2917475" id="Line" stroke="#678F49" stroke-width="3" stroke-linecap="round" transform="translate(22.704107, 71.393325) scale(-1, 1) rotate(98.000000) translate(-22.704107, -71.393325) "></path>
                <path d="M32.6219489,41.1954749 C32.6219489,41.1954749 29.5924879,42.7080904 25.9145675,45.9424272 C22.236647,49.176764 19.207186,52.9923209 19.207186,52.9923209" id="Line" stroke="#678F49" stroke-width="3" stroke-linecap="round" transform="translate(25.914567, 47.093898) rotate(-55.000000) translate(-25.914567, -47.093898) "></path>
                <path d="M32.3129783,40.5959783 C32.3129783,40.5959783 30.5958558,41.763426 28.0319914,44.9056026 C25.468127,48.0477793 24.4688998,50.2805207 24.4688998,50.2805207" id="Line" stroke="#678F49" stroke-width="3" stroke-linecap="round" transform="translate(28.390939, 45.438250) rotate(-13.000000) translate(-28.390939, -45.438250) "></path>
                <path d="M102.165979,21.3550261 C102.165979,21.3550261 100.049243,22.4119164 97.4794171,24.6718029 C94.9095911,26.9316894 92.7928549,29.5976843 92.7928549,29.5976843" id="Line" stroke="#678F49" stroke-width="3" stroke-linecap="round" transform="translate(97.479417, 25.476355) scale(-1, 1) rotate(-32.000000) translate(-97.479417, -25.476355) "></path>
                <circle id="Oval" stroke="#FFFFFF" stroke-width="2" fill="#FFFCFC" cx="61.5" cy="13.5" r="2.5"></circle>
                <circle id="Oval" stroke="#FFFFFF" stroke-width="2" fill="#FFFCFC" cx="64.5" cy="27.5" r="2.5"></circle>
                <circle id="Oval" stroke="#FFFFFF" stroke-width="2" fill="#FFFCFC" cx="39.5" cy="2.5" r="2.5"></circle>
                <circle id="Oval" stroke="#FFFFFF" stroke-width="2" fill="#FFFCFC" cx="108.5" cy="16.5" r="2.5"></circle>
                <circle id="Oval" stroke="#FFFFFF" stroke-width="2" fill="#FFFCFC" cx="115.5" cy="40.5" r="2.5"></circle>
                <circle id="Oval" stroke="#FFFFFF" stroke-width="2" fill="#FFFCFC" cx="109.5" cy="48.5" r="2.5"></circle>
                <circle id="Oval" stroke="#FFFFFF" stroke-width="2" fill="#FFFCFC" cx="118.5" cy="84.5" r="2.5"></circle>
                <circle id="Oval" stroke="#FFFFFF" stroke-width="2" fill="#FFFCFC" cx="109.5" cy="92.5" r="2.5"></circle>
                <circle id="Oval" stroke="#FFFFFF" stroke-width="2" fill="#FFFCFC" cx="102.5" cy="85.5" r="2.5"></circle>
                <circle id="Oval" stroke="#FFFFFF" stroke-width="2" fill="#FFFCFC" cx="94.5" cy="16.5" r="2.5"></circle>
                <circle id="Oval" stroke="#FFFFFF" stroke-width="2" fill="#FFFCFC" cx="38.5" cy="27.5" r="2.5"></circle>
                <circle id="Oval" stroke="#FFFFFF" stroke-width="2" fill="#FFFCFC" cx="9.26516475" cy="42.7052076" r="2.5"></circle>
                <circle id="Oval" stroke="#FFFFFF" stroke-width="2" fill="#FFFCFC" cx="7.26516475" cy="55.7052076" r="2.5"></circle>
                <circle id="Oval" stroke="#FFFFFF" stroke-width="2" fill="#FFFCFC" cx="16.2651647" cy="81.7052076" r="2.5"></circle>
                <circle id="Oval" stroke="#FFFFFF" stroke-width="2" cx="30.5" cy="98.5" r="2.5"></circle>
                <circle id="Oval" stroke="#FFFFFF" stroke-width="2" fill="#FFFCFC" cx="29.5" cy="107.5" r="2.5"></circle>
                <circle id="Oval" stroke="#FFFFFF" stroke-width="2" fill="#FFFCFC" cx="25.2651647" cy="34.7052076" r="2.5"></circle>
                <circle id="Oval" stroke="#FFFFFF" stroke-width="2" fill="#FFFCFC" cx="33.2651647" cy="36.7052076" r="2.5"></circle>
                <circle id="Oval" stroke="#FFFFFF" stroke-width="2" fill="#FFFCFC" cx="30.5" cy="98.5" r="2.5"></circle>
                <polygon id="Rectangle-6" fill="#8C6B73" points="17.0567295 130 116.255291 130 114.776009 135 18.6308777 135"></polygon>
            </g>
        </g>
    </g>
</svg>