<?xml version="1.0" encoding="UTF-8"?>
<svg width="72px" height="111px" viewBox="0 0 72 111" version="1.1" xmlns="http://www.w3.org/2000/svg" xmlns:xlink="http://www.w3.org/1999/xlink">
    <!-- Generator: Sketch 43.2 (39069) - http://www.bohemiancoding.com/sketch -->
    <title>Group</title>
    <desc>Created with Sketch.</desc>
    <defs>
        <rect id="path-1" x="1" y="41" width="70" height="69" rx="2"></rect>
    </defs>
    <g id="Page-1" stroke="none" stroke-width="1" fill="none" fill-rule="evenodd">
        <g id="Desktop-Landscape" transform="translate(-950.000000, -425.000000)">
            <g id="Group" transform="translate(950.000000, 426.000000)">
                <path d="M46.9922394,26.059921 C53.7673457,26.059921 59.0197476,21.8684596 59.0197476,15.8192575 L34.7492506,15.8192575 C34.7492506,21.8684596 40.2171331,26.059921 46.9922394,26.059921 Z" id="Oval" stroke="#84B79B" stroke-width="3" fill="#84B79B" transform="translate(46.884499, 20.939589) rotate(-48.000000) translate(-46.884499, -20.939589) "></path>
                <path d="M27.9922394,26.059921 C34.7673457,26.059921 40.0197476,21.8684596 40.0197476,15.8192575 L15.7492506,15.8192575 C15.7492506,21.8684596 21.2171331,26.059921 27.9922394,26.059921 Z" id="Oval" stroke="#84B79B" stroke-width="3" fill="#84B79B" transform="translate(27.884499, 20.939589) scale(-1, 1) rotate(-48.000000) translate(-27.884499, -20.939589) "></path>
                <path d="M51.9922394,36.059921 C58.7673457,36.059921 64.0197476,31.8684596 64.0197476,25.8192575 L39.7492506,25.8192575 C39.7492506,31.8684596 45.2171331,36.059921 51.9922394,36.059921 Z" id="Oval" stroke="#519970" stroke-width="3" fill="#519970" transform="translate(51.884499, 30.939589) rotate(-33.000000) translate(-51.884499, -30.939589) "></path>
                <path d="M22.9922394,36.059921 C29.7673457,36.059921 35.0197476,31.8684596 35.0197476,25.8192575 L10.7492506,25.8192575 C10.7492506,31.8684596 16.2171331,36.059921 22.9922394,36.059921 Z" id="Oval" stroke="#519970" stroke-width="3" fill="#519970" transform="translate(22.884499, 30.939589) scale(-1, 1) rotate(-33.000000) translate(-22.884499, -30.939589) "></path>
                <path d="M37.5,22.6893521 C42.7467051,22.6893521 45.8052429,18.4264372 45.8052429,12.858583 C45.8052429,7.29072879 38.9666236,0.724597482 37.5,0.724597482 C36.0333764,0.724597482 29.6125041,7.2220361 29.6125041,12.858583 C29.6125041,17.5530034 32.2532949,22.6893521 37.5,22.6893521 Z" id="Oval-7" stroke="#B9D6C5" stroke-width="3" fill="#B9D6C5"></path>
                <path d="M37.5,32.6893521 C42.7467051,32.6893521 46.4072228,29.1944204 46.4072228,24.5 C46.4072228,19.8055796 38.9666236,10.7245975 37.5,10.7245975 C36.0333764,10.7245975 29.5592851,19.8055796 29.5592851,24.5 C29.5592851,29.1944204 32.2532949,32.6893521 37.5,32.6893521 Z" id="Oval-7" stroke="#84B79B" stroke-width="3" fill="#84B79B"></path>
                <path d="M51.2846264,42 C58.0597327,42 63.4095712,40.049202 63.4095712,34 L39.1390742,34 C39.1390742,40.049202 44.5095201,42 51.2846264,42 Z" id="Oval" stroke="#3B825A" stroke-width="3" fill="#3B825A"></path>
                <path d="M21.2846264,42 C28.0597327,42 33.4095712,40.049202 33.4095712,34 L9.13907423,34 C9.13907423,40.049202 14.5095201,42 21.2846264,42 Z" id="Oval" stroke="#3B825A" stroke-width="3" fill="#3B825A"></path>
                <path d="M38,41 C45.7319865,41 51.837408,38.7736816 51.837408,31.8701223 L24.1390742,31.8701223 C24.1390742,38.7736816 30.2680135,41 38,41 Z" id="Oval" stroke="#519970" stroke-width="3" fill="#519970"></path>
                <g id="Rectangle-12">
                    <use fill="#EFAAC4" fill-rule="evenodd" xlink:href="#path-1"></use>
                    <rect stroke="#EFAAC4" stroke-width="4" x="3" y="43" width="66" height="65" rx="2"></rect>
                </g>
                <path d="M0.970947222,51.1599348 C0.970947222,51.1599348 13.6483399,52.3439532 22.0677334,53.276802 C30.4871269,54.2096508 70.9931172,53.276802 70.9931172,53.276802" id="Path-33" stroke="#576660" stroke-width="3" opacity="0.39"></path>
                <path d="M1.06511657,66.6150506 C1.06511657,66.6150506 22.9349147,68.3725063 32.3063804,64.7505697 C41.6778462,61.1286331 71.0057726,61.3407625 71.0057726,61.3407625" id="Path-34" stroke="#576660" stroke-width="3" opacity="0.39"></path>
                <path d="M1.00822406,96.5268266 C1.00822406,96.5268266 21.4785941,96.5764411 32.2357788,95.0719355 C42.9929635,93.5674299 70.9923997,93.6532876 70.9923997,93.6532876" id="Path-34" stroke="#576660" stroke-width="3" opacity="0.39"></path>
                <path d="M30.7544079,109.993706 C30.7544079,109.993706 30.7572844,101.613824 39,100.071936 C47.2427156,98.5300467 70.9979318,98.6473702 70.9979318,98.6473702" id="Path-34" stroke="#576660" stroke-width="3" opacity="0.393512228"></path>
                <path d="M1.00343577,85.4943434 C1.00343577,85.4943434 12.4415416,85.5933621 19.7805491,82.8793354 C27.1195566,80.1653087 24.7245021,76.2107038 35.2488494,74.1635938 C45.7731966,72.1164839 70.9960307,72.0751135 70.9960307,72.0751135" id="Path-34" stroke="#576660" stroke-width="3" opacity="0.39"></path>
                <path d="M38.1002291,84.5319615 C38.1002291,84.5319615 32.8516405,83.7693538 35.5742614,80.0325287 C37.6574512,78.694929 44.4309727,78.7266339 50.2752757,78.7266339 C58.705038,78.7266339 63.2018855,80.0401344 63.2018855,82.511219 C63.2018855,84.9823037 50.2752757,86.2958042 50.2752757,86.2958042" id="Path-35" stroke="#576660" stroke-width="3" opacity="0.39" stroke-linecap="round" transform="translate(48.996400, 82.511187) rotate(-4.000000) translate(-48.996400, -82.511187) "></path>
            </g>
        </g>
    </g>
</svg>