<?xml version="1.0" encoding="UTF-8"?>
<svg width="81px" height="172px" viewBox="0 0 81 172" version="1.1" xmlns="http://www.w3.org/2000/svg" xmlns:xlink="http://www.w3.org/1999/xlink">
    <!-- Generator: Sketch 43.2 (39069) - http://www.bohemiancoding.com/sketch -->
    <title>Group 5</title>
    <desc>Created with Sketch.</desc>
    <defs>
        <path d="M5.07685579,25.2750801 L75.532735,25.2750801 L70.9668555,90.1633713 C70.8890587,91.2689848 69.9301008,92.1652616 68.8351098,92.1652616 L11.9396831,92.1652616 C10.8401493,92.1652616 9.88361375,91.2702626 9.80299334,90.1633713 L5.07685579,25.2750801 Z" id="path-1"></path>
        <linearGradient x1="50%" y1="100%" x2="50%" y2="0%" id="linearGradient-2">
            <stop stop-color="#1A3C5B" offset="0%"></stop>
            <stop stop-color="#13314D" offset="100%"></stop>
        </linearGradient>
    </defs>
    <g id="Page-1" stroke="none" stroke-width="1" fill="none" fill-rule="evenodd">
        <g id="Desktop-Landscape" transform="translate(-683.000000, -365.000000)">
            <g id="Group-5" transform="translate(683.000000, 366.000000)">
                <g id="Group-4">
                    <path d="M41,81.5 L41,15" id="Line" stroke="#8CA35F" stroke-width="3" stroke-linecap="round"></path>
                    <path d="M67,81.5 L67,26" id="Line" stroke="#8CA35F" stroke-width="3" stroke-linecap="round"></path>
                    <path d="M15,81.5 L15,26" id="Line" stroke="#8CA35F" stroke-width="3" stroke-linecap="round"></path>
                    <g id="Group" transform="translate(0.000000, 78.000000)">
                        <g id="Rectangle-4">
                            <use fill="#13314D" fill-rule="evenodd" xlink:href="#path-1"></use>
                            <path stroke="#13314D" stroke-width="4" d="M7.22782367,27.2750801 L73.3870594,27.2750801 L68.9717884,90.0229879 C68.9676277,90.0821174 68.87896,90.1652616 68.8351098,90.1652616 L11.9396831,90.1652616 C11.8910551,90.1652616 11.8023803,90.0822152 11.7977094,90.0180862 L7.22782367,27.2750801 Z"></path>
                        </g>
                        <rect id="Rectangle" fill="url(#linearGradient-2)" x="0" y="0" width="81" height="29"></rect>
                    </g>
                    <path d="M35.5307886,13.7598831 C35.5307886,13.7598831 34.7780159,7.77570407 37.3719238,4.89487751 C39.9658316,2.01405095 46.0501766,2.14290618 46.0501766,2.14290618 C46.0501766,2.14290618 46.635303,7.81805514 43.727123,11.0479163 C40.818943,14.2777774 35.5307886,13.7598831 35.5307886,13.7598831 Z" id="Path-8" stroke="#8CA35F" fill="#8CA35F" transform="translate(40.763805, 7.966228) rotate(-42.000000) translate(-40.763805, -7.966228) "></path>
                    <path d="M43.0864664,44.7607403 C43.0864664,44.7607403 42.8959526,39.0506644 45.4898605,36.1698378 C48.0837684,33.2890112 53.6058543,33.1437633 53.6058543,33.1437633 C53.6058543,33.1437633 53.8134876,38.1632629 50.9053076,41.393124 C47.9971275,44.6229852 43.0864664,44.7607403 43.0864664,44.7607403 Z" id="Path-8" stroke="#8CA35F" fill="#8CA35F" transform="translate(48.346219, 38.952252) rotate(1.000000) translate(-48.346219, -38.952252) "></path>
                    <path d="M43.0864664,62.7607403 C43.0864664,62.7607403 42.8959526,57.0506644 45.4898605,54.1698378 C48.0837684,51.2890112 53.6058543,51.1437633 53.6058543,51.1437633 C53.6058543,51.1437633 53.8134876,56.1632629 50.9053076,59.393124 C47.9971275,62.6229852 43.0864664,62.7607403 43.0864664,62.7607403 Z" id="Path-8" stroke="#8CA35F" fill="#8CA35F" transform="translate(48.346219, 56.952252) rotate(1.000000) translate(-48.346219, -56.952252) "></path>
                    <g id="Group-2" transform="translate(28.000000, 16.000000)" stroke="#8CA35F" fill="#8CA35F">
                        <path d="M15.0864664,12.7607403 C15.0864664,12.7607403 14.8959526,7.05066437 17.4898605,4.1698378 C20.0837684,1.28901124 25.6058543,1.14376332 25.6058543,1.14376332 C25.6058543,1.14376332 25.8134876,6.16326289 22.9053076,9.39312403 C19.9971275,12.6229852 15.0864664,12.7607403 15.0864664,12.7607403 Z" id="Path-8" transform="translate(20.346219, 6.952252) rotate(1.000000) translate(-20.346219, -6.952252) "></path>
                        <path d="M0.414883313,12.680035 C0.414883313,12.680035 0.224369564,6.96995911 2.81827745,4.08913254 C5.41218534,1.20830598 10.9342713,1.06305806 10.9342713,1.06305806 C10.9342713,1.06305806 11.1419045,6.08255763 8.2337245,9.31241877 C5.32554447,12.5422799 0.414883313,12.680035 0.414883313,12.680035 Z" id="Path-8" transform="translate(5.674636, 6.871547) scale(-1, 1) rotate(1.000000) translate(-5.674636, -6.871547) "></path>
                    </g>
                    <g id="Group-2" transform="translate(2.000000, 24.000000)" stroke="#8CA35F" fill="#8CA35F">
                        <path d="M15.0864664,12.7607403 C15.0864664,12.7607403 14.8959526,7.05066437 17.4898605,4.1698378 C20.0837684,1.28901124 25.6058543,1.14376332 25.6058543,1.14376332 C25.6058543,1.14376332 25.8134876,6.16326289 22.9053076,9.39312403 C19.9971275,12.6229852 15.0864664,12.7607403 15.0864664,12.7607403 Z" id="Path-8" transform="translate(20.346219, 6.952252) rotate(1.000000) translate(-20.346219, -6.952252) "></path>
                        <path d="M0.414883313,12.680035 C0.414883313,12.680035 0.224369564,6.96995911 2.81827745,4.08913254 C5.41218534,1.20830598 10.9342713,1.06305806 10.9342713,1.06305806 C10.9342713,1.06305806 11.1419045,6.08255763 8.2337245,9.31241877 C5.32554447,12.5422799 0.414883313,12.680035 0.414883313,12.680035 Z" id="Path-8" transform="translate(5.674636, 6.871547) scale(-1, 1) rotate(1.000000) translate(-5.674636, -6.871547) "></path>
                    </g>
                    <g id="Group-2" transform="translate(2.000000, 40.000000)" stroke="#8CA35F" fill="#8CA35F">
                        <path d="M15.0864664,12.7607403 C15.0864664,12.7607403 14.8959526,7.05066437 17.4898605,4.1698378 C20.0837684,1.28901124 25.6058543,1.14376332 25.6058543,1.14376332 C25.6058543,1.14376332 25.8134876,6.16326289 22.9053076,9.39312403 C19.9971275,12.6229852 15.0864664,12.7607403 15.0864664,12.7607403 Z" id="Path-8" transform="translate(20.346219, 6.952252) rotate(1.000000) translate(-20.346219, -6.952252) "></path>
                        <path d="M0.414883313,12.680035 C0.414883313,12.680035 0.224369564,6.96995911 2.81827745,4.08913254 C5.41218534,1.20830598 10.9342713,1.06305806 10.9342713,1.06305806 C10.9342713,1.06305806 11.1419045,6.08255763 8.2337245,9.31241877 C5.32554447,12.5422799 0.414883313,12.680035 0.414883313,12.680035 Z" id="Path-8" transform="translate(5.674636, 6.871547) scale(-1, 1) rotate(1.000000) translate(-5.674636, -6.871547) "></path>
                    </g>
                    <g id="Group-2" transform="translate(2.000000, 56.000000)" stroke="#8CA35F" fill="#8CA35F">
                        <path d="M15.0864664,12.7607403 C15.0864664,12.7607403 14.8959526,7.05066437 17.4898605,4.1698378 C20.0837684,1.28901124 25.6058543,1.14376332 25.6058543,1.14376332 C25.6058543,1.14376332 25.8134876,6.16326289 22.9053076,9.39312403 C19.9971275,12.6229852 15.0864664,12.7607403 15.0864664,12.7607403 Z" id="Path-8" transform="translate(20.346219, 6.952252) rotate(1.000000) translate(-20.346219, -6.952252) "></path>
                        <path d="M0.414883313,12.680035 C0.414883313,12.680035 0.224369564,6.96995911 2.81827745,4.08913254 C5.41218534,1.20830598 10.9342713,1.06305806 10.9342713,1.06305806 C10.9342713,1.06305806 11.1419045,6.08255763 8.2337245,9.31241877 C5.32554447,12.5422799 0.414883313,12.680035 0.414883313,12.680035 Z" id="Path-8" transform="translate(5.674636, 6.871547) scale(-1, 1) rotate(1.000000) translate(-5.674636, -6.871547) "></path>
                    </g>
                    <g id="Group-3" transform="translate(54.000000, 24.000000)" stroke="#8CA35F" fill="#8CA35F">
                        <path d="M15.0864664,12.7607403 C15.0864664,12.7607403 14.8959526,7.05066437 17.4898605,4.1698378 C20.0837684,1.28901124 25.6058543,1.14376332 25.6058543,1.14376332 C25.6058543,1.14376332 25.8134876,6.16326289 22.9053076,9.39312403 C19.9971275,12.6229852 15.0864664,12.7607403 15.0864664,12.7607403 Z" id="Path-8" transform="translate(20.346219, 6.952252) rotate(1.000000) translate(-20.346219, -6.952252) "></path>
                        <path d="M0.414883313,12.680035 C0.414883313,12.680035 0.224369564,6.96995911 2.81827745,4.08913254 C5.41218534,1.20830598 10.9342713,1.06305806 10.9342713,1.06305806 C10.9342713,1.06305806 11.1419045,6.08255763 8.2337245,9.31241877 C5.32554447,12.5422799 0.414883313,12.680035 0.414883313,12.680035 Z" id="Path-8" transform="translate(5.674636, 6.871547) scale(-1, 1) rotate(1.000000) translate(-5.674636, -6.871547) "></path>
                    </g>
                    <g id="Group-3" transform="translate(54.000000, 40.000000)" stroke="#8CA35F" fill="#8CA35F">
                        <path d="M15.0864664,12.7607403 C15.0864664,12.7607403 14.8959526,7.05066437 17.4898605,4.1698378 C20.0837684,1.28901124 25.6058543,1.14376332 25.6058543,1.14376332 C25.6058543,1.14376332 25.8134876,6.16326289 22.9053076,9.39312403 C19.9971275,12.6229852 15.0864664,12.7607403 15.0864664,12.7607403 Z" id="Path-8" transform="translate(20.346219, 6.952252) rotate(1.000000) translate(-20.346219, -6.952252) "></path>
                        <path d="M0.414883313,12.680035 C0.414883313,12.680035 0.224369564,6.96995911 2.81827745,4.08913254 C5.41218534,1.20830598 10.9342713,1.06305806 10.9342713,1.06305806 C10.9342713,1.06305806 11.1419045,6.08255763 8.2337245,9.31241877 C5.32554447,12.5422799 0.414883313,12.680035 0.414883313,12.680035 Z" id="Path-8" transform="translate(5.674636, 6.871547) scale(-1, 1) rotate(1.000000) translate(-5.674636, -6.871547) "></path>
                    </g>
                    <g id="Group-3" transform="translate(54.000000, 56.000000)" stroke="#8CA35F" fill="#8CA35F">
                        <path d="M15.0864664,12.7607403 C15.0864664,12.7607403 14.8959526,7.05066437 17.4898605,4.1698378 C20.0837684,1.28901124 25.6058543,1.14376332 25.6058543,1.14376332 C25.6058543,1.14376332 25.8134876,6.16326289 22.9053076,9.39312403 C19.9971275,12.6229852 15.0864664,12.7607403 15.0864664,12.7607403 Z" id="Path-8" transform="translate(20.346219, 6.952252) rotate(1.000000) translate(-20.346219, -6.952252) "></path>
                        <path d="M0.414883313,12.680035 C0.414883313,12.680035 0.224369564,6.96995911 2.81827745,4.08913254 C5.41218534,1.20830598 10.9342713,1.06305806 10.9342713,1.06305806 C10.9342713,1.06305806 11.1419045,6.08255763 8.2337245,9.31241877 C5.32554447,12.5422799 0.414883313,12.680035 0.414883313,12.680035 Z" id="Path-8" transform="translate(5.674636, 6.871547) scale(-1, 1) rotate(1.000000) translate(-5.674636, -6.871547) "></path>
                    </g>
                    <path d="M28.4148833,44.680035 C28.4148833,44.680035 28.2243696,38.9699591 30.8182775,36.0891325 C33.4121853,33.208306 38.9342713,33.0630581 38.9342713,33.0630581 C38.9342713,33.0630581 39.1419045,38.0825576 36.2337245,41.3124188 C33.3255445,44.5422799 28.4148833,44.680035 28.4148833,44.680035 Z" id="Path-8" stroke="#8CA35F" fill="#8CA35F" transform="translate(33.674636, 38.871547) scale(-1, 1) rotate(1.000000) translate(-33.674636, -38.871547) "></path>
                    <path d="M28.4148833,62.680035 C28.4148833,62.680035 28.2243696,56.9699591 30.8182775,54.0891325 C33.4121853,51.208306 38.9342713,51.0630581 38.9342713,51.0630581 C38.9342713,51.0630581 39.1419045,56.0825576 36.2337245,59.3124188 C33.3255445,62.5422799 28.4148833,62.680035 28.4148833,62.680035 Z" id="Path-8" stroke="#8CA35F" fill="#8CA35F" transform="translate(33.674636, 56.871547) scale(-1, 1) rotate(1.000000) translate(-33.674636, -56.871547) "></path>
                    <path d="M61.6284696,24.6913809 C61.6284696,24.6913809 60.8756969,18.7072019 63.4696047,15.8263753 C66.0635126,12.9455487 72.1478576,13.074404 72.1478576,13.074404 C72.1478576,13.074404 72.732984,18.7495529 69.824804,21.9794141 C66.916624,25.2092752 61.6284696,24.6913809 61.6284696,24.6913809 Z" id="Path-8" stroke="#8CA35F" fill="#8CA35F" transform="translate(66.861486, 18.897726) rotate(-42.000000) translate(-66.861486, -18.897726) "></path>
                    <path d="M9.70588281,24.6887156 C9.70588281,24.6887156 8.95311007,18.7045365 11.547018,15.8237099 C14.1409258,12.9428834 20.2252708,13.0717386 20.2252708,13.0717386 C20.2252708,13.0717386 20.8103972,18.7468876 17.9022172,21.9767487 C14.9940372,25.2066098 9.70588281,24.6887156 9.70588281,24.6887156 Z" id="Path-8" stroke="#8CA35F" fill="#8CA35F" transform="translate(14.938899, 18.895061) rotate(-42.000000) translate(-14.938899, -18.895061) "></path>
                </g>
            </g>
        </g>
    </g>
</svg>