<?xml version="1.0" encoding="UTF-8"?>
<svg width="251px" height="260px" viewBox="0 0 251 260" version="1.1" xmlns="http://www.w3.org/2000/svg" xmlns:xlink="http://www.w3.org/1999/xlink">
    <!-- Generator: Sketch 43.2 (39069) - http://www.bohemiancoding.com/sketch -->
    <title>Group 6</title>
    <desc>Created with Sketch.</desc>
    <defs>
        <path d="M79.0428306,218.307692 C79.0428306,218.307692 93.4169629,222.171032 109.418163,222.171032 C125.419364,222.171032 139.793496,218.307692 139.793496,218.307692 L139.111295,222.717949 C139.111295,222.717949 123.57271,226.034372 109.418163,226.034372 C95.2636171,226.034372 79.7481665,222.717949 79.7481665,222.717949 L79.0428306,218.307692 Z" id="path-1"></path>
    </defs>
    <g id="Page-1" stroke="none" stroke-width="1" fill="none" fill-rule="evenodd">
        <g id="Desktop-Landscape" transform="translate(-756.000000, -279.000000)">
            <g id="Group-6" transform="translate(757.000000, 280.000000)">
                <g id="Group-2">
                    <path d="M231.090063,63.1073544 C223.651882,61.4228763 211.975355,60.5127912 184.062273,63.5541193 C155.673339,65.9438517 145.610182,76.6383766 145.610182,76.6383766 L162.574867,90.3224948 C162.574867,90.3224948 170.479067,85.3756101 177.788844,82.6305586 C185.098621,79.8855072 194.811225,78.1638043 194.811225,78.1638043 C194.962509,78.1362212 194.959205,78.0831952 194.790952,78.0450215 C194.790952,78.0450215 191.99122,77.3064537 186.749642,77.3064537 C181.508063,77.3064537 175.031208,78.0791673 175.031208,78.0791673 C174.864697,78.0983278 174.861996,78.064716 175.010327,78.0097762 C175.010327,78.0097762 189.811268,72.4922058 201.438426,69.1600113 C213.065583,65.8278168 222.887582,63.1073544 227.092508,63.1073544 C231.297433,63.1073544 232.655719,63.1073544 237.799571,64.8467592 C242.943423,66.586164 248.153489,71.2691324 248.153489,71.2691324 C248.271842,71.3728466 248.243307,71.4353113 248.069058,71.4058504 C248.069058,71.4058504 241.555916,70.2414652 228.45837,69.1600113 C215.360825,68.0785573 207.597013,67.4880294 207.597013,67.4880294" id="Path-25" stroke="#64985B" stroke-width="2.5" fill="#85A15E"></path>
                    <g id="Group" transform="translate(72.716814, 108.051282)" stroke="#8CA35F" stroke-width="2.5" fill="#8CA35F">
                        <path d="M28.2336734,19.8237849 C28.2709431,19.8550737 28.3365452,19.850201 28.3727672,19.8191475 C28.3727672,19.8191475 44.389991,6.18689333 42.3783785,2.17704193 C40.3667659,-1.83280947 30.7902567,0.650351358 25.6569509,2.17704193 C20.5236451,3.7037325 0.69908085,14.5585678 0.69908085,14.5585678 C0.66749541,14.5758406 0.683772135,14.5840571 0.748034034,14.5753926 C0.748034034,14.5753926 9.94380698,13.27455 16.8201663,14.5898429 C23.6965256,15.9051357 28.2336734,19.8237849 28.2336734,19.8237849 Z" id="Path-19"></path>
                        <path d="M0.687124969,14.6163119 C0.687124969,14.6163119 -0.939871148,28.3770674 2.55552162,29.3430039 C6.05091439,30.3089405 13.9063894,14.9179181 13.9063894,14.9179181" id="Path-20"></path>
                    </g>
                    <path d="M100.410418,2.36563968 C100.410418,2.36563968 107.731747,4.67233562 107.97059,10.6978104 C107.97059,19.6317382 100.691739,19.6606181 100.691739,19.6606181" id="Path-29" stroke="#64985B" stroke-width="2.5" fill="#8CA35F"></path>
                    <path d="M84.7243454,40.2323179 C81.7708562,40.8303812 64.4838184,34.4931271 58.6201815,27.2633563 C56.9669402,24.3703877 58.9159753,4.82034125 61.4272149,1.93005899 C63.9384546,-0.960223271 99.5822709,1.34349739 100.408011,2.42753654 C101.233752,3.51157569 100.408011,12.4004081 100.408011,12.4004081 C100.408011,12.4004081 101.53565,24.1033761 98.0117306,30.597755 C94.4878113,37.0921339 87.6778347,39.6342546 84.7243454,40.2323179 Z" id="Path-28" stroke="#64985B" stroke-width="2.5" fill="#8CA35F"></path>
                    <path d="M105.657257,207.455576 C105.657257,207.455576 101.358908,128.053232 97.4760516,90.7264963 C96.5381918,81.7106477 93.9861021,80.5499792 89.4239866,62.1292687 C84.8618712,43.7085582 81.9559242,30.6744645 80.1032066,19.6185077 C78.2504889,8.5625508 85.0071341,0.893044804 85.0071341,0.893044804" id="Path-14" stroke="#64985B" stroke-width="3"></path>
                    <path d="M138.185447,96.235891 C138.185447,96.235891 132.813754,108.484033 122.855478,103.641026 C111.76707,96.3782536 121.806285,79.5586629 122.855478,77.18601 C123.904671,74.813357 159.892378,77.1550215 159.892378,77.1550215 C160.162108,77.172136 160.461335,77.3887113 160.561316,77.6464318 C160.561316,77.6464318 172.295679,106.444958 156.135334,108.484033 C144.223057,110.038942 124.12441,77.18601 124.12441,77.18601" id="Path-24" stroke="#64985B" stroke-width="2.5" fill="#8CA35F"></path>
                    <path d="M145.641654,103.60259 C145.641654,103.60259 125.314766,131.058231 121.283331,154.838375 C115.628475,173.153627 114.014533,206.387921 114.014533,206.387921 C113.985285,206.933419 113.981162,206.934486 114.006523,206.374366 C114.006523,206.374366 116.161115,156.797945 119.653086,132.956164 C121.298907,121.719156 122.734777,109.559888 125.314766,100.680775 C127.894755,91.8016616 130.926908,87.1444423 130.926908,87.1444423" id="Path-10" stroke="#64985B" stroke-width="3"></path>
                    <path d="M124.912134,187.292547 C124.912134,187.292547 131.078477,183.787197 137.826427,185.122364 C144.574376,186.45753 144.335086,190.064658 147.415595,191.745139 C150.496105,193.42562 155.766437,194.955312 155.766437,194.955312 C155.868918,194.985644 155.861193,195.022101 155.760183,195.034957 C155.760183,195.034957 143.932767,196.626298 136.550067,195.010234 C129.167367,193.39417 124.912134,187.292547 124.912134,187.292547 Z" id="Path-11" stroke="#64985B" stroke-width="2.5" fill="#64985B"></path>
                    <path d="M124.008797,188.088204 C115.359413,195.031657 114.448433,196.506291 114.448433,196.506291" id="Path-12" stroke="#64985B" stroke-width="3"></path>
                    <path d="M126.906229,54.9908061 C128.709095,54.9908061 136.956143,45.2060834 142.616398,41.049196 C148.276653,36.8923086 156.699633,34.1247707 159.137008,31.3205431 C161.574382,28.5163154 163.25082,20.5432914 166.678471,15.4290744 C170.106122,10.3148574 175.214357,7.12098318 175.214357,7.12098318 C175.353295,7.030431 175.330522,6.93012356 175.1794,6.90148826 C175.1794,6.90148826 171.001406,6.02458848 164.69692,6.02458848 C158.392435,6.02458848 156.164678,5.39041182 152.09297,6.02458848 C148.021262,6.65876514 136.958003,13.9183633 130.229277,18.4352075 C123.500552,22.9520517 110.926977,31.3205431 109.76687,34.4371601 C108.606764,37.5537771 109.415032,42.2572341 114.270395,47.6017406 C119.125758,52.9462471 125.103363,54.9908061 126.906229,54.9908061 Z" id="Path-27" stroke="#64985B" stroke-width="2.5" fill="#8CA35F"></path>
                    <path d="M65.6438862,81.7658835 C65.6438862,81.7658835 56.8217919,84.2465772 45.4916242,84.8443745 C34.1614565,85.4421717 28.0622773,84.2890034 25.7843565,84.8443745 C23.5064356,85.3997456 20.4363393,87.887374 17.3630647,90.6983253 C14.2897902,93.5092766 9.60730941,99.615739 10.8296193,101.137658 C12.8786622,103.688956 19.1446071,101.435 28.0622773,98.2936257 C36.9799475,95.1522512 38.310854,93.1828266 43.493284,91.143585 C58.096603,85.3973046 63.7411448,81.7658835 65.6438862,81.7658835 C70.0815405,81.7658835 71.6337125,82.631835 75.8827402,86.3908397 C80.1317679,90.1498444 81.7079263,95.3201897 79.0441451,98.8347586 C76.2123037,102.571065 69.0216862,98.2482255 61.3793804,95.5028553 C53.7370745,92.7574851 45.2799189,90.4463841 45.2799189,90.4463841" id="Path-21" stroke="#64985B" stroke-width="2.5" fill="#8CA35F"></path>
                    <path d="M114.13247,207.071247 C114.13247,207.071247 114.13247,146.189038 111.039568,120.21509 C105.41352,88.4356389 93.4220145,75.7284771 93.4220145,75.7284771" id="Path-13" stroke="#64985B" stroke-width="3"></path>
                    <path d="M106.055525,206.91608 C106.055525,206.91608 104.098628,157.667009 91.7983944,124.1767 C79.4981605,90.6863906 55.6283637,85.5082791 55.6283637,85.5082791" id="Path-15" stroke="#64985B" stroke-width="3"></path>
                    <path d="M104.532964,187.476106 C104.532964,187.476106 99.2651978,177.268154 93.7502254,171.815371 C88.235253,166.362588 78.4921553,161.704624 78.4921553,161.704624" id="Path-16" stroke="#64985B" stroke-width="3"></path>
                    <path d="M122.937988,77.5067226 C122.937988,77.5067226 125.521897,43.5098671 134.074404,31.8035307 C146.234732,12.8998812 174.184443,7.36257949 174.184443,7.36257949" id="Path-17" stroke="#64985B" stroke-width="3"></path>
                    <path d="M80.0877963,162.579156 C79.3521206,163.890877 57.9489117,160.650863 53.8022478,161.691462 C49.6555839,162.732061 47.8172233,165.876793 41.3346682,168.224581 C34.8521131,170.57237 28.8836947,171.038228 27.4438391,169.936968 C26.2434146,169.018834 35.3687165,156.668272 52.2697555,153.714954 C69.1707945,150.761635 80.8234719,161.267436 80.0877963,162.579156 Z" id="Path-18" stroke="#64985B" stroke-width="2.5" fill="#64985B"></path>
                    <path d="M94.784212,76.7829306 C94.8645198,76.8446237 94.8404797,76.874807 94.7305543,76.8505995 C94.7305543,76.8505995 64.0464467,69.9508864 46.0463288,72.9126327 C28.0462108,75.874379 0.860361815,82.5922122 0.860361815,78.0178476 C0.860361815,73.443483 11.4279281,71.3873921 24.1031675,64.3496674 C36.778407,57.3119428 39.1325589,54.1387206 46.1590521,54.1387206 C65.5805414,54.1387206 94.784212,76.7829306 94.784212,76.7829306 Z" id="Path-22" stroke="#64985B" stroke-width="2.5" fill="#8CA35F"></path>
                    <path d="M94.7631372,76.5779356 C94.7977132,76.6048286 94.809473,76.57553 94.7950097,76.5306955 C94.7950097,76.5306955 89.2595019,58.8590532 79.3647104,54.5769826 C69.4699189,50.294912 43.058021,54.1249883 43.058021,54.1249883 C43.0047719,54.1325725 43.0051796,54.1373876 43.0589023,54.1360462 C43.0589023,54.1360462 49.6726071,53.8926925 56.6591016,56.2042729 C63.6455961,58.5158534 61.0684265,56.1841407 73.1425432,62.6448067 C85.21666,69.1054727 94.7631372,76.5779356 94.7631372,76.5779356 Z" id="Path-23" stroke="#64985B" stroke-width="2.5" fill="#8CA35F"></path>
                    <path d="M188.104214,63.1235765 C188.104214,63.1235765 176.727014,67.4351936 172.372147,70.0979396 C168.017279,72.7606856 161.757509,79.6528983 161.757509,79.6528983" id="Path-26" stroke="#64985B" stroke-width="2.5"></path>
                    <path d="M86.4049003,253.45674 C86.493016,254.000505 87.000634,254.541573 87.5390334,254.659368 C87.5390334,254.659368 97.1648337,256.998857 109.368645,256.998857 C121.572457,256.998857 131.54617,254.65497 131.54617,254.65497 C132.08957,254.536971 132.598375,254.000149 132.682494,253.45674 L140.143254,205.260481 C140.152534,205.200535 140.122876,205.159271 140.062255,205.171044 C140.062255,205.171044 127.390774,207.708036 109.368645,207.708036 C91.3465163,207.708036 78.6750356,205.171044 78.6750356,205.171044 C78.6210213,205.160492 78.5830232,205.187663 78.5948232,205.260481 L86.4049003,253.45674 Z" id="Path-9" stroke="#90B2BB" stroke-width="3" fill="#90B2BB"></path>
                    <g id="Rectangle-10">
                        <use fill="#2F2F2F" fill-rule="evenodd" xlink:href="#path-1"></use>
                        <path stroke="#2F2F2F" stroke-width="1" d="M79.6567381,218.980192 C80.1708861,219.107521 80.763151,219.248179 81.4282586,219.398965 C83.4334176,219.853552 85.688876,220.307989 88.144973,220.732072 C95.1632408,221.943883 102.386275,222.671032 109.418163,222.671032 C116.450052,222.671032 123.673086,221.943883 130.691354,220.732072 C133.147451,220.307989 135.402909,219.853552 137.408068,219.398965 C138.074941,219.247779 138.668584,219.106774 139.183681,218.979179 L138.670165,222.298927 C138.569642,222.319469 138.451991,222.343294 138.317733,222.370198 C137.754405,222.483085 137.102779,222.608935 136.371128,222.744509 C134.279662,223.132056 131.967248,223.519671 129.500139,223.881451 C123.799043,224.717468 118.159224,225.287874 112.892179,225.471754 C111.704972,225.513202 110.546183,225.534372 109.418163,225.534372 C108.305638,225.534372 107.163313,225.513779 105.993435,225.473449 C100.714304,225.29146 95.0613636,224.720161 89.3478277,223.881462 C86.8832634,223.519684 84.5735746,223.132073 82.4848332,222.74453 C81.7541373,222.608957 81.103398,222.483109 80.540867,222.370225 C80.4061411,222.343189 80.2881636,222.319262 80.1874623,222.298653 L79.6567381,218.980192 Z"></path>
                    </g>
                </g>
                <path d="M103.96244,202.133402 L104.187064,206.083327 C104.187064,206.083327 85.5113752,205.765542 85.5113752,204.610385 C85.5113752,203.455228 103.96244,202.133402 103.96244,202.133402 Z" id="Path-30" fill="#2E2E2E"></path>
                <path d="M133.77095,202.39217 C133.77095,202.39217 133.888243,203.598214 133.91011,204.203206 C133.931977,204.808199 133.91011,206.242291 133.91011,206.242291 C133.91011,206.242291 115.458336,205.95281 115.458336,204.797653 C115.458336,203.642496 133.77095,202.39217 133.77095,202.39217 Z" id="Path-30" fill="#2E2E2E" transform="translate(124.689082, 204.317231) scale(-1, 1) translate(-124.689082, -204.317231) "></path>
                <path d="M107.309932,202.177066 L107.528886,206.292049 L112.544362,206.275883 C112.544362,206.275883 112.610459,204.916331 112.623832,204.234558 C112.637204,203.552784 112.623832,202.224276 112.623832,202.224276 L107.309932,202.177066 Z" id="Path-31" fill="#2F2F2F"></path>
            </g>
        </g>
    </g>
</svg>