<?xml version="1.0" encoding="UTF-8"?>
<svg width="148px" height="224px" viewBox="0 0 148 224" version="1.1" xmlns="http://www.w3.org/2000/svg" xmlns:xlink="http://www.w3.org/1999/xlink">
    <!-- Generator: Sketch 43.2 (39069) - http://www.bohemiancoding.com/sketch -->
    <title>Group 8</title>
    <desc>Created with Sketch.</desc>
    <defs></defs>
    <g id="Page-1" stroke="none" stroke-width="1" fill="none" fill-rule="evenodd">
        <g id="Desktop-Landscape" transform="translate(-126.000000, -308.000000)">
            <g id="Group-8" transform="translate(124.000000, 298.000000)">
                <path d="M82.2585599,159.892419 C85.3991531,141.038578 89.2305092,112.968735 104.297694,100.544277" id="Path-66" stroke="#40250A" stroke-width="2" stroke-linecap="round"></path>
                <path d="M91.7583643,72.0167245 C83.2759146,117.490644 87.6503311,88.3786992 83.3289914,159.929784" id="Path-67" stroke="#40250A" stroke-width="2" stroke-linecap="round"></path>
                <path d="M83.3289914,159.929784 C78.3815304,133.641622 78.8974447,92.4507215 53.0228128,76.6389847" id="Path-68" stroke="#40250A" stroke-width="2" stroke-linecap="round"></path>
                <path d="M81.7925815,159.325351 C80.5048048,91.4991077 84.8767599,117.824772 76.7459478,79.4259681" id="Path-69" stroke="#40250A" stroke-width="2" stroke-linecap="round"></path>
                <path d="M81.5903645,159.338539 C66.9593962,128.388545 75.1568426,118.292172 61.6716844,104.807473" id="Path-70" stroke="#40250A" stroke-width="2" stroke-linecap="round"></path>
                <g id="Group-6" transform="translate(42.392000, 159.338542)">
                    <path d="M8.568,28.1510417 L13.1624738,74.0775742 L65.9376439,74.0775742 L68.7302278,28.9359447 L39.7990755,28.9359447 C24.1838363,28.9359447 8.568,28.1510417 8.568,28.1510417 Z" id="Path-61" fill="#D57A49"></path>
                    <polygon id="Path-61" fill="#40250A" points="8.34408337 26.9816358 8.568 30.2410596 68.7302278 30.2410596 68.7302278 26.9816358"></polygon>
                    <path d="M38.2923183,3.19199508 C59.5862092,3.19199508 76.6723934,1.96557413 76.6723934,1.28960061 C76.6723934,0.613627088 59.5862092,0 38.2923183,0 C16.9984275,0 0,0.613627088 0,1.28960061 C0,1.96557413 16.9984275,3.19199508 38.2923183,3.19199508 Z" id="Oval-9" fill="#40250A"></path>
                    <path d="M0,1.53052241 C0,1.36121174 0.125091087,1.22395833 0.294752281,1.22395833 L76.8172477,1.22395833 C76.9800349,1.22395833 77.112,1.36224816 77.112,1.53052241 L77.112,26.7349704 C77.112,26.8410714 77.0249014,26.9270833 76.9173208,26.9270833 L0.294752281,26.9270833 C0.131965091,26.9270833 0,26.7887935 0,26.6205193 L0,1.53052241 Z" id="Rectangle-16" fill="#D57A49"></path>
                </g>
                <path d="M7.71916918,79.2611349 C5.98793935,78.3653973 7.16051319,74.1890119 6.78743262,72.4111744 C6.41435206,70.6333368 4.1314763,63.6341791 3.41027127,57.6978025 C2.68906625,51.7614259 4.99144009,43.6047556 6.30540511,44.158142 C7.61937013,44.7115285 6.09052235,55.4301145 7.71916918,60.3469918 C9.34781601,65.263869 12.7567478,67.2436696 12.7567478,67.2436696 C13.6370662,67.9081766 14.7615974,67.6471111 15.2648166,66.6676522 L15.9790185,65.2775395 C15.9790185,65.2775395 10.4578258,51.670847 11.4537463,44.158142 C12.4496668,36.6454371 17.4165988,29.1850513 18.5337482,29.4324773 C19.6508975,29.6799033 16.3107054,38.9497249 15.9790185,45.1603983 C15.6473315,51.3710717 17.971176,58.4296306 17.971176,58.4296306 C18.2818761,59.4885599 19.1781986,59.7312342 19.9822566,58.9629751 L22.093196,56.9460209 C22.8931851,56.1816496 23.4519756,54.6774879 23.3534158,53.5703156 C23.3534158,53.5703156 22.097943,42.7533796 23.9269943,36.6371655 C25.7560456,30.5209513 30.3158505,23.7852372 31.2432327,24.7433437 C32.1706149,25.7014502 28.0950277,36.0772956 27.4388246,40.2653431 C26.7826215,44.4533906 28.0671833,48.3665437 28.0671833,48.3665437 C28.3430426,49.4362938 29.2285236,49.6894303 30.0357243,48.9405092 L30.8972922,48.1411462 C31.7086281,47.3883885 32.564469,45.9044666 32.8144228,44.8189034 C32.8144228,44.8189034 33.8380836,40.1987855 35.2056889,35.2025014 C36.5732943,30.2062173 40.0411799,27.2232274 40.6645401,27.3477936 C41.2879003,27.4723599 38.8891689,31.7042443 37.9972667,35.86435 C37.1053646,40.0244558 37.3612191,41.816145 37.3612191,41.816145 C37.3877381,42.9064605 38.2137386,43.3793211 39.1884883,42.8851633 C39.1884883,42.8851633 58.7599831,32.8061568 54.7829258,36.6371655 C50.7420988,40.5296021 41.4143973,45.7785956 41.4143973,45.7785956 C40.4609398,46.3306386 40.5429592,47.0412157 41.6055798,47.3523381 C41.6055798,47.3523381 44.8400165,48.4263555 48.036713,48.7800841 C51.2334094,49.1338126 57.7545261,48.7864874 58.3485337,49.4109113 C59.3799617,50.4951541 48.7345552,52.5115971 44.6995477,52.0463135 C40.6645401,51.58103 37.1824544,50.9714997 37.1824544,50.9714997 C36.090717,50.7910733 34.3449708,50.9084212 33.2915504,51.2310525 L32.5437876,51.4600699 C31.486638,51.7838433 31.315319,52.6101973 32.211053,53.272839 C32.211053,53.272839 34.9409571,55.9214595 39.9645391,56.5622821 C44.9881211,57.2031046 57.2117108,56.8368667 58.3485337,57.6978025 C60.2466008,59.1352419 47.0165124,62.4200509 40.6645401,61.3835213 C34.3125679,60.3469918 30.4938444,59.1577172 30.4938444,59.1577172 C29.4294958,58.8584503 27.7264603,58.9293439 26.6929104,59.3149796 L25.8007546,59.6478587 C24.7659053,60.0339792 24.628511,60.9131389 25.5527132,61.4995789 C25.5527132,61.4995789 26.4501829,63.0060379 35.2056889,64.7658529 C43.961195,66.5256678 53.3046318,65.0811806 52.9492608,66.5499112 C52.5938899,68.0186418 38.0172602,70.4563318 33.8380836,69.7751722 C29.658907,69.0940127 22.5736191,67.9744718 22.5736191,67.9744718 C21.4777115,67.8009437 19.9315541,68.2670208 19.1169917,69.018425 L17.8520215,70.1853141 C17.0388864,70.9354016 17.2302258,71.8467325 18.2644696,72.1949392 C18.2644696,72.1949392 22.0991019,73.6913199 28.5666707,74.8019525 C35.0342395,75.9125852 42.6447321,73.9924259 41.766675,75.9030025 C40.8886178,77.8135791 33.2683055,79.4310085 25.5117903,79.7406019 C21.2337593,79.9113551 17.6360288,78.3684324 14.0373976,78.1874865 C10.5049305,78.0098674 9.45039902,80.1568726 7.71916918,79.2611349 Z" id="Path-71" stroke="#33691E" fill="#33691E" transform="translate(30.903232, 52.202757) scale(-1, 1) rotate(2.000000) translate(-30.903232, -52.202757) "></path>
                <path d="M53.0494835,70.449754 C51.7154768,69.3558957 53.084708,66.5545254 52.6938615,64.6477136 C52.3030151,62.7409017 48.9353248,53.5053322 48.1797765,47.1382976 C47.4242281,40.7712629 49.8362396,32.022862 51.2127748,32.6163942 C52.5893101,33.2099264 50.9876595,44.7060987 52.6938615,49.9796739 C54.4000636,55.253249 58.0639116,57.4558823 58.0639116,57.4558823 C58.935017,58.1248516 60.0454506,57.8615842 60.5340815,56.8878908 L61.3470399,55.2679112 C61.3470399,55.2679112 55.8321744,41.6126764 56.8592717,33.2924974 C57.886369,24.9723183 64.86181,17.0499334 66.0321573,17.3153091 C67.2025047,17.5806847 62.0113952,25.2912727 61.5173828,33.3244965 C61.0233704,41.3577203 63.4352208,48.0654933 63.4352208,48.0654933 C63.7600767,49.122666 64.6667399,49.3503755 65.457035,48.5773002 L67.8362459,46.2499301 C68.6280072,45.4754206 69.182017,43.9649996 69.0842178,42.8529132 C69.0842178,42.8529132 67.757344,31.1097224 69.6734936,24.5498038 C71.5896433,17.9898852 76.3665834,10.7655246 77.338127,11.7931375 C78.3096706,12.8207504 74.0400063,23.9493178 73.3525552,28.4411898 C72.6651042,32.9330618 74.042373,37.2710226 74.042373,37.2710226 C74.3139511,38.3405473 75.1825223,38.591656 75.9824619,37.8318129 L77.0663688,36.8022361 C77.8662722,36.0424273 78.7084301,34.5514744 78.9495283,33.4780335 C78.9495283,33.4780335 80.0565431,28.3698037 81.489273,23.0110612 C82.9220029,17.6523186 86.5550272,14.4529259 87.2080715,14.5865289 C87.8611157,14.7201318 85.3481581,19.2590209 84.4137841,23.720924 C83.4794101,28.1828272 83.7462717,30.238609 83.7462717,30.238609 C83.7747033,31.3339532 84.5877645,31.8085852 85.5684806,31.2993104 C85.5684806,31.2993104 106.165209,20.4408723 101.998766,24.5498038 C97.7655175,28.7246196 87.9015116,34.4097857 87.9015116,34.4097857 C86.9535301,34.9712908 87.0418092,35.6966541 88.1046815,36.0161825 C88.1046815,36.0161825 91.5823816,37.1942478 94.9313028,37.5736378 C98.280224,37.9530278 105.111872,37.5805057 105.734166,38.2502288 C106.81471,39.4131286 95.6623759,41.5758557 91.4352237,41.0768179 C87.2080715,40.57778 83.4643942,39.9082108 83.4643942,39.9082108 C82.3735649,39.7234325 80.6322112,39.8423782 79.5808031,40.172055 L78.6037947,40.4784031 C77.5497759,40.8088985 77.3799465,41.6546443 78.2541607,42.3215396 C78.2541607,42.3215396 81.2119348,45.2330887 86.4747368,45.9204001 C91.7375388,46.6077115 100.290012,43.8441416 101.480969,44.7675345 C103.469421,46.3092538 91.9982682,51.2373167 85.3438188,50.1255915 C78.6893694,49.0138663 76.4986353,48.5227244 76.4986353,48.5227244 C75.4136572,48.3019305 73.6985392,48.4421253 72.668769,48.8354927 L71.5388333,49.2671229 C70.5086346,49.6606539 70.2188131,50.6833269 71.0302183,51.4421981 C71.0302183,51.4421981 71.8939641,54.0313481 81.3014582,54.9429253 C90.7089523,55.8545026 101.176692,51.4209485 100.804399,52.996229 C100.432105,54.5715096 89.0577869,58.5437636 82.285063,59.4879189 C75.5123392,60.4320743 68.1023265,58.2997224 68.1023265,58.2997224 C67.0389226,58.0367119 65.5261452,58.4380459 64.7206256,59.1987882 L63.2230501,60.6131165 C62.4187922,61.3726673 62.3235255,62.6968179 63.1031,63.4639017 C63.1031,63.4639017 64.2910641,66.1045392 71.4595369,66.671671 C78.6280098,67.2388028 87.2183528,61.880041 86.2984831,63.9292215 C85.3786134,65.978402 79.4596326,70.4481521 71.3337567,70.7802052 C66.8520084,70.9633458 63.1036745,70.1252803 59.3336786,69.9312075 C55.6329976,69.7407029 54.3834901,71.5436122 53.0494835,70.449754 Z" id="Path-71" stroke="#0E5302" fill="#0E5302" transform="translate(76.921982, 41.250543) scale(-1, 1) rotate(-40.000000) translate(-76.921982, -41.250543) "></path>
                <path d="M8.2165891,162.048267 C6.84974604,160.907594 9.75185409,154.205705 9.35138701,152.217286 C8.95091993,150.228867 6.38412236,143.701755 5.60997625,137.062227 C4.83583014,130.422698 4.92425164,121.976795 6.33467014,122.595729 C7.74508864,123.214663 8.12586459,133.229439 9.87406456,138.72871 C11.6222645,144.227982 13.9946471,148.044392 13.9946471,148.044392 C14.5336217,148.992672 15.3671594,148.957051 15.854709,147.968271 L16.7183889,146.216677 C16.7183889,146.216677 11.0677756,131.977031 12.1201548,123.300768 C13.172534,114.624505 20.3196746,106.363061 21.5188299,106.639794 C22.7179852,106.916527 17.3990972,114.95711 16.8929247,123.334137 C16.3867523,131.711163 18.8827545,138.794776 18.8827545,138.794776 C19.2019186,139.848171 20.0984105,140.067183 20.8730206,139.296004 L23.4238563,136.756468 C24.2038858,135.979894 24.7482922,134.452511 24.6538589,133.366374 C24.6538589,133.366374 23.2864818,121.024575 25.2497972,114.183908 C27.2131126,107.34324 32.1076366,99.809694 33.1030946,100.881286 C34.0985526,101.952879 29.723791,113.557722 29.0194185,118.241836 C28.3150459,122.925949 29.7445147,127.531724 29.7445147,127.531724 C30.0126716,128.601647 30.8673363,128.85291 31.668016,128.078868 L32.8706911,126.916203 C33.6648546,126.14846 34.5001994,124.645246 34.7368611,123.572155 C34.7368611,123.572155 35.8884242,118.167395 37.3564205,112.579311 C38.8244169,106.991226 42.5468676,103.654907 43.2159865,103.794228 C43.8851053,103.933549 41.3102916,108.666692 40.3529181,113.319554 C39.3955446,117.972416 39.6685004,120.201677 39.6685004,120.201677 C39.6978939,121.296681 40.5047221,121.767384 41.4890244,121.247043 C41.4890244,121.247043 62.6397513,109.899124 58.3707525,114.183908 C54.0333027,118.537396 43.8734666,124.498284 43.8734666,124.498284 C42.9314377,125.065921 43.0194848,125.799615 44.0805259,126.124832 C44.0805259,126.124832 47.6979697,127.369504 51.1293242,127.765131 C54.5606787,128.160758 61.5604873,127.772293 62.1980988,128.470679 C63.3052403,129.683348 51.8783926,131.938634 47.5471895,131.418239 C43.2159865,130.897843 39.3221362,130.189847 39.3221362,130.189847 C38.2365014,130.002557 36.500824,130.123768 35.4432672,130.461258 L34.3576232,130.80771 C33.3010178,131.144896 33.1233506,132.002333 33.9925359,132.679782 C33.9925359,132.679782 37.0722557,135.752388 42.4646009,136.469115 C47.8569461,137.185842 56.619937,134.303998 57.84021,135.266909 C59.8776074,136.874611 48.1240933,142.013583 41.3058455,140.854279 C34.4875976,139.694974 32.187177,139.171593 32.187177,139.171593 C31.1062887,138.947546 29.3964724,139.089996 28.3614219,139.492397 L27.1184309,139.97564 C26.086413,140.376861 25.790664,141.416091 26.5796684,142.176573 C26.5796684,142.176573 27.5249243,144.927192 37.1639826,145.877783 C46.803041,146.828374 57.5284431,142.205074 57.1469857,143.847773 C56.7655282,145.490472 45.1112324,149.632729 38.1717988,150.617292 C31.2323652,151.601855 23.6015123,149.369317 23.6015123,149.369317 C22.5331647,149.09998 20.9672942,149.429795 20.0923276,150.115156 L20.0167449,150.17436 C19.1470233,150.855612 18.9030652,152.17848 19.6579484,152.982569 C19.6579484,152.982569 19.7099766,154.968561 27.0549005,155.559965 C34.3998244,156.151368 43.2265209,153.111791 42.2840087,155.248671 C41.3414965,157.385552 35.2701886,160.067089 26.9442952,160.413353 C22.3522292,160.604332 18.5479274,160.350534 15.3293333,160.631515 C12.1107392,160.912496 9.58343216,163.18894 8.2165891,162.048267 Z" id="Path-71" stroke="#0E5302" fill="#0E5302" transform="translate(33.698794, 131.572392) scale(-1, 1) rotate(-265.000000) translate(-33.698794, -131.572392) "></path>
                <path d="M111.124308,132.552529 C110.163161,131.764408 111.149688,129.746031 110.868084,128.37218 C110.586481,126.998329 108.160072,120.344134 107.615702,115.756708 C107.071332,111.169282 108.809178,104.86609 109.800966,105.293728 C110.792755,105.721366 109.638772,114.004317 110.868084,117.803909 C112.097397,121.603501 114.307923,122.81189 114.307923,122.81189 C115.172627,123.502976 116.276048,123.261269 116.766822,122.283305 L117.102668,121.614066 C117.102668,121.614066 113.129227,111.775517 113.869247,105.780858 C114.609267,99.7861983 119.635048,94.0781481 120.478279,94.2693503 C121.32151,94.4605525 117.581334,100.016004 117.2254,105.803913 C116.869466,111.591822 118.460266,115.891715 118.460266,115.891715 C118.77547,116.947791 119.672226,117.17665 120.460063,116.405978 L121.38196,115.504168 C122.171214,114.732112 122.724501,113.216839 122.633568,112.118215 C122.633568,112.118215 121.72127,104.208176 123.101849,99.4817781 C124.482428,94.75538 127.924196,89.5502538 128.62419,90.2906453 C129.324184,91.0310367 126.247906,99.0491301 125.7526,102.285508 C125.257294,105.521886 126.130975,108.097225 126.130975,108.097225 C126.392167,109.171651 127.254702,109.424469 128.054718,108.664553 L128.021109,108.696477 C128.822371,107.935378 129.667301,106.438303 129.909543,105.366939 C129.909543,105.366939 130.582799,102.234074 131.615076,98.3731195 C132.647353,94.5121645 135.264934,92.2070134 135.73545,92.3032738 C136.205966,92.3995343 134.395389,95.6697878 133.722176,98.8845732 C133.048963,102.099359 133.251332,103.018411 133.251332,103.018411 C133.266241,104.118059 134.070158,104.595815 135.053073,104.087148 C135.053073,104.087148 149.394,96.5213075 146.392093,99.4817781 C143.342052,102.489718 136.696193,106.307584 136.696193,106.307584 C135.758505,106.865834 135.843588,107.582734 136.908813,107.895389 C136.908813,107.895389 138.887125,108.592055 141.300011,108.865404 C143.712897,109.138753 148.635075,108.870353 149.083436,109.352886 C149.861964,110.190751 141.826746,111.748988 138.781098,111.389433 C135.73545,111.029878 133.592118,110.638269 133.592118,110.638269 C132.500228,110.454982 130.761272,110.574115 129.706219,110.904935 L130.06991,110.790897 C129.015678,111.121459 128.854035,111.963255 129.74802,112.612256 C129.74802,112.612256 131.415255,114.384012 135.207085,114.879217 C138.998915,115.374422 145.160942,113.38328 146.019022,114.048581 C147.451695,115.159385 139.18677,118.710037 134.392263,117.909042 C129.597755,117.108048 128.560224,116.860107 128.560224,116.860107 C127.479779,116.642525 125.773966,116.783173 124.729848,117.182021 L124.975906,117.088028 C123.940893,117.483398 123.664067,118.485626 124.524994,119.194505 C124.524994,119.194505 124.70169,120.723126 131.479756,121.379914 C138.257822,122.036703 145.799792,118.842343 145.531556,119.977327 C145.263319,121.112311 137.068163,123.974306 132.18844,124.654566 C127.308716,125.334827 122.513996,123.918917 122.513996,123.918917 C121.447282,123.662901 119.931872,124.069856 119.12402,124.832801 L118.863632,125.078715 C118.058114,125.839455 117.969589,127.14112 118.809586,127.879028 C118.809586,127.879028 119.223827,129.421818 124.388687,129.830434 C129.553546,130.239051 135.742858,126.378082 135.080095,127.854509 C134.417332,129.330936 130.152727,132.551375 124.298062,132.790618 C121.068979,132.922571 118.368318,132.318747 115.652049,132.178919 C112.985721,132.041661 112.085456,133.34065 111.124308,132.552529 Z" id="Path-71" stroke="#33691E" fill="#33691E" transform="translate(128.324359, 111.514602) rotate(75.000000) translate(-128.324359, -111.514602) "></path>
                <path d="M91.6272739,71.4022886 C89.9867178,70.5534655 91.0978777,66.5958198 90.7443374,64.9110972 C90.390797,63.2263745 88.2274877,56.5938003 87.5440561,50.9683435 C86.8606244,45.3428868 89.0424106,37.613425 90.2875562,38.1378277 C91.5327018,38.6622303 90.083928,48.8194265 91.6272739,53.4787805 C93.1706197,58.1381346 96.3300554,59.9543409 96.3300554,59.9543409 C97.2034525,60.6171268 98.3168937,60.3653308 98.8269013,59.3726591 L99.4545106,58.151089 C99.4545106,58.151089 94.2224924,45.257052 95.1662512,38.1378277 C96.11001,31.0186033 100.816797,23.948958 101.875435,24.183425 C102.934074,24.4178919 99.7688253,33.2022032 99.4545106,39.0875904 C99.1401958,44.9729776 101.316596,51.5683804 101.316596,51.5683804 C101.625234,52.6234653 102.525349,52.857803 103.325077,52.0936811 L105.171456,50.3295079 C105.972071,49.5645386 106.530359,48.0458956 106.434408,46.9573216 C106.434408,46.9573216 105.252954,36.8066402 106.986208,31.010765 C108.719462,25.2148898 113.040446,18.8319612 113.919256,19.7398864 C114.798066,20.6478117 110.935939,30.4802185 110.314105,34.4489155 C109.692271,38.4176125 110.889006,42.0348289 110.889006,42.0348289 C111.161765,43.0987995 112.043298,43.3485824 112.847409,42.6025279 L113.519017,41.9794093 C114.327854,41.2289702 115.180944,39.7504697 115.431125,38.6649776 C115.431125,38.6649776 116.378201,34.3858439 117.674177,29.651242 C118.970154,24.9166401 122.256408,22.0898853 122.847119,22.2079274 C123.437831,22.3259694 121.164734,26.3362073 120.319545,30.278426 C119.474357,34.2206447 119.718162,35.8122462 119.718162,35.8122462 C119.742546,36.9041348 120.561404,37.3811134 121.551921,36.8792328 C121.551921,36.8792328 139.994807,27.3804068 136.226049,31.010765 C132.396862,34.6993338 123.642794,39.6233786 123.642794,39.6233786 C122.692279,40.1741394 122.779836,40.8842747 123.837447,41.1927929 C123.837447,41.1927929 126.803903,42.182492 129.833172,42.5176938 C132.86244,42.8528957 139.042011,42.5237618 139.604907,43.1154813 C140.582314,44.1429364 130.494464,46.0537675 126.670792,45.6128533 C122.847119,45.1719392 119.653408,44.6113943 119.653408,44.6113943 C118.560309,44.4309953 116.81745,44.5471429 115.75956,44.8711431 L115.252426,45.0264632 C114.195012,45.3503175 114.029259,46.1796296 114.911943,46.8280034 C114.911943,46.8280034 117.423311,49.2850372 122.183781,49.8922964 C126.944251,50.4995556 138.527626,50.1524995 139.604907,50.9683435 C141.403562,52.3304965 128.866404,55.4432624 122.847119,54.4610215 C116.827834,53.4787805 113.305131,52.3775935 113.305131,52.3775935 C112.243501,52.0797525 110.535157,52.1546049 109.518295,52.5340141 L108.850793,52.7830711 C107.821011,53.1673008 107.690265,54.0428142 108.621299,54.6250932 C108.621299,54.6250932 109.377244,55.9985582 117.674177,57.6662022 C125.97111,59.3338462 134.825181,57.9650145 134.488423,59.3568198 C134.151665,60.7486251 120.338491,63.0586402 116.378201,62.4131566 C112.41791,61.7676731 105.795991,60.7213956 105.795991,60.7213956 C104.70652,60.5488778 103.164609,61.0166707 102.360582,61.7583558 L101.296963,62.7395057 C100.48911,63.4847208 100.680146,64.3900288 101.715491,64.7373513 C101.715491,64.7373513 105.254052,66.1241947 111.38288,67.1766575 C117.511707,68.2291203 124.723598,66.4095301 123.891529,68.2200395 C123.059461,70.030549 115.838265,71.5632649 108.488,71.8566433 C104.434032,72.0184533 101.024734,70.5563417 97.6145828,70.3848729 C94.2671299,70.2165566 93.2678299,72.2511116 91.6272739,71.4022886 Z" id="Path-71" stroke="#0E5302" fill="#0E5302"></path>
            </g>
        </g>
    </g>
</svg>