<?xml version="1.0" encoding="UTF-8"?>
<svg width="454px" height="77px" viewBox="0 0 454 77" version="1.1" xmlns="http://www.w3.org/2000/svg" xmlns:xlink="http://www.w3.org/1999/xlink">
    <!-- Generator: Sketch 43.2 (39069) - http://www.bohemiancoding.com/sketch -->
    <title>Baskerville abcdefgh</title>
    <desc>Created with Sketch.</desc>
    <defs></defs>
    <g id="Page-1" stroke="none" stroke-width="1" fill="none" fill-rule="evenodd">
        <g id="Desktop-Landscape" transform="translate(-412.000000, -2195.000000)" fill="#000000">
            <path d="M558.061328,2207.74219 C561.069155,2207.96354 563.302206,2208.71223 564.760546,2209.98828 C566.218887,2211.26433 566.948046,2212.85937 566.948046,2214.77344 C566.948046,2216.44011 566.45326,2217.87565 565.463671,2219.08008 C564.474083,2220.28451 563.20782,2221.07226 561.664843,2221.44336 C560.121867,2221.81445 558.05483,2222 555.463671,2222 L545.073046,2222 L545.073046,2221.10156 L546.088671,2221.10156 C547.22149,2221.10156 548.005987,2220.95833 548.442187,2220.67188 C548.878387,2220.38542 549.155077,2219.93946 549.272265,2219.33398 C549.389453,2218.72851 549.448046,2217.31902 549.448046,2215.10547 L549.448046,2202.21484 C549.448046,2200.0664 549.386198,2198.67969 549.2625,2198.05469 C549.138801,2197.42968 548.878387,2197 548.48125,2196.76562 C548.084112,2196.53125 547.21498,2196.41406 545.873828,2196.41406 L545.366015,2196.41406 L545.366015,2195.51562 L549.721484,2195.39844 L554.682421,2195.24219 C561.922041,2195.24219 565.541796,2197.3255 565.541796,2201.49219 C565.541796,2203.21095 564.920058,2204.59114 563.676562,2205.63281 C562.433066,2206.67448 560.56134,2207.3776 558.061328,2207.74219 Z M553.276171,2207.37109 C553.601694,2207.38411 553.875129,2207.39062 554.096484,2207.39062 C556.908998,2207.39062 558.829552,2206.94792 559.858203,2206.0625 C560.886854,2205.17708 561.401171,2203.7448 561.401171,2201.76562 C561.401171,2200.38541 561.19935,2199.31771 560.795703,2198.5625 C560.392055,2197.80729 559.786592,2197.22461 558.979296,2196.81445 C558.172001,2196.40429 556.791806,2196.19922 554.838671,2196.19922 C554.330856,2196.19922 553.810028,2196.21875 553.276171,2196.25781 L553.276171,2207.37109 Z M553.276171,2208.32812 L553.276171,2214.22656 C553.276171,2216.7396 553.321744,2218.33463 553.41289,2219.01172 C553.504036,2219.68881 553.748175,2220.20312 554.145312,2220.55469 C554.542449,2220.90625 555.326947,2221.08203 556.498828,2221.08203 C558.582171,2221.08203 560.144656,2220.54818 561.186328,2219.48047 C562.228,2218.41276 562.748828,2216.81121 562.748828,2214.67578 C562.748828,2212.48827 562.159641,2210.87696 560.98125,2209.8418 C559.802858,2208.80664 557.729311,2208.28906 554.760546,2208.28906 C554.291794,2208.28906 553.797007,2208.30208 553.276171,2208.32812 Z M588.124396,2219.07031 L588.847052,2219.07031 C588.729864,2221.29689 587.636125,2222.41016 585.565802,2222.41016 C584.680381,2222.41016 583.980518,2222.17578 583.466193,2221.70703 C582.951867,2221.23828 582.616584,2220.54167 582.460333,2219.61719 C581.158244,2220.54167 579.970104,2221.23828 578.89588,2221.70703 C577.821656,2222.17578 576.861379,2222.41016 576.015021,2222.41016 C574.934286,2222.41016 574.003306,2222.09766 573.222052,2221.47266 C572.440798,2220.84765 572.050177,2220.02084 572.050177,2218.99219 C572.050177,2217.65103 572.704467,2216.47917 574.013068,2215.47656 C575.321668,2214.47395 577.128291,2213.4974 579.43299,2212.54688 L582.460333,2211.31641 L582.460333,2210.53516 C582.460333,2209.42838 582.38872,2208.62761 582.24549,2208.13281 C582.10226,2207.63802 581.73117,2207.19531 581.132208,2206.80469 C580.533247,2206.41406 579.745495,2206.21875 578.768927,2206.21875 C576.815792,2206.21875 575.728564,2206.86979 575.507208,2208.17188 C575.298874,2209.50001 574.752005,2210.16406 573.866583,2210.16406 C573.072309,2210.16406 572.675177,2209.78646 572.675177,2209.03125 C572.675177,2208.28906 573.202516,2207.49154 574.257208,2206.63867 C575.311901,2205.7858 576.95251,2205.35938 579.179083,2205.35938 C580.832738,2205.35938 582.115277,2205.61979 583.02674,2206.14062 C583.938203,2206.66146 584.54041,2207.2539 584.83338,2207.91797 C585.12635,2208.58203 585.272833,2209.59765 585.272833,2210.96484 L585.272833,2217.42969 C585.272833,2218.94011 585.350958,2219.91015 585.507208,2220.33984 C585.663459,2220.76953 586.001997,2220.98438 586.522833,2220.98438 C587.382213,2220.98438 587.916062,2220.34636 588.124396,2219.07031 Z M582.460333,2212.23438 L580.331427,2213.09375 C576.972035,2214.46094 575.292365,2216.17968 575.292365,2218.25 C575.292365,2219.07032 575.507206,2219.73112 575.936896,2220.23242 C576.366586,2220.73373 576.926476,2220.98438 577.616583,2220.98438 C578.228566,2220.98438 578.938194,2220.78255 579.74549,2220.37891 C580.552785,2219.97526 581.457724,2219.3698 582.460333,2218.5625 L582.460333,2212.23438 Z M592.66012,2222.50781 L592.66012,2217.25391 L593.421839,2217.25391 C594.30726,2220.28778 595.889276,2221.80469 598.167933,2221.80469 C599.157521,2221.80469 599.896446,2221.50521 600.38473,2220.90625 C600.873013,2220.30729 601.117152,2219.64974 601.117152,2218.93359 C601.117152,2218.10026 600.856738,2217.41667 600.335902,2216.88281 C599.802045,2216.34896 598.766899,2215.70443 597.230433,2214.94922 C595.615842,2214.15494 594.456999,2213.3737 593.75387,2212.60547 C593.050742,2211.85026 592.699183,2210.91928 592.699183,2209.8125 C592.699183,2208.75781 593.076783,2207.75196 593.831995,2206.79492 C594.587208,2205.83789 595.648395,2205.35938 597.015589,2205.35938 C598.408825,2205.35938 599.561158,2205.92578 600.47262,2207.05859 C600.667934,2206.86328 600.921838,2206.38802 601.234339,2205.63281 L601.956995,2205.63281 L601.956995,2210.57422 L601.234339,2210.57422 C600.973921,2209.38932 600.469369,2208.37045 599.720667,2207.51758 C598.971966,2206.66471 598.089813,2206.23828 597.074183,2206.23828 C596.292929,2206.23828 595.661425,2206.47916 595.179652,2206.96094 C594.697878,2207.44271 594.456995,2208.0026 594.456995,2208.64062 C594.456995,2209.34375 594.72392,2209.94922 595.257777,2210.45703 C595.778613,2210.97787 596.774696,2211.57031 598.246058,2212.23438 C600.459611,2213.23698 601.813764,2214.21354 602.308558,2215.16406 C602.803352,2216.12761 603.050745,2217.05208 603.050745,2217.9375 C603.050745,2219.33074 602.591766,2220.46354 601.673792,2221.33594 C600.755819,2222.20834 599.600232,2222.64453 598.206995,2222.64453 C596.735634,2222.64453 595.427053,2222.03907 594.281214,2220.82812 C593.92965,2221.21875 593.643194,2221.77864 593.421839,2222.50781 L592.66012,2222.50781 Z M616.727095,2206.00391 L623.172407,2206.00391 L623.172407,2206.90234 C621.987506,2206.92839 620.39898,2207.81379 618.406782,2209.55859 C617.768758,2210.10547 616.779185,2210.90624 615.438032,2211.96094 L621.141157,2218.64062 C622.000537,2219.64323 622.677613,2220.29752 623.172407,2220.60352 C623.667202,2220.90951 624.175009,2221.07552 624.695845,2221.10156 L624.695845,2222 L616.727095,2222 L616.727095,2221.10156 C618.055227,2221.07552 618.719282,2220.78907 618.719282,2220.24219 C618.719282,2219.99479 618.283089,2219.36329 617.410689,2218.34766 L613.309126,2213.58203 L612.469282,2214.20703 L612.469282,2216.51172 C612.469282,2218.21746 612.492069,2219.28841 612.537642,2219.72461 C612.583215,2220.16081 612.76876,2220.49935 613.094282,2220.74023 C613.419805,2220.98112 613.986205,2221.10156 614.793501,2221.10156 L614.793501,2222 L606.688032,2222 L606.688032,2221.10156 L607.293501,2221.10156 C608.231006,2221.10156 608.839724,2220.9681 609.119673,2220.70117 C609.399622,2220.43424 609.559126,2220.11524 609.598189,2219.74414 C609.637251,2219.37305 609.656782,2218.29558 609.656782,2216.51172 L609.656782,2200.47656 C609.656782,2198.92708 609.5103,2197.9375 609.217329,2197.50781 C608.924359,2197.07812 608.217986,2196.86328 607.098189,2196.86328 L607.098189,2195.96484 C607.866422,2195.96484 608.787636,2195.8737 609.861861,2195.69141 C610.936085,2195.50911 611.668499,2195.32682 612.059126,2195.14453 L612.469282,2195.14453 L612.469282,2213.13281 L614.14897,2211.96094 C616.870338,2210.03384 618.231001,2208.64714 618.231001,2207.80078 C618.231001,2207.22786 617.729704,2206.92839 616.727095,2206.90234 L616.727095,2206.00391 Z M642.258913,2211.41406 L631.106569,2211.41406 C631.054486,2212.1823 631.028444,2212.75521 631.028444,2213.13281 C631.028444,2215.94533 631.467893,2218.05794 632.346804,2219.4707 C633.225714,2220.88347 634.53755,2221.58984 636.282351,2221.58984 C638.652154,2221.58984 640.331825,2220.52866 641.321413,2218.40625 L642.258913,2218.40625 C641.842244,2219.73438 641.01543,2220.77278 639.778444,2221.52148 C638.541459,2222.27019 637.193816,2222.64453 635.735476,2222.64453 C634.381302,2222.64453 633.102018,2222.30274 631.897585,2221.61914 C630.693152,2220.93554 629.706834,2219.96876 628.938601,2218.71875 C628.170368,2217.46874 627.786257,2215.95183 627.786257,2214.16797 C627.786257,2211.64191 628.528437,2209.54233 630.012819,2207.86914 C631.497202,2206.19596 633.352652,2205.35938 635.579226,2205.35938 C637.67559,2205.35938 639.296668,2205.99739 640.442507,2207.27344 C641.588346,2208.54949 642.193809,2209.92968 642.258913,2211.41406 Z M638.840944,2210.63281 C638.880007,2210.33333 638.899538,2210.06641 638.899538,2209.83203 C638.899538,2208.68619 638.564255,2207.79753 637.893679,2207.16602 C637.223103,2206.5345 636.399543,2206.21875 635.422976,2206.21875 C633.053172,2206.21875 631.640426,2207.69009 631.184694,2210.63281 L638.840944,2210.63281 Z M652.224325,2209.44141 C652.667036,2208.28255 653.38643,2207.3125 654.382528,2206.53125 C655.378627,2205.75 656.351925,2205.35938 657.30245,2205.35938 C658.16183,2205.35938 658.838906,2205.6263 659.3337,2206.16016 C659.828494,2206.69401 660.075888,2207.24088 660.075888,2207.80078 C660.075888,2208.17839 659.948936,2208.5039 659.695028,2208.77734 C659.441121,2209.05078 659.131879,2209.1875 658.767294,2209.1875 C658.116249,2209.1875 657.621462,2208.70573 657.282919,2207.74219 C657.048543,2207.09114 656.696984,2206.76562 656.228231,2206.76562 C655.668333,2206.76562 654.997767,2207.14648 654.216513,2207.9082 C653.435259,2208.66993 652.933962,2209.46093 652.712606,2210.28125 C652.491251,2211.10157 652.380575,2212.22786 652.380575,2213.66016 L652.380575,2216.51172 C652.380575,2218.21746 652.403361,2219.29166 652.448935,2219.73438 C652.494508,2220.17709 652.680053,2220.51562 653.005575,2220.75 C653.331098,2220.98438 653.910519,2221.10156 654.743856,2221.10156 L655.290731,2221.10156 L655.290731,2222 L646.794638,2222 L646.794638,2221.10156 L647.204794,2221.10156 C647.986048,2221.10156 648.542683,2220.99414 648.874716,2220.7793 C649.206749,2220.56445 649.405314,2220.26172 649.470419,2219.87109 C649.535523,2219.48047 649.568075,2218.36069 649.568075,2216.51172 L649.568075,2212 C649.568075,2210.28124 649.545289,2209.20378 649.499716,2208.76758 C649.454143,2208.33138 649.268598,2207.99284 648.943075,2207.75195 C648.617553,2207.51107 648.038131,2207.39062 647.204794,2207.39062 L646.794638,2207.39062 L646.794638,2206.51172 C648.018602,2206.36849 649.620149,2205.98438 651.599325,2205.35938 C651.976931,2206.38803 652.185263,2207.74869 652.224325,2209.44141 Z M671.642862,2222.64453 L670.51005,2222.64453 L664.826456,2209.8125 C664.266557,2208.57551 663.823853,2207.78776 663.498331,2207.44922 C663.172809,2207.11068 662.63896,2206.92839 661.896769,2206.90234 L661.896769,2206.00391 L669.123331,2206.00391 L669.123331,2206.90234 C668.329056,2206.90234 667.785442,2206.96745 667.492472,2207.09766 C667.199501,2207.22787 667.053019,2207.47526 667.053019,2207.83984 C667.053019,2208.1263 667.313433,2208.82291 667.834269,2209.92969 L672.150675,2219.63672 L676.037394,2210.98438 C676.649376,2209.60416 676.955362,2208.70573 676.955362,2208.28906 C676.955362,2207.41666 676.304327,2206.95443 675.002237,2206.90234 L675.002237,2206.00391 L680.392862,2206.00391 L680.392862,2206.90234 C679.728796,2206.94141 679.172161,2207.2181 678.72294,2207.73242 C678.273719,2208.24675 677.64547,2209.40233 676.838175,2211.19922 L671.642862,2222.64453 Z M684.733274,2197.19531 C684.733274,2196.63541 684.93184,2196.15365 685.328977,2195.75 C685.726115,2195.34635 686.204626,2195.14453 686.764524,2195.14453 C687.324423,2195.14453 687.799679,2195.34635 688.190306,2195.75 C688.580932,2196.15365 688.776243,2196.63541 688.776243,2197.19531 C688.776243,2197.76823 688.580932,2198.25651 688.190306,2198.66016 C687.799679,2199.0638 687.324423,2199.26562 686.764524,2199.26562 C686.204626,2199.26562 685.726115,2199.0638 685.328977,2198.66016 C684.93184,2198.25651 684.733274,2197.76823 684.733274,2197.19531 Z M688.502806,2205.35938 L688.502806,2216.51172 C688.502806,2218.21746 688.528847,2219.29166 688.580931,2219.73438 C688.633014,2220.17709 688.821814,2220.51562 689.147337,2220.75 C689.472859,2220.98438 690.052281,2221.10156 690.885618,2221.10156 L691.295774,2221.10156 L691.295774,2222 L682.682493,2222 L682.682493,2221.10156 L683.346556,2221.10156 C684.271039,2221.10156 684.873247,2220.9681 685.153196,2220.70117 C685.433145,2220.43424 685.595904,2220.11524 685.641477,2219.74414 C685.687051,2219.37305 685.709837,2218.29558 685.709837,2216.51172 L685.709837,2211.66797 C685.709837,2209.79296 685.621947,2208.64714 685.446165,2208.23047 C685.270383,2207.8138 685.03601,2207.55339 684.74304,2207.44922 C684.45007,2207.34505 683.939007,2207.29297 683.209837,2207.29297 L682.682493,2207.29297 L682.682493,2206.39453 C685.000213,2206.16016 686.79707,2205.81511 688.073118,2205.35938 L688.502806,2205.35938 Z M699.972124,2195.14453 L699.972124,2216.51172 C699.972124,2218.21746 699.99491,2219.29166 700.040483,2219.73438 C700.086056,2220.17709 700.271601,2220.51562 700.597124,2220.75 C700.922646,2220.98438 701.502068,2221.10156 702.335405,2221.10156 L702.804155,2221.10156 L702.804155,2222 L694.249468,2222 L694.249468,2221.10156 L694.796343,2221.10156 C695.577596,2221.10156 696.134232,2220.99414 696.466264,2220.7793 C696.798297,2220.56445 696.996863,2220.26172 697.061968,2219.87109 C697.127072,2219.48047 697.159624,2218.36069 697.159624,2216.51172 L697.159624,2200.69141 C697.159624,2199.01171 697.009886,2197.95378 696.710405,2197.51758 C696.410924,2197.08138 695.681765,2196.86328 694.522905,2196.86328 L694.522905,2195.96484 C695.31718,2195.96484 696.251415,2195.8737 697.325639,2195.69141 C698.399864,2195.50911 699.138788,2195.32682 699.542436,2195.14453 L699.972124,2195.14453 Z M711.343786,2195.14453 L711.343786,2216.51172 C711.343786,2218.21746 711.366572,2219.29166 711.412145,2219.73438 C711.457718,2220.17709 711.643263,2220.51562 711.968786,2220.75 C712.294308,2220.98438 712.87373,2221.10156 713.707067,2221.10156 L714.175817,2221.10156 L714.175817,2222 L705.62113,2222 L705.62113,2221.10156 L706.168005,2221.10156 C706.949258,2221.10156 707.505894,2220.99414 707.837926,2220.7793 C708.169959,2220.56445 708.368525,2220.26172 708.43363,2219.87109 C708.498734,2219.48047 708.531286,2218.36069 708.531286,2216.51172 L708.531286,2200.69141 C708.531286,2199.01171 708.381548,2197.95378 708.082067,2197.51758 C707.782586,2197.08138 707.053427,2196.86328 705.894567,2196.86328 L705.894567,2195.96484 C706.688842,2195.96484 707.623077,2195.8737 708.697301,2195.69141 C709.771526,2195.50911 710.51045,2195.32682 710.914098,2195.14453 L711.343786,2195.14453 Z M732.559198,2211.41406 L721.406854,2211.41406 C721.35477,2212.1823 721.328729,2212.75521 721.328729,2213.13281 C721.328729,2215.94533 721.768178,2218.05794 722.647088,2219.4707 C723.525999,2220.88347 724.837835,2221.58984 726.582635,2221.58984 C728.952439,2221.58984 730.63211,2220.52866 731.621698,2218.40625 L732.559198,2218.40625 C732.142529,2219.73438 731.315714,2220.77278 730.078729,2221.52148 C728.841744,2222.27019 727.494101,2222.64453 726.03576,2222.64453 C724.681587,2222.64453 723.402303,2222.30274 722.19787,2221.61914 C720.993437,2220.93554 720.007118,2219.96876 719.238885,2218.71875 C718.470652,2217.46874 718.086542,2215.95183 718.086542,2214.16797 C718.086542,2211.64191 718.828722,2209.54233 720.313104,2207.86914 C721.797487,2206.19596 723.652937,2205.35938 725.87951,2205.35938 C727.975875,2205.35938 729.596953,2205.99739 730.742792,2207.27344 C731.888631,2208.54949 732.494093,2209.92968 732.559198,2211.41406 Z M729.141229,2210.63281 C729.180292,2210.33333 729.199823,2210.06641 729.199823,2209.83203 C729.199823,2208.68619 728.86454,2207.79753 728.193963,2207.16602 C727.523387,2206.5345 726.699828,2206.21875 725.72326,2206.21875 C723.353457,2206.21875 721.940711,2207.69009 721.484979,2210.63281 L729.141229,2210.63281 Z M426.78021,2260.43652 L427.412534,2260.43652 C427.309995,2262.38478 426.352973,2263.35889 424.541441,2263.35889 C423.766697,2263.35889 423.154317,2263.15381 422.704282,2262.74365 C422.254248,2262.33349 421.960875,2261.72396 421.824155,2260.91504 C420.684827,2261.72396 419.645205,2262.33349 418.705259,2262.74365 C417.765313,2263.15381 416.925071,2263.35889 416.184507,2263.35889 C415.238864,2263.35889 414.424257,2263.08545 413.740659,2262.53857 C413.057062,2261.9917 412.715269,2261.26823 412.715269,2260.36816 C412.715269,2259.19466 413.287773,2258.16928 414.432798,2257.29199 C415.577823,2256.41471 417.158618,2255.56023 419.17523,2254.72852 L421.824155,2253.65186 L421.824155,2252.96826 C421.824155,2251.99983 421.761493,2251.29916 421.636167,2250.86621 C421.510841,2250.43327 421.186137,2250.0459 420.662046,2249.7041 C420.137955,2249.3623 419.448671,2249.19141 418.594175,2249.19141 C416.885182,2249.19141 415.933857,2249.76106 415.740171,2250.90039 C415.557878,2252.06251 415.079368,2252.64355 414.304624,2252.64355 C413.609634,2252.64355 413.262144,2252.31315 413.262144,2251.65234 C413.262144,2251.00293 413.723565,2250.3051 414.646421,2249.55884 C415.569277,2248.81258 417.00481,2248.43945 418.953062,2248.43945 C420.400009,2248.43945 421.522231,2248.66732 422.319761,2249.12305 C423.117291,2249.57878 423.644223,2250.09717 423.900571,2250.67822 C424.15692,2251.25928 424.285093,2252.14794 424.285093,2253.34424 L424.285093,2259.00098 C424.285093,2260.3226 424.353452,2261.17138 424.490171,2261.54736 C424.626891,2261.92334 424.923112,2262.11133 425.378843,2262.11133 C426.1308,2262.11133 426.597918,2261.55307 426.78021,2260.43652 Z M421.824155,2254.45508 L419.961362,2255.20703 C417.021895,2256.40333 415.552183,2257.90722 415.552183,2259.71875 C415.552183,2260.43653 415.740169,2261.01473 416.116148,2261.45337 C416.492126,2261.89201 416.98203,2262.11133 417.585874,2262.11133 C418.121359,2262.11133 418.742283,2261.93473 419.448667,2261.58154 C420.155051,2261.22835 420.946872,2260.69857 421.824155,2259.99219 L421.824155,2254.45508 Z M432.919939,2263.56396 L432.253435,2263.56396 L432.253435,2244.8335 C432.253435,2243.4663 432.216407,2242.58334 432.142351,2242.18457 C432.068294,2241.78581 431.880308,2241.48958 431.578386,2241.2959 C431.276464,2241.10221 430.749532,2241.00537 429.997575,2241.00537 L429.997575,2240.21924 C430.669779,2240.21924 431.47869,2240.13949 432.424333,2239.97998 C433.369976,2239.82047 434.013687,2239.66097 434.355485,2239.50146 L434.714372,2239.50146 L434.714372,2250.57568 C435.511902,2249.85791 436.320813,2249.32243 437.14113,2248.96924 C437.961447,2248.61605 438.793144,2248.43945 439.636247,2248.43945 C441.652859,2248.43945 443.304861,2249.14013 444.592302,2250.5415 C445.879743,2251.94288 446.523454,2253.7316 446.523454,2255.90771 C446.523454,2258.09523 445.862654,2259.91812 444.541032,2261.37646 C443.219411,2262.83481 441.504747,2263.56396 439.396989,2263.56396 C438.3602,2263.56396 437.451599,2263.3475 436.671159,2262.91455 C435.890719,2262.48161 435.238463,2261.83789 434.714372,2260.9834 C433.973809,2261.72396 433.37567,2262.58414 432.919939,2263.56396 Z M434.714372,2251.58398 L434.714372,2257.06982 C434.714372,2258.48259 434.808365,2259.49943 434.996355,2260.12036 C435.184344,2260.7413 435.63722,2261.33659 436.354997,2261.90625 C437.072774,2262.47591 437.910168,2262.76074 438.867204,2262.76074 C440.336938,2262.76074 441.507581,2262.15691 442.379167,2260.94922 C443.250753,2259.74153 443.68654,2258.00408 443.68654,2255.73682 C443.68654,2253.65185 443.279236,2252.06535 442.464616,2250.97729 C441.649996,2249.88924 440.564802,2249.34521 439.209001,2249.34521 C438.434258,2249.34521 437.673767,2249.53035 436.927507,2249.90063 C436.181247,2250.27092 435.443542,2250.83203 434.714372,2251.58398 Z M462.951269,2259.58203 L463.703222,2259.58203 C462.928478,2262.23667 460.991649,2263.56396 457.892675,2263.56396 C455.89885,2263.56396 454.221214,2262.88607 452.859716,2261.53027 C451.498218,2260.17447 450.817479,2258.38006 450.817479,2256.14697 C450.817479,2253.85692 451.552335,2251.99984 453.022069,2250.57568 C454.491803,2249.15152 456.229253,2248.43945 458.234472,2248.43945 C459.44216,2248.43945 460.552989,2248.70434 461.566991,2249.23413 C462.580994,2249.76392 463.087987,2250.41048 463.087987,2251.17383 C463.087987,2251.45866 462.993994,2251.7264 462.806005,2251.97705 C462.618016,2252.2277 462.347429,2252.35303 461.994237,2252.35303 C461.24228,2252.35303 460.780859,2251.91439 460.60996,2251.03711 C460.473241,2250.3763 460.262468,2249.91488 459.977636,2249.65283 C459.68141,2249.39079 459.106058,2249.25977 458.251562,2249.25977 C456.724861,2249.25977 455.577005,2249.78955 454.807958,2250.84912 C454.038911,2251.9087 453.654394,2253.50373 453.654394,2255.63428 C453.654394,2257.83318 454.067394,2259.55354 454.893407,2260.79541 C455.71942,2262.03728 456.969815,2262.6582 458.644628,2262.6582 C460.900499,2262.6582 462.336031,2261.63282 462.951269,2259.58203 Z M479.447442,2250.49023 L479.447442,2245.02148 C479.447442,2243.52896 479.427504,2242.58903 479.387628,2242.20166 C479.347751,2241.81429 479.185399,2241.51807 478.900567,2241.31299 C478.615735,2241.10791 478.108742,2241.00537 477.379571,2241.00537 L477.020684,2241.00537 L477.020684,2240.21924 C478.399272,2240.18506 479.90886,2239.9458 481.549493,2239.50146 L481.90838,2239.50146 L481.90838,2258.31738 C481.90838,2259.94662 481.936863,2260.93782 481.993829,2261.29102 C482.050795,2261.64421 482.230237,2261.90625 482.532159,2262.07715 C482.834081,2262.24805 483.395192,2262.3335 484.215509,2262.3335 L484.215509,2263.11963 C482.563482,2263.15381 481.09377,2263.30192 479.806329,2263.56396 C479.66961,2263.02848 479.601251,2262.18539 479.601251,2261.03467 C478.758148,2261.87777 477.889423,2262.51009 476.99505,2262.93164 C476.100677,2263.35319 475.174986,2263.56396 474.21795,2263.56396 C472.406418,2263.56396 470.842713,2262.83481 469.526788,2261.37646 C468.210863,2259.91812 467.552911,2258.15219 467.552911,2256.07861 C467.552911,2253.79996 468.225105,2251.95712 469.569513,2250.55005 C470.91392,2249.14298 472.514653,2248.43945 474.371759,2248.43945 C475.317401,2248.43945 476.211761,2248.61035 477.054864,2248.95215 C477.897967,2249.29395 478.695485,2249.80664 479.447442,2250.49023 Z M479.447442,2251.48145 C478.695485,2250.83203 477.940692,2250.34497 477.183038,2250.02026 C476.425384,2249.69556 475.664894,2249.5332 474.901544,2249.5332 C473.614103,2249.5332 472.540301,2250.0288 471.680108,2251.02002 C470.819915,2252.01124 470.389825,2253.62906 470.389825,2255.87354 C470.389825,2258.15219 470.831308,2259.83268 471.714288,2260.91504 C472.597268,2261.9974 473.688158,2262.53857 474.986993,2262.53857 C475.852883,2262.53857 476.656097,2262.3335 477.396661,2261.92334 C478.137225,2261.51318 478.820812,2260.89795 479.447442,2260.07764 L479.447442,2251.48145 Z M500.301526,2253.7373 L490.543225,2253.7373 C490.497652,2254.40951 490.474866,2254.91081 490.474866,2255.24121 C490.474866,2257.70216 490.859384,2259.55069 491.62843,2260.78687 C492.397477,2262.02304 493.545334,2262.64111 495.072034,2262.64111 C497.145612,2262.64111 498.615324,2261.71257 499.481214,2259.85547 L500.301526,2259.85547 C499.936941,2261.01758 499.213478,2261.92618 498.131116,2262.5813 C497.048754,2263.23641 495.869566,2263.56396 494.593518,2263.56396 C493.408617,2263.56396 492.289243,2263.2649 491.235364,2262.66675 C490.181485,2262.0686 489.318457,2261.22266 488.646253,2260.12891 C487.974049,2259.03515 487.637952,2257.70785 487.637952,2256.14697 C487.637952,2253.93668 488.28736,2252.09954 489.586194,2250.6355 C490.885029,2249.17146 492.508548,2248.43945 494.4568,2248.43945 C496.291119,2248.43945 497.709562,2248.99772 498.712171,2250.11426 C499.71478,2251.2308 500.24456,2252.43847 500.301526,2253.7373 Z M497.310804,2253.05371 C497.344983,2252.79167 497.362073,2252.55811 497.362073,2252.35303 C497.362073,2251.35042 497.0687,2250.57284 496.481946,2250.02026 C495.895192,2249.46769 495.174577,2249.19141 494.320081,2249.19141 C492.246503,2249.19141 491.01035,2250.47883 490.611585,2253.05371 L497.310804,2253.05371 Z M511.927094,2249.00342 L511.927094,2249.78955 L509.004731,2249.78955 L509.004731,2258.19775 C509.004731,2259.69027 509.024669,2260.63021 509.064546,2261.01758 C509.104422,2261.40495 509.266774,2261.70117 509.551606,2261.90625 C509.836438,2262.11133 510.343432,2262.21387 511.072602,2262.21387 L511.807466,2262.21387 L511.807466,2263 L504.236665,2263 L504.236665,2262.21387 C505.022802,2262.21387 505.566823,2262.13412 505.868745,2261.97461 C506.170667,2261.8151 506.358653,2261.573 506.43271,2261.24829 C506.506766,2260.92358 506.543794,2259.90675 506.543794,2258.19775 L506.543794,2249.78955 L503.929048,2249.78955 L503.929048,2249.00342 L506.543794,2249.00342 L506.543794,2247.73877 C506.543794,2246.326 506.600759,2245.23226 506.714692,2244.45752 C506.828625,2243.68278 507.15048,2242.88241 507.680268,2242.0564 C508.210056,2241.23038 508.876553,2240.59522 509.67978,2240.15088 C510.483007,2239.70654 511.43718,2239.48438 512.542329,2239.48438 C513.886737,2239.48438 514.963386,2239.76351 515.772309,2240.32178 C516.581233,2240.88005 516.985688,2241.4497 516.985688,2242.03076 C516.985688,2242.36117 516.871757,2242.6346 516.643891,2242.85107 C516.416026,2243.06755 516.148287,2243.17578 515.840669,2243.17578 C515.236825,2243.17578 514.684258,2242.70866 514.182954,2241.77441 C513.624683,2240.74902 512.90122,2240.23633 512.012544,2240.23633 C511.294767,2240.23633 510.665297,2240.49552 510.124116,2241.01392 C509.582935,2241.53231 509.261079,2242.17887 509.15854,2242.95361 C509.056,2243.72836 509.004731,2245.39175 509.004731,2247.94385 L509.004731,2249.00342 L511.927094,2249.00342 Z M526.680104,2250.23389 C527.648533,2249.14013 528.628341,2248.59326 529.619557,2248.59326 C530.166435,2248.59326 530.590829,2248.74137 530.892751,2249.0376 C531.194673,2249.33382 531.345631,2249.65853 531.345631,2250.01172 C531.345631,2250.76368 531.003838,2251.13965 530.320241,2251.13965 C529.944262,2251.13965 529.619559,2250.90609 529.34612,2250.43896 C529.095467,2250.00602 528.833426,2249.78955 528.559987,2249.78955 C528.127042,2249.78955 527.648531,2250.08577 527.12444,2250.67822 C527.716891,2251.61247 528.013112,2252.60367 528.013112,2253.65186 C528.013112,2255.01905 527.523208,2256.22672 526.543385,2257.2749 C525.563563,2258.33448 523.911561,2258.90413 521.587331,2258.98389 C519.171954,2259.06364 517.964284,2259.55354 517.964284,2260.45361 C517.964284,2260.87516 518.237719,2261.17139 518.784596,2261.34229 C519.320081,2261.52458 520.447999,2261.6613 522.168385,2261.75244 C524.048278,2261.84359 525.495203,2262.01733 526.509206,2262.27368 C527.523208,2262.53003 528.332119,2263.04557 528.935964,2263.82031 C529.539808,2264.59506 529.841725,2265.5179 529.841725,2266.58887 C529.841725,2268.09278 529.226497,2269.30615 527.996022,2270.229 C526.765547,2271.15186 524.993918,2271.61328 522.681081,2271.61328 C520.561929,2271.61328 518.864355,2271.20313 517.588307,2270.38281 C516.312259,2269.5625 515.674245,2268.52572 515.674245,2267.27246 C515.674245,2266.57747 515.856535,2266.00781 516.22112,2265.56348 C516.585705,2265.11914 517.104092,2264.89697 517.776296,2264.89697 C517.958588,2264.89697 518.123788,2264.92546 518.271901,2264.98242 C517.565517,2265.75717 517.212331,2266.57747 517.212331,2267.44336 C517.212331,2268.44597 517.682297,2269.27482 518.622243,2269.92993 C519.562189,2270.58505 520.96639,2270.9126 522.834889,2270.9126 C524.498309,2270.9126 525.794276,2270.57935 526.722829,2269.91284 C527.651382,2269.24633 528.115651,2268.3947 528.115651,2267.35791 C528.115651,2266.21858 527.699802,2265.41537 526.868092,2264.94824 C526.036383,2264.49251 524.555278,2264.21908 522.424733,2264.12793 C519.975177,2264.02539 518.385837,2263.72347 517.656667,2263.22217 C516.927496,2262.73226 516.562917,2262.09994 516.562917,2261.3252 C516.562917,2259.83267 517.605387,2258.89274 519.690358,2258.50537 C518.607996,2257.86735 517.793388,2257.13819 517.24651,2256.31787 C516.699633,2255.49755 516.426198,2254.58041 516.426198,2253.56641 C516.426198,2252.14225 516.987309,2250.93173 518.109547,2249.93481 C519.231786,2248.9379 520.561932,2248.43945 522.100026,2248.43945 C524.002705,2248.43945 525.529382,2249.03759 526.680104,2250.23389 Z M518.989674,2253.95947 C518.989674,2255.42921 519.291592,2256.50586 519.895436,2257.18945 C520.49928,2257.87305 521.268316,2258.21484 522.202565,2258.21484 C523.068455,2258.21484 523.811856,2257.8759 524.43279,2257.198 C525.053724,2256.5201 525.364186,2255.34376 525.364186,2253.66895 C525.364186,2251.98274 525.033786,2250.82064 524.372975,2250.18262 C523.712165,2249.54459 522.965916,2249.22559 522.134206,2249.22559 C521.086023,2249.22559 520.299898,2249.61865 519.775807,2250.40479 C519.251716,2251.19092 518.989674,2252.37581 518.989674,2253.95947 Z M538.57911,2251.31055 C539.262707,2250.35351 540.028894,2249.63574 540.877694,2249.15723 C541.726494,2248.67871 542.657881,2248.43945 543.671883,2248.43945 C544.822605,2248.43945 545.776779,2248.67871 546.534432,2249.15723 C547.292086,2249.63574 547.784838,2250.22534 548.012704,2250.92603 C548.240569,2251.62671 548.354501,2252.76318 548.354501,2254.33545 L548.354501,2258.19775 C548.354501,2259.83839 548.385832,2260.83528 548.448495,2261.18848 C548.511158,2261.54167 548.696296,2261.80086 549.003915,2261.96606 C549.311533,2262.13127 549.881189,2262.21387 550.712899,2262.21387 L550.712899,2263 L543.483895,2263 L543.483895,2262.21387 L543.808602,2262.21387 C544.640312,2262.21387 545.178637,2262.09424 545.423592,2261.85498 C545.668548,2261.61572 545.810962,2261.33374 545.850838,2261.00903 C545.890715,2260.68432 545.910653,2259.74724 545.910653,2258.19775 L545.910653,2253.99365 C545.910653,2252.83154 545.842294,2251.97136 545.705575,2251.41309 C545.568855,2250.85481 545.247,2250.39339 544.739999,2250.02881 C544.232997,2249.66422 543.597831,2249.48193 542.834481,2249.48193 C541.945805,2249.48193 541.148287,2249.74113 540.441903,2250.25952 C539.735519,2250.77792 539.114594,2251.5555 538.57911,2252.59229 L538.57911,2258.19775 C538.57911,2259.77003 538.604744,2260.73844 538.656014,2261.10303 C538.707284,2261.46761 538.881029,2261.7439 539.177254,2261.93188 C539.47348,2262.11987 540.014653,2262.21387 540.80079,2262.21387 L540.80079,2263 L533.691415,2263 L533.691415,2262.21387 L534.050301,2262.21387 C534.870618,2262.21387 535.403246,2262.09709 535.648202,2261.86353 C535.893157,2261.62996 536.035571,2261.35083 536.075448,2261.02612 C536.115324,2260.70141 536.135262,2259.75863 536.135262,2258.19775 L536.135262,2244.25244 C536.135262,2242.83967 536.001393,2241.94531 535.733651,2241.56934 C535.465909,2241.19336 534.825046,2241.00537 533.811044,2241.00537 L533.811044,2240.21924 C535.577003,2240.21924 537.046715,2239.97998 538.220223,2239.50146 L538.57911,2239.50146 L538.57911,2251.31055 Z M555.587979,2241.2959 C555.587979,2240.80599 555.761724,2240.38444 556.109219,2240.03125 C556.456714,2239.67806 556.875411,2239.50146 557.365323,2239.50146 C557.855234,2239.50146 558.271083,2239.67806 558.612881,2240.03125 C558.95468,2240.38444 559.125577,2240.80599 559.125577,2241.2959 C559.125577,2241.7972 558.95468,2242.22444 558.612881,2242.57764 C558.271083,2242.93083 557.855234,2243.10742 557.365323,2243.10742 C556.875411,2243.10742 556.456714,2242.93083 556.109219,2242.57764 C555.761724,2242.22444 555.587979,2241.7972 555.587979,2241.2959 Z M558.886319,2248.43945 L558.886319,2258.19775 C558.886319,2259.69027 558.909105,2260.63021 558.954678,2261.01758 C559.000251,2261.40495 559.165451,2261.70117 559.450284,2261.90625 C559.735116,2262.11133 560.242109,2262.21387 560.97128,2262.21387 L561.330166,2262.21387 L561.330166,2263 L553.793545,2263 L553.793545,2262.21387 L554.3746,2262.21387 C555.183523,2262.21387 555.710455,2262.09709 555.955411,2261.86353 C556.200366,2261.62996 556.34278,2261.35083 556.382657,2261.02612 C556.422533,2260.70141 556.442471,2259.75863 556.442471,2258.19775 L556.442471,2253.95947 C556.442471,2252.31884 556.365568,2251.31625 556.211758,2250.95166 C556.057949,2250.58707 555.852873,2250.35921 555.596524,2250.26807 C555.340175,2250.17692 554.892995,2250.13135 554.254971,2250.13135 L553.793545,2250.13135 L553.793545,2249.34521 C555.82155,2249.14014 557.3938,2248.83822 558.510342,2248.43945 L558.886319,2248.43945 Z M566.307786,2241.2959 C566.307786,2240.80599 566.478682,2240.38444 566.820481,2240.03125 C567.162279,2239.67806 567.583825,2239.50146 568.085129,2239.50146 C568.575041,2239.50146 568.990889,2239.67806 569.332688,2240.03125 C569.674486,2240.38444 569.845383,2240.80599 569.845383,2241.2959 C569.845383,2241.7972 569.671638,2242.22444 569.324143,2242.57764 C568.976648,2242.93083 568.563647,2243.10742 568.085129,2243.10742 C567.572431,2243.10742 567.148038,2242.92513 566.811936,2242.56055 C566.475834,2242.19596 566.307786,2241.77442 566.307786,2241.2959 Z M569.674485,2248.43945 L569.674485,2263.47852 C569.674485,2264.97104 569.614671,2266.11604 569.495041,2266.91357 C569.375412,2267.7111 569.076343,2268.47444 568.597825,2269.20361 C568.119307,2269.93278 567.444264,2270.51668 566.572678,2270.95532 C565.701092,2271.39396 564.718436,2271.61328 563.62468,2271.61328 C562.587891,2271.61328 561.716318,2271.4139 561.009934,2271.01514 C560.30355,2270.61637 559.950364,2270.10938 559.950364,2269.49414 C559.950364,2269.12956 560.061447,2268.85042 560.283616,2268.65674 C560.505785,2268.46305 560.753585,2268.36621 561.027024,2268.36621 C561.539722,2268.36621 561.961267,2268.73079 562.291672,2269.45996 C562.690437,2270.39421 563.299969,2270.86133 564.120286,2270.86133 C564.838063,2270.86133 565.473229,2270.62492 566.025803,2270.1521 C566.578377,2269.67928 566.917323,2269.06975 567.042649,2268.32349 C567.167975,2267.57723 567.230637,2266.3838 567.230637,2264.74316 L567.230637,2253.94238 C567.230637,2252.5638 567.179368,2251.65519 567.076828,2251.21655 C566.974289,2250.77791 566.794847,2250.48739 566.538498,2250.34497 C566.282149,2250.20255 565.789397,2250.13135 565.060227,2250.13135 L564.632981,2250.13135 L564.632981,2249.34521 C566.638199,2249.14014 568.193359,2248.83822 569.298508,2248.43945 L569.674485,2248.43945 Z M583.555912,2249.00342 L589.195561,2249.00342 L589.195561,2249.78955 C588.158772,2249.81234 586.768812,2250.58707 585.025639,2252.11377 C584.467368,2252.59229 583.601491,2253.29296 582.427983,2254.21582 L587.418217,2260.06055 C588.170174,2260.93783 588.762616,2261.51033 589.195561,2261.77808 C589.628506,2262.04582 590.072837,2262.19108 590.528569,2262.21387 L590.528569,2263 L583.555912,2263 L583.555912,2262.21387 C584.718028,2262.19108 585.299076,2261.94043 585.299076,2261.46191 C585.299076,2261.24544 584.917407,2260.69288 584.154057,2259.8042 L580.56519,2255.63428 L579.830326,2256.18115 L579.830326,2258.19775 C579.830326,2259.69027 579.850264,2260.62736 579.890141,2261.00903 C579.930017,2261.39071 580.092369,2261.68693 580.377201,2261.89771 C580.662034,2262.10848 581.157634,2262.21387 581.864018,2262.21387 L581.864018,2263 L574.771733,2263 L574.771733,2262.21387 L575.301518,2262.21387 C576.121834,2262.21387 576.654463,2262.09709 576.899418,2261.86353 C577.144374,2261.62996 577.28394,2261.35083 577.318119,2261.02612 C577.352299,2260.70141 577.369389,2259.75863 577.369389,2258.19775 L577.369389,2244.16699 C577.369389,2242.81119 577.241216,2241.94531 576.984867,2241.56934 C576.728519,2241.19336 576.110442,2241.00537 575.130619,2241.00537 L575.130619,2240.21924 C575.802823,2240.21924 576.608886,2240.13949 577.548832,2239.97998 C578.488778,2239.82047 579.129641,2239.66097 579.47144,2239.50146 L579.830326,2239.50146 L579.830326,2255.24121 L581.300053,2254.21582 C583.68125,2252.52961 584.87183,2251.31625 584.87183,2250.57568 C584.87183,2250.07438 584.433195,2249.81234 583.555912,2249.78955 L583.555912,2249.00342 Z M597.505699,2239.50146 L597.505699,2258.19775 C597.505699,2259.69027 597.525637,2260.63021 597.565514,2261.01758 C597.60539,2261.40495 597.767742,2261.70117 598.052574,2261.90625 C598.337407,2262.11133 598.8444,2262.21387 599.57357,2262.21387 L599.983727,2262.21387 L599.983727,2263 L592.498375,2263 L592.498375,2262.21387 L592.976891,2262.21387 C593.660488,2262.21387 594.147544,2262.11987 594.438072,2261.93188 C594.728601,2261.7439 594.902346,2261.47901 594.959313,2261.13721 C595.016279,2260.79541 595.044762,2259.8156 595.044762,2258.19775 L595.044762,2244.35498 C595.044762,2242.88525 594.913741,2241.95956 594.651695,2241.57788 C594.38965,2241.19621 593.751635,2241.00537 592.737633,2241.00537 L592.737633,2240.21924 C593.432623,2240.21924 594.250079,2240.13949 595.190026,2239.97998 C596.129972,2239.82047 596.776531,2239.66097 597.129723,2239.50146 L597.505699,2239.50146 Z M607.217205,2248.43945 L607.388104,2248.43945 C607.718509,2249.2028 607.883709,2250.18261 607.883709,2251.37891 C608.647059,2250.39908 609.470212,2249.66423 610.353191,2249.17432 C611.236171,2248.68441 612.184648,2248.43945 613.19865,2248.43945 C614.349372,2248.43945 615.283608,2248.70149 616.001385,2249.22559 C616.719162,2249.74968 617.220459,2250.5358 617.505291,2251.58398 C618.371181,2250.5358 619.259844,2249.74968 620.171307,2249.22559 C621.08277,2248.70149 622.011309,2248.43945 622.956951,2248.43945 C624.039313,2248.43945 624.956459,2248.6901 625.708416,2249.19141 C626.460373,2249.69271 626.916098,2250.26237 627.075604,2250.90039 C627.23511,2251.53841 627.314861,2252.56949 627.314861,2253.99365 L627.314861,2258.19775 C627.314861,2259.82699 627.346192,2260.81819 627.408856,2261.17139 C627.471519,2261.52458 627.653808,2261.78662 627.955731,2261.95752 C628.257653,2262.12842 628.818764,2262.21387 629.63908,2262.21387 L629.63908,2263 L622.649334,2263 L622.649334,2262.21387 C623.389898,2262.21387 623.911133,2262.13127 624.213055,2261.96606 C624.514977,2261.80086 624.700115,2261.55021 624.768475,2261.21411 C624.836834,2260.87801 624.871014,2259.87257 624.871014,2258.19775 L624.871014,2253.53223 C624.871014,2252.58658 624.816896,2251.87451 624.70866,2251.396 C624.600424,2250.91748 624.318444,2250.50733 623.862713,2250.16553 C623.406982,2249.82373 622.81454,2249.65283 622.085369,2249.65283 C621.344806,2249.65283 620.601405,2249.90348 619.855145,2250.40479 C619.108884,2250.90609 618.359787,2251.66373 617.60783,2252.67773 L617.60783,2258.19775 C617.60783,2259.69027 617.627768,2260.62736 617.667645,2261.00903 C617.707521,2261.39071 617.867025,2261.68693 618.14616,2261.89771 C618.425296,2262.10848 618.923745,2262.21387 619.641522,2262.21387 L619.641522,2263 L612.873943,2263 L612.873943,2262.21387 C613.637294,2262.21387 614.169922,2262.13412 614.471844,2261.97461 C614.773766,2261.8151 614.961752,2261.57015 615.035809,2261.23975 C615.109865,2260.90934 615.146893,2259.89535 615.146893,2258.19775 L615.146893,2254.31836 C615.146893,2253.08788 615.098472,2252.19637 615.001629,2251.6438 C614.904786,2251.09122 614.611413,2250.61841 614.121502,2250.22534 C613.631591,2249.83227 613.022059,2249.63574 612.292889,2249.63574 C611.586505,2249.63574 610.86589,2249.8636 610.131024,2250.31934 C609.396157,2250.77507 608.647059,2251.45865 607.883709,2252.37012 L607.883709,2258.19775 C607.883709,2259.73585 607.906495,2260.69287 607.952068,2261.06885 C607.997642,2261.44483 608.168538,2261.72965 608.464764,2261.92334 C608.760989,2262.11703 609.290769,2262.21387 610.054119,2262.21387 L610.054119,2263 L603.201092,2263 L603.201092,2262.21387 C603.953049,2262.21387 604.47998,2262.13127 604.781902,2261.96606 C605.083825,2261.80086 605.268963,2261.55306 605.337322,2261.22266 C605.405682,2260.89225 605.439861,2259.88396 605.439861,2258.19775 L605.439861,2254.01074 C605.439861,2252.41568 605.414227,2251.43872 605.362957,2251.07983 C605.311687,2250.72095 605.135094,2250.45036 604.833172,2250.26807 C604.53125,2250.08577 603.987229,2249.99463 603.201092,2249.99463 L603.201092,2249.2085 C604.818939,2249.04899 606.15763,2248.79264 607.217205,2248.43945 Z M636.992188,2248.43945 L637.453613,2248.43945 C637.715659,2249.14584 637.863769,2250.10856 637.897949,2251.32764 C638.718266,2250.35921 639.578446,2249.63574 640.478516,2249.15723 C641.378585,2248.67871 642.318517,2248.43945 643.29834,2248.43945 C644.414882,2248.43945 645.329179,2248.67301 646.04126,2249.14014 C646.75334,2249.60726 647.211913,2250.17977 647.416992,2250.85767 C647.622071,2251.53557 647.724609,2252.52392 647.724609,2253.82275 L647.724609,2258.19775 C647.724609,2259.8156 647.753092,2260.80111 647.810059,2261.1543 C647.867025,2261.50749 648.046467,2261.77238 648.348389,2261.94897 C648.650311,2262.12557 649.205725,2262.21387 650.014648,2262.21387 L650.014648,2263 L642.854004,2263 L642.854004,2262.21387 L643.178711,2262.21387 C643.999028,2262.21387 644.534504,2262.09424 644.785156,2261.85498 C645.035809,2261.61572 645.178222,2261.33659 645.212402,2261.01758 C645.246582,2260.69857 645.263672,2259.75863 645.263672,2258.19775 L645.263672,2253.68604 C645.263672,2252.58089 645.209555,2251.79191 645.101318,2251.31909 C644.993082,2250.84627 644.702558,2250.42757 644.229736,2250.06299 C643.756915,2249.6984 643.155928,2249.51611 642.426758,2249.51611 C641.595048,2249.51611 640.800378,2249.76391 640.042725,2250.25952 C639.285071,2250.75513 638.570153,2251.49853 637.897949,2252.48975 L637.897949,2258.19775 C637.897949,2259.8156 637.92928,2260.80111 637.991943,2261.1543 C638.054606,2261.50749 638.236896,2261.77238 638.538818,2261.94897 C638.84074,2262.12557 639.401851,2262.21387 640.222168,2262.21387 L640.222168,2263 L633.146973,2263 L633.146973,2262.21387 C633.933109,2262.21387 634.479979,2262.13412 634.787598,2261.97461 C635.095216,2261.8151 635.286051,2261.573 635.360107,2261.24829 C635.434164,2260.92358 635.471191,2259.90675 635.471191,2258.19775 L635.471191,2254.02783 C635.471191,2252.39859 635.43986,2251.41024 635.377197,2251.06274 C635.314534,2250.71525 635.132244,2250.45321 634.830322,2250.27661 C634.5284,2250.10002 633.967289,2250.01172 633.146973,2250.01172 L633.146973,2249.22559 C634.400234,2249.08887 635.68196,2248.82682 636.992188,2248.43945 Z M653.847248,2255.97607 C653.847248,2253.83414 654.565014,2252.04257 656.000568,2250.60132 C657.436122,2249.16007 659.202055,2248.43945 661.29842,2248.43945 C663.406178,2248.43945 665.177807,2249.16292 666.613361,2250.60986 C668.048915,2252.05681 668.766682,2253.84553 668.766682,2255.97607 C668.766682,2258.33448 668.037522,2260.18871 666.579182,2261.53882 C665.120841,2262.88892 663.360605,2263.56396 661.29842,2263.56396 C659.236235,2263.56396 657.478847,2262.87753 656.026203,2261.50464 C654.573559,2260.13175 653.847248,2258.28891 653.847248,2255.97607 Z M656.684162,2256.06152 C656.684162,2258.54526 657.088618,2260.28556 657.897541,2261.28247 C658.706464,2262.27938 659.840079,2262.77783 661.29842,2262.77783 C662.79094,2262.77783 663.9331,2262.27938 664.724934,2261.28247 C665.516767,2260.28556 665.912678,2258.54526 665.912678,2256.06152 C665.912678,2253.60057 665.519615,2251.84603 664.733478,2250.79785 C663.947342,2249.74967 662.802334,2249.22559 661.29842,2249.22559 C659.805899,2249.22559 658.66374,2249.74682 657.871906,2250.78931 C657.080073,2251.83179 656.684162,2253.58918 656.684162,2256.06152 Z M676.153969,2248.43945 L676.615394,2248.43945 C676.80908,2249.07748 676.905922,2249.84651 676.905922,2250.74658 C677.635092,2249.97184 678.418369,2249.39364 679.255775,2249.01196 C680.093182,2248.63029 680.978996,2248.43945 681.913246,2248.43945 C683.850105,2248.43945 685.46223,2249.12019 686.749672,2250.48169 C688.037113,2251.84319 688.680824,2253.64045 688.680824,2255.87354 C688.680824,2258.06105 688.034265,2259.88964 686.741127,2261.35938 C685.447989,2262.82911 683.747566,2263.56396 681.639808,2263.56396 C680.773919,2263.56396 679.94507,2263.39022 679.153236,2263.04272 C678.361403,2262.69523 677.612305,2262.17969 676.905922,2261.49609 L676.905922,2266.81104 C676.905922,2268.42888 676.937253,2269.41439 676.999916,2269.76758 C677.062579,2270.12077 677.24202,2270.38566 677.538246,2270.56226 C677.834471,2270.73885 678.387037,2270.82715 679.195961,2270.82715 L679.195961,2271.61328 L671.881508,2271.61328 L671.881508,2270.82715 L672.394203,2270.82715 C673.203126,2270.82715 673.730058,2270.71037 673.975013,2270.47681 C674.219969,2270.24324 674.362383,2269.96411 674.40226,2269.6394 C674.442136,2269.3147 674.462074,2268.37192 674.462074,2266.81104 L674.462074,2254.09619 C674.462074,2252.60367 674.442136,2251.66374 674.40226,2251.27637 C674.362383,2250.889 674.200031,2250.59277 673.915199,2250.3877 C673.630367,2250.18262 673.123373,2250.08008 672.394203,2250.08008 L671.881508,2250.08008 L671.881508,2249.29395 C673.009443,2249.18001 674.433582,2248.89518 676.153969,2248.43945 Z M676.905922,2260.36816 C677.521159,2261.12012 678.173415,2261.68693 678.862709,2262.0686 C679.552003,2262.45028 680.278314,2262.64111 681.041664,2262.64111 C682.329105,2262.64111 683.451327,2262.08855 684.408363,2260.9834 C685.365399,2259.87825 685.84391,2258.11801 685.84391,2255.70264 C685.84391,2253.60627 685.382489,2252.03972 684.459633,2251.00293 C683.536776,2249.96614 682.437341,2249.44775 681.161293,2249.44775 C680.375156,2249.44775 679.628907,2249.64713 678.922523,2250.0459 C678.21614,2250.44466 677.543946,2251.0485 676.905922,2251.85742 L676.905922,2260.36816 Z M706.800533,2248.43945 L707.364498,2248.43945 L707.364498,2266.81104 C707.364498,2268.30356 707.384436,2269.24349 707.424312,2269.63086 C707.464189,2270.01823 707.626541,2270.31445 707.911373,2270.51953 C708.196205,2270.72461 708.703199,2270.82715 709.432369,2270.82715 L709.808345,2270.82715 L709.808345,2271.61328 L702.271724,2271.61328 L702.271724,2270.82715 L702.835689,2270.82715 C703.519286,2270.82715 704.006342,2270.736 704.296871,2270.55371 C704.5874,2270.37142 704.761145,2270.10653 704.818111,2269.75903 C704.875077,2269.41154 704.90356,2268.42888 704.90356,2266.81104 L704.90356,2261.80371 C704.083244,2262.38477 703.254395,2262.8234 702.416988,2263.11963 C701.579581,2263.41585 700.727946,2263.56396 699.862056,2263.56396 C697.913804,2263.56396 696.293134,2262.89747 694.999996,2261.56445 C693.706858,2260.23144 693.060299,2258.45411 693.060299,2256.23242 C693.060299,2253.8968 693.780913,2252.01409 695.222164,2250.58423 C696.663414,2249.15437 698.289782,2248.43945 700.101314,2248.43945 C700.864664,2248.43945 701.647941,2248.59041 702.451168,2248.89233 C703.254394,2249.19426 704.07185,2249.65283 704.90356,2250.26807 C705.530191,2249.85791 706.162509,2249.24838 706.800533,2248.43945 Z M704.90356,2251.32764 C704.231356,2250.7124 703.539225,2250.25098 702.827144,2249.94336 C702.115064,2249.63574 701.388753,2249.48193 700.648189,2249.48193 C699.349355,2249.48193 698.232829,2249.98893 697.29858,2251.00293 C696.36433,2252.01693 695.897213,2253.81135 695.897213,2256.38623 C695.897213,2258.4712 696.29882,2260.0406 697.102047,2261.09448 C697.905273,2262.14836 699.01895,2262.67529 700.443111,2262.67529 C701.206461,2262.67529 701.958407,2262.53573 702.69897,2262.25659 C703.439534,2261.97746 704.17439,2261.55876 704.90356,2261.00049 L704.90356,2251.32764 Z M717.691238,2252.01123 C718.07861,2250.99723 718.708079,2250.14844 719.579666,2249.46484 C720.451252,2248.78125 721.302887,2248.43945 722.134597,2248.43945 C722.886554,2248.43945 723.478996,2248.67301 723.911941,2249.14014 C724.344886,2249.60726 724.561355,2250.08577 724.561355,2250.57568 C724.561355,2250.90609 724.450272,2251.19092 724.228103,2251.43018 C724.005934,2251.66943 723.735348,2251.78906 723.416336,2251.78906 C722.846671,2251.78906 722.413733,2251.36752 722.117507,2250.52441 C721.912428,2249.95475 721.604814,2249.66992 721.194656,2249.66992 C720.704745,2249.66992 720.117999,2250.00317 719.434402,2250.66968 C718.750805,2251.33618 718.31217,2252.02832 718.118484,2252.74609 C717.924798,2253.46387 717.827957,2254.44938 717.827957,2255.70264 L717.827957,2258.19775 C717.827957,2259.69027 717.847895,2260.63021 717.887771,2261.01758 C717.927648,2261.40495 718.09,2261.70117 718.374832,2261.90625 C718.659664,2262.11133 719.166657,2262.21387 719.895828,2262.21387 L720.374343,2262.21387 L720.374343,2263 L712.940261,2263 L712.940261,2262.21387 L713.299148,2262.21387 C713.982745,2262.21387 714.469801,2262.11987 714.76033,2261.93188 C715.050859,2261.7439 715.224604,2261.47901 715.28157,2261.13721 C715.338536,2260.79541 715.367019,2259.8156 715.367019,2258.19775 L715.367019,2254.25 C715.367019,2252.74609 715.347081,2251.80331 715.307205,2251.42163 C715.267328,2251.03996 715.104976,2250.74373 714.820144,2250.53296 C714.535312,2250.32218 714.028318,2250.2168 713.299148,2250.2168 L712.940261,2250.2168 L712.940261,2249.44775 C714.01123,2249.32243 715.412583,2248.98633 717.144363,2248.43945 C717.474768,2249.33952 717.657058,2250.5301 717.691238,2252.01123 Z M728.171787,2263.44434 L728.171787,2258.84717 L728.838291,2258.84717 C729.613034,2261.5018 730.997298,2262.8291 732.991123,2262.8291 C733.857012,2262.8291 734.503572,2262.56706 734.93082,2262.04297 C735.358068,2261.51888 735.571689,2260.94353 735.571689,2260.31689 C735.571689,2259.58772 735.343827,2258.98959 734.888095,2258.52246 C734.420971,2258.05534 733.515218,2257.49138 732.17081,2256.83057 C730.758043,2256.13558 729.744055,2255.45199 729.128818,2254.77979 C728.51358,2254.11897 728.205966,2253.30437 728.205966,2252.33594 C728.205966,2251.41308 728.536367,2250.53296 729.197177,2249.69556 C729.857988,2248.85815 730.786527,2248.43945 731.982822,2248.43945 C733.201903,2248.43945 734.210194,2248.93505 735.007724,2249.92627 C735.178623,2249.75537 735.400789,2249.33952 735.674228,2248.67871 L736.306552,2248.67871 L736.306552,2253.00244 L735.674228,2253.00244 C735.446362,2251.96565 735.004879,2251.07414 734.349765,2250.32788 C733.694651,2249.58162 732.922768,2249.2085 732.034091,2249.2085 C731.350494,2249.2085 730.797928,2249.41927 730.376377,2249.84082 C729.954825,2250.26237 729.744052,2250.75228 729.744052,2251.31055 C729.744052,2251.92578 729.977611,2252.45556 730.444736,2252.8999 C730.900467,2253.35563 731.772041,2253.87402 733.059482,2254.45508 C734.996341,2255.33236 736.181225,2256.18684 736.614169,2257.01855 C737.047114,2257.86166 737.263584,2258.67057 737.263584,2259.44531 C737.263584,2260.66439 736.861976,2261.6556 736.05875,2262.41895 C735.255523,2263.1823 734.244384,2263.56396 733.025302,2263.56396 C731.737861,2263.56396 730.592853,2263.03418 729.590244,2261.97461 C729.282625,2262.31641 729.031976,2262.80631 728.838291,2263.44434 L728.171787,2263.44434 Z M749.812003,2249.78955 L745.590812,2249.78955 L745.590812,2258.24902 C745.590812,2259.54786 745.647778,2260.42228 745.76171,2260.87231 C745.875643,2261.32235 746.117747,2261.68408 746.488029,2261.95752 C746.858311,2262.23096 747.254221,2262.36768 747.675773,2262.36768 C748.49609,2262.36768 749.208159,2261.90056 749.812003,2260.96631 L750.358878,2261.29102 C750.005687,2262.04297 749.484451,2262.60978 748.795158,2262.99146 C748.105864,2263.37313 747.408036,2263.56396 746.701652,2263.56396 C745.881335,2263.56396 745.160721,2263.32186 744.539787,2262.83765 C743.918852,2262.35343 743.531487,2261.78662 743.377677,2261.13721 C743.223868,2260.48779 743.146964,2259.34848 743.146964,2257.71924 L743.146964,2249.78955 L741.113273,2249.78955 L741.113273,2249.00342 C742.047522,2248.98063 742.884916,2248.58757 743.62548,2247.82422 C744.366044,2247.06087 744.838858,2245.98992 745.043937,2244.61133 L745.590812,2244.61133 L745.590812,2249.00342 L749.812003,2249.00342 L749.812003,2249.78955 Z M767.401927,2249.00342 L767.401927,2258.18066 C767.401927,2259.70736 767.424713,2260.66439 767.470286,2261.05176 C767.51586,2261.43913 767.683908,2261.72965 767.974437,2261.92334 C768.264966,2262.11703 768.786201,2262.21387 769.538158,2262.21387 L769.538158,2263 C767.806378,2263.02279 766.541742,2263.20508 765.744212,2263.54688 L765.539134,2263.54688 C765.174549,2262.92024 764.980866,2261.8379 764.958079,2260.2998 C764.263089,2261.38217 763.468419,2262.19677 762.574046,2262.74365 C761.679673,2263.29053 760.691321,2263.56396 759.608958,2263.56396 C758.674709,2263.56396 757.848708,2263.35034 757.130931,2262.9231 C756.413154,2262.49585 755.920402,2261.97461 755.65266,2261.35938 C755.384917,2260.74414 755.251048,2259.8156 755.251048,2258.57373 L755.251048,2253.80566 C755.251048,2252.18782 755.222565,2251.19946 755.165599,2250.84058 C755.108633,2250.48169 754.929191,2250.2168 754.627269,2250.0459 C754.325347,2249.875 753.769932,2249.78955 752.961009,2249.78955 L752.961009,2249.00342 L757.711986,2249.00342 L757.711986,2258.71045 C757.711986,2259.66749 757.768951,2260.36247 757.882884,2260.79541 C757.996817,2261.22836 758.287341,2261.60718 758.754466,2261.93188 C759.221591,2262.25659 759.762764,2262.41895 760.378001,2262.41895 C761.255284,2262.41895 762.092678,2262.13127 762.890208,2261.55591 C763.687738,2260.98055 764.23176,2260.37102 764.522288,2259.72729 C764.812817,2259.08357 764.958079,2258.16358 764.958079,2256.96729 L764.958079,2253.80566 C764.958079,2252.27896 764.94099,2251.35042 764.90681,2251.02002 C764.87263,2250.68961 764.727368,2250.40194 764.471019,2250.15698 C764.21467,2249.91203 763.682042,2249.78955 762.873119,2249.78955 L762.514232,2249.78955 L762.514232,2249.00342 L767.401927,2249.00342 Z M780.7023,2263.56396 L779.711089,2263.56396 L774.737945,2252.33594 C774.248033,2251.25358 773.860667,2250.56429 773.575835,2250.26807 C773.291003,2249.97184 772.823885,2249.81234 772.174468,2249.78955 L772.174468,2249.00342 L778.49771,2249.00342 L778.49771,2249.78955 C777.80272,2249.78955 777.327057,2249.84652 777.070708,2249.96045 C776.814359,2250.07438 776.686187,2250.29085 776.686187,2250.60986 C776.686187,2250.86052 776.914049,2251.47005 777.369781,2252.43848 L781.146636,2260.93213 L784.547515,2253.36133 C785.082999,2252.15364 785.350738,2251.36751 785.350738,2251.00293 C785.350738,2250.23958 784.781082,2249.83512 783.641753,2249.78955 L783.641753,2249.00342 L788.35855,2249.00342 L788.35855,2249.78955 C787.777492,2249.82373 787.290437,2250.06583 786.897368,2250.51587 C786.5043,2250.9659 785.954582,2251.97704 785.248199,2253.54932 L780.7023,2263.56396 Z M806.837146,2263.54688 L806.068103,2263.54688 L801.898181,2252.43848 L797.64281,2263.54688 L796.890857,2263.54688 L792.618396,2252.43848 C792.128484,2251.17382 791.763905,2250.41618 791.524646,2250.16553 C791.285387,2249.91488 790.806876,2249.78955 790.089099,2249.78955 L790.089099,2249.00342 L796.4807,2249.00342 L796.4807,2249.78955 C795.762923,2249.78955 795.273019,2249.85506 795.010974,2249.98608 C794.748928,2250.11711 794.617907,2250.34212 794.617907,2250.66113 C794.617907,2250.889 794.840073,2251.5555 795.284411,2252.66064 L798.121325,2260.16309 L802.462146,2249.00342 L803.12865,2249.00342 L807.332751,2260.16309 L810.408923,2252.21631 C810.739328,2251.37321 810.904528,2250.86621 810.904528,2250.69531 C810.904528,2250.13704 810.329176,2249.83512 809.178454,2249.78955 L809.178454,2249.00342 L813.724353,2249.00342 L813.724353,2249.78955 C813.177475,2249.80094 812.747385,2249.90633 812.43407,2250.10571 C812.120754,2250.3051 811.833078,2250.75228 811.571032,2251.44727 L811.195056,2252.43848 L806.837146,2263.54688 Z M824.905585,2255.05322 L828.836249,2259.99219 C829.519846,2260.84668 830.086654,2261.42488 830.536689,2261.72681 C830.986723,2262.02873 831.525048,2262.19108 832.151679,2262.21387 L832.151679,2263 L825.161933,2263 L825.161933,2262.21387 C826.312655,2262.21387 826.888007,2261.9917 826.888007,2261.54736 C826.888007,2261.36507 826.625965,2260.97201 826.101874,2260.36816 L823.333319,2256.93311 L820.769843,2259.9751 C820.143212,2260.70427 819.829901,2261.15999 819.829901,2261.34229 C819.829901,2261.91195 820.462219,2262.20247 821.726874,2262.21387 L821.726874,2263 L815.967597,2263 L815.967597,2262.21387 C816.468901,2262.21387 817.021467,2262.08285 817.625312,2261.8208 C818.229156,2261.55876 819.009584,2260.86378 819.96662,2259.73584 L822.854804,2256.31787 L819.761542,2252.4043 C818.884259,2251.28775 818.217762,2250.57284 817.76203,2250.25952 C817.306299,2249.94621 816.770823,2249.78955 816.155585,2249.78955 L816.155585,2249.00342 L822.752265,2249.00342 L822.752265,2249.78955 C821.806622,2249.78955 821.333808,2250.00032 821.333808,2250.42188 C821.333808,2250.61556 821.54458,2250.96305 821.966132,2251.46436 L824.427069,2254.50635 L826.700019,2251.84033 C827.212717,2251.22509 827.469062,2250.84343 827.469062,2250.69531 C827.469062,2250.09147 826.84244,2249.78955 825.589179,2249.78955 L825.589179,2249.00342 L831.143378,2249.00342 L831.143378,2249.78955 C830.026836,2249.82373 828.870435,2250.52441 827.67414,2251.8916 L824.905585,2255.05322 Z M843.144923,2260.35107 L846.391993,2252.5752 C846.859118,2251.43587 847.092677,2250.80355 847.092677,2250.67822 C847.092677,2250.10856 846.460359,2249.81234 845.195704,2249.78955 L845.195704,2249.00342 L850.117579,2249.00342 L850.117579,2249.78955 C849.354229,2249.82373 848.795966,2250.02596 848.442774,2250.39624 C848.089583,2250.76652 847.650948,2251.58398 847.126856,2252.84863 L840.889063,2267.90479 C840.296613,2269.34034 839.772529,2270.3173 839.316798,2270.83569 C838.861066,2271.35409 838.359769,2271.61328 837.812892,2271.61328 C837.072328,2271.61328 836.702052,2271.27718 836.702052,2270.60498 C836.702052,2269.83024 837.294494,2269.17513 838.479396,2268.63965 C839.174386,2268.33203 839.638655,2268.06999 839.872218,2267.85352 C840.10578,2267.63704 840.336491,2267.24398 840.564356,2266.67432 L841.897364,2263.3418 L836.633692,2252.0625 C836.166568,2251.07128 835.779202,2250.44466 835.471583,2250.18262 C835.163964,2249.92057 834.639881,2249.78955 833.899317,2249.78955 L833.899317,2249.00342 L840.325099,2249.00342 L840.325099,2249.78955 C839.197163,2249.82373 838.633204,2250.05729 838.633204,2250.49023 C838.633204,2250.66113 838.85537,2251.2194 839.299708,2252.16504 L843.144923,2260.35107 Z M852.805159,2263 L852.805159,2262.47021 L862.084944,2249.78955 L856.992171,2249.78955 C856.342754,2249.78955 855.90127,2249.83227 855.667708,2249.91772 C855.434146,2250.00317 855.155014,2250.27661 854.830306,2250.73804 C854.505597,2251.19947 854.178045,2251.91438 853.84764,2252.88281 L853.215315,2252.88281 L853.437483,2249.00342 L865.161116,2249.00342 L865.161116,2249.61865 L855.9326,2262.21387 L859.760725,2262.21387 C861.002594,2262.21387 861.834291,2262.14551 862.255843,2262.00879 C862.677394,2261.87207 863.093243,2261.53312 863.503401,2260.99194 C863.91356,2260.45076 864.323712,2259.63331 864.73387,2258.53955 L865.417464,2258.53955 L865.007308,2263 L852.805159,2263 Z" id="Baskerville-abcdefgh"></path>
        </g>
    </g>
</svg>