<?xml version="1.0" encoding="UTF-8"?>
<svg width="274px" height="171px" viewBox="0 0 274 171" version="1.1" xmlns="http://www.w3.org/2000/svg" xmlns:xlink="http://www.w3.org/1999/xlink">
    <!-- Generator: Sketch 43.2 (39069) - http://www.bohemiancoding.com/sketch -->
    <title>The botanist logo</title>
    <desc>Created with Sketch.</desc>
    <defs></defs>
    <g id="Page-1" stroke="none" stroke-width="1" fill="none" fill-rule="evenodd">
        <g id="Desktop-Landscape" transform="translate(-503.000000, -2466.000000)" fill="#000000">
            <g id="The-botanist-logo" transform="translate(503.000000, 2466.000000)">
                <path d="M18.9236712,6.8828125 L18.0252337,6.8828125 L18.1619525,0.515625 L43.8650775,0.515625 L44.0017962,6.8828125 L43.1619525,6.8828125 C42.8624718,5.13801211 42.4523197,3.87825908 41.9314837,3.10351562 C41.4106478,2.32877217 40.8507576,1.8535165 40.2517962,1.67773438 C39.6528349,1.50195225 38.6307097,1.4140625 37.18539,1.4140625 L32.9275775,1.4140625 L32.9275775,20.1054688 C32.9275775,22.1757916 32.9764051,23.5364551 33.0740619,24.1875 C33.1717186,24.8385449 33.4353878,25.3203109 33.8650775,25.6328125 C34.2947671,25.9453141 35.1020507,26.1015625 36.2869525,26.1015625 L37.576015,26.1015625 L37.576015,27 L24.37289,27 L24.37289,26.1015625 L25.7400775,26.1015625 C26.8728957,26.1015625 27.657393,25.9583348 28.0935931,25.671875 C28.5297932,25.3854152 28.8097383,24.9394562 28.9334369,24.3339844 C29.0571354,23.7285126 29.1189837,22.3190215 29.1189837,20.1054688 L29.1189837,1.4140625 L25.1932025,1.4140625 C23.4874648,1.4140625 22.3416429,1.49544189 21.7557025,1.65820312 C21.1697621,1.82096436 20.6196374,2.3124959 20.1053119,3.1328125 C19.5909864,3.9531291 19.1971101,5.2031166 18.9236712,6.8828125 Z M54.4738276,13.640625 C55.2550815,12.5468695 56.1307238,11.7265652 57.1007807,11.1796875 C58.0708377,10.6328098 59.1352801,10.359375 60.2941401,10.359375 C61.6092508,10.359375 62.6997347,10.6328098 63.5656245,11.1796875 C64.4315142,11.7265652 64.9946596,12.4003866 65.2550776,13.2011719 C65.5154956,14.0019571 65.6457026,15.3007723 65.6457026,17.0976562 L65.6457026,21.5117188 C65.6457026,23.3867281 65.6815095,24.5260396 65.7531245,24.9296875 C65.8247394,25.3333354 66.0363258,25.6295563 66.3878901,25.8183594 C66.7394544,26.0071624 67.3904895,26.1015625 68.3410151,26.1015625 L68.3410151,27 L60.0792964,27 L60.0792964,26.1015625 L60.4503901,26.1015625 C61.4009157,26.1015625 62.0161439,25.9648451 62.2960932,25.6914062 C62.5760425,25.4179674 62.7388013,25.095705 62.7843745,24.7246094 C62.8299476,24.3535138 62.8527339,23.2825609 62.8527339,21.5117188 L62.8527339,16.7070312 C62.8527339,15.3788996 62.7746096,14.3958365 62.6183589,13.7578125 C62.4621081,13.1197885 62.0942732,12.59245 61.5148432,12.1757812 C60.9354132,11.7591125 60.209509,11.5507812 59.3371089,11.5507812 C58.3214788,11.5507812 57.4100296,11.8470022 56.6027339,12.4394531 C55.7954381,13.031904 55.0858098,13.920567 54.4738276,15.1054688 L54.4738276,21.5117188 C54.4738276,23.3086027 54.5031242,24.4153625 54.5617182,24.8320312 C54.6203123,25.2487 54.818878,25.5644521 55.1574214,25.7792969 C55.4959647,25.9941417 56.1144481,26.1015625 57.0128901,26.1015625 L57.0128901,27 L48.8878901,27 L48.8878901,26.1015625 L49.2980464,26.1015625 C50.235551,26.1015625 50.8442689,25.9681003 51.1242182,25.7011719 C51.4041675,25.4342435 51.5669263,25.1152362 51.6124995,24.7441406 C51.6580726,24.373045 51.6808589,23.2955818 51.6808589,21.5117188 L51.6808589,5.57421875 C51.6808589,3.95962734 51.5278656,2.93750215 51.2218745,2.5078125 C50.9158834,2.07812285 50.1834688,1.86328125 49.0246089,1.86328125 L49.0246089,0.96484375 C51.0428481,0.96484375 52.7225188,0.691408984 54.0636714,0.14453125 L54.4738276,0.14453125 L54.4738276,13.640625 Z M87.8169527,16.4140625 L76.664609,16.4140625 C76.6125254,17.1822955 76.586484,17.7552064 76.586484,18.1328125 C76.586484,20.9453266 77.0259327,23.0579356 77.9048433,24.4707031 C78.783754,25.8834706 80.0955898,26.5898438 81.8403902,26.5898438 C84.2101937,26.5898438 85.8898644,25.5286564 86.8794527,23.40625 L87.8169527,23.40625 C87.400284,24.7343816 86.5734693,25.7727827 85.336484,26.5214844 C84.0994986,27.270186 82.7518558,27.6445312 81.2935152,27.6445312 C79.9393418,27.6445312 78.6600577,27.3027378 77.4556246,26.6191406 C76.2511915,25.9355435 75.2648732,24.9687562 74.4966402,23.71875 C73.7284072,22.4687438 73.3442965,20.9518318 73.3442965,19.1679688 C73.3442965,16.6419145 74.0864765,14.5423261 75.570859,12.8691406 C77.0552414,11.1959552 78.9106916,10.359375 81.1372652,10.359375 C83.2336299,10.359375 84.8547074,10.9973895 86.0005465,12.2734375 C87.1463855,13.5494855 87.7518482,14.9296801 87.8169527,16.4140625 Z M84.398984,15.6328125 C84.4380467,15.3333318 84.4575777,15.0664074 84.4575777,14.8320312 C84.4575777,13.6861922 84.1222946,12.7975292 83.4517183,12.1660156 C82.7811421,11.5345021 81.9575826,11.21875 80.9810152,11.21875 C78.6112117,11.21875 77.1984654,12.6900895 76.742734,15.6328125 L84.398984,15.6328125 Z M118.546172,12.7421875 C121.553999,12.9635428 123.78705,13.7122332 125.24539,14.9882812 C126.703731,16.2643293 127.43289,17.8593654 127.43289,19.7734375 C127.43289,21.4401125 126.938104,22.875645 125.948515,24.0800781 C124.958927,25.2845112 123.692664,26.0722638 122.149687,26.4433594 C120.606711,26.814455 118.539674,27 115.948515,27 L105.55789,27 L105.55789,26.1015625 L106.573515,26.1015625 C107.706334,26.1015625 108.490831,25.9583348 108.927031,25.671875 C109.363231,25.3854152 109.639921,24.9394562 109.757109,24.3339844 C109.874297,23.7285126 109.93289,22.3190215 109.93289,20.1054687 L109.93289,7.21484375 C109.93289,5.06639551 109.871042,3.67969062 109.747344,3.0546875 C109.623645,2.42968438 109.363231,2.00000117 108.966094,1.765625 C108.568956,1.53124883 107.699824,1.4140625 106.358672,1.4140625 L105.850859,1.4140625 L105.850859,0.515625 L110.206328,0.3984375 L115.167265,0.2421875 C122.406885,0.2421875 126.02664,2.3255 126.02664,6.4921875 C126.02664,8.21094609 125.404902,9.59114062 124.161406,10.6328125 C122.91791,11.6744844 121.046184,12.3776023 118.546172,12.7421875 Z M113.761015,12.3710937 C114.086538,12.3841146 114.359973,12.390625 114.581328,12.390625 C117.393842,12.390625 119.314396,11.9479211 120.343047,11.0625 C121.371698,10.1770789 121.886015,8.74480156 121.886015,6.765625 C121.886015,5.38540977 121.684195,4.31771211 121.280547,3.5625 C120.876899,2.80728789 120.271436,2.22461143 119.46414,1.81445312 C118.656845,1.40429482 117.27665,1.19921875 115.323515,1.19921875 C114.8157,1.19921875 114.294872,1.2187498 113.761015,1.2578125 L113.761015,12.3710937 Z M113.761015,13.328125 L113.761015,19.2265625 C113.761015,21.7395959 113.806588,23.334632 113.897734,24.0117188 C113.98888,24.6888055 114.233019,25.2031232 114.630156,25.5546875 C115.027293,25.9062518 115.811791,26.0820312 116.983672,26.0820312 C119.067015,26.0820312 120.6295,25.5481824 121.671172,24.4804688 C122.712844,23.4127551 123.233672,21.8112086 123.233672,19.6757812 C123.233672,17.4882703 122.644485,15.8769583 121.466094,14.8417969 C120.287702,13.8066354 118.214155,13.2890625 115.24539,13.2890625 C114.776638,13.2890625 114.281851,13.3020832 113.761015,13.328125 Z M133.334609,18.9726562 C133.334609,16.5247273 134.154914,14.4772218 135.795547,12.8300781 C137.43618,11.1829345 139.454389,10.359375 141.850234,10.359375 C144.2591,10.359375 146.28382,11.1861896 147.924453,12.8398438 C149.565086,14.4934979 150.385391,16.5377482 150.385391,18.9726562 C150.385391,21.6679822 149.552066,23.7871017 147.885391,25.3300781 C146.218716,26.8730546 144.207017,27.6445312 141.850234,27.6445312 C139.493452,27.6445312 137.485008,26.8600339 135.824844,25.2910156 C134.164679,23.7219974 133.334609,21.6158986 133.334609,18.9726562 Z M136.576797,19.0703125 C136.576797,21.9088684 137.039032,23.8977808 137.963516,25.0371094 C138.887999,26.176438 140.183559,26.7460938 141.850234,26.7460938 C143.555972,26.7460938 144.861297,26.176438 145.76625,25.0371094 C146.671202,23.8977808 147.123672,21.9088684 147.123672,19.0703125 C147.123672,16.2577984 146.674458,14.2526102 145.776016,13.0546875 C144.877574,11.8567648 143.568993,11.2578125 141.850234,11.2578125 C140.144497,11.2578125 138.839171,11.8535097 137.934219,13.0449219 C137.029266,14.2363341 136.576797,16.2447775 136.576797,19.0703125 Z M165.466797,11.9023438 L160.642578,11.9023438 L160.642578,21.5703125 C160.642578,23.0546949 160.707682,24.0540339 160.837891,24.5683594 C160.9681,25.0826849 161.24479,25.4960922 161.667969,25.8085938 C162.091148,26.1210953 162.543617,26.2773438 163.025391,26.2773438 C163.962895,26.2773438 164.776689,25.7434949 165.466797,24.6757812 L166.091797,25.046875 C165.688149,25.9062543 165.092452,26.5540343 164.304688,26.9902344 C163.516923,27.4264345 162.719405,27.6445312 161.912109,27.6445312 C160.974605,27.6445312 160.151045,27.3678413 159.441406,26.8144531 C158.731767,26.2610649 158.289063,25.613285 158.113281,24.8710938 C157.937499,24.1289025 157.849609,22.8268322 157.849609,20.9648438 L157.849609,11.9023438 L155.525391,11.9023438 L155.525391,11.0039062 C156.593104,10.9778645 157.550126,10.5286502 158.396484,9.65625 C159.242843,8.7838498 159.783202,7.55990371 160.017578,5.984375 L160.642578,5.984375 L160.642578,11.0039062 L165.466797,11.0039062 L165.466797,11.9023438 Z M186.407578,24.0703125 L187.130234,24.0703125 C187.013046,26.2968861 185.919307,27.4101562 183.848984,27.4101562 C182.963563,27.4101562 182.263701,27.1757836 181.749375,26.7070312 C181.23505,26.2382789 180.899767,25.5416713 180.743516,24.6171875 C179.441426,25.5416713 178.253287,26.2382789 177.179063,26.7070312 C176.104838,27.1757836 175.144562,27.4101562 174.298203,27.4101562 C173.217469,27.4101562 172.286488,27.0976594 171.505234,26.4726562 C170.723981,25.8476531 170.333359,25.0208385 170.333359,23.9921875 C170.333359,22.651035 170.98765,21.4791717 172.29625,20.4765625 C173.60485,19.4739533 175.411473,18.4974006 177.716172,17.546875 L180.743516,16.3164062 L180.743516,15.5351562 C180.743516,14.4283799 180.671902,13.6276066 180.528672,13.1328125 C180.385442,12.6380184 180.014352,12.1953145 179.415391,11.8046875 C178.816429,11.4140605 178.028677,11.21875 177.052109,11.21875 C175.098975,11.21875 174.011746,11.8697852 173.790391,13.171875 C173.582056,14.5000066 173.035187,15.1640625 172.149766,15.1640625 C171.355491,15.1640625 170.958359,14.7864621 170.958359,14.03125 C170.958359,13.2890588 171.485698,12.4915407 172.540391,11.6386719 C173.595084,10.785803 175.235692,10.359375 177.462266,10.359375 C179.11592,10.359375 180.398459,10.6197891 181.309922,11.140625 C182.221385,11.6614609 182.823592,12.2539029 183.116563,12.9179688 C183.409533,13.5820346 183.556016,14.5976494 183.556016,15.9648438 L183.556016,22.4296875 C183.556016,23.9401117 183.63414,24.9101541 183.790391,25.3398438 C183.946642,25.7695334 184.28518,25.984375 184.806016,25.984375 C185.665395,25.984375 186.199244,25.3463605 186.407578,24.0703125 Z M180.743516,17.234375 L178.614609,18.09375 C175.255218,19.4609443 173.575547,21.1796771 173.575547,23.25 C173.575547,24.0703166 173.790389,24.7311173 174.220078,25.2324219 C174.649768,25.7337265 175.209658,25.984375 175.899766,25.984375 C176.511748,25.984375 177.221376,25.7825541 178.028672,25.3789062 C178.835968,24.9752584 179.740907,24.3697957 180.743516,23.5625 L180.743516,17.234375 Z M195.688203,10.359375 L196.215547,10.359375 C196.515028,11.1666707 196.684297,12.2669201 196.72336,13.6601562 C197.660864,12.5533799 198.643927,11.7265652 199.672578,11.1796875 C200.701229,10.6328098 201.775437,10.359375 202.895235,10.359375 C204.171283,10.359375 205.216194,10.6262994 206.03,11.1601562 C206.843806,11.6940131 207.36789,12.3483034 207.602266,13.1230469 C207.836642,13.8977903 207.953828,15.0273363 207.953828,16.5117188 L207.953828,21.5117188 C207.953828,23.3606863 207.98638,24.4869771 208.051485,24.890625 C208.116589,25.2942729 208.321665,25.5970042 208.666719,25.7988281 C209.011773,26.0006521 209.646532,26.1015625 210.571016,26.1015625 L210.571016,27 L202.387422,27 L202.387422,26.1015625 L202.758516,26.1015625 C203.696021,26.1015625 204.307994,25.9648451 204.594453,25.6914062 C204.880913,25.4179674 205.043672,25.0989602 205.082735,24.734375 C205.121797,24.3697898 205.141328,23.2955818 205.141328,21.5117188 L205.141328,16.3554688 C205.141328,15.0924416 205.07948,14.1907579 204.955781,13.6503906 C204.832083,13.1100233 204.500055,12.6315125 203.959688,12.2148438 C203.41932,11.798175 202.732478,11.5898438 201.899141,11.5898438 C200.948615,11.5898438 200.040421,11.873044 199.174531,12.4394531 C198.308642,13.0058622 197.491593,13.8554631 196.72336,14.9882812 L196.72336,21.5117188 C196.72336,23.3606863 196.759167,24.4869771 196.830781,24.890625 C196.902396,25.2942729 197.110728,25.5970042 197.455781,25.7988281 C197.800835,26.0006521 198.442105,26.1015625 199.37961,26.1015625 L199.37961,27 L191.293672,27 L191.293672,26.1015625 C192.192114,26.1015625 192.817108,26.0104176 193.168672,25.828125 C193.520236,25.6458324 193.738333,25.3691425 193.822969,24.9980469 C193.907605,24.6269513 193.949922,23.4648535 193.949922,21.5117188 L193.949922,16.7460938 C193.949922,14.8841053 193.914115,13.7545593 193.8425,13.3574219 C193.770885,12.9602845 193.562554,12.6608083 193.2175,12.4589844 C192.872446,12.2571604 192.231177,12.15625 191.293672,12.15625 L191.293672,11.2578125 C192.725971,11.1015617 194.1908,10.8020855 195.688203,10.359375 Z M216.746172,2.1953125 C216.746172,1.63541387 216.944738,1.15364785 217.341875,0.75 C217.739013,0.346352148 218.217524,0.14453125 218.777422,0.14453125 C219.337321,0.14453125 219.812576,0.346352148 220.203203,0.75 C220.59383,1.15364785 220.789141,1.63541387 220.789141,2.1953125 C220.789141,2.76823203 220.59383,3.2565084 220.203203,3.66015625 C219.812576,4.0638041 219.337321,4.265625 218.777422,4.265625 C218.217524,4.265625 217.739013,4.0638041 217.341875,3.66015625 C216.944738,3.2565084 216.746172,2.76823203 216.746172,2.1953125 Z M220.515703,10.359375 L220.515703,21.5117188 C220.515703,23.2174564 220.541745,24.2916645 220.593828,24.734375 C220.645912,25.1770855 220.834712,25.5156238 221.160235,25.75 C221.485757,25.9843762 222.065178,26.1015625 222.898516,26.1015625 L223.308672,26.1015625 L223.308672,27 L214.695391,27 L214.695391,26.1015625 L215.359453,26.1015625 C216.283937,26.1015625 216.886145,25.9681003 217.166094,25.7011719 C217.446043,25.4342435 217.608802,25.1152362 217.654375,24.7441406 C217.699948,24.373045 217.722735,23.2955818 217.722735,21.5117188 L217.722735,16.6679688 C217.722735,14.7929594 217.634845,13.6471375 217.459063,13.2304688 C217.283281,12.8138 217.048908,12.5533859 216.755938,12.4492188 C216.462968,12.3450516 215.951905,12.2929688 215.222735,12.2929688 L214.695391,12.2929688 L214.695391,11.3945312 C217.013111,11.1601551 218.809968,10.8151064 220.086016,10.359375 L220.515703,10.359375 Z M228.331485,27.5078125 L228.331485,22.2539062 L229.093204,22.2539062 C229.978625,25.2877756 231.56064,26.8046875 233.839297,26.8046875 C234.828886,26.8046875 235.56781,26.5052113 236.056094,25.90625 C236.544378,25.3072887 236.788516,24.6497432 236.788516,23.9335938 C236.788516,23.1002563 236.528102,22.4166693 236.007266,21.8828125 C235.473409,21.3489557 234.438263,20.7044309 232.901797,19.9492188 C231.287206,19.1549439 230.128363,18.3737018 229.425235,17.6054688 C228.722106,16.8502566 228.370547,15.9192764 228.370547,14.8125 C228.370547,13.7578072 228.748148,12.7519579 229.50336,11.7949219 C230.258572,10.8378858 231.319759,10.359375 232.686954,10.359375 C234.08019,10.359375 235.232522,10.9257756 236.143985,12.0585938 C236.339298,11.8632803 236.593202,11.3880246 236.905704,10.6328125 L237.62836,10.6328125 L237.62836,15.5742188 L236.905704,15.5742188 C236.645286,14.389317 236.140733,13.370447 235.392032,12.5175781 C234.64333,11.6647093 233.761177,11.2382812 232.745547,11.2382812 C231.964293,11.2382812 231.332789,11.4791643 230.851016,11.9609375 C230.369243,12.4427107 230.12836,13.002601 230.12836,13.640625 C230.12836,14.3437535 230.395284,14.9492162 230.929141,15.4570312 C231.449977,15.9778672 232.446061,16.5703092 233.917422,17.234375 C236.130975,18.2369842 237.485128,19.2135369 237.979922,20.1640625 C238.474716,21.127609 238.72211,22.0520789 238.72211,22.9375 C238.72211,24.3307361 238.26313,25.4635373 237.345157,26.3359375 C236.427183,27.2083377 235.271596,27.6445312 233.87836,27.6445312 C232.406998,27.6445312 231.098418,27.0390686 229.952579,25.828125 C229.601014,26.218752 229.314559,26.7786422 229.093204,27.5078125 L228.331485,27.5078125 Z M253.666797,11.9023438 L248.842579,11.9023438 L248.842579,21.5703125 C248.842579,23.0546949 248.907682,24.0540339 249.037891,24.5683594 C249.1681,25.0826849 249.44479,25.4960922 249.867969,25.8085938 C250.291148,26.1210953 250.743618,26.2773438 251.225391,26.2773438 C252.162896,26.2773438 252.97669,25.7434949 253.666797,24.6757812 L254.291797,25.046875 C253.88815,25.9062543 253.292452,26.5540343 252.504688,26.9902344 C251.716924,27.4264345 250.919406,27.6445312 250.11211,27.6445312 C249.174605,27.6445312 248.351046,27.3678413 247.641407,26.8144531 C246.931768,26.2610649 246.489064,25.613285 246.313282,24.8710938 C246.1375,24.1289025 246.04961,22.8268322 246.04961,20.9648438 L246.04961,11.9023438 L243.725391,11.9023438 L243.725391,11.0039062 C244.793105,10.9778645 245.750127,10.5286502 246.596485,9.65625 C247.442843,8.7838498 247.983202,7.55990371 248.217579,5.984375 L248.842579,5.984375 L248.842579,11.0039062 L253.666797,11.0039062 L253.666797,11.9023438 Z" id="The-Botanist"></path>
                <path d="M243.616538,149.046 C243.616538,148.584462 243.757505,148.238308 243.757505,147.776769 L243.757505,140.507539 C243.757505,139.815231 243.757505,138.892154 243.193636,138.315231 C241.642997,136.815231 241.079128,134.969077 240.092358,133.238308 C238.682686,130.815231 236.99108,128.622923 234.876573,126.661385 C233.889802,125.738308 233.325934,124.699846 232.339163,123.776769 C231.775295,123.199846 230.929491,122.507539 230.083688,122.161385 C227.546279,121.007539 225.572739,119.161385 223.881132,117.430616 C222.471461,116.046 221.766625,114.084462 220.638887,112.469077 C218.52438,109.122923 217.819544,105.546 217.255675,101.853692 C216.973741,100.122923 217.396642,98.2767694 217.819544,96.5460001 C217.960511,95.7383078 218.806314,94.9306155 219.51115,94.3536924 C220.075019,93.7767694 220.920822,93.7767694 221.48469,94.3536924 C224.0221,97.4690771 227.546279,99.892154 229.237885,103.469077 C230.50659,106.122923 232.48013,108.661385 233.889802,111.315231 C235.722376,114.776769 236.427212,118.469077 236.286244,122.276769 C236.286244,122.622923 235.863343,122.969077 235.863343,123.315231 C235.863343,123.776769 235.863343,124.353692 236.145277,124.699846 C237.97785,126.892154 239.951391,129.084462 241.783964,131.392154 C241.924932,131.507539 242.206866,131.622923 242.4888,131.738308 C242.629767,131.392154 242.629767,131.046 242.629767,130.815231 C242.770735,125.969077 242.770735,121.238308 242.911702,116.392154 C242.911702,115.353692 242.770735,114.199846 243.052669,113.161385 C243.898472,110.392154 243.052669,107.969077 241.50203,105.546 C240.233325,103.584462 239.810424,101.392154 239.669457,99.0844617 C239.387522,95.9690771 239.105588,92.7383078 239.105588,89.6229232 C239.105588,84.5460001 239.669457,79.4690771 241.924932,74.7383078 C242.770735,73.0075386 244.180406,71.392154 245.731045,70.1229232 C248.127487,68.2767694 250.664897,68.7383078 251.5107,71.2767694 C252.356503,73.5844617 252.779404,75.892154 253.343273,78.1998463 C254.471011,82.0075386 253.766175,85.9306155 253.343273,89.7383078 C252.920372,93.3152309 251.5107,96.7767694 249.960061,100.007539 C248.127487,103.469077 246.717816,107.161385 246.576849,110.969077 C246.435881,114.199846 246.153947,117.546 245.872013,120.776769 C245.872013,121.930616 245.872013,122.969077 246.294914,124.122923 C246.858783,122.738308 247.563619,121.353692 247.845553,119.853692 C248.409422,116.853692 249.819094,114.199846 251.228765,111.430616 C252.638437,108.776769 254.189076,106.353692 255.880682,103.815231 C257.713256,100.930616 260.250665,98.392154 262.929041,96.1998463 C264.338713,95.0460001 266.312254,94.4690771 268.00386,93.6613847 C268.285794,93.5460001 268.567729,93.5460001 268.849663,93.5460001 C270.541269,93.4306155 270.964171,93.892154 271.105138,95.2767694 C271.246105,98.2767694 270.259335,101.161385 270.259335,104.161385 C270.259335,106.584462 269.695466,108.892154 268.567729,111.199846 C266.594188,115.122923 263.915812,118.815231 260.109698,121.699846 C258.840993,122.622923 257.431321,123.315231 255.880682,124.007539 C252.49747,125.622923 248.973291,127.122923 245.731045,128.622923 C245.872013,133.930616 246.01298,139.353692 246.294914,145.007539 C247.98652,142.353692 249.255225,140.046 250.946831,137.969077 C252.779404,135.546 254.611978,133.122923 257.572289,131.622923 C259.686796,130.469077 261.801304,129.430616 264.620648,129.430616 C266.171287,129.430616 267.721926,129.430616 269.413532,128.853692 C271.246105,128.161385 273.50158,129.430616 273.924482,131.161385 C274.347383,132.661385 272.937711,134.622923 271.105138,135.084462 C269.272565,135.661385 267.299024,134.853692 266.735155,133.238308 C266.594188,132.776769 266.453221,132.315231 266.312254,131.738308 C263.351943,131.161385 260.955501,132.315231 258.840993,133.584462 C257.431321,134.392154 255.880682,135.315231 255.598748,136.815231 C255.598748,136.930616 255.457781,137.046 255.316814,137.161385 C251.087798,140.738308 249.396192,145.122923 248.550389,149.969077 C248.127487,152.161385 247.563619,154.353692 247.140717,156.546 C246.858783,157.699846 246.99975,158.969077 246.99975,160.122923 L246.99975,161.046 C246.858783,162.430616 246.717816,163.815231 246.576849,165.199846 C246.435881,166.007539 246.294914,166.815231 245.872013,167.507539 C245.731045,167.738308 245.167177,168.084462 244.744275,167.969077 C244.462341,167.969077 244.039439,167.507539 244.039439,167.161385 C243.898472,166.122923 243.757505,164.969077 243.616538,163.930616 C243.334603,161.507539 243.334603,158.969077 242.770735,156.546 C242.206866,153.430616 240.51526,150.546 239.105588,147.661385 C237.695916,144.892154 236.00431,142.238308 233.607868,140.046 C231.070459,137.507539 227.969181,135.315231 224.0221,134.392154 C222.753395,134.046 221.625658,134.046 220.215986,134.622923 C218.947281,135.199846 217.678576,135.546 216.127937,134.853692 C214.577299,134.161385 214.01343,133.353692 214.01343,131.969077 C213.872463,130.584462 214.859233,129.776769 216.127937,129.315231 C217.537609,128.738308 219.229215,128.738308 220.215986,129.892154 C221.766625,131.507539 223.881132,131.969077 226.136607,132.546 C229.237885,133.353692 231.916262,135.084462 234.030769,137.046 C236.850113,139.699846 239.528489,142.469077 241.220096,145.815231 C241.783964,146.969077 242.347833,148.122923 242.911702,149.276769 C243.193636,149.046 243.475571,149.046 243.616538,149.046 Z" id="Shape" fill-rule="nonzero"></path>
                <path d="M174.088225,146.929126 L174.088225,139.3144 C174.088225,138.016435 173.988225,136.718471 173.988225,135.420506 C173.988225,135.074382 173.988225,134.814789 173.888225,134.468665 C172.988225,132.391922 173.188225,130.142116 172.688225,128.065373 C172.088225,125.988629 171.988225,123.825355 171.288225,121.748612 C170.988225,120.796771 170.388225,119.84493 170.088225,118.806558 C169.788225,117.941249 169.588225,116.989408 169.288225,116.124098 C169.088225,115.518381 169.088225,114.912664 168.388225,114.56654 C168.088225,114.393479 167.888225,113.874293 167.688225,113.441638 C167.088225,112.143673 166.688225,110.672646 165.788225,109.461213 C164.588225,107.817124 163.888225,105.999974 162.488225,104.442416 C162.188225,104.096292 161.988225,103.577106 161.688225,103.144451 C160.788225,101.500363 159.488225,100.202398 158.288225,98.9909645 L157.788225,98.9909645 C155.888225,100.202398 154.888225,99.6832123 153.188225,98.2987167 C151.788225,97.173814 150.788225,95.7027874 150.388225,94.0586988 C149.888225,92.2415483 149.788225,90.4243978 150.588225,88.6072472 C151.088225,87.3092826 151.988225,86.8766277 153.488225,87.0496896 C154.688225,87.2227516 155.588225,87.8284684 156.288225,88.7803092 C157.788225,90.5974597 158.388225,92.7607341 158.388225,95.0105396 C158.388225,95.9623803 158.488225,96.7411591 159.388225,97.3468759 C159.488225,97.4334069 159.488225,97.4334069 159.588225,97.5199379 C160.688225,98.9909645 161.688225,100.548522 162.788225,102.019549 C163.188225,102.625266 163.688225,103.144451 164.088225,103.750168 C164.688225,104.615478 165.288225,105.567319 165.788225,106.51916 C166.188225,107.297938 166.088225,107.297938 166.988225,107.730593 C166.988225,107.557531 166.988225,107.384469 166.888225,107.211407 C165.988225,104.355885 165.888225,101.413832 165.588225,98.4717787 C165.388225,96.3950352 165.388225,94.2317608 165.288225,92.1550173 C165.188225,90.8570526 165.188225,89.559088 164.988225,88.1745923 C164.988225,87.8284684 164.588225,87.4823445 164.288225,87.3092826 C163.488225,86.9631587 162.988225,86.2709108 162.688225,85.578663 C162.088225,84.2806983 161.388225,82.9827337 160.788225,81.598238 C160.688225,81.3386451 160.588225,80.9925212 160.488225,80.7329283 C160.088225,79.6080256 160.388225,78.6561848 161.588225,77.963937 C163.888225,78.7427158 164.288225,80.8194593 165.188225,82.8096717 C165.688225,81.598238 165.688225,80.6463973 165.788225,79.7810875 C166.088225,77.4447511 166.288225,75.1084147 166.788225,72.8586093 C166.988225,71.8202376 167.788225,70.8683968 168.288225,69.9165561 C168.688225,69.1377773 169.488225,68.8781844 170.288225,69.0512463 C171.088225,69.2243083 171.988225,70.176149 171.988225,70.9549278 C171.988225,71.4741137 171.988225,71.9932995 171.788225,72.4259544 C170.888225,74.3296359 170.188225,76.4063794 168.888225,78.1369989 C168.088225,79.2619017 167.788225,80.3868044 167.688225,81.684769 C167.688225,82.3770168 167.488225,83.0692647 167.388225,83.7615125 C167.388225,84.0211054 167.488225,84.2806983 167.688225,84.8864152 C168.088225,84.3672293 168.388225,84.1076364 168.688225,83.8480435 C169.388225,82.9827337 170.088225,82.2039549 170.788225,81.3386451 C171.388225,80.6463973 172.288225,80.3868044 173.188225,80.3002734 C174.488225,80.1272114 175.388225,81.0790522 174.988225,82.2904859 C174.288225,84.4537603 172.688225,85.751725 170.288225,86.3574418 C169.388225,86.6170347 168.488225,86.9631587 167.688225,87.3092826 C167.088225,87.5688755 166.988225,88.0015304 167.088225,88.5207162 C167.288225,90.3378668 167.388225,92.1550173 167.488225,93.8856369 L167.488225,95.4431944 C167.488225,98.0391238 167.688225,100.635053 168.488225,103.230982 C169.388225,102.884859 170.188225,102.798328 170.688225,102.10608 C170.988225,101.673425 171.588225,101.413832 171.988225,101.154239 C172.988225,100.548522 173.688225,99.8562743 174.088225,98.6448406 C175.088225,95.7893184 176.288225,93.0203271 178.288225,90.5974597 C179.188225,89.559088 180.288225,89.2129641 181.488225,89.2129641 C182.688225,89.1264331 183.888225,91.2031765 183.488225,92.4146102 C182.788225,94.4913537 181.788225,96.5680972 180.188225,98.2121857 C178.888225,99.6832123 177.388225,101.067708 175.088225,101.413832 C174.188225,101.586894 173.488225,102.279142 172.688225,102.798328 C171.588225,103.577106 170.488225,104.355885 169.388225,105.134664 C168.788225,105.567319 168.488225,105.913443 168.688225,106.692222 C169.588225,110.239992 170.388225,113.787762 171.388225,117.335532 C171.788225,118.806558 172.388225,120.191054 172.888225,121.57555 C172.988225,122.008205 173.088225,122.440859 173.188225,122.873514 C173.388225,123.479231 173.588225,124.171479 173.888225,124.690665 C174.288225,125.296382 174.588225,125.815568 174.288225,126.594346 C173.988225,127.459656 174.688225,128.238435 175.188225,129.017214 C175.688225,128.065373 176.088225,127.113532 176.488225,126.161691 C178.088225,122.440859 180.088225,118.97962 182.288225,115.604912 C182.888225,114.653071 183.388225,113.874293 183.488225,112.74939 C183.588225,111.624487 183.888225,110.499585 184.388225,109.461213 C185.188225,107.903655 185.788225,106.346098 187.088225,105.048133 C188.288225,103.836699 188.988225,102.279142 190.088225,101.067708 C191.188225,99.8562743 192.488225,98.6448406 193.788225,97.6064689 C194.388225,97.173814 195.188225,96.8276901 195.988225,96.6546281 C197.388225,96.3085042 198.488225,97.260345 198.388225,98.5583096 C198.288225,99.6832123 198.088225,100.721584 197.388225,101.673425 C197.188225,101.933018 197.088225,102.279142 196.888225,102.625266 C196.188225,103.750168 195.788225,105.134664 194.488225,105.999974 C194.188225,106.173036 193.988225,106.605691 193.788225,106.951814 C193.388225,107.730593 192.988225,108.509372 192.188225,108.942027 C192.088225,109.028558 191.988225,109.115089 191.888225,109.20162 C190.388225,111.01877 188.488225,112.403266 186.688225,113.787762 C185.388225,114.826133 184.388225,116.210629 183.388225,117.422063 C182.788225,118.114311 182.488225,118.97962 181.988225,119.758399 C180.988225,121.489019 179.988225,123.219638 178.988225,125.036789 C178.888225,125.209851 178.788225,125.469444 178.688225,125.815568 C179.088225,125.902099 179.488225,125.988629 179.788225,125.988629 C180.888225,125.902099 181.988225,125.729037 183.088225,125.555975 C183.388225,125.469444 183.688225,125.382913 183.988225,125.209851 C187.388225,123.219638 191.088225,122.008205 195.188225,122.181266 L196.388225,122.181266 C197.988225,122.267797 198.488225,123.133107 198.688225,124.431072 C198.788225,125.209851 198.288225,125.902099 197.488225,126.248222 C196.488225,126.680877 195.388225,127.027001 194.388225,127.546187 C192.488225,128.584559 190.488225,128.238435 188.488225,128.065373 C186.988225,127.978842 185.488225,127.719249 183.988225,127.546187 C182.688225,127.459656 181.388225,127.546187 180.088225,127.546187 C178.588225,127.546187 177.588225,128.151904 177.188225,129.449869 C176.588225,131.180488 175.988225,132.997639 175.488225,134.728258 C175.388225,134.987851 175.388225,135.247444 175.388225,135.507037 C175.888225,138.362559 175.488225,141.304613 175.388225,144.160135 C175.388225,144.765852 175.388225,145.371568 175.488225,145.977285 C175.488225,146.842595 175.588225,147.707905 175.588225,148.573215 C175.688225,149.265462 175.588225,150.044241 176.188225,150.649958 C176.488225,150.909551 176.388225,151.515268 176.388225,152.034454 C176.388225,152.899763 176.188225,153.765073 176.288225,154.630383 C176.288225,155.582224 176.688225,156.620596 176.388225,157.572436 C176.088225,158.610808 176.388225,159.562649 176.288225,160.51449 C176.088225,161.898985 176.488225,163.110419 176.788225,164.321853 C176.988225,165.273693 176.688225,166.312065 176.488225,167.350437 C176.388225,167.61003 175.888225,167.869623 175.588225,167.956154 C175.088225,168.042685 174.588225,167.956154 174.188225,167.869623 C173.288225,167.783092 173.088225,167.523499 173.188225,166.74472 C173.188225,166.052472 173.188225,165.446755 172.688225,164.754507 C172.388225,164.321853 172.488225,163.456543 172.488225,162.850826 C172.488225,160.860613 172.688225,158.78387 172.588225,156.793657 C172.488225,154.976507 172.288225,153.072825 171.888225,151.342206 C171.388225,149.351993 170.888225,147.361781 169.888225,145.458099 C169.788225,145.198506 169.688225,144.852383 169.688225,144.59279 C169.588225,143.467887 169.088225,142.689108 167.888225,142.342984 C167.688225,142.256453 167.588225,142.169922 167.388225,142.169922 C165.688225,141.910329 164.188225,141.131551 162.888225,140.093179 C161.588225,139.054807 160.088225,138.102966 159.088225,136.891533 C157.588225,135.074382 156.488225,132.997639 155.888225,130.747833 C155.388225,129.017214 155.288225,127.286594 155.488225,125.555975 C155.588225,124.690665 155.888225,123.738824 156.088225,122.873514 C156.188225,122.613921 156.388225,122.440859 156.588225,122.181266 C157.088225,121.662081 157.488225,121.662081 158.088225,122.181266 C158.888225,122.873514 159.788225,123.565762 160.588225,124.344541 C160.688225,124.431072 160.788225,124.517603 160.888225,124.604134 C162.088225,126.248222 163.388225,127.80578 164.588225,129.449869 C165.388225,130.574771 166.088225,131.786205 166.788225,132.997639 C167.188225,133.603356 167.488225,134.209072 167.788225,134.90132 C168.588225,136.458878 169.288225,138.016435 169.988225,139.573993 C170.588225,140.958489 170.988225,142.516046 171.588225,143.900542 C172.088225,145.025445 172.688225,146.063816 173.288225,147.188719 C173.888225,147.015657 173.988225,147.015657 174.088225,146.929126 Z M196.588225,123.911886 C196.588225,123.998417 196.488225,123.998417 196.488225,124.084948 C196.588225,124.171479 196.688225,124.344541 196.788225,124.431072 C196.888225,124.517603 197.088225,124.431072 197.288225,124.431072 L197.288225,124.171479 C196.988225,124.084948 196.788225,123.998417 196.588225,123.911886 Z M194.588225,103.230982 C194.488225,103.404044 194.488225,103.577106 194.388225,103.663637 L194.588225,103.750168 C194.688225,103.663637 194.788225,103.490575 194.788225,103.317513 C194.888225,103.404044 194.788225,103.317513 194.588225,103.230982 Z" id="Shape" fill-rule="nonzero" transform="translate(174.350452, 118.495998) scale(-1, 1) translate(-174.350452, -118.495998) "></path>
                <path d="M56.1236707,79.5722071 C56.4912257,80.5523538 56.8587807,81.5325004 57.1038174,82.5126471 C57.5938907,84.1053855 57.4713724,85.6981238 56.3687074,87.0458255 C55.878634,87.5358988 55.2660424,88.0259721 54.5309324,88.2710088 C52.938194,88.7610821 51.835529,89.9862655 52.203084,91.4564855 C52.6931573,93.5392972 51.467974,95.0095172 51.100419,96.8472922 C50.8553823,97.9499572 50.732864,99.0526222 50.6103457,100.400324 C52.570639,99.5426955 54.040859,98.9301039 55.6335974,98.3175122 C57.1038174,97.7049205 57.9614457,96.4797372 58.083964,94.8869988 C58.3290007,92.9267055 59.4316657,91.7015222 61.1469224,90.9664122 C63.1072157,90.1087838 64.8224724,91.0889305 64.9449907,93.2942605 C64.9449907,93.9068522 64.9449907,94.6419622 64.8224724,95.2545538 C64.5774357,97.7049205 62.4946241,99.2976589 59.921739,99.1751405 C59.3091474,99.1751405 58.6965557,99.1751405 58.2064824,99.4201772 C56.1236707,100.400324 54.040859,101.625507 51.9580473,102.605654 C50.732864,103.218246 49.8752357,104.320911 48.895089,105.423576 C46.8122773,107.873942 44.9745023,110.691864 42.279099,112.652157 C40.9313973,113.509786 39.8287323,114.734969 38.6035489,115.715116 C37.5008839,116.695262 37.6234023,117.797927 37.8684389,119.023111 C38.2359939,121.841032 38.8485856,124.536436 38.9711039,127.354357 C39.2161406,132.745164 39.2161406,138.135971 39.2161406,143.526777 L39.2161406,148.182474 C39.4611773,148.059956 39.8287323,147.937437 39.9512506,147.814919 C40.441324,145.609589 42.1565806,144.139369 43.6268006,142.669149 C45.954649,140.218782 47.9149423,137.768416 49.1401257,134.460421 C50.2427907,131.519981 51.7130107,128.579541 53.5507857,126.006656 C53.673304,125.761619 53.9183407,125.516582 54.040859,125.394064 C56.7362624,123.066216 59.554184,120.738367 62.8621791,119.268147 C63.4747707,119.023111 64.3323991,118.900592 65.0675091,118.900592 C66.2926924,118.900592 67.1503207,120.003257 66.9052841,121.228441 C66.1701741,124.413917 65.3125457,127.721912 64.4549174,130.907389 C64.3323991,131.397462 64.2098807,131.887536 64.2098807,132.255091 C63.9648441,138.871081 60.0442574,142.914186 54.6534507,145.854626 C51.9580473,147.202327 49.262644,148.550029 46.322204,149.040102 C43.9943556,149.530176 41.911544,150.877877 39.9512506,152.470616 C39.338659,152.960689 38.9711039,154.308391 38.9711039,155.166019 C39.0936223,158.964087 38.6035489,162.762156 38.1134756,166.560224 C37.9909573,167.907926 37.9909573,169.255627 37.8684389,170.480811 C35.9081456,170.725848 35.5405906,170.480811 35.5405906,168.888072 C35.5405906,167.172816 35.6631089,165.457559 35.6631089,163.619784 C35.7856273,161.291936 35.9081456,158.964087 36.0306639,156.636239 L36.0306639,156.023647 C35.5405906,154.553427 35.0505173,152.960689 34.5604439,151.490469 C34.3154073,151.000396 33.8253339,150.510322 33.3352606,150.265286 C32.3551139,149.775212 31.3749672,149.407657 30.3948206,148.917584 C28.8020822,147.937437 27.0868256,147.569882 25.2490506,147.202327 C21.9410555,146.589736 19.2456522,145.364552 17.0403222,142.669149 C14.4674372,139.606191 12.6296622,136.298196 12.1395888,132.377609 C11.8945522,130.294797 11.1594422,128.334504 10.7918872,126.251692 C10.5468505,125.149027 10.4243322,124.168881 10.5468505,123.066216 C10.5468505,122.576142 10.9144055,121.841032 11.2819605,121.595996 C11.5269972,121.473477 12.2621072,121.841032 12.6296622,122.086069 C14.7124738,124.046362 16.6727672,126.006656 18.7555789,127.966949 C21.0834272,130.049761 23.4112755,132.132572 25.7391239,134.215384 C27.9444539,136.175677 30.2723022,138.135971 31.9875589,140.708856 C33.2127423,142.424112 34.1928889,144.139369 35.2955539,145.977144 C35.5405906,146.467217 35.5405906,147.079809 35.9081456,147.692401 C35.9081456,146.589736 36.0306639,145.487071 36.0306639,144.506924 C36.0306639,141.443966 35.7856273,138.381007 36.0306639,135.440567 C36.3982189,131.765017 35.6631089,128.089467 35.4180723,124.536436 C35.2955539,122.821179 35.0505173,121.228441 34.8054806,119.513184 C34.5604439,116.695262 34.0703706,115.960152 31.2524489,115.347561 C29.9047472,115.102524 28.9246006,114.489932 27.8219356,113.754822 C25.9841606,112.284602 24.2689039,110.691864 22.3086105,109.344162 C21.0834272,108.486534 19.7357255,107.873942 18.3880239,107.383869 C14.9575105,106.281204 11.7720338,104.688466 9.44418549,101.993062 C8.58655715,100.890397 7.36137381,100.032769 6.2587088,99.1751405 C5.8911538,98.8075855 5.27856213,98.6850672 4.7884888,98.5625489 C2.33812212,98.3175122 0.132792111,95.0095172 0.0102737769,92.9267055 C-0.112244557,91.2114488 0.867902114,89.7412288 2.58315879,89.3736738 C2.95071379,89.2511555 3.31826879,89.3736738 3.56330546,89.4961921 C5.40108047,90.4763388 7.11633714,91.7015222 7.23885548,93.9068522 C7.23885548,96.4797372 9.07663048,97.7049205 10.4243322,99.4201772 C11.0369238,100.155287 11.6495155,100.767879 12.3846255,101.380471 C13.3647722,102.115581 14.0998822,103.095727 15.5701022,103.340764 C16.5502488,103.463282 17.4078772,104.075874 18.6330605,104.565947 C17.8979505,102.973209 17.5303955,101.625507 16.9178039,100.522842 C15.8151388,98.4400305 15.3250655,95.9896638 14.7124738,93.7843338 C14.3449188,92.5591505 13.8548455,91.4564855 12.7521805,90.5988572 C9.44418549,88.1484905 8.34152048,83.4927938 10.0567772,79.8172438 C10.9144055,77.7344321 12.7521805,77.2443588 14.5899555,78.5920604 C18.0204689,81.0424271 18.2655055,84.5954588 18.1429872,88.2710088 C18.1429872,88.8836005 18.0204689,89.4961921 17.7754322,89.9862655 C17.1628405,91.5790038 17.2853589,93.2942605 17.7754322,94.8869988 C19.0006155,98.5625489 20.1032805,102.360617 22.6761655,105.423576 C24.8814956,108.118979 27.4543806,110.446827 30.5173389,112.162084 C31.6200039,112.774676 32.9677056,112.897194 34.1928889,113.019712 C35.0505173,113.142231 35.2955539,112.407121 35.4180723,111.672011 C35.5405906,110.324309 35.6631089,108.854089 35.7856273,107.506387 C36.0306639,103.708319 36.2757006,100.032769 36.3982189,96.2347005 C36.5207373,93.0492238 36.3982189,89.9862655 36.2757006,86.8007888 C36.2757006,86.1881971 35.7856273,85.5756055 35.5405906,84.9630138 C34.5604439,83.4927938 33.8253339,81.7775371 33.4577789,80.0622804 C32.9677056,78.2245054 33.5802973,76.5092488 33.9478523,74.6714737 C34.3154073,73.2012537 36.6432556,72.4661437 37.7459206,73.4462904 C38.3585123,73.9363637 39.0936223,74.6714737 39.338659,75.4065838 C40.3188056,78.2245054 40.6863606,81.4099821 39.706214,84.1053855 C38.7260673,86.6782705 39.0936223,89.0061188 38.9711039,91.4564855 C38.8485856,95.9896638 38.6035489,100.400324 38.4810306,104.933502 C38.3585123,106.893796 38.1134756,108.854089 38.7260673,111.304456 C39.706214,110.569346 40.441324,109.956754 41.176434,109.344162 C44.484429,106.893796 46.5672406,103.708319 47.424869,99.5426955 C47.9149423,97.0923288 48.6500523,94.6419622 49.262644,92.0690772 C49.630199,90.3538205 49.8752357,88.6385638 50.2427907,86.8007888 C48.527534,84.5954588 48.4050157,81.7775371 50.1202723,79.8172438 C52.203084,78.1019871 53.673304,78.1019871 56.1236707,79.5722071 Z M14.0998822,83.3702755 C13.9773638,83.3702755 13.7323272,83.4927938 13.6098088,83.4927938 C13.4872905,84.2279038 13.4872905,84.8404955 14.4674372,85.3305688 C14.3449188,84.7179771 14.2224005,84.1053855 14.0998822,83.3702755 Z M37.1333289,77.9794688 C37.2558473,77.9794688 37.3783656,77.9794688 37.5008839,78.1019871 C37.6234023,77.8569504 37.6234023,77.6119138 37.7459206,77.3668771 C37.7459206,77.3668771 37.5008839,77.2443588 37.3783656,77.2443588 C37.2558473,77.3668771 37.2558473,77.6119138 37.1333289,77.9794688 Z" id="Shape" fill-rule="nonzero"></path>
                <path d="M106.885206,118.581323 C107.360115,117.631504 107.740042,116.681686 108.214951,115.826849 C108.784842,114.782049 109.16477,113.642267 110.019606,112.78743 C110.874443,111.837612 111.25437,110.887793 111.444334,109.653029 C111.824261,106.518628 112.489134,103.574191 113.723898,100.629754 C114.958662,97.7802987 116.193426,95.0258253 118.378009,92.8412428 C119.327827,91.9864062 120.372627,91.1315696 121.417428,90.4666967 C122.842155,89.6118601 124.64681,90.6566604 124.551829,92.3663336 C124.361865,94.4559342 124.171901,96.5455348 123.696992,98.5401535 C123.222083,100.724736 122.842155,103.0043 121.797355,104.903937 C119.707755,108.608229 117.238227,112.312521 112.584116,113.357321 C111.634298,113.547285 110.969425,114.022194 110.589497,115.066994 C109.924625,116.966631 108.879824,118.771286 108.214951,120.765905 C107.455097,123.045469 106.885206,125.325034 107.265133,127.794562 C107.64506,130.074126 107.740042,132.448672 108.214951,134.728236 C109.069788,138.812455 109.734661,142.896675 111.159389,146.885912 C111.25437,147.075876 111.444334,147.26584 111.72928,147.835731 C112.109207,146.411003 112.394153,145.271221 112.679098,144.131439 C113.248989,141.566929 113.81888,139.002419 114.388771,136.342928 C114.578735,135.488091 114.768699,134.633254 114.958662,133.778418 C115.33859,131.688817 115.623535,129.599217 116.288408,127.604598 C116.763317,126.17987 116.763317,124.660161 117.048263,123.140451 C117.808118,119.341177 118.9479,115.636885 121.607391,112.597466 C122.367246,111.74263 123.412046,110.982775 124.64681,110.792811 C125.501647,110.69783 126.071538,110.887793 126.356484,111.552666 C126.736411,112.312521 127.116338,113.072376 127.116338,113.83223 C127.021357,116.39674 127.021357,118.96125 126.641429,121.430778 C125.881574,126.844743 123.127101,131.118926 118.757936,134.348309 C117.998081,134.9182 117.238227,135.583073 116.573354,136.247946 C116.288408,136.532891 116.098444,136.912819 116.003463,137.387728 C115.623535,138.907437 115.243608,140.427147 114.86368,142.13682 C115.33859,142.041838 115.623535,141.946856 116.003463,141.851874 C117.618154,141.187002 119.327827,140.617111 120.942519,139.952238 C121.322446,139.762274 121.797355,139.667292 121.987319,139.382347 C123.981938,137.102782 126.736411,135.868018 129.300921,134.538272 C130.82063,133.778418 132.435322,133.208527 134.144995,132.828599 C135.094813,132.543654 136.234595,132.448672 137.184414,132.543654 C138.989069,132.733617 139.653942,134.728236 138.419178,136.342928 C138.03925,136.817837 137.564341,137.292746 137.184414,137.672673 C133.290158,141.09202 128.826012,142.801693 123.60201,142.421766 L123.127101,142.421766 C121.607391,141.471947 120.182664,142.041838 118.662954,142.516747 C116.668336,143.18162 115.148626,144.606348 114.388771,146.411003 C113.81888,147.835731 113.81888,149.545404 113.723898,151.160095 C113.628916,152.774787 113.628916,154.48446 113.81888,156.099151 C113.913862,157.333915 114.388771,158.568679 114.768699,159.708461 C115.813499,162.462935 116.858299,165.122426 118.472991,167.591954 C119.042882,168.446791 118.852918,168.9217 118.283027,169.301627 C117.713136,169.586573 117.238227,169.396609 116.668336,168.541773 C114.86368,165.597336 113.533935,162.557917 112.489134,159.328534 C111.72928,156.764024 110.874443,154.199514 110.019606,151.635004 C109.734661,150.780168 109.069788,150.020313 108.689861,149.165476 C107.930006,147.455803 107.170151,145.74613 106.410296,144.036457 C104.890587,140.902056 103.085932,138.052601 100.616404,135.583073 C99.5716035,134.538272 98.7167669,133.39849 97.6719667,132.35369 C97.482003,132.163726 97.1020756,131.973763 96.7221482,131.878781 C94.3476021,130.833981 91.6881105,130.264089 89.5985099,128.649398 C87.6038912,127.129689 85.5142906,125.704961 84.1845448,123.61536 C83.2347263,122.095651 82.3798897,120.575941 81.9049805,118.676304 C81.3350894,116.301758 81.0501439,114.022194 81.0501439,111.552666 C81.0501439,110.69783 81.1451257,109.842993 81.3350894,109.083138 C81.620035,107.943356 82.3798897,107.658411 83.3297082,108.323283 C84.2795266,108.988156 85.1343632,109.842993 85.9891998,110.69783 C87.4139275,112.027575 88.7436733,113.357321 90.0734191,114.687067 C91.0232375,115.636885 91.973056,116.586704 92.7329107,117.726486 C94.6325476,120.575941 96.5321845,123.425397 97.8619303,126.654779 C98.051894,127.22467 98.2418577,127.889543 98.4318214,128.459434 C99.1916762,130.833981 100.616404,132.733617 102.326077,134.443291 C103.845787,136.057982 105.080551,137.957619 106.410296,139.667292 C106.695242,139.952238 106.885206,140.332165 107.170151,140.617111 C107.170151,139.002419 106.885206,137.48271 106.410296,135.963 C105.935387,134.348309 105.650442,132.638636 105.460478,130.928962 C105.175532,128.934344 105.175532,126.844743 104.985569,124.850124 C104.510659,120.101032 104.415678,115.446922 104.130732,110.69783 C104.03575,108.513247 103.655823,106.328665 102.611023,104.334046 C99.0017125,103.669173 95.7723298,102.529391 92.7329107,100.629754 C91.0232375,99.4899719 90.0734191,97.7802987 89.1236007,96.0706255 C87.3189456,92.8412428 87.3189456,89.3269146 87.3189456,85.8125864 C87.3189456,84.4828405 87.8888367,83.1530947 88.6486914,82.1082944 C89.1236007,81.4434215 89.6934917,81.2534578 90.5483283,81.8233489 C91.4981468,82.39324 92.4479652,83.1530947 93.20782,83.9129495 C96.9121119,87.7122232 99.4766217,92.2713518 101.566222,97.1154258 C102.231095,98.5401535 102.800986,100.059863 103.465859,101.579573 C103.655823,102.054482 103.940768,102.434409 104.320696,103.099282 C104.890587,100.9147 105.270514,98.9200809 105.745423,97.020444 C106.030369,95.78568 106.410296,94.6458979 106.695242,93.4111339 C106.790224,93.1261884 106.885206,92.746261 106.790224,92.5562973 C106.030369,91.4165152 106.410296,90.1817512 106.410296,89.0419691 C106.60026,85.5276408 107.170151,82.0133126 108.594879,78.688948 C109.734661,76.1244382 111.25437,73.7498921 113.628916,72.0402189 C114.103826,71.6602916 114.578735,71.2803642 115.148626,70.9004368 C115.908481,70.5205094 116.573354,70.0456002 117.42819,69.8556365 C118.852918,69.4757091 119.707755,70.2355639 119.612773,71.6602916 C119.612773,72.9900374 119.422809,74.2248014 119.232845,75.5545472 C118.9479,77.6441477 118.472991,79.6387665 118.378009,81.7283671 C117.998081,87.0473503 115.33859,90.6566604 110.494516,92.746261 C109.259752,93.3161521 108.499897,93.981025 108.309933,95.4057526 C107.930006,97.6853169 107.170151,99.9648812 106.790224,102.244445 C106.505278,103.669173 106.505278,105.188883 106.410296,106.61361 C106.315314,108.418265 106.220333,110.127938 106.220333,111.932594 C106.220333,114.117176 106.410296,116.206777 106.60026,118.391359 C106.60026,118.581323 106.790224,118.581323 106.885206,118.581323 Z" id="Shape" fill-rule="nonzero" transform="translate(110.050144, 119.591735) rotate(6.000000) translate(-110.050144, -119.591735) "></path>
            </g>
        </g>
    </g>
</svg>