<?xml version="1.0" encoding="UTF-8"?>
<svg width="851px" height="194px" viewBox="0 0 851 194" version="1.1" xmlns="http://www.w3.org/2000/svg" xmlns:xlink="http://www.w3.org/1999/xlink">
    <!-- Generator: Sketch 43.2 (39069) - http://www.bohemiancoding.com/sketch -->
    <title>Group 2</title>
    <desc>Created with Sketch.</desc>
    <defs></defs>
    <g id="Page-1" stroke="none" stroke-width="1" fill="none" fill-rule="evenodd">
        <g id="Desktop-Landscape" transform="translate(-215.000000, -2696.000000)">
            <g id="Group-2" transform="translate(215.000000, 2696.000000)">
                <path d="M315,194 C261.980664,194 219,151.019336 219,98 C219,44.980664 261.980664,2 315,2 C368.019336,2 411,44.980664 411,98 C411,151.019336 368.019336,194 315,194 Z M338.036233,53.2645813 C335.327723,51.6394754 333.702617,51.6394754 331.400384,53.5354323 C329.504427,55.7022403 329.639852,58.8170267 331.535809,61.2546856 C331.129533,63.286068 330.858682,65.1820249 330.452405,67.0779819 C329.775278,69.9219173 328.962725,72.6304272 328.421023,75.3389371 C327.473044,79.9434039 325.170811,83.4644668 321.514323,86.1729767 C320.70177,86.8501042 319.889217,87.5272317 318.805813,88.3397847 C318.128685,85.6312748 318.399536,83.4644668 318.534962,81.2976589 C318.670387,76.2869156 318.941238,71.4115977 319.076664,66.4008544 C319.212089,63.6923445 318.805813,61.1192601 319.889217,58.2753247 C320.972621,55.2959638 320.566344,51.7749009 319.48294,48.6601145 C319.212089,47.8475615 318.399536,47.0350086 317.722409,46.4933066 C316.503579,45.4099026 313.930495,46.2224556 313.524218,47.8475615 C313.117942,49.878944 312.440814,51.7749009 312.982516,53.8062833 C313.388793,55.7022403 314.201346,57.5981972 315.28475,59.2233031 C315.555601,59.9004306 316.097303,60.5775581 316.097303,61.2546856 C316.232728,64.7757485 316.368154,68.1613858 316.232728,71.6824487 C316.097303,75.8806391 315.826452,79.9434039 315.555601,84.1415943 C315.420175,85.6312748 315.28475,87.2563807 315.149324,88.7460611 C315.013899,89.5586141 314.743048,90.3711671 313.795069,90.2357416 C312.440814,90.1003161 310.951134,89.9648906 309.732304,89.2877631 C306.346667,87.3918062 303.502732,84.8187218 301.065073,81.8393609 C298.221137,78.4537235 297.002308,74.2555331 295.648053,70.1927683 C295.106351,68.4322368 294.970925,66.5362799 295.648053,64.7757485 C295.918904,64.2340465 296.054329,63.556919 296.054329,62.8797915 C296.189755,58.8170267 295.918904,54.8896873 292.12699,52.1811774 C290.095608,50.6914969 288.064225,51.2331989 287.116247,53.5354323 C285.22029,57.5981972 286.439119,62.744366 290.095608,65.4528759 C291.314437,66.4008544 291.856139,67.6196839 292.262416,68.9739388 C292.939543,71.4115977 293.481245,74.1201076 294.700074,76.4223411 C295.377202,77.6411705 295.783478,79.130851 296.596031,80.8913824 C295.241776,80.3496804 294.293798,79.672553 293.210394,79.5371275 C291.585288,79.2662765 290.772735,78.1828725 289.689331,77.3703195 C288.876778,76.6931921 288.199651,76.0160646 287.522523,75.2035116 C286.032843,73.3075547 284.00146,71.9532997 284.00146,69.1093643 C283.866035,66.6717054 281.970078,65.3174504 279.938695,64.2340465 C279.667844,64.098621 279.261568,63.9631955 278.855292,64.098621 C276.959335,64.5048975 275.875931,66.1300034 276.011356,68.0259603 C276.146782,70.3281938 278.584441,73.9846821 281.29295,74.2555331 C281.834652,74.3909586 282.51178,74.5263841 282.918056,74.9326606 C284.136886,75.8806391 285.491141,76.8286175 286.439119,78.047447 C289.012204,81.0268079 292.533267,82.7873393 296.32518,84.0061688 C297.814861,84.5478708 299.304541,85.2249983 300.658796,86.1729767 C302.825604,87.6626572 304.721561,89.4231886 306.752944,91.0482946 C307.971773,91.8608475 309.055177,92.537975 310.544857,92.808826 C313.659644,93.4859535 314.201346,94.2985065 314.472197,97.4132929 C314.743048,99.3092498 315.013899,101.069781 315.149324,102.965738 C315.420175,106.893078 316.232728,110.955842 315.826452,115.018607 C315.555601,118.268819 315.826452,121.654457 315.826452,125.040094 C315.826452,126.123498 315.691026,127.342327 315.691026,128.561157 C315.28475,127.884029 315.28475,127.206902 315.013899,126.6652 C313.795069,124.633817 312.711665,122.73786 311.35741,120.841904 C309.461453,117.997968 306.888369,115.83116 304.45071,113.664352 C301.877626,111.362119 299.304541,109.059885 296.731457,106.757652 C294.429223,104.590844 292.262416,102.424036 289.960182,100.257228 C289.553906,99.9863773 288.741353,99.5801008 288.470502,99.7155263 C288.064225,99.9863773 287.657949,100.79893 287.657949,101.340632 C287.522523,102.559462 287.657949,103.642866 287.9288,104.861695 C288.335076,107.163929 289.147629,109.330736 289.41848,111.63297 C289.960182,115.966586 291.991565,119.623074 294.8355,123.008711 C297.273159,125.988072 300.25252,127.342327 303.909008,128.019455 C305.940391,128.425731 307.836348,128.832008 309.596879,129.915412 C310.680283,130.457114 311.763687,130.86339 312.847091,131.405092 C313.388793,131.675943 313.930495,132.217645 314.201346,132.759347 C314.743048,134.384453 315.28475,136.144985 315.826452,137.77009 L315.826452,138.447218 C315.691026,141.020302 315.555601,143.593387 315.420175,146.166471 C315.420175,148.197854 315.28475,150.093811 315.28475,151.989768 C315.28475,153.750299 315.691026,154.02115 317.857834,153.750299 C317.99326,152.396044 317.99326,150.906364 318.128685,149.416683 C318.670387,145.218493 319.212089,141.020302 319.076664,136.822112 C319.076664,135.874134 319.48294,134.384453 320.160068,133.842751 C322.326876,132.08222 324.629109,130.592539 327.202193,130.050837 C330.452405,129.509135 333.431766,128.019455 336.411127,126.529774 C342.369849,123.279562 346.703465,118.810521 346.974316,111.497544 C346.974316,111.091268 347.109741,110.549566 347.245167,110.007864 C348.193145,106.486801 349.141124,102.830313 349.953677,99.3092498 C350.224528,97.9549948 349.276549,96.7361654 347.922294,96.7361654 C347.109741,96.7361654 346.161763,96.8715909 345.484635,97.1424419 C341.828147,98.7675478 338.71336,101.340632 335.734,103.913717 C335.598574,104.049142 335.327723,104.319993 335.192298,104.590844 C333.160915,107.43478 331.535809,110.684991 330.31698,113.935203 C328.962725,117.591692 326.795917,120.300202 324.222832,123.008711 C322.597727,124.633817 320.70177,126.258923 320.160068,128.696582 C320.024642,128.832008 319.618366,128.967433 319.347515,129.102859 L319.347515,123.95669 C319.347515,117.997968 319.347515,112.039246 319.076664,106.080525 C318.941238,102.965738 318.264111,99.9863773 317.857834,96.8715909 C317.586983,95.5173359 317.451558,94.2985065 318.670387,93.2151025 C320.024642,92.1316985 321.243472,90.7774436 322.733152,89.8294651 C325.712513,87.6626572 327.743895,84.5478708 330.046129,81.8393609 C331.129533,80.6205314 332.077511,79.401702 333.431766,78.7245745 C335.734,77.6411705 338.036233,76.2869156 340.338466,75.2035116 C340.880168,74.9326606 341.557296,74.9326606 342.234423,74.9326606 C345.078359,75.0680861 347.380592,73.3075547 347.651443,70.5990448 C347.786869,69.9219173 347.786869,69.1093643 347.786869,68.4322368 C347.651443,65.9945779 345.755486,64.911174 343.588678,65.8591524 C341.692721,66.6717054 340.473892,68.0259603 340.203041,70.1927683 C340.067615,71.9532997 339.119637,73.3075547 337.494531,73.9846821 C335.734,74.6618096 334.108894,75.3389371 331.942086,76.2869156 C332.077511,74.7972351 332.212937,73.5784057 332.483788,72.3595762 C332.890064,70.3281938 334.244319,68.7030878 333.702617,66.4008544 C333.296341,64.7757485 334.51517,63.4214935 336.275702,62.8797915 C337.088255,62.6089405 337.765382,62.0672385 338.307084,61.5255366 C339.525913,60.0358561 339.661339,58.2753247 339.119637,56.5147932 C338.848786,55.4313893 338.442509,54.3479853 338.036233,53.2645813 Z" id="Combined-Shape" fill="#D1CAD8"></path>
                <path d="M96,192 C149.019336,192 192,149.019336 192,96 C192,42.980664 149.019336,0 96,0 C42.980664,0 0,42.980664 0,96 C0,149.019336 42.980664,192 96,192 Z M94.5526273,130.888334 C94.5526273,130.349873 94.717089,129.946026 94.717089,129.407565 L94.717089,120.926796 C94.717089,120.119103 94.717089,119.04218 94.0592422,118.369103 C92.2501634,116.619103 91.5923165,114.465257 90.4410846,112.446026 C88.7964675,109.619103 86.8229269,107.061411 84.3560013,104.77295 C83.2047693,103.696026 82.5469224,102.484488 81.3956905,101.407565 C80.7378436,100.734488 79.7510734,99.9267957 78.7643031,99.5229496 C75.8039923,98.1767957 73.5015284,96.0229496 71.5279878,94.0037188 C69.8833707,92.3883342 69.0610622,90.0998726 67.7453685,88.2152573 C65.2784428,84.3114111 64.4561343,80.1383342 63.7982874,75.8306419 C63.469364,73.8114111 63.9627491,71.6575649 64.4561343,69.6383342 C64.620596,68.6960265 65.6073662,67.7537188 66.4296748,67.0806419 C67.0875216,66.4075649 68.0742919,66.4075649 68.7321388,67.0806419 C71.6924495,70.7152573 75.8039923,73.5421803 77.7775328,77.7152573 C79.2576882,80.8114111 81.5601522,83.7729496 83.2047693,86.8691034 C85.3427715,90.9075649 86.1650801,95.2152573 86.0006184,99.6575649 C86.0006184,100.061411 85.5072332,100.465257 85.5072332,100.869103 C85.5072332,101.407565 85.5072332,102.080642 85.8361567,102.484488 C87.9741589,105.04218 90.2766229,107.599873 92.4146251,110.29218 C92.5790868,110.426796 92.9080102,110.561411 93.2369336,110.696026 C93.4013954,110.29218 93.4013954,109.888334 93.4013954,109.619103 C93.5658571,103.965257 93.5658571,98.4460265 93.7303188,92.7921803 C93.7303188,91.5806419 93.5658571,90.234488 93.8947805,89.0229496 C94.8815508,85.7921803 93.8947805,82.9652573 92.0857017,80.1383342 C90.6055463,77.8498726 90.1121611,75.2921803 89.9476994,72.5998726 C89.618776,68.9652573 89.2898526,65.1960265 89.2898526,61.5614111 C89.2898526,55.6383342 89.9476994,49.7152573 92.5790868,44.1960265 C93.5658571,42.1767957 95.2104742,40.2921803 97.019553,38.8114111 C99.8154021,36.6575649 102.775713,37.1960265 103.762483,40.1575649 C104.749253,42.8498726 105.242639,45.5421803 105.900485,48.234488 C107.216179,52.6767957 106.39387,57.2537188 105.900485,61.6960265 C105.4071,65.8691034 103.762483,69.9075649 101.953404,73.6767957 C99.8154021,77.7152573 98.170785,82.0229496 98.0063233,86.4652573 C97.8418615,90.234488 97.5129381,94.1383342 97.1840147,97.9075649 C97.1840147,99.2537188 97.1840147,100.465257 97.6773998,101.811411 C98.3352467,100.196026 99.1575552,98.5806419 99.4864787,96.8306419 C100.144325,93.3306419 101.788943,90.234488 103.43356,87.0037188 C105.078177,83.9075649 106.887256,81.0806419 108.860796,78.1191034 C110.998798,74.7537188 113.959109,71.7921803 117.083882,69.234488 C118.728499,67.8883342 121.030963,67.2152573 123.004503,66.2729496 C123.333427,66.1383342 123.66235,66.1383342 123.991274,66.1383342 C125.964814,66.0037188 126.458199,66.5421803 126.622661,68.1575649 C126.787123,71.6575649 125.635891,75.0229496 125.635891,78.5229496 C125.635891,81.3498726 124.978044,84.0421803 123.66235,86.734488 C121.359886,91.3114111 118.235114,95.6191034 113.794647,98.984488 C112.314492,100.061411 110.669875,100.869103 108.860796,101.676796 C104.913715,103.561411 100.802172,105.311411 97.019553,107.061411 C97.1840147,113.253719 97.3484764,119.580642 97.6773998,126.176796 C99.6509404,123.080642 101.131096,120.388334 103.104636,117.965257 C105.242639,115.138334 107.380641,112.311411 110.834337,110.561411 C113.301262,109.215257 115.768188,108.003719 119.057422,108.003719 C120.866501,108.003719 122.67558,108.003719 124.64912,107.330642 C126.787123,106.52295 129.41851,108.003719 129.911895,110.02295 C130.40528,111.77295 128.760663,114.061411 126.622661,114.599873 C124.484659,115.27295 122.182195,114.330642 121.524348,112.446026 C121.359886,111.907565 121.195424,111.369103 121.030963,110.696026 C117.577267,110.02295 114.781418,111.369103 112.314492,112.849873 C110.669875,113.79218 108.860796,114.869103 108.531873,116.619103 C108.531873,116.753719 108.367411,116.888334 108.202949,117.02295 C103.269098,121.196026 101.295557,126.311411 100.308787,131.965257 C99.8154021,134.52295 99.1575552,137.080642 98.6641701,139.638334 C98.3352467,140.984488 98.4997084,142.465257 98.4997084,143.811411 L98.4997084,144.888334 C98.3352467,146.503719 98.170785,148.119103 98.0063233,149.734488 C97.8418615,150.676796 97.6773998,151.619103 97.1840147,152.426796 C97.019553,152.696026 96.3617061,153.099873 95.868321,152.965257 C95.5393976,152.965257 95.0460125,152.426796 95.0460125,152.02295 C94.8815508,150.811411 94.717089,149.465257 94.5526273,148.253719 C94.2237039,145.426796 94.2237039,142.465257 93.5658571,139.638334 C92.9080102,136.003719 90.9344697,132.638334 89.2898526,129.27295 C87.6452355,126.04218 85.671695,122.946026 82.8758459,120.388334 C79.9155351,117.426796 76.2973774,114.869103 71.6924495,113.79218 C70.2122941,113.388334 68.8966005,113.388334 67.2519834,114.061411 C65.771828,114.734488 64.2916726,115.138334 62.4825937,114.330642 C60.6735149,113.52295 60.0156681,112.580642 60.0156681,110.965257 C59.8512064,109.349873 61.0024383,108.407565 62.4825937,107.869103 C64.1272109,107.196026 66.1007514,107.196026 67.2519834,108.54218 C69.0610622,110.426796 71.5279878,110.965257 74.1593752,111.638334 C77.7775328,112.580642 80.9023053,114.599873 83.369231,116.888334 C86.6584652,119.984488 89.7832377,123.215257 91.7567782,127.119103 C92.4146251,128.465257 93.0724719,129.811411 93.7303188,131.157565 C94.0592422,130.888334 94.3881656,130.888334 94.5526273,130.888334 Z" id="Combined-Shape" fill="#D57A49"></path>
                <path d="M534,192 C480.980664,192 438,149.019336 438,96 C438,42.980664 480.980664,0 534,0 C587.019336,0 630,42.980664 630,96 C630,149.019336 587.019336,192 534,192 Z M529.691423,93.4832392 C529.579648,93.4714912 529.356099,93.4479952 529.379595,93.2244458 C529.426249,90.6301318 529.461156,88.1475925 529.73136,85.5767744 C529.954571,83.4530552 530.27781,81.4528586 530.612797,79.3408874 C530.900791,77.6760149 531.088759,75.8876198 531.600303,74.2462433 C532.329354,71.6106426 533.505503,69.0220338 534.234554,66.3864331 C534.634323,64.7333086 535.610757,64.0448697 537.134316,63.5269454 C543.093281,61.6670498 546.669396,57.7485551 547.774383,51.5361641 C548.144613,49.0888687 548.950195,46.8003401 549.543975,44.3765407 C549.931996,42.835191 550.308269,41.4056159 550.472741,39.8407701 C550.760736,38.1758977 549.848748,37.1759681 548.125135,37.446847 C547.095667,37.5646645 546.254504,38.041302 545.313314,38.3944168 C544.595674,38.7710277 543.989809,39.1593865 543.383943,39.5477453 C540.378112,41.26599 538.296017,43.8723895 536.637525,46.7493304 C534.549725,50.4852249 533.444401,54.5504007 532.786175,58.6625685 C532.6452,60.0038648 532.045377,61.4099439 532.798599,62.8452242 C532.886877,63.0805216 532.728111,63.5158724 532.581092,63.8394485 C532.093044,65.2572756 531.504969,66.55158 531.016921,67.9694071 C530.223088,70.146161 529.529281,72.4464377 528.588429,74.9467677 C528.223566,74.1173529 527.935234,73.6350101 527.770425,73.0526407 C527.17597,71.1820095 526.693289,69.3231264 526.087086,67.56427 C524.227191,61.6053046 521.773178,55.9229233 517.883884,50.9937637 C517.083671,50.0055822 516.059908,48.9939046 515.012649,48.2057765 C514.077164,47.4293964 513.38302,47.5824578 512.741911,48.3061407 C511.718485,49.4416784 510.883365,50.9360362 510.718893,52.500882 C510.284217,56.6365458 509.849542,60.7722096 511.573829,64.7957611 C512.480112,66.9251856 513.386395,69.0546101 515.257364,70.6073704 C518.599194,73.2188001 522.258558,74.9595283 526.423761,76.1883749 C527.406574,78.6648715 527.583469,81.2826815 527.42504,83.8652475 C527.172965,89.4892263 526.709088,94.9779345 526.680561,100.625409 C526.657403,102.996174 526.398947,105.455217 526.487563,107.83773 C526.499649,109.87317 526.623509,111.920359 526.982666,113.879269 C527.353572,115.726404 527.500928,117.550043 527.301212,119.450213 C527.001132,119.079645 526.824575,118.60905 526.524495,118.238482 C525.171113,116.062065 523.953002,113.673848 522.364322,111.58571 C520.563842,109.362301 519.122181,106.950588 518.521683,104.062236 C518.368622,103.368092 518.227309,102.562173 518.074247,101.868029 C516.908833,97.9032174 515.025779,94.3150166 513.142725,90.7268158 C512.389503,89.2915355 511.389236,88.0563086 510.388969,86.8210817 C508.988595,85.091764 507.588222,83.3624463 506.076073,81.6213806 C505.175833,80.5096764 504.275592,79.3979722 503.240081,78.4980694 C502.20457,77.5981666 501.275129,77.8395067 500.798829,79.1455591 C500.481295,80.0162607 500.263789,81.010485 500.158057,82.0164572 C499.852609,84.9225993 499.905981,87.6404361 500.28293,90.5052914 C500.606843,92.7995253 501.424848,94.6936524 502.354627,96.5995275 C503.661016,99.2230428 505.94384,101.158119 508.103141,103.193222 C510.362468,105.351848 513.421672,106.35144 516.086811,107.874661 C516.522162,108.033428 516.945765,108.303969 517.145818,108.551015 C518.246112,109.909764 519.111108,111.356793 520.211402,112.715542 C522.812096,115.927132 524.583376,119.503585 525.984087,123.380118 C526.666821,125.486046 527.349554,127.591975 528.032288,129.697903 C528.373655,130.750868 529.062094,131.727301 529.291686,132.768517 C529.980462,135.892166 530.669239,139.015815 531.246241,142.127716 C532.07633,146.057283 533.26524,149.798546 535.024772,153.486773 C535.589688,154.563233 536.125065,154.845523 536.830958,154.580687 C537.548598,154.204076 537.830887,153.668698 537.265971,152.592238 C535.671249,149.48638 534.770671,146.227461 533.881841,142.856766 C533.575718,141.468478 533.169569,139.956667 533.210518,138.491848 C533.186685,136.568182 533.398148,134.556238 533.709639,132.667816 C534.02113,130.779394 534.232594,128.767449 535.079462,127.161317 C536.196871,125.131582 538.161486,123.642929 540.590991,123.107214 C542.438126,122.736308 544.185234,122.24188 545.856149,123.547595 L546.415023,123.606335 C552.515639,124.699573 557.980514,123.239785 562.986204,119.697563 C563.480295,119.297457 564.097909,118.797323 564.603747,118.285442 C566.256534,116.537996 565.720819,114.108491 563.620596,113.66173 C562.514597,113.432475 561.161553,113.403274 560.008562,113.621118 C557.949625,113.856753 555.978967,114.327685 554.096588,115.033915 C550.9142,116.281565 547.520009,117.393944 544.890789,119.829829 C544.631996,120.141657 544.061374,120.194692 543.590779,120.371249 C541.608374,120.953956 539.525941,121.41314 537.543535,121.995847 C537.084688,122.06063 536.737616,122.137161 536.166995,122.190195 C536.825558,120.225243 537.460624,118.48384 538.095691,116.742437 C538.266206,116.195311 538.536747,115.771708 538.907315,115.471628 C539.771974,114.771441 540.748407,114.083002 541.713093,113.506338 C547.254161,110.246406 551.024287,105.557237 552.58812,99.2800628 C553.340667,96.4209127 553.657862,93.4029959 554.086833,90.3968271 C554.180817,89.5026295 553.827702,88.5614399 553.474587,87.6202504 C553.221499,86.8025835 552.574347,86.5085462 551.556627,86.5145889 C550.08006,86.5854144 548.756554,87.350384 547.756624,88.2623723 C544.250997,91.5102188 542.451529,95.7284561 541.087412,100.10546 C540.56412,101.858611 540.376152,103.647006 539.641058,105.264887 C538.611928,107.529919 538.018148,109.953719 537.312593,112.36577 C536.983312,113.348246 536.65403,114.330723 536.324749,115.313199 C535.325157,118.372403 534.337313,121.319831 533.349469,124.26726 C532.873169,125.573313 532.396869,126.879365 531.77355,128.508994 C531.508714,127.803101 531.308661,127.556056 531.220382,127.320759 C530.037177,122.450001 529.759918,117.561453 529.25911,112.64941 C528.982188,109.908077 529.164113,107.101961 528.998966,104.372377 C528.857315,101.419243 529.809915,98.8071379 530.986065,96.2185291 C532.015195,93.9534964 533.467929,91.9590051 534.485312,89.8057472 C535.061639,88.6232175 535.902801,88.1465799 537.044044,88.0405105 C542.650232,87.3866405 546.014546,83.3328752 548.931761,79.2321179 C550.396243,77.1258519 551.125294,74.4902511 551.954371,71.9781731 C552.759952,69.6896444 553.241958,67.2540971 553.723963,64.8185497 C554.047201,62.8183532 552.05271,61.3656196 550.270358,62.195372 C548.9586,62.8485669 547.623346,63.7253113 546.399868,64.6138036 C543.558846,66.9144178 541.765083,70.0031601 539.959572,73.203677 C538.142313,76.5159687 536.995702,79.8987484 536.16092,83.5403214 C535.784646,84.9698965 535.220068,86.0406514 534.096615,87.0526665 C532.984911,87.9529068 532.396837,89.2472112 531.59696,90.4062449 C530.932355,91.3534772 530.367776,92.4242322 529.691423,93.4832392 Z" id="Combined-Shape" fill="#576660"></path>
                <path d="M755,192 C701.980664,192 659,149.019336 659,96 C659,42.980664 701.980664,0 755,0 C808.019336,0 851,42.980664 851,96 C851,149.019336 808.019336,192 755,192 Z M756.008246,126.375844 C755.896123,126.472865 755.784001,126.472865 755.111268,126.666906 C754.438535,125.40564 753.765802,124.241395 753.205191,122.980129 C752.532458,121.427803 752.083969,119.681435 751.411236,118.129108 C750.62638,116.38274 749.841525,114.636373 748.944548,112.890005 C748.608181,112.113841 748.271814,111.434698 747.823326,110.755555 C747.03847,109.397269 746.253615,108.038983 745.356637,106.777718 C744.011171,104.93433 742.553583,103.187962 741.208116,101.344574 C741.095994,101.247553 740.983872,101.150533 740.87175,101.053513 C739.974772,100.180329 738.965672,99.4041653 738.068695,98.6280018 C737.395962,98.0458793 736.947473,98.0458793 736.386862,98.6280018 C736.162618,98.9190631 735.938373,99.113104 735.826251,99.4041653 C735.602007,100.37437 735.26564,101.441594 735.153518,102.411799 C734.929274,104.352207 735.041396,106.292616 735.602007,108.233024 C736.27474,110.755555 737.508084,113.084046 739.189917,115.121475 C740.311139,116.479761 741.992972,117.546985 743.45056,118.711231 C744.908149,119.875476 746.589982,120.74866 748.496059,121.039721 C748.720303,121.039721 748.832425,121.136741 749.05667,121.233762 C750.402136,121.621843 750.962747,122.495027 751.074869,123.756293 C751.074869,124.047354 751.186991,124.435436 751.299114,124.726497 C752.420336,126.860947 752.980946,129.092416 753.541557,131.323886 C753.990046,133.264295 754.214291,135.398744 754.326413,137.436173 C754.438535,139.667643 754.214291,141.996134 754.214291,144.227603 C754.214291,144.906746 754.102168,145.876951 754.438535,146.362053 C754.999146,147.138216 754.999146,147.817359 754.999146,148.593523 C754.887024,149.466707 755.111268,149.757768 756.120368,149.854788 C756.568857,149.951809 757.129468,150.048829 757.690079,149.951809 C758.026445,149.854788 758.587056,149.563727 758.699178,149.272666 C758.923423,148.108421 759.259789,146.944175 759.035545,145.876951 C758.699178,144.518665 758.250689,143.160379 758.474934,141.608052 C758.587056,140.540827 758.250689,139.473602 758.587056,138.309357 C758.923423,137.242133 758.474934,136.077887 758.474934,135.010663 C758.362812,134.040458 758.587056,133.070254 758.587056,132.10005 C758.587056,131.517927 758.699178,130.838784 758.362812,130.547723 C757.690079,129.86858 757.802201,128.995396 757.690079,128.219233 C757.690079,127.249028 757.577956,126.278824 757.577956,125.30862 C757.465834,124.629477 757.465834,123.950334 757.465834,123.271191 C757.577956,120.069517 758.026445,116.770822 757.465834,113.569148 C757.465834,113.278087 757.465834,112.987025 757.577956,112.695964 C758.138567,110.755555 758.8113,108.718126 759.484034,106.777718 C759.932522,105.322411 761.053744,104.643268 762.735577,104.643268 C764.193166,104.643268 765.650754,104.546248 767.108343,104.643268 C768.790176,104.837309 770.472008,105.128371 772.153841,105.225391 C774.396285,105.419432 776.638729,105.807514 778.769051,104.643268 C779.890273,104.061146 781.123617,103.673064 782.244839,103.187962 C783.141816,102.79988 783.702427,102.023717 783.590305,101.150533 C783.366061,99.6952265 782.80545,98.7250223 781.011495,98.6280018 L779.666028,98.6280018 C775.069018,98.433961 770.920497,99.792247 767.108343,102.023717 C766.771976,102.217758 766.43561,102.314778 766.099243,102.411799 C764.865899,102.605839 763.632555,102.79988 762.399211,102.896901 C762.062844,102.896901 761.614355,102.79988 761.165866,102.70286 C761.277989,102.314778 761.390111,102.023717 761.502233,101.829676 C762.623455,99.792247 763.744677,97.8518384 764.865899,95.9114298 C765.42651,95.038246 765.762876,94.0680417 766.43561,93.2918782 C767.556831,91.9335922 768.678053,90.3812654 770.135642,89.2170202 C772.153841,87.6646934 774.284163,86.1123665 775.965996,84.0749375 C776.078118,83.9779171 776.19024,83.8808966 776.302362,83.7838762 C777.19934,83.2987741 777.647829,82.4255902 778.096318,81.5524063 C778.320562,81.1643246 778.544806,80.6792225 778.881173,80.4851816 C780.338761,79.5149773 780.78725,77.9626505 781.572105,76.7013849 C781.79635,76.3133032 781.908472,75.9252215 782.132716,75.6341602 C782.917572,74.5669355 783.141816,73.4026903 783.253938,72.1414247 C783.366061,70.6861183 782.132716,69.6188936 780.563006,70.0069753 C779.666028,70.2010162 778.769051,70.5890979 778.096318,71.0742 C776.638729,72.2384452 775.181141,73.5967312 773.947796,74.9550172 C772.714452,76.3133032 771.929597,78.0596709 770.584131,79.4179569 C769.126542,80.8732633 768.453809,82.6196311 767.556831,84.3659988 C766.99622,85.5302439 766.659854,86.7915095 766.547732,88.0527751 C766.43561,89.3140407 765.874999,90.1872245 765.202265,91.2544492 C762.735577,95.038246 760.493133,98.9190631 758.699178,103.090942 C758.250689,104.158166 757.802201,105.225391 757.24159,106.292616 C756.680979,105.419432 755.896123,104.546248 756.23249,103.576044 C756.568857,102.70286 756.23249,102.120737 755.784001,101.441594 C755.447635,100.859472 755.22339,100.083308 754.999146,99.4041653 C754.887024,98.9190631 754.774902,98.433961 754.662779,97.9488588 C754.102168,96.396532 753.429435,94.8442051 752.980946,93.1948578 C751.859725,89.2170202 750.962747,85.2391826 749.953647,81.2613451 C749.729403,80.3881612 750.065769,80.0000795 750.738503,79.5149773 C751.971847,78.6417935 753.205191,77.7686096 754.438535,76.8954258 C755.335512,76.3133032 756.120368,75.5371397 757.129468,75.3430989 C759.708278,74.9550172 761.390111,73.4026903 762.847699,71.753343 C764.641654,69.9099549 765.762876,67.5814646 766.547732,65.2529743 C766.99622,63.8946883 765.650754,61.566198 764.305288,61.6632184 C762.959822,61.6632184 761.726477,62.0513001 760.717378,63.2155453 C758.474934,65.9321173 757.129468,69.036771 756.008246,72.2384452 C755.559757,73.5967312 754.774902,74.3728946 753.65368,75.0520376 C753.205191,75.3430989 752.532458,75.6341602 752.196091,76.1192623 C751.63548,76.8954258 750.738503,76.9924462 749.729403,77.3805279 C748.832425,74.469915 748.608181,71.5593022 748.608181,68.6486893 L748.608181,66.9023216 C748.496059,64.961913 748.383937,62.924484 748.159692,60.887055 C748.04757,60.3049324 748.159692,59.8198303 748.832425,59.528769 C749.729403,59.1406873 750.738503,58.7526056 751.747602,58.4615443 C754.438535,57.7824013 756.23249,56.3270948 757.017345,53.9015841 C757.465834,52.5432981 756.456734,51.4760734 754.999146,51.6701142 C753.990046,51.7671347 752.980946,52.058196 752.308213,52.8343594 C751.523358,53.8045637 750.738503,54.6777475 749.953647,55.6479518 C749.617281,55.9390131 749.280914,56.2300744 748.832425,56.812197 C748.608181,56.133054 748.496059,55.8419927 748.496059,55.5509314 C748.608181,54.774768 748.832425,53.9986045 748.832425,53.2224411 C748.944548,51.7671347 749.280914,50.5058691 750.177892,49.2446035 C751.63548,47.3041949 752.420336,44.9757047 753.429435,42.8412552 C753.65368,42.3561531 753.65368,41.7740305 753.65368,41.1919079 C753.65368,40.3187241 752.64458,39.2514993 751.747602,39.0574585 C750.850625,38.8634176 749.953647,39.1544789 749.505159,40.0276628 C748.944548,41.0948875 748.04757,42.1621122 747.823326,43.3263574 C747.262715,45.8488885 747.03847,48.4684401 746.702104,51.0879917 C746.589982,52.058196 746.589982,53.1254207 746.029371,54.4837067 C745.020271,52.2522368 744.571782,49.9237465 741.992972,49.0505627 C740.647505,49.8267261 740.311139,50.8939508 740.759628,52.1552164 C740.87175,52.4462777 740.983872,52.8343594 741.095994,53.1254207 C741.768727,54.6777475 742.553583,56.133054 743.226316,57.5883604 C743.562682,58.3645238 744.123293,59.1406873 745.020271,59.528769 C745.356637,59.7228098 745.805126,60.1108916 745.805126,60.4989733 C746.029371,62.0513001 746.029371,63.5066066 746.141493,64.961913 C746.253615,67.2904033 746.253615,69.715914 746.477859,72.0444043 C746.814226,75.3430989 746.926348,78.6417935 747.935448,81.8434676 C748.04757,82.0375085 748.04757,82.2315493 748.04757,82.4255902 C747.03847,81.9404881 747.150592,81.9404881 746.702104,81.0673042 C746.141493,80.0000795 745.46876,78.9328548 744.796026,77.9626505 C744.347538,77.2835075 743.786927,76.7013849 743.338438,76.0222419 C742.105094,74.3728946 740.983872,72.6265269 739.750528,70.9771796 C739.638406,70.8801592 739.638406,70.8801592 739.526283,70.7831387 C738.517184,70.1039957 738.405061,69.2308119 738.405061,68.1635872 C738.405061,65.641056 737.732328,63.2155453 736.050495,61.1781163 C735.26564,60.1108916 734.25654,59.4317486 732.911074,59.2377077 C731.229241,59.0436668 730.220141,59.528769 729.65953,60.9840754 C728.762553,63.0215044 728.874675,65.0589334 729.435286,67.0963624 C729.883775,68.9397506 731.004997,70.5890979 732.574707,71.8503635 C734.480785,73.4026903 735.602007,73.9848129 737.732328,72.6265269 L738.292939,72.6265269 C739.638406,73.9848129 741.095994,75.4401193 742.105094,77.2835075 C742.44146,77.7686096 742.665705,78.3507322 743.002071,78.7388139 C744.571782,80.4851816 745.356637,82.5226106 746.702104,84.3659988 C747.711203,85.7242848 748.159692,87.3736321 748.832425,88.8289385 C749.05667,89.3140407 749.280914,89.8961632 749.617281,90.0902041 C750.402136,90.4782858 750.402136,91.1574288 750.62638,91.8365718 C750.962747,92.8067761 751.186991,93.8740008 751.523358,94.8442051 C751.859725,96.0084502 752.532458,97.075675 752.868824,98.1428997 C753.65368,100.47139 753.765802,102.896901 754.438535,105.225391 C754.999146,107.553881 754.774902,110.076412 755.784001,112.404903 C755.896123,112.792984 755.896123,113.084046 755.896123,113.472127 C755.896123,114.927434 756.008246,116.38274 756.008246,117.838047 L756.008246,126.375844 Z" id="Combined-Shape" fill="#8CA35F"></path>
            </g>
        </g>
    </g>
</svg>